<svg width="515" height="336" xmlns="http://www.w3.org/2000/svg" xmlns:xlink="http://www.w3.org/1999/xlink" xml:space="preserve" overflow="hidden"><defs><clipPath id="clip0"><rect x="2376" y="414" width="515" height="336"/></clipPath></defs><g clip-path="url(#clip0)" transform="translate(-2376 -414)"><path d="M2376 598.37C2376 590.986 2381.99 585 2389.37 585L2531.63 585C2539.01 585 2545 590.986 2545 598.37L2545 736.63C2545 744.015 2539.01 750 2531.63 750L2389.37 750C2381.99 750 2376 744.015 2376 736.63Z" fill="#5F605E" fill-rule="evenodd"/><path d="M2550 597.451C2550 590.022 2556.02 584 2563.45 584L2705.55 584C2712.98 584 2719 590.022 2719 597.451L2719 736.549C2719 743.978 2712.98 750 2705.55 750L2563.45 750C2556.02 750 2550 743.978 2550 736.549Z" fill="#734CDD" fill-rule="evenodd"/><path d="M2722 597.451C2722 590.022 2728.02 584 2735.45 584L2877.55 584C2884.98 584 2891 590.022 2891 597.451L2891 736.549C2891 743.978 2884.98 750 2877.55 750L2735.45 750C2728.02 750 2722 743.978 2722 736.549Z" fill="#5F605E" fill-rule="evenodd"/><path d="M2722 427.37C2722 419.986 2727.99 414 2735.37 414L2877.63 414C2885.01 414 2891 419.986 2891 427.37L2891 565.63C2891 573.014 2885.01 579 2877.63 579L2735.37 579C2727.99 579 2722 573.014 2722 565.63Z" fill="#734CDD" fill-rule="evenodd"/><path d="M2550 427.37C2550 419.986 2555.99 414 2563.37 414L2705.63 414C2713.01 414 2719 419.986 2719 427.37L2719 565.63C2719 573.014 2713.01 579 2705.63 579L2563.37 579C2555.99 579 2550 573.014 2550 565.63Z" fill="#5F605E" fill-rule="evenodd"/><path d="M2376 427.37C2376 419.986 2381.99 414 2389.37 414L2531.63 414C2539.01 414 2545 419.986 2545 427.37L2545 565.63C2545 573.014 2539.01 579 2531.63 579L2389.37 579C2381.99 579 2376 573.014 2376 565.63Z" fill="#5F605E" fill-rule="evenodd"/><path d="M2855.51 671.785 2845.37 654.53 2845.37 653.95C2845.98 638.057 2837.68 623.119 2823.76 615.09 2809.85 606.97 2792.55 606.97 2778.64 615.09 2764.7 623.094 2756.38 638.048 2757.04 653.95 2756.98 667.587 2763.4 680.463 2774.38 688.75L2774.38 725 2820.82 725 2820.82 707.745 2828.02 707.745C2832.67 707.776 2837.12 705.944 2840.37 702.67 2843.58 699.411 2845.38 695.039 2845.37 690.49L2845.37 681.79 2851.83 681.79C2855.67 681.5 2859.05 677.15 2855.51 671.785ZM2797.22 666.208C2800.1 665.773 2801.59 669.324 2799.81 671.698L2799.55 672.029C2797.66 674.311 2793.73 673.833 2793.46 670.98 2793.29 669.31 2791.07 667.592 2790.05 668.889L2783.53 677.15 2777.56 672.564C2776.24 671.549 2777.98 669.361 2779.68 669.2 2782.57 668.927 2783.06 665.056 2780.74 663.187L2780.4 662.929C2778 661.171 2774.4 662.65 2774.84 665.486 2775.1 667.144 2773.37 669.349 2772.06 668.339L2766.42 664.009 2772.97 655.711C2773.99 654.413 2771.75 652.709 2770.07 652.964 2767.2 653.399 2765.7 649.847 2767.48 647.475L2767.74 647.144C2769.64 644.862 2773.56 645.339 2773.84 648.192 2774 649.861 2776.22 651.579 2777.25 650.283L2783.76 642.018 2789.37 646.322C2790.68 647.337 2788.94 649.523 2787.25 649.683 2784.35 649.957 2783.87 653.828 2786.19 655.697L2786.52 655.956C2788.93 657.713 2792.53 656.229 2792.09 653.396 2791.83 651.739 2793.55 649.532 2794.87 650.546L2800.88 655.158 2794.33 663.462C2793.31 664.758 2795.54 666.464 2797.22 666.208ZM2819.51 642.188C2818.39 643.046 2816.92 641.166 2817.14 639.753 2817.52 637.336 2814.38 636.128 2812.33 637.622L2812.04 637.842C2810.06 639.437 2810.55 642.679 2813.01 642.917 2814.45 643.062 2815.94 644.927 2814.82 645.785L2810 649.471 2804.43 642.391C2803.56 641.284 2801.66 642.748 2801.52 644.17 2801.29 646.604 2798 647.08 2796.38 645.128L2796.15 644.844C2794.64 642.814 2795.86 639.721 2798.31 640.095 2799.75 640.314 2801.65 638.864 2800.78 637.758L2795.23 630.71 2800.01 627.047C2801.14 626.187 2802.61 628.062 2802.39 629.48 2802 631.899 2805.15 633.105 2807.2 631.611L2807.49 631.392C2809.47 629.797 2808.98 626.554 2806.52 626.318 2805.08 626.18 2803.59 624.312 2804.72 623.449L2809.84 619.523 2815.42 626.603C2816.29 627.71 2818.18 626.246 2818.32 624.824 2818.56 622.388 2821.85 621.914 2823.47 623.866L2823.69 624.147C2825.2 626.177 2823.98 629.27 2821.53 628.896 2820.1 628.677 2818.19 630.127 2819.06 631.233L2824.61 638.29Z" fill="#FFFFFF" fill-rule="evenodd"/><path d="M2519.52 492 2445 492 2445 531.273C2445.01 534.883 2447.91 537.807 2451.48 537.818L2516.28 537.818 2516.28 546 2526 546 2526 498.545C2525.99 494.935 2523.09 492.011 2519.52 492Z" fill="#FFFFFF" fill-rule="evenodd"/><path d="M2407.77 479.813C2407.82 477.204 2405.71 475.049 2403.06 475.001 2403 475 2402.95 475 2402.89 475.001 2400.24 474.953 2398.05 477.029 2398 479.638 2398 479.697 2398 479.755 2398 479.813L2398 552 2407.77 552 2407.77 535.959 2455 535.959 2455 519.917 2407.77 500.667Z" fill="#FFFFFF" fill-rule="evenodd"/><path d="M2440.5 469.5C2440.5 475.023 2436.02 479.5 2430.5 479.5 2424.98 479.5 2420.5 475.023 2420.5 469.5 2420.5 463.977 2424.98 459.5 2430.5 459.5 2436.02 459.5 2440.5 463.977 2440.5 469.5Z" stroke="#FFFFFF" stroke-width="4.58333" stroke-miterlimit="8" fill="#FFFFFF" fill-rule="evenodd"/><path d="M2430.5 506.423 2455.5 516.5 2455.5 499.02 2452.31 497.729C2443.8 494.332 2434.06 498.216 2430.5 506.423Z" stroke="#FFFFFF" stroke-width="4.58333" stroke-miterlimit="8" fill="#FFFFFF" fill-rule="evenodd"/><path d="M2683 457.8C2683 443.61 2676.05 432 2661.98 432 2647.92 432 2648.4 438.45 2634.5 438.45 2620.6 438.45 2621.08 432 2607.02 432 2592.95 432 2586 443.61 2586 457.8 2586 471.99 2597.32 486.019 2597.32 498.113 2597.32 509.561 2595.7 519.236 2595.7 527.137 2595.7 535.039 2595.54 561 2607.02 561 2618.49 561 2618.33 537.458 2618.33 527.137 2618.33 516.818 2619.63 501.338 2634.5 501.338 2649.37 501.338 2650.67 516.818 2650.67 527.137 2650.67 537.458 2650.5 561 2661.98 561 2673.46 561 2673.3 535.039 2673.3 527.137 2673.3 519.236 2671.68 509.561 2671.68 498.113 2671.68 486.019 2683 471.99 2683 457.8Z" fill="#FFFFFF" fill-rule="evenodd"/><path d="M2430 702.5C2430 709.404 2424.4 715 2417.5 715 2410.6 715 2405 709.404 2405 702.5 2405 695.596 2410.6 690 2417.5 690 2424.4 690 2430 695.596 2430 702.5Z" stroke="#FFFFFF" stroke-width="2.29167" stroke-miterlimit="8" fill="#FFFFFF" fill-rule="evenodd"/><path d="M2515 702.5C2515 709.404 2509.4 715 2502.5 715 2495.6 715 2490 709.404 2490 702.5 2490 695.596 2495.6 690 2502.5 690 2509.4 690 2515 695.596 2515 702.5Z" stroke="#FFFFFF" stroke-width="2.29167" stroke-miterlimit="8" fill="#FFFFFF" fill-rule="evenodd"/><path d="M2529.14 676.509 2519.67 669.418C2518.42 668.501 2517.54 667.186 2517.16 665.696L2513.59 653.464C2511.77 647.418 2506.19 643.251 2499.82 643.182L2496.25 643.182 2496.25 634.318C2496.25 631.381 2493.85 629 2490.89 629L2487.31 629C2484.35 629 2481.95 631.381 2481.95 634.318L2481.95 643.182 2481.95 643.182 2481.95 639.636C2481.95 635.72 2478.75 632.546 2474.8 632.546L2396.15 632.546C2392.2 632.546 2389 635.72 2389 639.636L2389 699.909C2389 703.826 2392.2 707 2396.15 707L2399.72 707C2399.72 697.21 2407.73 689.273 2417.6 689.273 2427.47 689.273 2435.48 697.21 2435.48 707L2489.1 707C2489.1 697.21 2497.1 689.273 2506.98 689.273 2516.85 689.273 2524.85 697.21 2524.85 707 2528.8 707 2532 703.826 2532 699.909L2532 682.182C2532 679.95 2530.94 677.848 2529.14 676.509ZM2460.95 669.418 2455.58 678.636 2446.2 673.318 2446.2 683.955 2435.48 683.955 2435.48 673.212 2426.09 678.53 2420.73 669.312 2430.11 663.994 2420.73 658.676 2426.09 649.457 2435.48 654.776 2435.48 644.033 2446.2 644.033 2446.2 654.793 2455.58 649.475 2460.95 658.693 2451.56 664.011ZM2489.1 668 2489.1 650.273 2499.82 650.273C2503.01 650.229 2505.82 652.352 2506.62 655.414L2510.19 667.646C2510.19 667.823 2510.37 667.823 2510.37 668Z" fill="#FFFFFF" fill-rule="evenodd"/><path d="M2790.5 495.5 2790.5 461.882C2790.5 453.665 2797.93 446.941 2807 446.941 2816.07 446.941 2823.5 453.665 2823.5 461.882L2823.5 495.5 2790.5 495.5ZM2840 529.118 2840 461.882C2840 445.447 2825.15 432 2807 432 2788.85 432 2774 445.447 2774 461.882L2774 529.118C2774 545.553 2788.85 559 2807 559 2825.15 559 2840 545.553 2840 529.118Z" stroke="#FFFFFF" stroke-width="2.29167" stroke-miterlimit="8" fill="#BAC4BC" fill-rule="evenodd"/><path d="M2783 502 2783 473.5C2783 457.76 2794.19 445 2808 445 2821.81 445 2833 457.76 2833 473.5L2833 502Z" stroke="#FFFFFF" stroke-width="2.29167" stroke-linejoin="round" stroke-miterlimit="10" fill="#FFFFFF" fill-rule="evenodd"/><path d="M2668 619C2668 625.075 2663.07 630 2657 630 2650.92 630 2646 625.075 2646 619 2646 612.925 2650.92 608 2657 608 2663.07 608 2668 612.925 2668 619Z" fill="#FFFFFF" fill-rule="evenodd"/><path d="M2684.05 633.754C2681.27 632.377 2677.94 633.341 2676.55 636.094L2671.68 645.181 2650.27 631.826C2649.43 631.276 2648.46 631 2647.35 631L2623.71 631C2621.63 631 2619.82 632.102 2618.84 633.892L2609.81 650.413C2608.28 653.029 2609.39 656.471 2612.03 657.848 2612.87 658.261 2613.84 658.536 2614.67 658.536 2616.62 658.536 2618.57 657.435 2619.54 655.645L2627.05 642.015 2635.25 642.015 2610.64 687.449 2587.56 687.449C2584.5 687.449 2582 689.928 2582 692.957 2582 695.985 2584.5 698.464 2587.56 698.464L2613.98 698.464C2616.06 698.464 2617.87 697.362 2618.84 695.573L2628.58 677.812 2644.57 692.543 2643.32 720.217C2643.04 723.246 2645.4 725.862 2648.46 726 2648.6 726 2648.6 726 2648.74 726 2651.66 726 2654.16 723.659 2654.3 720.768L2655.69 690.478C2655.83 688.826 2655.13 687.312 2653.88 686.21L2640.4 673.819 2654.58 647.66 2670.71 657.71C2671.96 658.536 2673.63 658.812 2675.16 658.399 2676.68 657.986 2677.94 657.022 2678.63 655.645L2686.28 641.189C2687.81 638.573 2686.83 635.268 2684.05 633.754Z" fill="#FFFFFF" fill-rule="evenodd"/></g></svg>