<svg width="510" height="347" xmlns="http://www.w3.org/2000/svg" xmlns:xlink="http://www.w3.org/1999/xlink" xml:space="preserve" overflow="hidden"><defs><clipPath id="clip0"><rect x="2371" y="894" width="510" height="347"/></clipPath></defs><g clip-path="url(#clip0)" transform="translate(-2371 -894)"><path d="M2371 1083.53C2371 1076.06 2377.06 1070 2384.53 1070L2524.47 1070C2531.94 1070 2538 1076.06 2538 1083.53L2538 1227.47C2538 1234.94 2531.94 1241 2524.47 1241L2384.53 1241C2377.06 1241 2371 1234.94 2371 1227.47Z" fill="#5F605E" fill-rule="evenodd"/><path d="M2543 1083.53C2543 1076.06 2549.06 1070 2556.53 1070L2696.47 1070C2703.94 1070 2710 1076.06 2710 1083.53L2710 1227.47C2710 1234.94 2703.94 1241 2696.47 1241L2556.53 1241C2549.06 1241 2543 1234.94 2543 1227.47Z" fill="#734CDD" fill-rule="evenodd"/><path d="M2713 1083.61C2713 1076.09 2719.09 1070 2726.61 1070L2867.39 1070C2874.91 1070 2881 1076.09 2881 1083.61L2881 1227.39C2881 1234.91 2874.91 1241 2867.39 1241L2726.61 1241C2719.09 1241 2713 1234.91 2713 1227.39Z" fill="#5F605E" fill-rule="evenodd"/><path d="M2713 907.613C2713 900.095 2719.09 894 2726.61 894L2867.39 894C2874.91 894 2881 900.095 2881 907.613L2881 1051.39C2881 1058.91 2874.91 1065 2867.39 1065L2726.61 1065C2719.09 1065 2713 1058.91 2713 1051.39Z" fill="#734CDD" fill-rule="evenodd"/><path d="M2543 907.532C2543 900.059 2549.06 894 2556.53 894L2696.47 894C2703.94 894 2710 900.059 2710 907.532L2710 1051.47C2710 1058.94 2703.94 1065 2696.47 1065L2556.53 1065C2549.06 1065 2543 1058.94 2543 1051.47Z" fill="#734CDD" fill-rule="evenodd"/><path d="M2371 907.532C2371 900.059 2377.06 894 2384.53 894L2524.47 894C2531.94 894 2538 900.059 2538 907.532L2538 1051.47C2538 1058.94 2531.94 1065 2524.47 1065L2384.53 1065C2377.06 1065 2371 1058.94 2371 1051.47Z" fill="#5F605E" fill-rule="evenodd"/><path d="M2844.54 1160.49 2834.6 1142.49 2834.6 1141.89C2835.2 1125.31 2827.06 1109.73 2813.43 1101.35 2799.79 1092.88 2782.84 1092.88 2769.21 1101.35 2755.54 1109.7 2747.4 1125.3 2748.03 1141.89 2747.98 1156.11 2754.27 1169.54 2765.03 1178.19L2765.03 1216 2810.54 1216 2810.54 1198 2817.6 1198C2822.15 1198.03 2826.52 1196.12 2829.7 1192.71 2832.85 1189.31 2834.61 1184.75 2834.6 1180L2834.6 1170.93 2840.94 1170.93C2844.69 1170.62 2848.01 1166.09 2844.54 1160.49ZM2787.41 1154.67C2790.23 1154.22 2791.7 1157.92 2789.96 1160.4L2789.7 1160.75C2787.84 1163.13 2784 1162.63 2783.73 1159.65 2783.57 1157.91 2781.39 1156.12 2780.39 1157.47L2774 1166.09 2768.15 1161.3C2766.86 1160.24 2768.57 1157.96 2770.22 1157.79 2773.06 1157.51 2773.54 1153.47 2771.26 1151.52L2770.94 1151.25C2768.58 1149.42 2765.05 1150.96 2765.49 1153.92 2765.74 1155.65 2764.05 1157.95 2762.76 1156.9L2757.23 1152.38 2763.65 1143.72C2764.65 1142.37 2762.46 1140.59 2760.81 1140.86 2758 1141.31 2756.53 1137.61 2758.27 1135.13L2758.53 1134.79C2760.39 1132.41 2764.23 1132.9 2764.5 1135.88 2764.66 1137.62 2766.84 1139.41 2767.84 1138.06L2774.23 1129.44 2779.72 1133.93C2781.01 1134.99 2779.3 1137.27 2777.65 1137.44 2774.81 1137.72 2774.33 1141.76 2776.6 1143.71L2776.93 1143.98C2779.29 1145.81 2782.82 1144.27 2782.39 1141.31 2782.13 1139.58 2783.82 1137.28 2785.11 1138.34L2791 1143.15 2784.58 1151.81C2783.58 1153.16 2785.77 1154.94 2787.41 1154.67ZM2809.26 1129.62C2808.16 1130.51 2806.72 1128.55 2806.94 1127.08 2807.31 1124.56 2804.23 1123.3 2802.22 1124.86L2801.94 1125.09C2800 1126.75 2800.48 1130.13 2802.89 1130.38 2804.31 1130.53 2805.76 1132.48 2804.66 1133.37L2799.94 1137.22 2794.48 1129.83C2793.63 1128.68 2791.77 1130.2 2791.63 1131.69 2791.4 1134.23 2788.18 1134.72 2786.59 1132.69L2786.37 1132.39C2784.89 1130.27 2786.08 1127.05 2788.49 1127.44 2789.89 1127.66 2791.76 1126.15 2790.9 1125L2785.47 1117.65 2790.15 1113.82C2791.25 1112.93 2792.7 1114.88 2792.48 1116.36 2792.1 1118.89 2795.18 1120.14 2797.19 1118.59L2797.48 1118.36C2799.42 1116.69 2798.94 1113.31 2796.53 1113.06 2795.11 1112.92 2793.66 1110.97 2794.76 1110.07L2799.79 1105.98 2805.25 1113.36C2806.1 1114.52 2807.96 1112.99 2808.1 1111.51 2808.33 1108.96 2811.55 1108.47 2813.14 1110.51L2813.35 1110.8C2814.84 1112.92 2813.64 1116.14 2811.24 1115.75 2809.84 1115.52 2807.97 1117.04 2808.82 1118.19L2814.25 1125.55Z" fill="#FFFFFF" fill-rule="evenodd"/><path d="M2513.52 975 2439 975 2439 1015C2439.01 1018.68 2441.91 1021.66 2445.48 1021.67L2510.28 1021.67 2510.28 1030 2520 1030 2520 981.667C2519.99 977.989 2517.09 975.011 2513.52 975Z" fill="#FFFFFF" fill-rule="evenodd"/><path d="M2402.6 961.001C2402.65 958.289 2400.58 956.051 2397.97 956.001 2397.92 956 2397.86 956 2397.8 956.001 2395.2 955.951 2393.05 958.108 2393 960.819 2393 960.88 2393 960.94 2393 961.001L2393 1036 2402.6 1036 2402.6 1019.33 2449 1019.33 2449 1002.67 2402.6 982.667Z" fill="#FFFFFF" fill-rule="evenodd"/><path d="M2434.5 951.5C2434.5 957.023 2430.02 961.5 2424.5 961.5 2418.98 961.5 2414.5 957.023 2414.5 951.5 2414.5 945.977 2418.98 941.5 2424.5 941.5 2430.02 941.5 2434.5 945.977 2434.5 951.5Z" stroke="#FFFFFF" stroke-width="4.58333" stroke-miterlimit="8" fill="#FFFFFF" fill-rule="evenodd"/><path d="M2424.5 988.919 2448.5 999.5 2448.5 981.146 2445.44 979.791C2437.27 976.224 2427.92 980.302 2424.5 988.919Z" stroke="#FFFFFF" stroke-width="4.58333" stroke-miterlimit="8" fill="#FFFFFF" fill-rule="evenodd"/><path d="M2675 938.8C2675 924.06 2668.05 912 2653.98 912 2639.92 912 2640.4 918.7 2626.5 918.7 2612.6 918.7 2613.08 912 2599.02 912 2584.95 912 2578 924.06 2578 938.8 2578 953.54 2589.32 968.112 2589.32 980.675 2589.32 992.568 2587.7 1002.62 2587.7 1010.82 2587.7 1019.03 2587.54 1046 2599.02 1046 2610.5 1046 2610.33 1021.55 2610.33 1010.82 2610.33 1000.11 2611.63 984.025 2626.5 984.025 2641.37 984.025 2642.67 1000.11 2642.67 1010.82 2642.67 1021.55 2642.51 1046 2653.98 1046 2665.46 1046 2665.3 1019.03 2665.3 1010.82 2665.3 1002.62 2663.68 992.568 2663.68 980.675 2663.68 968.112 2675 953.54 2675 938.8Z" fill="#FFFFFF" fill-rule="evenodd"/><path d="M2424 1192C2424 1199.18 2418.63 1205 2412 1205 2405.37 1205 2400 1199.18 2400 1192 2400 1184.82 2405.37 1179 2412 1179 2418.63 1179 2424 1184.82 2424 1192Z" stroke="#FFFFFF" stroke-width="2.29167" stroke-miterlimit="8" fill="#FFFFFF" fill-rule="evenodd"/><path d="M2508 1192C2508 1199.18 2502.4 1205 2495.5 1205 2488.6 1205 2483 1199.18 2483 1192 2483 1184.82 2488.6 1179 2495.5 1179 2502.4 1179 2508 1184.82 2508 1192Z" stroke="#FFFFFF" stroke-width="2.29167" stroke-miterlimit="8" fill="#FFFFFF" fill-rule="evenodd"/><path d="M2522.18 1165.34 2512.84 1157.97C2511.61 1157.02 2510.74 1155.65 2510.37 1154.11L2506.85 1141.4C2505.05 1135.13 2499.55 1130.8 2493.27 1130.73L2489.75 1130.73 2489.75 1121.52C2489.75 1118.47 2487.38 1116 2484.46 1116L2480.94 1116C2478.02 1116 2475.65 1118.47 2475.65 1121.52L2475.65 1130.73 2475.65 1130.73 2475.65 1127.05C2475.65 1122.98 2472.49 1119.68 2468.6 1119.68L2391.05 1119.68C2387.16 1119.68 2384 1122.98 2384 1127.05L2384 1189.64C2384 1193.7 2387.16 1197 2391.05 1197L2394.57 1197C2394.57 1186.83 2402.47 1178.59 2412.2 1178.59 2421.93 1178.59 2429.83 1186.83 2429.83 1197L2482.7 1197C2482.7 1186.83 2490.59 1178.59 2500.32 1178.59 2510.06 1178.59 2517.95 1186.83 2517.95 1197 2521.84 1197 2525 1193.7 2525 1189.64L2525 1171.23C2525 1168.91 2523.96 1166.73 2522.18 1165.34ZM2454.94 1157.97 2449.65 1167.55 2440.4 1162.02 2440.4 1173.07 2429.83 1173.07 2429.83 1161.91 2420.57 1167.44 2415.28 1157.86 2424.54 1152.34 2415.28 1146.82 2420.57 1137.24 2429.83 1142.77 2429.83 1131.61 2440.4 1131.61 2440.4 1142.79 2449.65 1137.26 2454.94 1146.84 2445.69 1152.36ZM2482.7 1156.5 2482.7 1138.09 2493.27 1138.09C2496.42 1138.05 2499.19 1140.25 2499.97 1143.43L2503.5 1156.13C2503.5 1156.32 2503.67 1156.32 2503.67 1156.5Z" fill="#FFFFFF" fill-rule="evenodd"/><path d="M2780.5 977.5 2780.5 942.823C2780.5 934.347 2787.93 927.412 2797 927.412 2806.07 927.412 2813.5 934.347 2813.5 942.823L2813.5 977.5 2780.5 977.5ZM2830 1012.18 2830 942.823C2830 925.87 2815.15 912 2797 912 2778.85 912 2764 925.87 2764 942.823L2764 1012.18C2764 1029.13 2778.85 1043 2797 1043 2815.15 1043 2830 1029.13 2830 1012.18Z" stroke="#FFFFFF" stroke-width="2.29167" stroke-miterlimit="8" fill="#BAC4BC" fill-rule="evenodd"/><path d="M2773 985 2773 955.5C2773 939.208 2784.19 926 2798 926 2811.81 926 2823 939.208 2823 955.5L2823 985Z" stroke="#FFFFFF" stroke-width="2.29167" stroke-linejoin="round" stroke-miterlimit="10" fill="#FFFFFF" fill-rule="evenodd"/><path d="M2660 1105.5C2660 1111.85 2655.08 1117 2649 1117 2642.93 1117 2638 1111.85 2638 1105.5 2638 1099.15 2642.93 1094 2649 1094 2655.08 1094 2660 1099.15 2660 1105.5Z" fill="#FFFFFF" fill-rule="evenodd"/><path d="M2675.11 1121.84C2672.38 1120.42 2669.11 1121.41 2667.74 1124.26L2662.97 1133.63 2641.97 1119.85C2641.15 1119.28 2640.19 1119 2639.1 1119L2615.92 1119C2613.87 1119 2612.1 1120.14 2611.14 1121.98L2602.28 1139.03C2600.78 1141.72 2601.87 1145.28 2604.46 1146.7 2605.28 1147.12 2606.23 1147.41 2607.05 1147.41 2608.96 1147.41 2610.87 1146.27 2611.82 1144.42L2619.19 1130.36 2627.24 1130.36 2603.1 1177.23 2580.46 1177.23C2577.46 1177.23 2575 1179.79 2575 1182.91 2575 1186.04 2577.46 1188.59 2580.46 1188.59L2606.37 1188.59C2608.42 1188.59 2610.19 1187.46 2611.14 1185.61L2620.69 1167.29 2636.38 1182.49 2635.15 1211.03C2634.87 1214.16 2637.19 1216.86 2640.19 1217 2640.33 1217 2640.33 1217 2640.47 1217 2643.33 1217 2645.79 1214.59 2645.92 1211.6L2647.29 1180.36C2647.42 1178.65 2646.74 1177.09 2645.51 1175.95L2632.28 1163.17 2646.2 1136.19 2662.02 1146.55C2663.24 1147.41 2664.88 1147.69 2666.38 1147.26 2667.88 1146.84 2669.11 1145.84 2669.79 1144.42L2677.29 1129.51C2678.79 1126.81 2677.84 1123.4 2675.11 1121.84Z" fill="#FFFFFF" fill-rule="evenodd"/></g></svg>