<svg width="510" height="348" xmlns="http://www.w3.org/2000/svg" xmlns:xlink="http://www.w3.org/1999/xlink" xml:space="preserve" overflow="hidden"><g transform="translate(-2356 -1331)"><path d="M2356 1521.53C2356 1514.06 2362.06 1508 2369.53 1508L2509.47 1508C2516.94 1508 2523 1514.06 2523 1521.53L2523 1665.47C2523 1672.94 2516.94 1679 2509.47 1679L2369.53 1679C2362.06 1679 2356 1672.94 2356 1665.47Z" fill="#5F605E" fill-rule="evenodd"/><path d="M2528 1520.53C2528 1513.06 2534.06 1507 2541.53 1507L2681.47 1507C2688.94 1507 2695 1513.06 2695 1520.53L2695 1665.47C2695 1672.94 2688.94 1679 2681.47 1679L2541.53 1679C2534.06 1679 2528 1672.94 2528 1665.47Z" fill="#734CDD" fill-rule="evenodd"/><path d="M2698 1520.61C2698 1513.09 2704.09 1507 2711.61 1507L2852.39 1507C2859.91 1507 2866 1513.09 2866 1520.61L2866 1665.39C2866 1672.91 2859.91 1679 2852.39 1679L2711.61 1679C2704.09 1679 2698 1672.91 2698 1665.39Z" fill="#734CDD" fill-rule="evenodd"/><path d="M2698 1344.61C2698 1337.09 2704.09 1331 2711.61 1331L2852.39 1331C2859.91 1331 2866 1337.09 2866 1344.61L2866 1488.39C2866 1495.91 2859.91 1502 2852.39 1502L2711.61 1502C2704.09 1502 2698 1495.91 2698 1488.39Z" fill="#5F605E" fill-rule="evenodd"/><path d="M2528 1344.53C2528 1337.06 2534.06 1331 2541.53 1331L2681.47 1331C2688.94 1331 2695 1337.06 2695 1344.53L2695 1488.47C2695 1495.94 2688.94 1502 2681.47 1502L2541.53 1502C2534.06 1502 2528 1495.94 2528 1488.47Z" fill="#734CDD" fill-rule="evenodd"/><path d="M2356 1344.53C2356 1337.06 2362.06 1331 2369.53 1331L2509.47 1331C2516.94 1331 2523 1337.06 2523 1344.53L2523 1488.47C2523 1495.94 2516.94 1502 2509.47 1502L2369.53 1502C2362.06 1502 2356 1495.94 2356 1488.47Z" fill="#5F605E" fill-rule="evenodd"/><path d="M2829.54 1597.95 2819.6 1580.1 2819.6 1579.5C2820.2 1563.06 2812.06 1547.61 2798.43 1539.3 2784.79 1530.9 2767.84 1530.9 2754.21 1539.3 2740.54 1547.58 2732.4 1563.05 2733.04 1579.5 2732.98 1593.61 2739.27 1606.93 2750.03 1615.5L2750.03 1653 2795.55 1653 2795.55 1635.15 2802.6 1635.15C2807.15 1635.18 2811.52 1633.29 2814.7 1629.9 2817.85 1626.53 2819.61 1622.01 2819.6 1617.3L2819.6 1608.3 2825.94 1608.3C2829.7 1608 2833.01 1603.5 2829.54 1597.95ZM2772.42 1592.18C2775.23 1591.73 2776.7 1595.4 2774.96 1597.86L2774.7 1598.2C2772.84 1600.56 2769 1600.07 2768.73 1597.12 2768.57 1595.39 2766.39 1593.61 2765.39 1594.95L2759 1603.5 2753.15 1598.76C2751.86 1597.71 2753.57 1595.44 2755.22 1595.28 2758.06 1594.99 2758.54 1590.99 2756.26 1589.06L2755.94 1588.79C2753.58 1586.97 2750.05 1588.5 2750.49 1591.43 2750.74 1593.15 2749.05 1595.43 2747.76 1594.38L2742.23 1589.91 2748.65 1581.32C2749.66 1579.98 2747.46 1578.22 2745.81 1578.48 2743 1578.93 2741.53 1575.26 2743.27 1572.8L2743.53 1572.46C2745.39 1570.1 2749.23 1570.59 2749.5 1573.54 2749.66 1575.27 2751.84 1577.05 2752.84 1575.71L2759.23 1567.16 2764.72 1571.61C2766.01 1572.66 2764.3 1574.92 2762.65 1575.09 2759.81 1575.37 2759.33 1579.37 2761.6 1581.31L2761.93 1581.57C2764.29 1583.39 2767.82 1581.86 2767.39 1578.93 2767.13 1577.21 2768.82 1574.93 2770.11 1575.98L2776 1580.75 2769.58 1589.34C2768.58 1590.68 2770.77 1592.45 2772.42 1592.18ZM2794.26 1567.33C2793.16 1568.22 2791.72 1566.27 2791.94 1564.81 2792.31 1562.31 2789.23 1561.06 2787.22 1562.61L2786.94 1562.84C2785 1564.49 2785.48 1567.84 2787.89 1568.09 2789.31 1568.24 2790.76 1570.17 2789.66 1571.05L2784.94 1574.87 2779.48 1567.54C2778.63 1566.4 2776.77 1567.91 2776.63 1569.38 2776.4 1571.9 2773.18 1572.39 2771.59 1570.37L2771.37 1570.08C2769.89 1567.98 2771.08 1564.78 2773.49 1565.17 2774.89 1565.39 2776.76 1563.89 2775.91 1562.75L2770.47 1555.46 2775.15 1551.67C2776.26 1550.78 2777.7 1552.72 2777.48 1554.19 2777.1 1556.69 2780.18 1557.94 2782.19 1556.39L2782.48 1556.16C2784.42 1554.51 2783.95 1551.16 2781.53 1550.91 2780.12 1550.77 2778.66 1548.84 2779.76 1547.95L2784.79 1543.89 2790.25 1551.21C2791.1 1552.35 2792.96 1550.84 2793.1 1549.37 2793.33 1546.85 2796.55 1546.36 2798.14 1548.38L2798.36 1548.67C2799.84 1550.77 2798.64 1553.97 2796.24 1553.58 2794.84 1553.36 2792.97 1554.86 2793.82 1556L2799.25 1563.3Z" fill="#FFFFFF" fill-rule="evenodd"/><path d="M2497.6 1412 2424 1412 2424 1452C2424.01 1455.68 2426.87 1458.66 2430.4 1458.67L2494.4 1458.67 2494.4 1467 2504 1467 2504 1418.67C2503.99 1414.99 2501.13 1412.01 2497.6 1412Z" fill="#FFFFFF" fill-rule="evenodd"/><path d="M2387.6 1399C2387.65 1396.29 2385.58 1394.05 2382.98 1394 2382.92 1394 2382.86 1394 2382.8 1394 2380.2 1393.95 2378.05 1396.11 2378 1398.82 2378 1398.88 2378 1398.94 2378 1399L2378 1474 2387.6 1474 2387.6 1457.33 2434 1457.33 2434 1440.67 2387.6 1420.67Z" fill="#FFFFFF" fill-rule="evenodd"/><path d="M2419.5 1388.5C2419.5 1394.02 2415.02 1398.5 2409.5 1398.5 2403.98 1398.5 2399.5 1394.02 2399.5 1388.5 2399.5 1382.98 2403.98 1378.5 2409.5 1378.5 2415.02 1378.5 2419.5 1382.98 2419.5 1388.5Z" stroke="#FFFFFF" stroke-width="4.58333" stroke-miterlimit="8" fill="#FFFFFF" fill-rule="evenodd"/><path d="M2409.5 1426.92 2433.5 1437.5 2433.5 1419.15 2430.44 1417.79C2422.27 1414.22 2412.92 1418.3 2409.5 1426.92Z" stroke="#FFFFFF" stroke-width="4.58333" stroke-miterlimit="8" fill="#FFFFFF" fill-rule="evenodd"/><path d="M2660 1376.6C2660 1361.97 2653.05 1350 2638.98 1350 2624.92 1350 2625.4 1356.65 2611.5 1356.65 2597.6 1356.65 2598.08 1350 2584.02 1350 2569.95 1350 2563 1361.97 2563 1376.6 2563 1391.23 2574.32 1405.69 2574.32 1418.16 2574.32 1429.97 2572.7 1439.94 2572.7 1448.09 2572.7 1456.23 2572.54 1483 2584.02 1483 2595.49 1483 2595.33 1458.73 2595.33 1448.09 2595.33 1437.45 2596.63 1421.49 2611.5 1421.49 2626.37 1421.49 2627.67 1437.45 2627.67 1448.09 2627.67 1458.73 2627.5 1483 2638.98 1483 2650.46 1483 2650.3 1456.23 2650.3 1448.09 2650.3 1439.94 2648.68 1429.97 2648.68 1418.16 2648.68 1405.69 2660 1391.23 2660 1376.6Z" fill="#FFFFFF" fill-rule="evenodd"/><path d="M2409 1630C2409 1637.18 2403.4 1643 2396.5 1643 2389.6 1643 2384 1637.18 2384 1630 2384 1622.82 2389.6 1617 2396.5 1617 2403.4 1617 2409 1622.82 2409 1630Z" stroke="#FFFFFF" stroke-width="2.29167" stroke-miterlimit="8" fill="#FFFFFF" fill-rule="evenodd"/><path d="M2493 1630C2493 1637.18 2487.4 1643 2480.5 1643 2473.6 1643 2468 1637.18 2468 1630 2468 1622.82 2473.6 1617 2480.5 1617 2487.4 1617 2493 1622.82 2493 1630Z" stroke="#FFFFFF" stroke-width="2.29167" stroke-miterlimit="8" fill="#FFFFFF" fill-rule="evenodd"/><path d="M2507.18 1602.73 2497.84 1595.45C2496.61 1594.51 2495.74 1593.17 2495.37 1591.64L2491.85 1579.09C2490.05 1572.89 2484.55 1568.62 2478.28 1568.55L2474.75 1568.55 2474.75 1559.45C2474.75 1556.44 2472.38 1554 2469.46 1554L2465.94 1554C2463.02 1554 2460.65 1556.44 2460.65 1559.45L2460.65 1568.55 2460.65 1568.55 2460.65 1564.91C2460.65 1560.89 2457.49 1557.64 2453.6 1557.64L2376.05 1557.64C2372.16 1557.64 2369 1560.89 2369 1564.91L2369 1626.73C2369 1630.74 2372.16 1634 2376.05 1634L2379.58 1634C2379.58 1623.96 2387.47 1615.82 2397.2 1615.82 2406.93 1615.82 2414.83 1623.96 2414.83 1634L2467.7 1634C2467.7 1623.96 2475.59 1615.82 2485.33 1615.82 2495.06 1615.82 2502.95 1623.96 2502.95 1634 2506.84 1634 2510 1630.74 2510 1626.73L2510 1608.55C2510 1606.26 2508.96 1604.1 2507.18 1602.73ZM2439.94 1595.45 2434.65 1604.91 2425.4 1599.45 2425.4 1610.36 2414.83 1610.36 2414.83 1599.35 2405.57 1604.8 2400.28 1595.35 2409.54 1589.89 2400.28 1584.44 2405.57 1574.98 2414.83 1580.44 2414.83 1569.42 2425.4 1569.42 2425.4 1580.45 2434.65 1575 2439.94 1584.45 2430.69 1589.91ZM2467.7 1594 2467.7 1575.82 2478.28 1575.82C2481.42 1575.77 2484.19 1577.95 2484.97 1581.09L2488.5 1593.64C2488.5 1593.82 2488.67 1593.82 2488.67 1594Z" fill="#FFFFFF" fill-rule="evenodd"/><path d="M2765.5 1415.5 2765.5 1380.82C2765.5 1372.35 2772.93 1365.41 2782 1365.41 2791.07 1365.41 2798.5 1372.35 2798.5 1380.82L2798.5 1415.5 2765.5 1415.5ZM2815 1450.18 2815 1380.82C2815 1363.87 2800.15 1350 2782 1350 2763.85 1350 2749 1363.87 2749 1380.82L2749 1450.18C2749 1467.13 2763.85 1481 2782 1481 2800.15 1481 2815 1467.13 2815 1450.18Z" stroke="#FFFFFF" stroke-width="2.29167" stroke-miterlimit="8" fill="#BAC4BC" fill-rule="evenodd"/><path d="M2758 1422 2758 1393C2758 1376.98 2768.97 1364 2782.5 1364 2796.03 1364 2807 1376.98 2807 1393L2807 1422Z" stroke="#FFFFFF" stroke-width="2.29167" stroke-linejoin="round" stroke-miterlimit="10" fill="#FFFFFF" fill-rule="evenodd"/><path d="M2645 1543.5C2645 1549.85 2640.08 1555 2634 1555 2627.93 1555 2623 1549.85 2623 1543.5 2623 1537.15 2627.93 1532 2634 1532 2640.08 1532 2645 1537.15 2645 1543.5Z" fill="#FFFFFF" fill-rule="evenodd"/><path d="M2660.11 1558.84C2657.38 1557.42 2654.11 1558.41 2652.74 1561.26L2647.97 1570.63 2626.97 1556.85C2626.15 1556.28 2625.19 1556 2624.1 1556L2600.92 1556C2598.87 1556 2597.1 1557.14 2596.14 1558.98L2587.28 1576.03C2585.78 1578.72 2586.87 1582.28 2589.46 1583.7 2590.28 1584.12 2591.23 1584.41 2592.05 1584.41 2593.96 1584.41 2595.87 1583.27 2596.82 1581.42L2604.19 1567.36 2612.24 1567.36 2588.1 1614.23 2565.46 1614.23C2562.46 1614.23 2560 1616.79 2560 1619.91 2560 1623.04 2562.46 1625.59 2565.46 1625.59L2591.37 1625.59C2593.42 1625.59 2595.19 1624.46 2596.14 1622.61L2605.69 1604.29 2621.38 1619.49 2620.15 1648.03C2619.87 1651.16 2622.19 1653.86 2625.19 1654 2625.33 1654 2625.33 1654 2625.47 1654 2628.33 1654 2630.79 1651.59 2630.92 1648.6L2632.29 1617.36C2632.42 1615.65 2631.74 1614.09 2630.51 1612.95L2617.28 1600.17 2631.2 1573.19 2647.02 1583.55C2648.24 1584.41 2649.88 1584.69 2651.38 1584.26 2652.88 1583.84 2654.11 1582.84 2654.79 1581.42L2662.29 1566.51C2663.79 1563.81 2662.84 1560.4 2660.11 1558.84Z" fill="#FFFFFF" fill-rule="evenodd"/></g></svg>