<svg width="509" height="348" xmlns="http://www.w3.org/2000/svg" xmlns:xlink="http://www.w3.org/1999/xlink" xml:space="preserve" overflow="hidden"><defs><clipPath id="clip0"><rect x="2962" y="408" width="509" height="348"/></clipPath></defs><g clip-path="url(#clip0)" transform="translate(-2962 -408)"><path d="M2962 598.532C2962 591.059 2968.06 585 2975.53 585L3115.47 585C3122.94 585 3129 591.059 3129 598.532L3129 742.468C3129 749.941 3122.94 756 3115.47 756L2975.53 756C2968.06 756 2962 749.941 2962 742.468Z" fill="#734CDD" fill-rule="evenodd"/><path d="M3134 597.532C3134 590.059 3140.06 584 3147.53 584L3287.47 584C3294.94 584 3301 590.059 3301 597.532L3301 742.468C3301 749.941 3294.94 756 3287.47 756L3147.53 756C3140.06 756 3134 749.941 3134 742.468Z" fill="#734CDD" fill-rule="evenodd"/><path d="M3304 597.532C3304 590.059 3310.06 584 3317.53 584L3457.47 584C3464.94 584 3471 590.059 3471 597.532L3471 742.468C3471 749.941 3464.94 756 3457.47 756L3317.53 756C3310.06 756 3304 749.941 3304 742.468Z" fill="#734CDD" fill-rule="evenodd"/><path d="M3304 421.532C3304 414.059 3310.06 408 3317.53 408L3457.47 408C3464.94 408 3471 414.059 3471 421.532L3471 565.468C3471 572.941 3464.94 579 3457.47 579L3317.53 579C3310.06 579 3304 572.941 3304 565.468Z" fill="#5F605E" fill-rule="evenodd"/><path d="M3134 421.532C3134 414.059 3140.06 408 3147.53 408L3287.47 408C3294.94 408 3301 414.059 3301 421.532L3301 565.468C3301 572.941 3294.94 579 3287.47 579L3147.53 579C3140.06 579 3134 572.941 3134 565.468Z" fill="#734CDD" fill-rule="evenodd"/><path d="M2962 421.532C2962 414.059 2968.06 408 2975.53 408L3115.47 408C3122.94 408 3129 414.059 3129 421.532L3129 565.468C3129 572.941 3122.94 579 3115.47 579L2975.53 579C2968.06 579 2962 572.941 2962 565.468Z" fill="#5F605E" fill-rule="evenodd"/><path d="M3435.52 674.95 3425.48 657.1 3425.48 656.5C3426.09 640.059 3417.87 624.606 3404.09 616.3 3390.32 607.9 3373.2 607.9 3359.42 616.3 3345.62 624.58 3337.39 640.05 3338.04 656.5 3337.98 670.607 3344.34 683.927 3355.2 692.5L3355.2 730 3401.18 730 3401.18 712.15 3408.31 712.15C3412.91 712.182 3417.32 710.287 3420.54 706.9 3423.72 703.528 3425.49 699.006 3425.48 694.3L3425.48 685.3 3431.88 685.3C3435.68 685 3439.03 680.5 3435.52 674.95ZM3377.82 669.181C3380.66 668.731 3382.15 672.405 3380.39 674.86L3380.13 675.202C3378.25 677.563 3374.36 677.068 3374.09 674.118 3373.93 672.39 3371.73 670.612 3370.72 671.955L3364.27 680.5 3358.35 675.756C3357.05 674.706 3358.78 672.442 3360.45 672.276 3363.32 671.994 3363.8 667.989 3361.5 666.055L3361.17 665.788C3358.79 663.97 3355.23 665.5 3355.66 668.434 3355.92 670.149 3354.21 672.43 3352.91 671.385L3347.33 666.906 3353.81 658.321C3354.82 656.979 3352.61 655.216 3350.94 655.48 3348.1 655.93 3346.61 652.255 3348.38 649.801L3348.64 649.459C3350.51 647.098 3354.4 647.592 3354.67 650.544 3354.83 652.27 3357.03 654.048 3358.05 652.707L3364.5 644.157 3370.04 648.609C3371.35 649.659 3369.62 651.921 3367.95 652.086 3365.08 652.369 3364.6 656.374 3366.89 658.308L3367.23 658.575C3369.61 660.393 3373.17 658.858 3372.74 655.927 3372.48 654.213 3374.18 651.93 3375.49 652.978L3381.44 657.75 3374.96 666.34C3373.94 667.681 3376.15 669.445 3377.82 669.181ZM3399.88 644.332C3398.77 645.22 3397.32 643.275 3397.54 641.814 3397.92 639.313 3394.81 638.064 3392.77 639.609L3392.49 639.837C3390.53 641.487 3391.01 644.841 3393.45 645.087 3394.88 645.237 3396.35 647.166 3395.24 648.054L3390.47 651.867 3384.96 644.542C3384.1 643.398 3382.22 644.911 3382.08 646.383 3381.84 648.901 3378.59 649.393 3376.99 647.374L3376.76 647.08C3375.27 644.98 3376.47 641.781 3378.9 642.168 3380.32 642.394 3382.2 640.894 3381.34 639.75L3375.85 632.458 3380.58 628.669C3381.7 627.78 3383.15 629.719 3382.93 631.186 3382.55 633.688 3385.66 634.936 3387.7 633.391L3387.99 633.165C3389.94 631.515 3389.46 628.159 3387.02 627.915 3385.6 627.772 3384.12 625.84 3385.24 624.948L3390.31 620.886 3395.83 628.21C3396.69 629.355 3398.57 627.841 3398.71 626.37 3398.95 623.85 3402.2 623.359 3403.8 625.378L3404.02 625.669C3405.52 627.769 3404.31 630.969 3401.88 630.582 3400.47 630.355 3398.58 631.855 3399.44 633L3404.93 640.3Z" fill="#FFFFFF" fill-rule="evenodd"/><path d="M3103.6 489 3030 489 3030 529C3030.01 532.678 3032.87 535.656 3036.4 535.667L3100.4 535.667 3100.4 544 3110 544 3110 495.667C3109.99 491.989 3107.13 489.011 3103.6 489Z" fill="#FFFFFF" fill-rule="evenodd"/><path d="M2993.6 476.001C2993.65 473.289 2991.58 471.051 2988.98 471.001 2988.92 471 2988.86 471 2988.8 471.001 2986.2 470.951 2984.05 473.108 2984 475.819 2984 475.88 2984 475.94 2984 476.001L2984 551 2993.6 551 2993.6 534.334 3040 534.334 3040 517.667 2993.6 497.667Z" fill="#FFFFFF" fill-rule="evenodd"/><path d="M3024.5 465.5C3024.5 471.023 3020.25 475.5 3015 475.5 3009.75 475.5 3005.5 471.023 3005.5 465.5 3005.5 459.977 3009.75 455.5 3015 455.5 3020.25 455.5 3024.5 459.977 3024.5 465.5Z" stroke="#FFFFFF" stroke-width="4.58333" stroke-miterlimit="8" fill="#FFFFFF" fill-rule="evenodd"/><path d="M3015.5 503.919 3039.5 514.5 3039.5 496.146 3036.44 494.791C3028.27 491.224 3018.92 495.302 3015.5 503.919Z" stroke="#FFFFFF" stroke-width="4.58333" stroke-miterlimit="8" fill="#FFFFFF" fill-rule="evenodd"/><path d="M3265 453.6C3265 438.97 3258.12 427 3244.2 427 3230.28 427 3230.76 433.65 3217 433.65 3203.24 433.65 3203.72 427 3189.8 427 3175.88 427 3169 438.97 3169 453.6 3169 468.23 3180.2 482.694 3180.2 495.163 3180.2 506.966 3178.6 516.941 3178.6 525.087 3178.6 533.234 3178.44 560 3189.8 560 3201.16 560 3201 535.728 3201 525.087 3201 514.448 3202.28 498.488 3217 498.488 3231.72 498.488 3233 514.448 3233 525.087 3233 535.728 3232.84 560 3244.2 560 3255.56 560 3255.4 533.234 3255.4 525.087 3255.4 516.941 3253.8 506.966 3253.8 495.163 3253.8 482.694 3265 468.23 3265 453.6Z" fill="#FFFFFF" fill-rule="evenodd"/><path d="M3015 706.5C3015 713.404 3009.4 719 3002.5 719 2995.6 719 2990 713.404 2990 706.5 2990 699.597 2995.6 694 3002.5 694 3009.4 694 3015 699.597 3015 706.5Z" stroke="#FFFFFF" stroke-width="2.29167" stroke-miterlimit="8" fill="#FFFFFF" fill-rule="evenodd"/><path d="M3099 706.5C3099 713.404 3093.4 719 3086.5 719 3079.6 719 3074 713.404 3074 706.5 3074 699.597 3079.6 694 3086.5 694 3093.4 694 3099 699.597 3099 706.5Z" stroke="#FFFFFF" stroke-width="2.29167" stroke-miterlimit="8" fill="#FFFFFF" fill-rule="evenodd"/><path d="M3113.16 679.336 3103.75 671.973C3102.52 671.021 3101.64 669.655 3101.27 668.107L3097.72 655.405C3095.91 649.126 3090.37 644.799 3084.05 644.727L3080.5 644.727 3080.5 635.523C3080.5 632.473 3078.12 630 3075.18 630L3071.63 630C3068.68 630 3066.3 632.473 3066.3 635.523L3066.3 644.727 3066.3 644.727 3066.3 641.045C3066.3 636.979 3063.12 633.682 3059.2 633.682L2981.1 633.682C2977.18 633.682 2974 636.979 2974 641.045L2974 703.636C2974 707.703 2977.18 711 2981.1 711L2984.65 711C2984.65 700.833 2992.6 692.591 3002.4 692.591 3012.2 692.591 3020.15 700.833 3020.15 711L3073.4 711C3073.4 700.833 3081.35 692.591 3091.15 692.591 3100.95 692.591 3108.9 700.833 3108.9 711 3112.82 711 3116 707.703 3116 703.636L3116 685.227C3116 682.91 3114.95 680.727 3113.16 679.336ZM3045.44 671.973 3040.12 681.545 3030.8 676.023 3030.8 687.068 3020.15 687.068 3020.15 675.912 3010.83 681.435 3005.51 671.862 3014.83 666.34 3005.51 660.817 3010.83 651.244 3020.15 656.767 3020.15 645.611 3030.8 645.611 3030.8 656.785 3040.12 651.263 3045.44 660.835 3036.13 666.358ZM3073.4 670.5 3073.4 652.091 3084.05 652.091C3087.22 652.046 3090 654.251 3090.8 657.43L3094.35 670.132C3094.35 670.316 3094.52 670.316 3094.52 670.5Z" fill="#FFFFFF" fill-rule="evenodd"/><path d="M3371.5 492 3371.5 457.059C3371.5 448.518 3378.92 441.53 3388 441.53 3397.07 441.53 3404.5 448.518 3404.5 457.059L3404.5 492 3371.5 492ZM3421 526.942 3421 457.059C3421 439.976 3406.15 426 3388 426 3369.85 426 3355 439.976 3355 457.059L3355 526.942C3355 544.024 3369.85 558 3388 558 3406.15 558 3421 544.024 3421 526.942Z" stroke="#FFFFFF" stroke-width="2.29167" stroke-miterlimit="8" fill="#BAC4BC" fill-rule="evenodd"/><path d="M3364 499 3364 470C3364 453.984 3374.97 441 3388.5 441 3402.03 441 3413 453.984 3413 470L3413 499Z" stroke="#FFFFFF" stroke-width="2.29167" stroke-linejoin="round" stroke-miterlimit="10" fill="#FFFFFF" fill-rule="evenodd"/><path d="M3250 620.5C3250 626.852 3245.3 632 3239.5 632 3233.7 632 3229 626.852 3229 620.5 3229 614.149 3233.7 609 3239.5 609 3245.3 609 3250 614.149 3250 620.5Z" fill="#FFFFFF" fill-rule="evenodd"/><path d="M3266.11 635.84C3263.38 634.42 3260.11 635.414 3258.74 638.255L3253.97 647.629 3232.97 633.852C3232.15 633.284 3231.19 633 3230.1 633L3206.92 633C3204.87 633 3203.1 634.136 3202.14 635.983L3193.28 653.026C3191.78 655.724 3192.87 659.275 3195.46 660.696 3196.28 661.122 3197.23 661.406 3198.05 661.406 3199.96 661.406 3201.87 660.269 3202.82 658.423L3210.19 644.362 3218.24 644.362 3194.1 691.232 3171.46 691.232C3168.46 691.232 3166 693.789 3166 696.913 3166 700.038 3168.46 702.594 3171.46 702.594L3197.37 702.594C3199.42 702.594 3201.19 701.458 3202.14 699.612L3211.69 681.29 3227.38 696.487 3226.15 725.035C3225.87 728.159 3228.19 730.858 3231.19 731 3231.33 731 3231.33 731 3231.47 731 3234.33 731 3236.79 728.586 3236.92 725.603L3238.29 694.357C3238.42 692.652 3237.74 691.09 3236.51 689.954L3223.28 677.171 3237.2 650.185 3253.02 660.554C3254.24 661.406 3255.88 661.69 3257.38 661.264 3258.88 660.838 3260.11 659.844 3260.79 658.423L3268.29 643.51C3269.79 640.811 3268.84 637.403 3266.11 635.84Z" fill="#FFFFFF" fill-rule="evenodd"/></g></svg>