<svg width="515" height="337" xmlns="http://www.w3.org/2000/svg" xmlns:xlink="http://www.w3.org/1999/xlink" xml:space="preserve" overflow="hidden"><defs><clipPath id="clip0"><rect x="425" y="435" width="515" height="337"/></clipPath></defs><g clip-path="url(#clip0)" transform="translate(-425 -435)"><path d="M425 619.451C425 612.022 431.022 606 438.451 606L580.549 606C587.978 606 594 612.022 594 619.451L594 758.549C594 765.978 587.978 772 580.549 772L438.451 772C431.022 772 425 765.978 425 758.549Z" fill="#734CDD" fill-rule="evenodd"/><path d="M599 619.37C599 611.986 604.986 606 612.37 606L754.63 606C762.014 606 768 611.986 768 619.37L768 757.63C768 765.014 762.014 771 754.63 771L612.37 771C604.986 771 599 765.014 599 757.63Z" fill="#734CDD" fill-rule="evenodd"/><path d="M771 619.37C771 611.986 776.986 606 784.37 606L926.63 606C934.014 606 940 611.986 940 619.37L940 757.63C940 765.015 934.014 771 926.63 771L784.37 771C776.986 771 771 765.015 771 757.63Z" fill="#734CDD" fill-rule="evenodd"/><path d="M771 448.451C771 441.022 777.022 435 784.451 435L926.549 435C933.978 435 940 441.022 940 448.451L940 587.549C940 594.978 933.978 601 926.549 601L784.451 601C777.022 601 771 594.978 771 587.549Z" fill="#734CDD" fill-rule="evenodd"/><path d="M599 448.451C599 441.022 605.022 435 612.451 435L754.549 435C761.978 435 768 441.022 768 448.451L768 587.549C768 594.977 761.978 601 754.549 601L612.451 601C605.022 601 599 594.977 599 587.549Z" fill="#734CDD" fill-rule="evenodd"/><path d="M425 448.451C425 441.022 431.022 435 438.451 435L580.549 435C587.978 435 594 441.022 594 448.451L594 587.549C594 594.978 587.978 601 580.549 601L438.451 601C431.022 601 425 594.978 425 587.549Z" fill="#5F605E" fill-rule="evenodd"/><path d="M903.522 693.326 893.482 675.923 893.482 675.338C894.092 659.307 885.871 644.241 872.093 636.143 858.318 627.953 841.199 627.953 827.424 636.143 813.62 644.215 805.39 659.299 806.036 675.338 805.985 689.092 812.337 702.079 823.205 710.438L823.205 747 869.183 747 869.183 729.596 876.313 729.596C880.909 729.627 885.321 727.78 888.535 724.478 891.718 721.19 893.494 716.78 893.482 712.193L893.482 703.418 899.884 703.418C903.682 703.125 907.028 698.738 903.522 693.326ZM845.817 687.702C848.665 687.263 850.149 690.844 848.385 693.239L848.126 693.572C846.251 695.874 842.365 695.392 842.092 692.515 841.931 690.83 839.731 689.097 838.718 690.406L832.267 698.738 826.352 694.112C825.05 693.088 826.775 690.881 828.45 690.719 831.316 690.444 831.797 686.539 829.502 684.654L829.17 684.393C826.788 682.621 823.228 684.113 823.665 686.973 823.921 688.645 822.209 690.87 820.909 689.85L815.326 685.483 821.807 677.113C822.825 675.804 820.608 674.086 818.944 674.343 816.098 674.782 814.614 671.199 816.378 668.806L816.635 668.473C818.512 666.171 822.397 666.652 822.671 669.53 822.832 671.213 825.032 672.946 826.045 671.639L832.497 663.303 838.045 667.643C839.347 668.667 837.623 670.873 835.948 671.034 833.08 671.31 832.601 675.215 834.894 677.1L835.226 677.36C837.608 679.133 841.174 677.637 840.736 674.779 840.48 673.107 842.184 670.881 843.492 671.904L849.44 676.556 842.957 684.932C841.942 686.239 844.154 687.959 845.817 687.702ZM867.884 663.474C866.774 664.34 865.319 662.443 865.539 661.018 865.915 658.58 862.806 657.362 860.773 658.868L860.491 659.091C858.533 660.7 859.013 663.97 861.453 664.21 862.88 664.356 864.348 666.237 863.238 667.102L858.474 670.82 852.958 663.679C852.096 662.563 850.217 664.039 850.079 665.473 849.843 667.929 846.587 668.408 844.986 666.44L844.762 666.153C843.265 664.106 844.471 660.986 846.9 661.364 848.318 661.584 850.204 660.122 849.343 659.006L843.851 651.897 848.585 648.202C849.696 647.335 851.151 649.226 850.931 650.656 850.555 653.096 853.664 654.313 855.695 652.806L855.986 652.585C857.943 650.977 857.465 647.705 855.023 647.467 853.596 647.328 852.123 645.444 853.239 644.574L858.314 640.614 863.832 647.755C864.693 648.871 866.571 647.395 866.71 645.961 866.945 643.503 870.202 643.025 871.802 644.994L872.022 645.278C873.521 647.325 872.313 650.445 869.885 650.067 868.468 649.846 866.58 651.309 867.442 652.425L872.93 659.543Z" fill="#FFFFFF" fill-rule="evenodd"/><path d="M568.52 514 494 514 494 552.546C494.011 556.089 496.906 558.959 500.48 558.97L565.28 558.97 565.28 567 575 567 575 520.424C574.99 516.88 572.094 514.011 568.52 514Z" fill="#FFFFFF" fill-rule="evenodd"/><path d="M456.772 500.813C456.821 498.204 454.713 496.049 452.064 496.001 452.005 496 451.946 496 451.886 496.001 449.237 495.953 447.05 498.029 447.001 500.638 447 500.697 447 500.755 447.001 500.813L447.001 573 456.772 573 456.772 556.959 504 556.959 504 540.917 456.772 521.667Z" fill="#FFFFFF" fill-rule="evenodd"/><path d="M488.5 491C488.5 496.247 484.247 500.5 479 500.5 473.753 500.5 469.5 496.247 469.5 491 469.5 485.753 473.753 481.5 479 481.5 484.247 481.5 488.5 485.753 488.5 491Z" stroke="#FFFFFF" stroke-width="4.58333" stroke-miterlimit="8" fill="#FFFFFF" fill-rule="evenodd"/><path d="M479.5 527.423 503.5 537.5 503.5 520.02 500.436 518.729C492.272 515.332 482.919 519.216 479.5 527.423Z" stroke="#FFFFFF" stroke-width="4.58333" stroke-miterlimit="8" fill="#FFFFFF" fill-rule="evenodd"/><path d="M732 479C732 464.7 725.048 453 710.983 453 696.918 453 697.403 459.5 683.5 459.5 669.597 459.5 670.081 453 656.016 453 641.952 453 635 464.7 635 479 635 493.3 646.317 507.437 646.317 519.625 646.317 531.163 644.7 540.912 644.7 548.875 644.7 556.838 644.538 583 656.016 583 667.495 583 667.333 559.275 667.333 548.875 667.333 538.475 668.626 522.875 683.5 522.875 698.373 522.875 699.667 538.475 699.667 548.875 699.667 559.275 699.505 583 710.983 583 722.461 583 722.3 556.838 722.3 548.875 722.3 540.912 720.683 531.163 720.683 519.625 720.683 507.437 732 493.3 732 479Z" fill="#FFFFFF" fill-rule="evenodd"/><path d="M479 724C479 730.628 473.404 736 466.5 736 459.597 736 454 730.628 454 724 454 717.372 459.597 712 466.5 712 473.404 712 479 717.372 479 724Z" stroke="#FFFFFF" stroke-width="2.29167" stroke-miterlimit="8" fill="#FFFFFF" fill-rule="evenodd"/><path d="M564 724C564 730.628 558.404 736 551.5 736 544.596 736 539 730.628 539 724 539 717.372 544.596 712 551.5 712 558.404 712 564 717.372 564 724Z" stroke="#FFFFFF" stroke-width="2.29167" stroke-miterlimit="8" fill="#FFFFFF" fill-rule="evenodd"/><path d="M578.14 698.118 568.666 690.937C567.423 690.008 566.539 688.676 566.164 687.166L562.589 674.777C560.766 668.654 555.188 664.434 548.825 664.364L545.25 664.364 545.25 655.386C545.25 652.412 542.849 650 539.887 650L536.312 650C533.351 650 530.95 652.412 530.95 655.386L530.95 664.364 530.95 664.364 530.95 660.773C530.95 656.807 527.749 653.591 523.8 653.591L445.15 653.591C441.201 653.591 438 656.807 438 660.773L438 721.818C438 725.785 441.201 729 445.15 729L448.725 729C448.725 719.084 456.728 711.046 466.6 711.046 476.472 711.046 484.475 719.084 484.475 729L538.1 729C538.1 719.084 546.103 711.046 555.975 711.046 565.847 711.046 573.85 719.084 573.85 729 577.799 729 581 725.785 581 721.818L581 703.864C581 701.603 579.94 699.475 578.14 698.118ZM509.947 690.937 504.584 700.273 495.2 694.887 495.2 705.659 484.475 705.659 484.475 694.779 475.091 700.165 469.728 690.829 479.112 685.443 469.728 680.056 475.091 670.72 484.475 676.106 484.475 665.226 495.2 665.226 495.2 676.124 504.584 670.738 509.947 680.074 500.562 685.46ZM538.1 689.5 538.1 671.546 548.825 671.546C552.013 671.501 554.819 673.652 555.617 676.752L559.193 689.141C559.193 689.321 559.371 689.321 559.371 689.5Z" fill="#FFFFFF" fill-rule="evenodd"/><path d="M838.75 516.5 838.75 482.882C838.75 474.665 846.287 467.941 855.5 467.941 864.712 467.941 872.25 474.665 872.25 482.882L872.25 516.5 838.75 516.5ZM889 550.118 889 482.882C889 466.447 873.925 453 855.5 453 837.075 453 821.999 466.447 821.999 482.882L821.999 550.118C821.999 566.553 837.075 580 855.5 580 873.925 580 889 566.553 889 550.118Z" stroke="#FFFFFF" stroke-width="2.29167" stroke-miterlimit="8" fill="#BAC4BC" fill-rule="evenodd"/><path d="M832 523 832 495C832 479.536 842.969 467 856.5 467 870.031 467 881 479.536 881 495L881 523Z" stroke="#FFFFFF" stroke-width="2.29167" stroke-linejoin="round" stroke-miterlimit="10" fill="#FFFFFF" fill-rule="evenodd"/><path d="M717 640C717 646.075 712.075 651 706 651 699.925 651 695 646.075 695 640 695 633.925 699.925 629 706 629 712.075 629 717 633.925 717 640Z" fill="#FFFFFF" fill-rule="evenodd"/><path d="M733.053 655.754C730.273 654.377 726.936 655.341 725.545 658.094L720.679 667.181 699.267 653.826C698.433 653.276 697.46 653 696.348 653L672.711 653C670.626 653 668.818 654.102 667.845 655.892L658.808 672.413C657.278 675.029 658.39 678.471 661.032 679.848 661.866 680.261 662.84 680.536 663.674 680.536 665.62 680.536 667.567 679.435 668.54 677.645L676.048 664.015 684.251 664.015 659.642 709.449 636.562 709.449C633.503 709.449 631 711.928 631 714.957 631 717.985 633.503 720.464 636.562 720.464L662.979 720.464C665.064 720.464 666.872 719.362 667.845 717.573L677.577 699.812 693.567 714.543 692.316 742.217C692.037 745.246 694.401 747.862 697.46 748 697.599 748 697.599 748 697.738 748 700.658 748 703.16 745.659 703.299 742.768L704.69 712.478C704.829 710.826 704.133 709.312 702.882 708.21L689.396 695.819 703.577 669.66 719.706 679.71C720.957 680.536 722.625 680.812 724.155 680.399 725.684 679.986 726.936 679.022 727.631 677.645L735.278 663.189C736.807 660.573 735.834 657.268 733.053 655.754Z" fill="#FFFFFF" fill-rule="evenodd"/></g></svg>