<svg width="516" height="337" xmlns="http://www.w3.org/2000/svg" xmlns:xlink="http://www.w3.org/1999/xlink" xml:space="preserve" overflow="hidden"><defs><clipPath id="clip0"><rect x="428" y="901" width="516" height="337"/></clipPath></defs><g clip-path="url(#clip0)" transform="translate(-428 -901)"><path d="M428 1085.45C428 1078.02 434.022 1072 441.451 1072L583.549 1072C590.978 1072 597 1078.02 597 1085.45L597 1224.55C597 1231.98 590.978 1238 583.549 1238L441.451 1238C434.022 1238 428 1231.98 428 1224.55Z" fill="#5F605E" fill-rule="evenodd"/><path d="M602 1085.37C602 1077.99 607.986 1072 615.37 1072L757.63 1072C765.014 1072 771 1077.99 771 1085.37L771 1223.63C771 1231.01 765.014 1237 757.63 1237L615.37 1237C607.986 1237 602 1231.01 602 1223.63Z" fill="#734CDD" fill-rule="evenodd"/><path d="M775 1085.37C775 1077.99 780.986 1072 788.37 1072L930.63 1072C938.014 1072 944 1077.99 944 1085.37L944 1223.63C944 1231.01 938.014 1237 930.63 1237L788.37 1237C780.986 1237 775 1231.01 775 1223.63Z" fill="#734CDD" fill-rule="evenodd"/><path d="M775 914.451C775 907.022 781.022 901 788.451 901L930.549 901C937.978 901 944 907.022 944 914.451L944 1053.55C944 1060.98 937.978 1067 930.549 1067L788.451 1067C781.022 1067 775 1060.98 775 1053.55Z" fill="#5F605E" fill-rule="evenodd"/><path d="M602 914.451C602 907.022 608.022 901 615.451 901L757.549 901C764.978 901 771 907.022 771 914.451L771 1053.55C771 1060.98 764.978 1067 757.549 1067L615.451 1067C608.022 1067 602 1060.98 602 1053.55Z" fill="#5F605E" fill-rule="evenodd"/><path d="M428 914.451C428 907.022 434.022 901 441.451 901L583.549 901C590.978 901 597 907.022 597 914.451L597 1053.55C597 1060.98 590.978 1067 583.549 1067L441.451 1067C434.022 1067 428 1060.98 428 1053.55Z" fill="#5F605E" fill-rule="evenodd"/><path d="M907.507 1159.33 897.366 1141.92 897.366 1141.34C897.982 1125.31 889.677 1110.24 875.761 1102.14 861.847 1093.95 844.554 1093.95 830.64 1102.14 816.697 1110.22 808.383 1125.3 809.036 1141.34 808.984 1155.09 815.401 1168.08 826.378 1176.44L826.378 1213 872.821 1213 872.821 1195.6 880.023 1195.6C884.666 1195.63 889.122 1193.78 892.368 1190.48 895.584 1187.19 897.377 1182.78 897.366 1178.19L897.366 1169.42 903.832 1169.42C907.668 1169.13 911.049 1164.74 907.507 1159.33ZM849.219 1153.7C852.095 1153.26 853.594 1156.84 851.813 1159.24L851.551 1159.57C849.657 1161.87 845.732 1161.39 845.457 1158.51 845.294 1156.83 843.071 1155.1 842.048 1156.41L835.532 1164.74 829.557 1160.11C828.242 1159.09 829.985 1156.88 831.677 1156.72 834.572 1156.44 835.057 1152.54 832.739 1150.65L832.404 1150.39C829.998 1148.62 826.402 1150.11 826.843 1152.97 827.101 1154.64 825.373 1156.87 824.059 1155.85L818.42 1151.48 824.966 1143.11C825.995 1141.8 823.755 1140.09 822.075 1140.34 819.2 1140.78 817.701 1137.2 819.482 1134.81L819.742 1134.47C821.638 1132.17 825.563 1132.65 825.839 1135.53 826.002 1137.21 828.224 1138.95 829.247 1137.64L835.764 1129.3 841.368 1133.64C842.683 1134.67 840.942 1136.87 839.25 1137.03 836.353 1137.31 835.87 1141.21 838.186 1143.1L838.521 1143.36C840.927 1145.13 844.529 1143.64 844.087 1140.78 843.828 1139.11 845.549 1136.88 846.87 1137.9L852.879 1142.56 846.33 1150.93C845.305 1152.24 847.539 1153.96 849.219 1153.7ZM871.509 1129.47C870.387 1130.34 868.918 1128.44 869.14 1127.02 869.52 1124.58 866.379 1123.36 864.326 1124.87L864.041 1125.09C862.063 1126.7 862.548 1129.97 865.013 1130.21 866.455 1130.36 867.937 1132.24 866.816 1133.1L862.004 1136.82 856.432 1129.68C855.561 1128.56 853.664 1130.04 853.524 1131.47 853.286 1133.93 849.997 1134.41 848.38 1132.44L848.154 1132.15C846.641 1130.11 847.86 1126.99 850.313 1127.36 851.745 1127.58 853.65 1126.12 852.78 1125.01L847.233 1117.9 852.014 1114.2C853.137 1113.33 854.607 1115.23 854.385 1116.66 854.005 1119.1 857.145 1120.31 859.197 1118.81L859.491 1118.59C861.468 1116.98 860.984 1113.7 858.518 1113.47 857.076 1113.33 855.589 1111.44 856.716 1110.57L861.842 1106.61 867.416 1113.75C868.286 1114.87 870.183 1113.39 870.323 1111.96 870.561 1109.5 873.85 1109.03 875.467 1110.99L875.689 1111.28C877.203 1113.32 875.983 1116.44 873.53 1116.07 872.098 1115.85 870.192 1117.31 871.062 1118.42L876.606 1125.54Z" fill="#FFFFFF" fill-rule="evenodd"/><path d="M572.44 980 497 980 497 1018.55C497.011 1022.09 499.942 1024.96 503.56 1024.97L569.16 1024.97 569.16 1033 579 1033 579 986.424C578.989 982.881 576.058 980.011 572.44 980Z" fill="#FFFFFF" fill-rule="evenodd"/><path d="M460.601 966.813C460.649 964.204 458.578 962.049 455.975 962.001 455.917 962 455.859 962 455.801 962.001 453.198 961.953 451.049 964.029 451.001 966.639 451 966.697 451 966.755 451.001 966.813L451.001 1039 460.601 1039 460.601 1022.96 507 1022.96 507 1006.92 460.601 987.668Z" fill="#FFFFFF" fill-rule="evenodd"/><path d="M492.5 957C492.5 962.247 488.023 966.5 482.5 966.5 476.977 966.5 472.5 962.247 472.5 957 472.5 951.753 476.977 947.5 482.5 947.5 488.023 947.5 492.5 951.753 492.5 957Z" stroke="#FFFFFF" stroke-width="4.58333" stroke-miterlimit="8" fill="#FFFFFF" fill-rule="evenodd"/><path d="M482.5 993.423 507.5 1003.5 507.5 986.02 504.308 984.729C495.804 981.332 486.061 985.216 482.5 993.423Z" stroke="#FFFFFF" stroke-width="4.58333" stroke-miterlimit="8" fill="#FFFFFF" fill-rule="evenodd"/><path d="M735 945C735 930.7 728.048 919 713.983 919 699.918 919 700.403 925.5 686.5 925.5 672.597 925.5 673.082 919 659.017 919 644.952 919 638 930.7 638 945 638 959.3 649.317 973.437 649.317 985.625 649.317 997.163 647.7 1006.91 647.7 1014.88 647.7 1022.84 647.538 1049 659.017 1049 670.495 1049 670.333 1025.28 670.333 1014.88 670.333 1004.48 671.627 988.875 686.5 988.875 701.373 988.875 702.667 1004.48 702.667 1014.88 702.667 1025.28 702.505 1049 713.983 1049 725.462 1049 725.3 1022.84 725.3 1014.88 725.3 1006.91 723.683 997.163 723.683 985.625 723.683 973.437 735 959.3 735 945Z" fill="#FFFFFF" fill-rule="evenodd"/><path d="M482 1190C482 1196.63 476.404 1202 469.5 1202 462.596 1202 457 1196.63 457 1190 457 1183.37 462.596 1178 469.5 1178 476.404 1178 482 1183.37 482 1190Z" stroke="#FFFFFF" stroke-width="2.29167" stroke-miterlimit="8" fill="#FFFFFF" fill-rule="evenodd"/><path d="M567 1190C567 1196.63 561.404 1202 554.5 1202 547.597 1202 542 1196.63 542 1190 542 1183.37 547.597 1178 554.5 1178 561.404 1178 567 1183.37 567 1190Z" stroke="#FFFFFF" stroke-width="2.29167" stroke-miterlimit="8" fill="#FFFFFF" fill-rule="evenodd"/><path d="M581.14 1164.12 571.666 1156.94C570.424 1156.01 569.539 1154.68 569.164 1153.17L565.589 1140.78C563.766 1134.65 558.188 1130.43 551.825 1130.36L548.25 1130.36 548.25 1121.39C548.25 1118.41 545.849 1116 542.888 1116L539.312 1116C536.351 1116 533.95 1118.41 533.95 1121.39L533.95 1130.36 533.95 1130.36 533.95 1126.77C533.95 1122.81 530.749 1119.59 526.8 1119.59L448.15 1119.59C444.201 1119.59 441 1122.81 441 1126.77L441 1187.82C441 1191.78 444.201 1195 448.15 1195L451.725 1195C451.725 1185.08 459.728 1177.05 469.6 1177.05 479.472 1177.05 487.475 1185.08 487.475 1195L541.1 1195C541.1 1185.08 549.103 1177.05 558.975 1177.05 568.847 1177.05 576.85 1185.08 576.85 1195 580.799 1195 584 1191.78 584 1187.82L584 1169.86C584 1167.6 582.941 1165.47 581.14 1164.12ZM512.947 1156.94 507.584 1166.27 498.2 1160.89 498.2 1171.66 487.475 1171.66 487.475 1160.78 478.091 1166.17 472.728 1156.83 482.112 1151.44 472.728 1146.06 478.091 1136.72 487.475 1142.11 487.475 1131.23 498.2 1131.23 498.2 1142.12 507.584 1136.74 512.947 1146.07 503.563 1151.46ZM541.1 1155.5 541.1 1137.55 551.825 1137.55C555.013 1137.5 557.819 1139.65 558.618 1142.75L562.193 1155.14C562.193 1155.32 562.371 1155.32 562.371 1155.5Z" fill="#FFFFFF" fill-rule="evenodd"/><path d="M842.5 982.5 842.5 948.882C842.5 940.665 849.925 933.941 859 933.941 868.075 933.941 875.5 940.665 875.5 948.882L875.5 982.5 842.5 982.5ZM892 1016.12 892 948.882C892 932.447 877.15 919 859 919 840.85 919 826 932.447 826 948.882L826 1016.12C826 1032.55 840.85 1046 859 1046 877.15 1046 892 1032.55 892 1016.12Z" stroke="#FFFFFF" stroke-width="2.29167" stroke-miterlimit="8" fill="#BAC4BC" fill-rule="evenodd"/><path d="M835 989 835 961C835 945.536 846.193 933 860 933 873.807 933 885 945.536 885 961L885 989Z" stroke="#FFFFFF" stroke-width="2.29167" stroke-linejoin="round" stroke-miterlimit="10" fill="#FFFFFF" fill-rule="evenodd"/><path d="M720 1107C720 1113.08 715.076 1118 709 1118 702.925 1118 698 1113.08 698 1107 698 1100.92 702.925 1096 709 1096 715.076 1096 720 1100.92 720 1107Z" fill="#FFFFFF" fill-rule="evenodd"/><path d="M736.081 1121.75C733.327 1120.38 730.022 1121.34 728.645 1124.09L723.825 1133.18 702.617 1119.83C701.791 1119.28 700.827 1119 699.725 1119L676.314 1119C674.248 1119 672.458 1120.1 671.494 1121.89L662.543 1138.41C661.028 1141.03 662.129 1144.47 664.746 1145.85 665.572 1146.26 666.536 1146.54 667.363 1146.54 669.29 1146.54 671.218 1145.43 672.182 1143.64L679.619 1130.01 687.744 1130.01 663.369 1175.45 640.508 1175.45C637.479 1175.45 635 1177.93 635 1180.96 635 1183.99 637.479 1186.46 640.508 1186.46L666.674 1186.46C668.74 1186.46 670.53 1185.36 671.494 1183.57L681.134 1165.81 696.971 1180.54 695.732 1208.22C695.456 1211.25 697.797 1213.86 700.827 1214 700.964 1214 700.964 1214 701.102 1214 703.994 1214 706.473 1211.66 706.611 1208.77L707.988 1178.48C708.126 1176.83 707.437 1175.31 706.198 1174.21L692.839 1161.82 706.886 1135.66 722.861 1145.71C724.1 1146.54 725.753 1146.81 727.268 1146.4 728.783 1145.99 730.022 1145.02 730.711 1143.64L738.285 1129.19C739.8 1126.57 738.836 1123.27 736.081 1121.75Z" fill="#FFFFFF" fill-rule="evenodd"/></g></svg>