<svg width="515" height="336" xmlns="http://www.w3.org/2000/svg" xmlns:xlink="http://www.w3.org/1999/xlink" xml:space="preserve" overflow="hidden"><defs><clipPath id="clip0"><rect x="425" y="1346" width="515" height="336"/></clipPath></defs><g clip-path="url(#clip0)" transform="translate(-425 -1346)"><path d="M425 1530.37C425 1522.99 430.986 1517 438.37 1517L580.63 1517C588.014 1517 594 1522.99 594 1530.37L594 1668.63C594 1676.01 588.014 1682 580.63 1682L438.37 1682C430.986 1682 425 1676.01 425 1668.63Z" fill="#5F605E" fill-rule="evenodd"/><path d="M599 1529.45C599 1522.02 605.022 1516 612.451 1516L754.549 1516C761.978 1516 768 1522.02 768 1529.45L768 1668.55C768 1675.98 761.978 1682 754.549 1682L612.451 1682C605.022 1682 599 1675.98 599 1668.55Z" fill="#5F605E" fill-rule="evenodd"/><path d="M771 1529.45C771 1522.02 777.022 1516 784.451 1516L926.549 1516C933.978 1516 940 1522.02 940 1529.45L940 1668.55C940 1675.98 933.978 1682 926.549 1682L784.451 1682C777.022 1682 771 1675.98 771 1668.55Z" fill="#5F605E" fill-rule="evenodd"/><path d="M771 1359.37C771 1351.99 776.986 1346 784.37 1346L926.63 1346C934.014 1346 940 1351.99 940 1359.37L940 1497.63C940 1505.01 934.014 1511 926.63 1511L784.37 1511C776.986 1511 771 1505.01 771 1497.63Z" fill="#5F605E" fill-rule="evenodd"/><path d="M599 1359.37C599 1351.99 604.986 1346 612.37 1346L754.63 1346C762.014 1346 768 1351.99 768 1359.37L768 1497.63C768 1505.01 762.014 1511 754.63 1511L612.37 1511C604.986 1511 599 1505.01 599 1497.63Z" fill="#5F605E" fill-rule="evenodd"/><path d="M425 1359.37C425 1351.99 430.986 1346 438.37 1346L580.63 1346C588.014 1346 594 1351.99 594 1359.37L594 1497.63C594 1505.01 588.014 1511 580.63 1511L438.37 1511C430.986 1511 425 1505.01 425 1497.63Z" fill="#5F605E" fill-rule="evenodd"/><path d="M903.522 1604.33 893.482 1586.92 893.482 1586.34C894.092 1570.31 885.871 1555.24 872.093 1547.14 858.318 1538.95 841.199 1538.95 827.424 1547.14 813.62 1555.22 805.39 1570.3 806.036 1586.34 805.985 1600.09 812.337 1613.08 823.205 1621.44L823.205 1658 869.183 1658 869.183 1640.6 876.313 1640.6C880.909 1640.63 885.321 1638.78 888.535 1635.48 891.718 1632.19 893.494 1627.78 893.482 1623.19L893.482 1614.42 899.884 1614.42C903.682 1614.13 907.028 1609.74 903.522 1604.33ZM845.817 1598.7C848.665 1598.26 850.149 1601.84 848.385 1604.24L848.126 1604.57C846.251 1606.87 842.365 1606.39 842.092 1603.51 841.931 1601.83 839.731 1600.1 838.718 1601.41L832.267 1609.74 826.352 1605.11C825.05 1604.09 826.775 1601.88 828.45 1601.72 831.316 1601.44 831.797 1597.54 829.502 1595.65L829.17 1595.39C826.788 1593.62 823.228 1595.11 823.665 1597.97 823.921 1599.64 822.209 1601.87 820.909 1600.85L815.326 1596.48 821.807 1588.11C822.825 1586.8 820.608 1585.09 818.944 1585.34 816.098 1585.78 814.614 1582.2 816.378 1579.81L816.635 1579.47C818.512 1577.17 822.397 1577.65 822.671 1580.53 822.832 1582.21 825.032 1583.95 826.045 1582.64L832.497 1574.3 838.045 1578.64C839.347 1579.67 837.623 1581.87 835.948 1582.03 833.08 1582.31 832.601 1586.21 834.894 1588.1L835.226 1588.36C837.608 1590.13 841.174 1588.64 840.736 1585.78 840.48 1584.11 842.184 1581.88 843.492 1582.9L849.44 1587.56 842.957 1595.93C841.942 1597.24 844.154 1598.96 845.817 1598.7ZM867.884 1574.47C866.774 1575.34 865.319 1573.44 865.539 1572.02 865.915 1569.58 862.806 1568.36 860.773 1569.87L860.491 1570.09C858.533 1571.7 859.013 1574.97 861.453 1575.21 862.88 1575.36 864.348 1577.24 863.238 1578.1L858.474 1581.82 852.958 1574.68C852.096 1573.56 850.217 1575.04 850.079 1576.47 849.843 1578.93 846.587 1579.41 844.986 1577.44L844.762 1577.15C843.265 1575.11 844.471 1571.99 846.9 1572.36 848.318 1572.58 850.204 1571.12 849.343 1570.01L843.851 1562.9 848.585 1559.2C849.696 1558.33 851.151 1560.23 850.931 1561.66 850.555 1564.1 853.664 1565.31 855.695 1563.81L855.986 1563.59C857.943 1561.98 857.465 1558.71 855.023 1558.47 853.596 1558.33 852.123 1556.44 853.239 1555.57L858.314 1551.61 863.832 1558.75C864.693 1559.87 866.571 1558.39 866.71 1556.96 866.945 1554.5 870.202 1554.03 871.802 1555.99L872.022 1556.28C873.521 1558.32 872.313 1561.44 869.885 1561.07 868.468 1560.85 866.58 1562.31 867.442 1563.42L872.93 1570.54Z" fill="#FFFFFF" fill-rule="evenodd"/><path d="M568.52 1424 494 1424 494 1463.27C494.011 1466.88 496.906 1469.81 500.48 1469.82L565.28 1469.82 565.28 1478 575 1478 575 1430.55C574.99 1426.94 572.094 1424.01 568.52 1424Z" fill="#FFFFFF" fill-rule="evenodd"/><path d="M456.772 1411.81C456.821 1409.2 454.713 1407.05 452.064 1407 452.005 1407 451.946 1407 451.886 1407 449.237 1406.95 447.05 1409.03 447.001 1411.64 447 1411.7 447 1411.76 447.001 1411.81L447.001 1484 456.772 1484 456.772 1467.96 504 1467.96 504 1451.92 456.772 1432.67Z" fill="#FFFFFF" fill-rule="evenodd"/><path d="M488.5 1401.5C488.5 1407.02 484.247 1411.5 479 1411.5 473.753 1411.5 469.5 1407.02 469.5 1401.5 469.5 1395.98 473.753 1391.5 479 1391.5 484.247 1391.5 488.5 1395.98 488.5 1401.5Z" stroke="#FFFFFF" stroke-width="4.58333" stroke-miterlimit="8" fill="#FFFFFF" fill-rule="evenodd"/><path d="M479.5 1438.42 503.5 1448.5 503.5 1431.02 500.436 1429.73C492.272 1426.33 482.919 1430.22 479.5 1438.42Z" stroke="#FFFFFF" stroke-width="4.58333" stroke-miterlimit="8" fill="#FFFFFF" fill-rule="evenodd"/><path d="M732 1389.8C732 1375.61 725.048 1364 710.983 1364 696.918 1364 697.403 1370.45 683.5 1370.45 669.597 1370.45 670.081 1364 656.016 1364 641.952 1364 635 1375.61 635 1389.8 635 1403.99 646.317 1418.02 646.317 1430.11 646.317 1441.56 644.7 1451.24 644.7 1459.14 644.7 1467.04 644.538 1493 656.016 1493 667.495 1493 667.333 1469.46 667.333 1459.14 667.333 1448.82 668.626 1433.34 683.5 1433.34 698.373 1433.34 699.667 1448.82 699.667 1459.14 699.667 1469.46 699.505 1493 710.983 1493 722.461 1493 722.3 1467.04 722.3 1459.14 722.3 1451.24 720.683 1441.56 720.683 1430.11 720.683 1418.02 732 1403.99 732 1389.8Z" fill="#FFFFFF" fill-rule="evenodd"/><path d="M479 1634.5C479 1641.4 473.404 1647 466.5 1647 459.597 1647 454 1641.4 454 1634.5 454 1627.6 459.597 1622 466.5 1622 473.404 1622 479 1627.6 479 1634.5Z" stroke="#FFFFFF" stroke-width="2.29167" stroke-miterlimit="8" fill="#FFFFFF" fill-rule="evenodd"/><path d="M564 1634.5C564 1641.4 558.404 1647 551.5 1647 544.596 1647 539 1641.4 539 1634.5 539 1627.6 544.596 1622 551.5 1622 558.404 1622 564 1627.6 564 1634.5Z" stroke="#FFFFFF" stroke-width="2.29167" stroke-miterlimit="8" fill="#FFFFFF" fill-rule="evenodd"/><path d="M578.14 1608.51 568.666 1601.42C567.423 1600.5 566.539 1599.19 566.164 1597.7L562.589 1585.46C560.766 1579.42 555.188 1575.25 548.825 1575.18L545.25 1575.18 545.25 1566.32C545.25 1563.38 542.849 1561 539.887 1561L536.312 1561C533.351 1561 530.95 1563.38 530.95 1566.32L530.95 1575.18 530.95 1575.18 530.95 1571.64C530.95 1567.72 527.749 1564.55 523.8 1564.55L445.15 1564.55C441.201 1564.55 438 1567.72 438 1571.64L438 1631.91C438 1635.83 441.201 1639 445.15 1639L448.725 1639C448.725 1629.21 456.728 1621.27 466.6 1621.27 476.472 1621.27 484.475 1629.21 484.475 1639L538.1 1639C538.1 1629.21 546.103 1621.27 555.975 1621.27 565.847 1621.27 573.85 1629.21 573.85 1639 577.799 1639 581 1635.83 581 1631.91L581 1614.18C581 1611.95 579.94 1609.85 578.14 1608.51ZM509.947 1601.42 504.584 1610.64 495.2 1605.32 495.2 1615.95 484.475 1615.95 484.475 1605.21 475.091 1610.53 469.728 1601.31 479.112 1595.99 469.728 1590.68 475.091 1581.46 484.475 1586.78 484.475 1576.03 495.2 1576.03 495.2 1586.79 504.584 1581.47 509.947 1590.69 500.562 1596.01ZM538.1 1600 538.1 1582.27 548.825 1582.27C552.013 1582.23 554.819 1584.35 555.617 1587.41L559.193 1599.65C559.193 1599.82 559.371 1599.82 559.371 1600Z" fill="#FFFFFF" fill-rule="evenodd"/><path d="M838.75 1427.5 838.75 1393.88C838.75 1385.66 846.287 1378.94 855.5 1378.94 864.712 1378.94 872.25 1385.66 872.25 1393.88L872.25 1427.5 838.75 1427.5ZM889 1461.12 889 1393.88C889 1377.45 873.925 1364 855.5 1364 837.075 1364 821.999 1377.45 821.999 1393.88L821.999 1461.12C821.999 1477.55 837.075 1491 855.5 1491 873.925 1491 889 1477.55 889 1461.12Z" stroke="#FFFFFF" stroke-width="2.29167" stroke-miterlimit="8" fill="#BAC4BC" fill-rule="evenodd"/><path d="M832 1434 832 1406C832 1390.54 842.969 1378 856.5 1378 870.031 1378 881 1390.54 881 1406L881 1434Z" stroke="#FFFFFF" stroke-width="2.29167" stroke-linejoin="round" stroke-miterlimit="10" fill="#FFFFFF" fill-rule="evenodd"/><path d="M717 1551C717 1557.08 712.075 1562 706 1562 699.925 1562 695 1557.08 695 1551 695 1544.92 699.925 1540 706 1540 712.075 1540 717 1544.92 717 1551Z" fill="#FFFFFF" fill-rule="evenodd"/><path d="M733.053 1566.72C730.273 1565.36 726.936 1566.32 725.545 1569.04L720.679 1578.03 699.267 1564.82C698.433 1564.27 697.46 1564 696.348 1564L672.711 1564C670.626 1564 668.818 1565.09 667.845 1566.86L658.808 1583.21C657.278 1585.8 658.39 1589.2 661.032 1590.57 661.866 1590.97 662.84 1591.25 663.674 1591.25 665.62 1591.25 667.567 1590.16 668.54 1588.39L676.048 1574.9 684.251 1574.9 659.642 1619.86 636.562 1619.86C633.503 1619.86 631 1622.31 631 1625.3 631 1628.3 633.503 1630.75 636.562 1630.75L662.979 1630.75C665.064 1630.75 666.872 1629.66 667.845 1627.89L677.577 1610.32 693.567 1624.9 692.316 1652.28C692.037 1655.28 694.401 1657.86 697.46 1658 697.599 1658 697.599 1658 697.738 1658 700.658 1658 703.16 1655.68 703.299 1652.82L704.69 1622.85C704.829 1621.22 704.133 1619.72 702.882 1618.63L689.396 1606.37 703.577 1580.48 719.706 1590.43C720.957 1591.25 722.625 1591.52 724.155 1591.11 725.684 1590.7 726.936 1589.75 727.631 1588.39L735.278 1574.08C736.807 1571.49 735.834 1568.22 733.053 1566.72Z" fill="#FFFFFF" fill-rule="evenodd"/></g></svg>