<svg width="515" height="336" xmlns="http://www.w3.org/2000/svg" xmlns:xlink="http://www.w3.org/1999/xlink" xml:space="preserve" overflow="hidden"><defs><clipPath id="clip0"><rect x="1122" y="439" width="515" height="336"/></clipPath></defs><g clip-path="url(#clip0)" transform="translate(-1122 -439)"><path d="M1122 623.37C1122 615.986 1127.99 610 1135.37 610L1277.63 610C1285.01 610 1291 615.986 1291 623.37L1291 761.631C1291 769.015 1285.01 775.001 1277.63 775.001L1135.37 775.001C1127.99 775.001 1122 769.015 1122 761.631Z" fill="#734CDD" fill-rule="evenodd"/><path d="M1296 622.451C1296 615.022 1302.02 609 1309.45 609L1451.55 609C1458.98 609 1465 615.022 1465 622.451L1465 761.549C1465 768.978 1458.98 775 1451.55 775L1309.45 775C1302.02 775 1296 768.978 1296 761.549Z" fill="#734CDD" fill-rule="evenodd"/><path d="M1468 622.451C1468 615.022 1474.02 609 1481.45 609L1623.55 609C1630.98 609 1637 615.022 1637 622.451L1637 761.549C1637 768.978 1630.98 775 1623.55 775L1481.45 775C1474.02 775 1468 768.978 1468 761.549Z" fill="#734CDD" fill-rule="evenodd"/><path d="M1468 452.37C1468 444.986 1473.99 439 1481.37 439L1623.63 439C1631.01 439 1637 444.986 1637 452.37L1637 590.63C1637 598.014 1631.01 604 1623.63 604L1481.37 604C1473.99 604 1468 598.014 1468 590.63Z" fill="#734CDD" fill-rule="evenodd"/><path d="M1296 452.37C1296 444.986 1301.99 439 1309.37 439L1451.63 439C1459.01 439 1465 444.986 1465 452.37L1465 590.63C1465 598.014 1459.01 604 1451.63 604L1309.37 604C1301.99 604 1296 598.014 1296 590.63Z" fill="#5F605E" fill-rule="evenodd"/><path d="M1122 452.37C1122 444.986 1127.99 439 1135.37 439L1277.63 439C1285.01 439 1291 444.986 1291 452.37L1291 590.63C1291 598.014 1285.01 604 1277.63 604L1135.37 604C1127.99 604 1122 598.014 1122 590.63Z" fill="#734CDD" fill-rule="evenodd"/><path d="M1601.51 696.785 1591.37 679.53 1591.37 678.95C1591.98 663.057 1583.68 648.119 1569.76 640.09 1555.85 631.97 1538.55 631.97 1524.64 640.09 1510.7 648.094 1502.38 663.048 1503.04 678.95 1502.98 692.587 1509.4 705.463 1520.38 713.75L1520.38 750 1566.82 750 1566.82 732.745 1574.02 732.745C1578.67 732.776 1583.12 730.944 1586.37 727.67 1589.58 724.411 1591.38 720.039 1591.37 715.49L1591.37 706.79 1597.83 706.79C1601.67 706.5 1605.05 702.15 1601.51 696.785ZM1543.22 691.208C1546.1 690.773 1547.59 694.324 1545.81 696.698L1545.55 697.029C1543.66 699.311 1539.73 698.833 1539.46 695.98 1539.29 694.31 1537.07 692.592 1536.05 693.889L1529.53 702.15 1523.56 697.564C1522.24 696.549 1523.98 694.361 1525.68 694.2 1528.57 693.927 1529.06 690.056 1526.74 688.187L1526.4 687.929C1524 686.171 1520.4 687.65 1520.84 690.486 1521.1 692.144 1519.37 694.349 1518.06 693.339L1512.42 689.009 1518.97 680.71C1519.99 679.413 1517.75 677.709 1516.07 677.964 1513.2 678.399 1511.7 674.846 1513.48 672.474L1513.74 672.144C1515.64 669.861 1519.56 670.339 1519.84 673.192 1520 674.861 1522.22 676.579 1523.25 675.283L1529.76 667.018 1535.37 671.322C1536.68 672.337 1534.94 674.523 1533.25 674.683 1530.35 674.957 1529.87 678.828 1532.19 680.697L1532.52 680.955C1534.93 682.713 1538.53 681.229 1538.09 678.396 1537.83 676.739 1539.55 674.532 1540.87 675.545L1546.88 680.158 1540.33 688.462C1539.31 689.758 1541.54 691.464 1543.22 691.208ZM1565.51 667.188C1564.39 668.046 1562.92 666.165 1563.14 664.753 1563.52 662.336 1560.38 661.128 1558.33 662.622L1558.04 662.842C1556.06 664.437 1556.55 667.679 1559.01 667.917 1560.45 668.062 1561.94 669.927 1560.82 670.785L1556 674.471 1550.43 667.391C1549.56 666.284 1547.66 667.747 1547.52 669.17 1547.29 671.604 1544 672.08 1542.38 670.128L1542.15 669.844C1540.64 667.814 1541.86 664.721 1544.31 665.095 1545.75 665.314 1547.65 663.864 1546.78 662.758L1541.23 655.709 1546.01 652.047C1547.14 651.187 1548.61 653.062 1548.39 654.48 1548 656.898 1551.15 658.105 1553.2 656.611L1553.49 656.392C1555.47 654.797 1554.98 651.554 1552.52 651.317 1551.08 651.18 1549.59 649.312 1550.72 648.449L1555.84 644.523 1561.42 651.603C1562.29 652.709 1564.18 651.246 1564.32 649.824 1564.56 647.388 1567.85 646.914 1569.47 648.865L1569.69 649.147C1571.2 651.177 1569.98 654.27 1567.53 653.896 1566.1 653.676 1564.19 655.127 1565.06 656.233L1570.61 663.29Z" fill="#FFFFFF" fill-rule="evenodd"/><path d="M1265.52 517 1191 517 1191 555.546C1191.01 559.089 1193.91 561.959 1197.48 561.97L1262.28 561.97 1262.28 570 1272 570 1272 523.424C1271.99 519.881 1269.09 517.011 1265.52 517Z" fill="#FFFFFF" fill-rule="evenodd"/><path d="M1154.6 503.876C1154.65 501.232 1152.58 499.05 1149.98 499.001 1149.92 499 1149.86 499 1149.8 499.001 1147.2 498.952 1145.05 501.055 1145 503.699 1145 503.758 1145 503.817 1145 503.876L1145 577 1154.6 577 1154.6 560.751 1201 560.751 1201 544.501 1154.6 525.001Z" fill="#FFFFFF" fill-rule="evenodd"/><path d="M1186.5 494.5C1186.5 500.023 1182.02 504.5 1176.5 504.5 1170.98 504.5 1166.5 500.023 1166.5 494.5 1166.5 488.977 1170.98 484.5 1176.5 484.5 1182.02 484.5 1186.5 488.977 1186.5 494.5Z" stroke="#FFFFFF" stroke-width="4.58333" stroke-miterlimit="8" fill="#FFFFFF" fill-rule="evenodd"/><path d="M1176.5 531.423 1201.5 541.5 1201.5 524.02 1198.31 522.729C1189.8 519.332 1180.06 523.216 1176.5 531.423Z" stroke="#FFFFFF" stroke-width="4.58333" stroke-miterlimit="8" fill="#FFFFFF" fill-rule="evenodd"/><path d="M1429 482.8C1429 468.61 1422.05 457 1407.98 457 1393.92 457 1394.4 463.45 1380.5 463.45 1366.6 463.45 1367.08 457 1353.02 457 1338.95 457 1332 468.61 1332 482.8 1332 496.99 1343.32 511.019 1343.32 523.113 1343.32 534.561 1341.7 544.236 1341.7 552.138 1341.7 560.039 1341.54 586 1353.02 586 1364.49 586 1364.33 562.458 1364.33 552.138 1364.33 541.818 1365.63 526.338 1380.5 526.338 1395.37 526.338 1396.67 541.818 1396.67 552.138 1396.67 562.458 1396.51 586 1407.98 586 1419.46 586 1419.3 560.039 1419.3 552.138 1419.3 544.236 1417.68 534.561 1417.68 523.113 1417.68 511.019 1429 496.99 1429 482.8Z" fill="#FFFFFF" fill-rule="evenodd"/><path d="M1176 727.5C1176 734.404 1170.4 740 1163.5 740 1156.6 740 1151 734.404 1151 727.5 1151 720.596 1156.6 715 1163.5 715 1170.4 715 1176 720.596 1176 727.5Z" stroke="#FFFFFF" stroke-width="2.29167" stroke-miterlimit="8" fill="#FFFFFF" fill-rule="evenodd"/><path d="M1261 727.5C1261 734.404 1255.4 740 1248.5 740 1241.6 740 1236 734.404 1236 727.5 1236 720.596 1241.6 715 1248.5 715 1255.4 715 1261 720.596 1261 727.5Z" stroke="#FFFFFF" stroke-width="2.29167" stroke-miterlimit="8" fill="#FFFFFF" fill-rule="evenodd"/><path d="M1275.14 701.509 1265.67 694.418C1264.42 693.501 1263.54 692.186 1263.16 690.696L1259.59 678.464C1257.77 672.418 1252.19 668.251 1245.83 668.182L1242.25 668.182 1242.25 659.318C1242.25 656.381 1239.85 654 1236.89 654L1233.31 654C1230.35 654 1227.95 656.381 1227.95 659.318L1227.95 668.182 1227.95 668.182 1227.95 664.636C1227.95 660.72 1224.75 657.546 1220.8 657.546L1142.15 657.546C1138.2 657.546 1135 660.72 1135 664.636L1135 724.909C1135 728.825 1138.2 732 1142.15 732L1145.73 732C1145.73 722.21 1153.73 714.273 1163.6 714.273 1173.47 714.273 1181.48 722.21 1181.48 732L1235.1 732C1235.1 722.21 1243.1 714.273 1252.98 714.273 1262.85 714.273 1270.85 722.21 1270.85 732 1274.8 732 1278 728.825 1278 724.909L1278 707.182C1278 704.95 1276.94 702.848 1275.14 701.509ZM1206.95 694.418 1201.58 703.636 1192.2 698.318 1192.2 708.955 1181.48 708.955 1181.48 698.212 1172.09 703.53 1166.73 694.312 1176.11 688.994 1166.73 683.675 1172.09 674.457 1181.48 679.776 1181.48 669.033 1192.2 669.033 1192.2 679.793 1201.58 674.475 1206.95 683.693 1197.56 689.011ZM1235.1 693 1235.1 675.273 1245.83 675.273C1249.01 675.229 1251.82 677.352 1252.62 680.414L1256.19 692.646C1256.19 692.823 1256.37 692.823 1256.37 693Z" fill="#FFFFFF" fill-rule="evenodd"/><path d="M1536.5 520.5 1536.5 486.882C1536.5 478.665 1543.92 471.941 1553 471.941 1562.07 471.941 1569.5 478.665 1569.5 486.882L1569.5 520.5 1536.5 520.5ZM1586 554.118 1586 486.882C1586 470.447 1571.15 457 1553 457 1534.85 457 1520 470.447 1520 486.882L1520 554.118C1520 570.553 1534.85 584 1553 584 1571.15 584 1586 570.553 1586 554.118Z" stroke="#FFFFFF" stroke-width="2.29167" stroke-miterlimit="8" fill="#BAC4BC" fill-rule="evenodd"/><path d="M1529 527 1529 498.5C1529 482.76 1540.19 470 1554 470 1567.81 470 1579 482.76 1579 498.5L1579 527Z" stroke="#FFFFFF" stroke-width="2.29167" stroke-linejoin="round" stroke-miterlimit="10" fill="#FFFFFF" fill-rule="evenodd"/><path d="M1414 644C1414 650.075 1409.08 655 1403 655 1396.92 655 1392 650.075 1392 644 1392 637.925 1396.92 633 1403 633 1409.08 633 1414 637.925 1414 644Z" fill="#FFFFFF" fill-rule="evenodd"/><path d="M1430.05 658.754C1427.27 657.377 1423.94 658.34 1422.55 661.094L1417.68 670.181 1396.27 656.826C1395.43 656.275 1394.46 656 1393.35 656L1369.71 656C1367.63 656 1365.82 657.101 1364.84 658.891L1355.81 675.413C1354.28 678.029 1355.39 681.471 1358.03 682.848 1358.87 683.261 1359.84 683.536 1360.67 683.536 1362.62 683.536 1364.57 682.435 1365.54 680.645L1373.05 667.014 1381.25 667.014 1356.64 712.449 1333.56 712.449C1330.5 712.449 1328 714.928 1328 717.957 1328 720.985 1330.5 723.464 1333.56 723.464L1359.98 723.464C1362.06 723.464 1363.87 722.362 1364.84 720.573L1374.58 702.812 1390.57 717.543 1389.32 745.217C1389.04 748.246 1391.4 750.862 1394.46 751 1394.6 751 1394.6 751 1394.74 751 1397.66 751 1400.16 748.66 1400.3 745.768L1401.69 715.478C1401.83 713.826 1401.13 712.312 1399.88 711.21L1386.4 698.819 1400.58 672.659 1416.71 682.71C1417.96 683.536 1419.63 683.811 1421.15 683.399 1422.68 682.985 1423.94 682.022 1424.63 680.645L1432.28 666.188C1433.81 663.572 1432.83 660.268 1430.05 658.754Z" fill="#FFFFFF" fill-rule="evenodd"/></g></svg>