<svg width="515" height="337" xmlns="http://www.w3.org/2000/svg" xmlns:xlink="http://www.w3.org/1999/xlink" xml:space="preserve" overflow="hidden"><g transform="translate(-1134 -880)"><path d="M1134 1064.45C1134 1057.02 1140.02 1051 1147.45 1051L1289.55 1051C1296.98 1051 1303 1057.02 1303 1064.45L1303 1203.55C1303 1210.98 1296.98 1217 1289.55 1217L1147.45 1217C1140.02 1217 1134 1210.98 1134 1203.55Z" fill="#734CDD" fill-rule="evenodd"/><path d="M1308 1064.45C1308 1057.02 1314.02 1051 1321.45 1051L1463.55 1051C1470.98 1051 1477 1057.02 1477 1064.45L1477 1203.55C1477 1210.98 1470.98 1217 1463.55 1217L1321.45 1217C1314.02 1217 1308 1210.98 1308 1203.55Z" fill="#734CDD" fill-rule="evenodd"/><path d="M1480 1064.45C1480 1057.02 1486.02 1051 1493.45 1051L1635.55 1051C1642.98 1051 1649 1057.02 1649 1064.45L1649 1203.55C1649 1210.98 1642.98 1217 1635.55 1217L1493.45 1217C1486.02 1217 1480 1210.98 1480 1203.55Z" fill="#5F605E" fill-rule="evenodd"/><path d="M1480 893.451C1480 886.022 1486.02 880 1493.45 880L1635.55 880C1642.98 880 1649 886.022 1649 893.451L1649 1032.55C1649 1039.98 1642.98 1046 1635.55 1046L1493.45 1046C1486.02 1046 1480 1039.98 1480 1032.55Z" fill="#734CDD" fill-rule="evenodd"/><path d="M1308 893.451C1308 886.022 1314.02 880 1321.45 880L1463.55 880C1470.98 880 1477 886.022 1477 893.451L1477 1032.55C1477 1039.98 1470.98 1046 1463.55 1046L1321.45 1046C1314.02 1046 1308 1039.98 1308 1032.55Z" fill="#734CDD" fill-rule="evenodd"/><path d="M1134 893.451C1134 886.022 1140.02 880 1147.45 880L1289.55 880C1296.98 880 1303 886.022 1303 893.451L1303 1032.55C1303 1039.98 1296.98 1046 1289.55 1046L1147.45 1046C1140.02 1046 1134 1039.98 1134 1032.55Z" fill="#5F605E" fill-rule="evenodd"/><path d="M1613.51 1138.79 1603.37 1121.53 1603.37 1120.95C1603.98 1105.06 1595.68 1090.12 1581.76 1082.09 1567.85 1073.97 1550.55 1073.97 1536.64 1082.09 1522.7 1090.09 1514.38 1105.05 1515.04 1120.95 1514.98 1134.59 1521.4 1147.46 1532.38 1155.75L1532.38 1192 1578.82 1192 1578.82 1174.75 1586.02 1174.75C1590.67 1174.78 1595.12 1172.94 1598.37 1169.67 1601.58 1166.41 1603.38 1162.04 1603.37 1157.49L1603.37 1148.79 1609.83 1148.79C1613.67 1148.5 1617.05 1144.15 1613.51 1138.79ZM1555.22 1133.21C1558.1 1132.77 1559.59 1136.32 1557.81 1138.7L1557.55 1139.03C1555.66 1141.31 1551.73 1140.83 1551.46 1137.98 1551.29 1136.31 1549.07 1134.59 1548.05 1135.89L1541.53 1144.15 1535.56 1139.56C1534.24 1138.55 1535.98 1136.36 1537.68 1136.2 1540.57 1135.93 1541.06 1132.06 1538.74 1130.19L1538.4 1129.93C1536 1128.17 1532.4 1129.65 1532.84 1132.49 1533.1 1134.14 1531.37 1136.35 1530.06 1135.34L1524.42 1131.01 1530.97 1122.71C1531.99 1121.41 1529.75 1119.71 1528.07 1119.96 1525.2 1120.4 1523.7 1116.85 1525.48 1114.47L1525.74 1114.14C1527.64 1111.86 1531.56 1112.34 1531.84 1115.19 1532 1116.86 1534.22 1118.58 1535.25 1117.28L1541.76 1109.02 1547.37 1113.32C1548.68 1114.34 1546.94 1116.52 1545.25 1116.68 1542.35 1116.96 1541.87 1120.83 1544.19 1122.7L1544.52 1122.96C1546.93 1124.71 1550.53 1123.23 1550.09 1120.4 1549.83 1118.74 1551.55 1116.53 1552.87 1117.55L1558.88 1122.16 1552.33 1130.46C1551.31 1131.76 1553.54 1133.46 1555.22 1133.21ZM1577.51 1109.19C1576.39 1110.05 1574.92 1108.17 1575.14 1106.75 1575.52 1104.34 1572.38 1103.13 1570.33 1104.62L1570.04 1104.84C1568.06 1106.44 1568.55 1109.68 1571.01 1109.92 1572.45 1110.06 1573.94 1111.93 1572.82 1112.79L1568 1116.47 1562.43 1109.39C1561.56 1108.28 1559.66 1109.75 1559.52 1111.17 1559.29 1113.6 1556 1114.08 1554.38 1112.13L1554.15 1111.84C1552.64 1109.81 1553.86 1106.72 1556.31 1107.1 1557.75 1107.31 1559.65 1105.86 1558.78 1104.76L1553.23 1097.71 1558.01 1094.05C1559.14 1093.19 1560.61 1095.06 1560.39 1096.48 1560 1098.9 1563.15 1100.1 1565.2 1098.61L1565.49 1098.39C1567.47 1096.8 1566.98 1093.55 1564.52 1093.32 1563.08 1093.18 1561.59 1091.31 1562.72 1090.45L1567.84 1086.52 1573.42 1093.6C1574.29 1094.71 1576.18 1093.25 1576.32 1091.82 1576.56 1089.39 1579.85 1088.91 1581.47 1090.87L1581.69 1091.15C1583.2 1093.18 1581.98 1096.27 1579.53 1095.9 1578.1 1095.68 1576.19 1097.13 1577.06 1098.23L1582.61 1105.29Z" fill="#FFFFFF" fill-rule="evenodd"/><path d="M1277.52 959 1203 959 1203 997.546C1203.01 1001.09 1205.91 1003.96 1209.48 1003.97L1274.28 1003.97 1274.28 1012 1284 1012 1284 965.424C1283.99 961.881 1281.09 959.011 1277.52 959Z" fill="#FFFFFF" fill-rule="evenodd"/><path d="M1165.77 945.876C1165.82 943.232 1163.71 941.05 1161.06 941.001 1161 941 1160.95 941 1160.89 941.001 1158.24 940.952 1156.05 943.055 1156 945.698 1156 945.758 1156 945.817 1156 945.876L1156 1019 1165.77 1019 1165.77 1002.75 1213 1002.75 1213 986.5 1165.77 967Z" fill="#FFFFFF" fill-rule="evenodd"/><path d="M1198.5 936C1198.5 941.247 1194.02 945.5 1188.5 945.5 1182.98 945.5 1178.5 941.247 1178.5 936 1178.5 930.753 1182.98 926.5 1188.5 926.5 1194.02 926.5 1198.5 930.753 1198.5 936Z" stroke="#FFFFFF" stroke-width="4.58333" stroke-miterlimit="8" fill="#FFFFFF" fill-rule="evenodd"/><path d="M1188.5 973.423 1213.5 983.5 1213.5 966.02 1210.31 964.729C1201.8 961.332 1192.06 965.217 1188.5 973.423Z" stroke="#FFFFFF" stroke-width="4.58333" stroke-miterlimit="8" fill="#FFFFFF" fill-rule="evenodd"/><path d="M1441 924.8C1441 910.61 1434.05 899 1419.98 899 1405.92 899 1406.4 905.45 1392.5 905.45 1378.6 905.45 1379.08 899 1365.02 899 1350.95 899 1344 910.61 1344 924.8 1344 938.99 1355.32 953.019 1355.32 965.113 1355.32 976.561 1353.7 986.236 1353.7 994.138 1353.7 1002.04 1353.54 1028 1365.02 1028 1376.5 1028 1376.33 1004.46 1376.33 994.138 1376.33 983.818 1377.63 968.338 1392.5 968.338 1407.37 968.338 1408.67 983.818 1408.67 994.138 1408.67 1004.46 1408.51 1028 1419.98 1028 1431.46 1028 1431.3 1002.04 1431.3 994.138 1431.3 986.236 1429.68 976.561 1429.68 965.113 1429.68 953.019 1441 938.99 1441 924.8Z" fill="#FFFFFF" fill-rule="evenodd"/><path d="M1188 1169.5C1188 1176.4 1182.4 1182 1175.5 1182 1168.6 1182 1163 1176.4 1163 1169.5 1163 1162.6 1168.6 1157 1175.5 1157 1182.4 1157 1188 1162.6 1188 1169.5Z" stroke="#FFFFFF" stroke-width="2.29167" stroke-miterlimit="8" fill="#FFFFFF" fill-rule="evenodd"/><path d="M1273 1169.5C1273 1176.4 1267.4 1182 1260.5 1182 1253.6 1182 1248 1176.4 1248 1169.5 1248 1162.6 1253.6 1157 1260.5 1157 1267.4 1157 1273 1162.6 1273 1169.5Z" stroke="#FFFFFF" stroke-width="2.29167" stroke-miterlimit="8" fill="#FFFFFF" fill-rule="evenodd"/><path d="M1287.14 1143.51 1277.67 1136.42C1276.42 1135.5 1275.54 1134.19 1275.16 1132.7L1271.59 1120.46C1269.77 1114.42 1264.19 1110.25 1257.83 1110.18L1254.25 1110.18 1254.25 1101.32C1254.25 1098.38 1251.85 1096 1248.89 1096L1245.31 1096C1242.35 1096 1239.95 1098.38 1239.95 1101.32L1239.95 1110.18 1239.95 1110.18 1239.95 1106.64C1239.95 1102.72 1236.75 1099.55 1232.8 1099.55L1154.15 1099.55C1150.2 1099.55 1147 1102.72 1147 1106.64L1147 1166.91C1147 1170.83 1150.2 1174 1154.15 1174L1157.73 1174C1157.73 1164.21 1165.73 1156.27 1175.6 1156.27 1185.47 1156.27 1193.48 1164.21 1193.48 1174L1247.1 1174C1247.1 1164.21 1255.1 1156.27 1264.98 1156.27 1274.85 1156.27 1282.85 1164.21 1282.85 1174 1286.8 1174 1290 1170.83 1290 1166.91L1290 1149.18C1290 1146.95 1288.94 1144.85 1287.14 1143.51ZM1218.95 1136.42 1213.58 1145.64 1204.2 1140.32 1204.2 1150.95 1193.48 1150.95 1193.48 1140.21 1184.09 1145.53 1178.73 1136.31 1188.11 1130.99 1178.73 1125.68 1184.09 1116.46 1193.48 1121.78 1193.48 1111.03 1204.2 1111.03 1204.2 1121.79 1213.58 1116.47 1218.95 1125.69 1209.56 1131.01ZM1247.1 1135 1247.1 1117.27 1257.83 1117.27C1261.01 1117.23 1263.82 1119.35 1264.62 1122.41L1268.19 1134.65C1268.19 1134.82 1268.37 1134.82 1268.37 1135Z" fill="#FFFFFF" fill-rule="evenodd"/><path d="M1548.5 962 1548.5 928.117C1548.5 919.835 1555.92 913.059 1565 913.059 1574.08 913.059 1581.5 919.835 1581.5 928.117L1581.5 962 1548.5 962ZM1598 995.883 1598 928.117C1598 911.553 1583.15 898 1565 898 1546.85 898 1532 911.553 1532 928.117L1532 995.883C1532 1012.45 1546.85 1026 1565 1026 1583.15 1026 1598 1012.45 1598 995.883Z" stroke="#FFFFFF" stroke-width="2.29167" stroke-miterlimit="8" fill="#BAC4BC" fill-rule="evenodd"/><path d="M1541 969 1541 940.5C1541 924.76 1552.19 912 1566 912 1579.81 912 1591 924.76 1591 940.5L1591 969Z" stroke="#FFFFFF" stroke-width="2.29167" stroke-linejoin="round" stroke-miterlimit="10" fill="#FFFFFF" fill-rule="evenodd"/><path d="M1426 1086C1426 1092.08 1421.08 1097 1415 1097 1408.92 1097 1404 1092.08 1404 1086 1404 1079.92 1408.92 1075 1415 1075 1421.08 1075 1426 1079.92 1426 1086Z" fill="#FFFFFF" fill-rule="evenodd"/><path d="M1442.05 1100.75C1439.27 1099.38 1435.94 1100.34 1434.55 1103.09L1429.68 1112.18 1408.27 1098.83C1407.43 1098.28 1406.46 1098 1405.35 1098L1381.71 1098C1379.63 1098 1377.82 1099.1 1376.84 1100.89L1367.81 1117.41C1366.28 1120.03 1367.39 1123.47 1370.03 1124.85 1370.87 1125.26 1371.84 1125.54 1372.67 1125.54 1374.62 1125.54 1376.57 1124.43 1377.54 1122.64L1385.05 1109.01 1393.25 1109.01 1368.64 1154.45 1345.56 1154.45C1342.5 1154.45 1340 1156.93 1340 1159.96 1340 1162.99 1342.5 1165.46 1345.56 1165.46L1371.98 1165.46C1374.06 1165.46 1375.87 1164.36 1376.84 1162.57L1386.58 1144.81 1402.57 1159.54 1401.32 1187.22C1401.04 1190.25 1403.4 1192.86 1406.46 1193 1406.6 1193 1406.6 1193 1406.74 1193 1409.66 1193 1412.16 1190.66 1412.3 1187.77L1413.69 1157.48C1413.83 1155.83 1413.13 1154.31 1411.88 1153.21L1398.4 1140.82 1412.58 1114.66 1428.71 1124.71C1429.96 1125.54 1431.63 1125.81 1433.15 1125.4 1434.68 1124.99 1435.94 1124.02 1436.63 1122.64L1444.28 1108.19C1445.81 1105.57 1444.83 1102.27 1442.05 1100.75Z" fill="#FFFFFF" fill-rule="evenodd"/></g></svg>