<svg width="515" height="337" xmlns="http://www.w3.org/2000/svg" xmlns:xlink="http://www.w3.org/1999/xlink" xml:space="preserve" overflow="hidden"><g transform="translate(-1113 -1341)"><path d="M1113 1525.45C1113 1518.02 1119.02 1512 1126.45 1512L1268.55 1512C1275.98 1512 1282 1518.02 1282 1525.45L1282 1664.55C1282 1671.98 1275.98 1678 1268.55 1678L1126.45 1678C1119.02 1678 1113 1671.98 1113 1664.55Z" fill="#5F605E" fill-rule="evenodd"/><path d="M1287 1525.37C1287 1517.99 1292.99 1512 1300.37 1512L1442.63 1512C1450.01 1512 1456 1517.99 1456 1525.37L1456 1663.63C1456 1671.01 1450.01 1677 1442.63 1677L1300.37 1677C1292.99 1677 1287 1671.01 1287 1663.63Z" fill="#734CDD" fill-rule="evenodd"/><path d="M1459 1525.37C1459 1517.99 1464.99 1512 1472.37 1512L1614.63 1512C1622.01 1512 1628 1517.99 1628 1525.37L1628 1663.63C1628 1671.01 1622.01 1677 1614.63 1677L1472.37 1677C1464.99 1677 1459 1671.01 1459 1663.63Z" fill="#734CDD" fill-rule="evenodd"/><path d="M1459 1354.45C1459 1347.02 1465.02 1341 1472.45 1341L1614.55 1341C1621.98 1341 1628 1347.02 1628 1354.45L1628 1493.55C1628 1500.98 1621.98 1507 1614.55 1507L1472.45 1507C1465.02 1507 1459 1500.98 1459 1493.55Z" fill="#734CDD" fill-rule="evenodd"/><path d="M1287 1354.45C1287 1347.02 1293.02 1341 1300.45 1341L1442.55 1341C1449.98 1341 1456 1347.02 1456 1354.45L1456 1493.55C1456 1500.98 1449.98 1507 1442.55 1507L1300.45 1507C1293.02 1507 1287 1500.98 1287 1493.55Z" fill="#734CDD" fill-rule="evenodd"/><path d="M1113 1354.45C1113 1347.02 1119.02 1341 1126.45 1341L1268.55 1341C1275.98 1341 1282 1347.02 1282 1354.45L1282 1493.55C1282 1500.98 1275.98 1507 1268.55 1507L1126.45 1507C1119.02 1507 1113 1500.98 1113 1493.55Z" fill="#734CDD" fill-rule="evenodd"/><path d="M1591.52 1599.33 1581.48 1581.92 1581.48 1581.34C1582.09 1565.31 1573.87 1550.24 1560.09 1542.14 1546.32 1533.95 1529.2 1533.95 1515.42 1542.14 1501.62 1550.22 1493.39 1565.3 1494.04 1581.34 1493.98 1595.09 1500.34 1608.08 1511.2 1616.44L1511.2 1653 1557.18 1653 1557.18 1635.6 1564.31 1635.6C1568.91 1635.63 1573.32 1633.78 1576.53 1630.48 1579.72 1627.19 1581.49 1622.78 1581.48 1618.19L1581.48 1609.42 1587.88 1609.42C1591.68 1609.13 1595.03 1604.74 1591.52 1599.33ZM1533.82 1593.7C1536.66 1593.26 1538.15 1596.84 1536.39 1599.24L1536.13 1599.57C1534.25 1601.87 1530.36 1601.39 1530.09 1598.51 1529.93 1596.83 1527.73 1595.1 1526.72 1596.41L1520.27 1604.74 1514.35 1600.11C1513.05 1599.09 1514.78 1596.88 1516.45 1596.72 1519.32 1596.44 1519.8 1592.54 1517.5 1590.65L1517.17 1590.39C1514.79 1588.62 1511.23 1590.11 1511.66 1592.97 1511.92 1594.64 1510.21 1596.87 1508.91 1595.85L1503.33 1591.48 1509.81 1583.11C1510.82 1581.8 1508.61 1580.09 1506.94 1580.34 1504.1 1580.78 1502.61 1577.2 1504.38 1574.81L1504.64 1574.47C1506.51 1572.17 1510.4 1572.65 1510.67 1575.53 1510.83 1577.21 1513.03 1578.95 1514.04 1577.64L1520.5 1569.3 1526.04 1573.64C1527.35 1574.67 1525.62 1576.87 1523.95 1577.03 1521.08 1577.31 1520.6 1581.21 1522.89 1583.1L1523.23 1583.36C1525.61 1585.13 1529.17 1583.64 1528.74 1580.78 1528.48 1579.11 1530.18 1576.88 1531.49 1577.9L1537.44 1582.56 1530.96 1590.93C1529.94 1592.24 1532.15 1593.96 1533.82 1593.7ZM1555.88 1569.47C1554.77 1570.34 1553.32 1568.44 1553.54 1567.02 1553.92 1564.58 1550.81 1563.36 1548.77 1564.87L1548.49 1565.09C1546.53 1566.7 1547.01 1569.97 1549.45 1570.21 1550.88 1570.36 1552.35 1572.24 1551.24 1573.1L1546.47 1576.82 1540.96 1569.68C1540.1 1568.56 1538.22 1570.04 1538.08 1571.47 1537.84 1573.93 1534.59 1574.41 1532.99 1572.44L1532.76 1572.15C1531.26 1570.11 1532.47 1566.99 1534.9 1567.36 1536.32 1567.58 1538.2 1566.12 1537.34 1565.01L1531.85 1557.9 1536.58 1554.2C1537.7 1553.33 1539.15 1555.23 1538.93 1556.66 1538.55 1559.1 1541.66 1560.31 1543.69 1558.81L1543.99 1558.59C1545.94 1556.98 1545.46 1553.7 1543.02 1553.47 1541.6 1553.33 1540.12 1551.44 1541.24 1550.57L1546.31 1546.61 1551.83 1553.75C1552.69 1554.87 1554.57 1553.39 1554.71 1551.96 1554.95 1549.5 1558.2 1549.03 1559.8 1550.99L1560.02 1551.28C1561.52 1553.32 1560.31 1556.44 1557.88 1556.07 1556.47 1555.85 1554.58 1557.31 1555.44 1558.42L1560.93 1565.54Z" fill="#FFFFFF" fill-rule="evenodd"/><path d="M1256.52 1420 1182 1420 1182 1458.55C1182.01 1462.09 1184.91 1464.96 1188.48 1464.97L1253.28 1464.97 1253.28 1473 1263 1473 1263 1426.42C1262.99 1422.88 1260.09 1420.01 1256.52 1420Z" fill="#FFFFFF" fill-rule="evenodd"/><path d="M1144.77 1406.81C1144.82 1404.2 1142.71 1402.05 1140.06 1402 1140 1402 1139.95 1402 1139.89 1402 1137.24 1401.95 1135.05 1404.03 1135 1406.64 1135 1406.7 1135 1406.76 1135 1406.81L1135 1479 1144.77 1479 1144.77 1462.96 1192 1462.96 1192 1446.92 1144.77 1427.67Z" fill="#FFFFFF" fill-rule="evenodd"/><path d="M1176.5 1397C1176.5 1402.25 1172.25 1406.5 1167 1406.5 1161.75 1406.5 1157.5 1402.25 1157.5 1397 1157.5 1391.75 1161.75 1387.5 1167 1387.5 1172.25 1387.5 1176.5 1391.75 1176.5 1397Z" stroke="#FFFFFF" stroke-width="4.58333" stroke-miterlimit="8" fill="#FFFFFF" fill-rule="evenodd"/><path d="M1167.5 1433.42 1191.5 1443.5 1191.5 1426.02 1188.44 1424.73C1180.27 1421.33 1170.92 1425.22 1167.5 1433.42Z" stroke="#FFFFFF" stroke-width="4.58333" stroke-miterlimit="8" fill="#FFFFFF" fill-rule="evenodd"/><path d="M1420 1384.8C1420 1370.61 1412.98 1359 1398.77 1359 1384.56 1359 1385.05 1365.45 1371 1365.45 1356.95 1365.45 1357.44 1359 1343.23 1359 1329.02 1359 1322 1370.61 1322 1384.8 1322 1398.99 1333.43 1413.02 1333.43 1425.11 1333.43 1436.56 1331.8 1446.24 1331.8 1454.14 1331.8 1462.04 1331.64 1488 1343.23 1488 1354.83 1488 1354.67 1464.46 1354.67 1454.14 1354.67 1443.82 1355.97 1428.34 1371 1428.34 1386.03 1428.34 1387.33 1443.82 1387.33 1454.14 1387.33 1464.46 1387.17 1488 1398.77 1488 1410.36 1488 1410.2 1462.04 1410.2 1454.14 1410.2 1446.24 1408.57 1436.56 1408.57 1425.11 1408.57 1413.02 1420 1398.99 1420 1384.8Z" fill="#FFFFFF" fill-rule="evenodd"/><path d="M1167 1629.5C1167 1636.4 1161.4 1642 1154.5 1642 1147.6 1642 1142 1636.4 1142 1629.5 1142 1622.6 1147.6 1617 1154.5 1617 1161.4 1617 1167 1622.6 1167 1629.5Z" stroke="#FFFFFF" stroke-width="2.29167" stroke-miterlimit="8" fill="#FFFFFF" fill-rule="evenodd"/><path d="M1251 1629.5C1251 1636.4 1245.4 1642 1238.5 1642 1231.6 1642 1226 1636.4 1226 1629.5 1226 1622.6 1231.6 1617 1238.5 1617 1245.4 1617 1251 1622.6 1251 1629.5Z" stroke="#FFFFFF" stroke-width="2.29167" stroke-miterlimit="8" fill="#FFFFFF" fill-rule="evenodd"/><path d="M1266.14 1604.12 1256.67 1596.94C1255.42 1596.01 1254.54 1594.68 1254.16 1593.17L1250.59 1580.78C1248.77 1574.65 1243.19 1570.43 1236.83 1570.36L1233.25 1570.36 1233.25 1561.39C1233.25 1558.41 1230.85 1556 1227.89 1556L1224.31 1556C1221.35 1556 1218.95 1558.41 1218.95 1561.39L1218.95 1570.36 1218.95 1570.36 1218.95 1566.77C1218.95 1562.81 1215.75 1559.59 1211.8 1559.59L1133.15 1559.59C1129.2 1559.59 1126 1562.81 1126 1566.77L1126 1627.82C1126 1631.78 1129.2 1635 1133.15 1635L1136.73 1635C1136.73 1625.08 1144.73 1617.05 1154.6 1617.05 1164.47 1617.05 1172.48 1625.08 1172.48 1635L1226.1 1635C1226.1 1625.08 1234.1 1617.05 1243.98 1617.05 1253.85 1617.05 1261.85 1625.08 1261.85 1635 1265.8 1635 1269 1631.78 1269 1627.82L1269 1609.86C1269 1607.6 1267.94 1605.47 1266.14 1604.12ZM1197.95 1596.94 1192.58 1606.27 1183.2 1600.89 1183.2 1611.66 1172.48 1611.66 1172.48 1600.78 1163.09 1606.17 1157.73 1596.83 1167.11 1591.44 1157.73 1586.06 1163.09 1576.72 1172.48 1582.11 1172.48 1571.23 1183.2 1571.23 1183.2 1582.12 1192.58 1576.74 1197.95 1586.07 1188.56 1591.46ZM1226.1 1595.5 1226.1 1577.55 1236.83 1577.55C1240.01 1577.5 1242.82 1579.65 1243.62 1582.75L1247.19 1595.14C1247.19 1595.32 1247.37 1595.32 1247.37 1595.5Z" fill="#FFFFFF" fill-rule="evenodd"/><path d="M1526.75 1422.5 1526.75 1388.88C1526.75 1380.66 1534.29 1373.94 1543.5 1373.94 1552.71 1373.94 1560.25 1380.66 1560.25 1388.88L1560.25 1422.5 1526.75 1422.5ZM1577 1456.12 1577 1388.88C1577 1372.45 1561.93 1359 1543.5 1359 1525.08 1359 1510 1372.45 1510 1388.88L1510 1456.12C1510 1472.55 1525.08 1486 1543.5 1486 1561.93 1486 1577 1472.55 1577 1456.12Z" stroke="#FFFFFF" stroke-width="2.29167" stroke-miterlimit="8" fill="#BAC4BC" fill-rule="evenodd"/><path d="M1520 1429 1520 1401C1520 1385.54 1530.97 1373 1544.5 1373 1558.03 1373 1569 1385.54 1569 1401L1569 1429Z" stroke="#FFFFFF" stroke-width="2.29167" stroke-linejoin="round" stroke-miterlimit="10" fill="#FFFFFF" fill-rule="evenodd"/><path d="M1405 1546C1405 1552.08 1400.08 1557 1394 1557 1387.92 1557 1383 1552.08 1383 1546 1383 1539.92 1387.92 1535 1394 1535 1400.08 1535 1405 1539.92 1405 1546Z" fill="#FFFFFF" fill-rule="evenodd"/><path d="M1420.08 1561.75C1417.33 1560.38 1414.02 1561.34 1412.65 1564.09L1407.82 1573.18 1386.62 1559.83C1385.79 1559.28 1384.83 1559 1383.73 1559L1360.31 1559C1358.25 1559 1356.46 1560.1 1355.49 1561.89L1346.54 1578.41C1345.03 1581.03 1346.13 1584.47 1348.75 1585.85 1349.57 1586.26 1350.54 1586.54 1351.36 1586.54 1353.29 1586.54 1355.22 1585.43 1356.18 1583.64L1363.62 1570.01 1371.74 1570.01 1347.37 1615.45 1324.51 1615.45C1321.48 1615.45 1319 1617.93 1319 1620.96 1319 1623.99 1321.48 1626.46 1324.51 1626.46L1350.67 1626.46C1352.74 1626.46 1354.53 1625.36 1355.49 1623.57L1365.13 1605.81 1380.97 1620.54 1379.73 1648.22C1379.46 1651.25 1381.8 1653.86 1384.83 1654 1384.96 1654 1384.96 1654 1385.1 1654 1387.99 1654 1390.47 1651.66 1390.61 1648.77L1391.99 1618.48C1392.13 1616.83 1391.44 1615.31 1390.2 1614.21L1376.84 1601.82 1390.89 1575.66 1406.86 1585.71C1408.1 1586.54 1409.75 1586.81 1411.27 1586.4 1412.78 1585.99 1414.02 1585.02 1414.71 1583.64L1422.28 1569.19C1423.8 1566.57 1422.84 1563.27 1420.08 1561.75Z" fill="#FFFFFF" fill-rule="evenodd"/></g></svg>