<svg width="515" height="337" xmlns="http://www.w3.org/2000/svg" xmlns:xlink="http://www.w3.org/1999/xlink" xml:space="preserve" overflow="hidden"><defs><clipPath id="clip0"><rect x="1751" y="416" width="515" height="337"/></clipPath></defs><g clip-path="url(#clip0)" transform="translate(-1751 -416)"><path d="M1751 600.451C1751 593.022 1757.02 587 1764.45 587L1906.55 587C1913.98 587 1920 593.022 1920 600.451L1920 739.549C1920 746.978 1913.98 753 1906.55 753L1764.45 753C1757.02 753 1751 746.978 1751 739.549Z" fill="#734CDD" fill-rule="evenodd"/><path d="M1925 600.37C1925 592.986 1930.99 587 1938.37 587L2080.63 587C2088.01 587 2094 592.986 2094 600.37L2094 738.631C2094 746.015 2088.01 752 2080.63 752L1938.37 752C1930.99 752 1925 746.015 1925 738.631Z" fill="#734CDD" fill-rule="evenodd"/><path d="M2098 600.37C2098 592.986 2103.99 587 2111.37 587L2252.63 587C2260.01 587 2266 592.986 2266 600.37L2266 738.63C2266 746.014 2260.01 752 2252.63 752L2111.37 752C2103.99 752 2098 746.014 2098 738.63Z" fill="#734CDD" fill-rule="evenodd"/><path d="M2098 429.451C2098 422.022 2104.02 416 2111.45 416L2252.55 416C2259.98 416 2266 422.022 2266 429.451L2266 568.549C2266 575.978 2259.98 582 2252.55 582L2111.45 582C2104.02 582 2098 575.978 2098 568.549Z" fill="#734CDD" fill-rule="evenodd"/><path d="M1925 429.451C1925 422.022 1931.02 416 1938.45 416L2080.55 416C2087.98 416 2094 422.022 2094 429.451L2094 568.549C2094 575.978 2087.98 582 2080.55 582L1938.45 582C1931.02 582 1925 575.978 1925 568.549Z" fill="#734CDD" fill-rule="evenodd"/><path d="M1751 429.451C1751 422.022 1757.02 416 1764.45 416L1906.55 416C1913.98 416 1920 422.022 1920 429.451L1920 568.549C1920 575.977 1913.98 582 1906.55 582L1764.45 582C1757.02 582 1751 575.977 1751 568.549Z" fill="#734CDD" fill-rule="evenodd"/><path d="M2230.51 674.326 2220.37 656.923 2220.37 656.338C2220.98 640.307 2212.68 625.241 2198.76 617.142 2184.85 608.952 2167.55 608.952 2153.64 617.142 2139.7 625.215 2131.38 640.298 2132.04 656.338 2131.98 670.092 2138.4 683.079 2149.38 691.438L2149.38 728 2195.82 728 2195.82 710.596 2203.02 710.596C2207.67 710.627 2212.12 708.78 2215.37 705.478 2218.58 702.19 2220.38 697.78 2220.37 693.193L2220.37 684.418 2226.83 684.418C2230.67 684.125 2234.05 679.738 2230.51 674.326ZM2172.22 668.702C2175.1 668.263 2176.59 671.844 2174.81 674.239L2174.55 674.572C2172.66 676.874 2168.73 676.391 2168.46 673.515 2168.29 671.83 2166.07 670.097 2165.05 671.406L2158.53 679.738 2152.56 675.112C2151.24 674.088 2152.99 671.881 2154.68 671.719 2157.57 671.444 2158.06 667.539 2155.74 665.654L2155.4 665.393C2153 663.621 2149.4 665.113 2149.84 667.973 2150.1 669.645 2148.37 671.869 2147.06 670.85L2141.42 666.483 2147.97 658.113C2148.99 656.804 2146.76 655.086 2145.08 655.343 2142.2 655.782 2140.7 652.199 2142.48 649.806L2142.74 649.473C2144.64 647.17 2148.56 647.652 2148.84 650.53 2149 652.213 2151.22 653.946 2152.25 652.639L2158.76 644.303 2164.37 648.643C2165.68 649.667 2163.94 651.873 2162.25 652.033 2159.35 652.31 2158.87 656.215 2161.19 658.1L2161.52 658.36C2163.93 660.133 2167.53 658.637 2167.09 655.779 2166.83 654.107 2168.55 651.881 2169.87 652.904L2175.88 657.556 2169.33 665.932C2168.31 667.239 2170.54 668.959 2172.22 668.702ZM2194.51 644.474C2193.39 645.339 2191.92 643.443 2192.14 642.018 2192.52 639.58 2189.38 638.362 2187.33 639.868L2187.04 640.091C2185.06 641.699 2185.55 644.969 2188.01 645.209 2189.45 645.356 2190.94 647.236 2189.82 648.102L2185 651.82 2179.43 644.678C2178.56 643.562 2176.66 645.038 2176.52 646.473 2176.29 648.929 2173 649.408 2171.38 647.44L2171.15 647.153C2169.64 645.106 2170.86 641.986 2173.31 642.363 2174.75 642.584 2176.65 641.122 2175.78 640.006L2170.23 632.897 2175.01 629.202C2176.14 628.335 2177.61 630.226 2177.39 631.656 2177 634.096 2180.15 635.313 2182.2 633.806L2182.49 633.585C2184.47 631.977 2183.98 628.705 2181.52 628.467 2180.08 628.328 2178.59 626.444 2179.72 625.574L2184.84 621.613 2190.42 628.755C2191.29 629.871 2193.18 628.395 2193.32 626.96 2193.56 624.503 2196.85 624.025 2198.47 625.994L2198.69 626.277C2200.2 628.325 2198.98 631.444 2196.53 631.067 2195.1 630.846 2193.19 632.309 2194.06 633.424L2199.61 640.542Z" fill="#FFFFFF" fill-rule="evenodd"/><path d="M1894.52 495 1820 495 1820 533.546C1820.01 537.089 1822.91 539.959 1826.48 539.97L1891.28 539.97 1891.28 548 1901 548 1901 501.424C1900.99 497.881 1898.09 495.011 1894.52 495Z" fill="#FFFFFF" fill-rule="evenodd"/><path d="M1783.6 481.813C1783.65 479.204 1781.58 477.049 1778.98 477.001 1778.92 477 1778.86 477 1778.8 477.001 1776.2 476.953 1774.05 479.029 1774 481.639 1774 481.697 1774 481.755 1774 481.813L1774 554 1783.6 554 1783.6 537.959 1830 537.959 1830 521.917 1783.6 502.667Z" fill="#FFFFFF" fill-rule="evenodd"/><path d="M1815.5 472C1815.5 477.247 1811.02 481.5 1805.5 481.5 1799.98 481.5 1795.5 477.247 1795.5 472 1795.5 466.753 1799.98 462.5 1805.5 462.5 1811.02 462.5 1815.5 466.753 1815.5 472Z" stroke="#FFFFFF" stroke-width="4.58333" stroke-miterlimit="8" fill="#FFFFFF" fill-rule="evenodd"/><path d="M1805.5 508.423 1830.5 518.5 1830.5 501.02 1827.31 499.729C1818.8 496.332 1809.06 500.216 1805.5 508.423Z" stroke="#FFFFFF" stroke-width="4.58333" stroke-miterlimit="8" fill="#FFFFFF" fill-rule="evenodd"/><path d="M2058 460C2058 445.7 2051.05 434 2036.98 434 2022.92 434 2023.4 440.5 2009.5 440.5 1995.6 440.5 1996.08 434 1982.02 434 1967.95 434 1961 445.7 1961 460 1961 474.3 1972.32 488.438 1972.32 500.625 1972.32 512.163 1970.7 521.913 1970.7 529.875 1970.7 537.838 1970.54 564 1982.02 564 1993.5 564 1993.33 540.275 1993.33 529.875 1993.33 519.475 1994.63 503.875 2009.5 503.875 2024.37 503.875 2025.67 519.475 2025.67 529.875 2025.67 540.275 2025.51 564 2036.98 564 2048.46 564 2048.3 537.838 2048.3 529.875 2048.3 521.913 2046.68 512.163 2046.68 500.625 2046.68 488.438 2058 474.3 2058 460Z" fill="#FFFFFF" fill-rule="evenodd"/><path d="M1805 705.5C1805 712.404 1799.4 718 1792.5 718 1785.6 718 1780 712.404 1780 705.5 1780 698.596 1785.6 693 1792.5 693 1799.4 693 1805 698.596 1805 705.5Z" stroke="#FFFFFF" stroke-width="2.29167" stroke-miterlimit="8" fill="#FFFFFF" fill-rule="evenodd"/><path d="M1890 705.5C1890 712.404 1884.4 718 1877.5 718 1870.6 718 1865 712.404 1865 705.5 1865 698.596 1870.6 693 1877.5 693 1884.4 693 1890 698.596 1890 705.5Z" stroke="#FFFFFF" stroke-width="2.29167" stroke-miterlimit="8" fill="#FFFFFF" fill-rule="evenodd"/><path d="M1904.14 679.118 1894.67 671.937C1893.42 671.008 1892.54 669.675 1892.16 668.166L1888.59 655.777C1886.77 649.654 1881.19 645.434 1874.83 645.364L1871.25 645.364 1871.25 636.386C1871.25 633.412 1868.85 631 1865.89 631L1862.31 631C1859.35 631 1856.95 633.412 1856.95 636.386L1856.95 645.364 1856.95 645.364 1856.95 641.773C1856.95 637.807 1853.75 634.591 1849.8 634.591L1771.15 634.591C1767.2 634.591 1764 637.807 1764 641.773L1764 702.818C1764 706.785 1767.2 710 1771.15 710L1774.73 710C1774.73 700.084 1782.73 692.046 1792.6 692.046 1802.47 692.046 1810.48 700.084 1810.48 710L1864.1 710C1864.1 700.084 1872.1 692.046 1881.98 692.046 1891.85 692.046 1899.85 700.084 1899.85 710 1903.8 710 1907 706.785 1907 702.818L1907 684.864C1907 682.603 1905.94 680.475 1904.14 679.118ZM1835.95 671.937 1830.58 681.273 1821.2 675.886 1821.2 686.659 1810.48 686.659 1810.48 675.779 1801.09 681.165 1795.73 671.829 1805.11 666.442 1795.73 661.056 1801.09 651.72 1810.48 657.106 1810.48 646.226 1821.2 646.226 1821.2 657.124 1830.58 651.738 1835.95 661.074 1826.56 666.46ZM1864.1 670.5 1864.1 652.546 1874.83 652.546C1878.01 652.501 1880.82 654.652 1881.62 657.752L1885.19 670.141C1885.19 670.321 1885.37 670.321 1885.37 670.5Z" fill="#FFFFFF" fill-rule="evenodd"/><path d="M2165.5 497.5 2165.5 463.882C2165.5 455.665 2172.93 448.941 2182 448.941 2191.07 448.941 2198.5 455.665 2198.5 463.882L2198.5 497.5 2165.5 497.5ZM2215 531.118 2215 463.882C2215 447.447 2200.15 434 2182 434 2163.85 434 2149 447.447 2149 463.882L2149 531.118C2149 547.553 2163.85 561 2182 561 2200.15 561 2215 547.553 2215 531.118Z" stroke="#FFFFFF" stroke-width="2.29167" stroke-miterlimit="8" fill="#BAC4BC" fill-rule="evenodd"/><path d="M2158 504 2158 476C2158 460.536 2169.19 448 2183 448 2196.81 448 2208 460.536 2208 476L2208 504Z" stroke="#FFFFFF" stroke-width="2.29167" stroke-linejoin="round" stroke-miterlimit="10" fill="#FFFFFF" fill-rule="evenodd"/><path d="M2043 622C2043 628.075 2038.08 633 2032 633 2025.92 633 2021 628.075 2021 622 2021 615.925 2025.92 611 2032 611 2038.08 611 2043 615.925 2043 622Z" fill="#FFFFFF" fill-rule="evenodd"/><path d="M2059.05 636.754C2056.27 635.377 2052.94 636.34 2051.55 639.094L2046.68 648.181 2025.27 634.826C2024.43 634.275 2023.46 634 2022.35 634L1998.71 634C1996.63 634 1994.82 635.101 1993.84 636.891L1984.81 653.413C1983.28 656.029 1984.39 659.471 1987.03 660.848 1987.87 661.261 1988.84 661.536 1989.67 661.536 1991.62 661.536 1993.57 660.435 1994.54 658.645L2002.05 645.014 2010.25 645.014 1985.64 690.449 1962.56 690.449C1959.5 690.449 1957 692.928 1957 695.957 1957 698.985 1959.5 701.464 1962.56 701.464L1988.98 701.464C1991.06 701.464 1992.87 700.362 1993.84 698.573L2003.58 680.812 2019.57 695.543 2018.32 723.217C2018.04 726.246 2020.4 728.862 2023.46 729 2023.6 729 2023.6 729 2023.74 729 2026.66 729 2029.16 726.66 2029.3 723.768L2030.69 693.478C2030.83 691.826 2030.13 690.312 2028.88 689.21L2015.4 676.819 2029.58 650.659 2045.71 660.71C2046.96 661.536 2048.63 661.811 2050.16 661.399 2051.68 660.985 2052.94 660.022 2053.63 658.645L2061.28 644.188C2062.81 641.572 2061.83 638.268 2059.05 636.754Z" fill="#FFFFFF" fill-rule="evenodd"/></g></svg>