<svg width="515" height="336" xmlns="http://www.w3.org/2000/svg" xmlns:xlink="http://www.w3.org/1999/xlink" xml:space="preserve" overflow="hidden"><defs><clipPath id="clip0"><rect x="1751" y="888" width="515" height="336"/></clipPath></defs><g clip-path="url(#clip0)" transform="translate(-1751 -888)"><path d="M1751 1072.37C1751 1064.99 1756.99 1059 1764.37 1059L1906.63 1059C1914.01 1059 1920 1064.99 1920 1072.37L1920 1210.63C1920 1218.01 1914.01 1224 1906.63 1224L1764.37 1224C1756.99 1224 1751 1218.01 1751 1210.63Z" fill="#5F605E" fill-rule="evenodd"/><path d="M1925 1071.45C1925 1064.02 1931.02 1058 1938.45 1058L2080.55 1058C2087.98 1058 2094 1064.02 2094 1071.45L2094 1210.55C2094 1217.98 2087.98 1224 2080.55 1224L1938.45 1224C1931.02 1224 1925 1217.98 1925 1210.55Z" fill="#734CDD" fill-rule="evenodd"/><path d="M2098 1071.45C2098 1064.02 2104.02 1058 2111.45 1058L2252.55 1058C2259.98 1058 2266 1064.02 2266 1071.45L2266 1210.55C2266 1217.98 2259.98 1224 2252.55 1224L2111.45 1224C2104.02 1224 2098 1217.98 2098 1210.55Z" fill="#734CDD" fill-rule="evenodd"/><path d="M2098 901.37C2098 893.986 2103.99 888 2111.37 888L2252.63 888C2260.01 888 2266 893.986 2266 901.37L2266 1039.63C2266 1047.01 2260.01 1053 2252.63 1053L2111.37 1053C2103.99 1053 2098 1047.01 2098 1039.63Z" fill="#734CDD" fill-rule="evenodd"/><path d="M1925 901.37C1925 893.986 1930.99 888 1938.37 888L2080.63 888C2088.01 888 2094 893.986 2094 901.37L2094 1039.63C2094 1047.01 2088.01 1053 2080.63 1053L1938.37 1053C1930.99 1053 1925 1047.01 1925 1039.63Z" fill="#734CDD" fill-rule="evenodd"/><path d="M1751 901.37C1751 893.986 1756.99 888 1764.37 888L1906.63 888C1914.01 888 1920 893.986 1920 901.37L1920 1039.63C1920 1047.01 1914.01 1053 1906.63 1053L1764.37 1053C1756.99 1053 1751 1047.01 1751 1039.63Z" fill="#5F605E" fill-rule="evenodd"/><path d="M2230.51 1145.79 2220.37 1128.53 2220.37 1127.95C2220.98 1112.06 2212.68 1097.12 2198.76 1089.09 2184.85 1080.97 2167.55 1080.97 2153.64 1089.09 2139.7 1097.09 2131.38 1112.05 2132.04 1127.95 2131.98 1141.59 2138.4 1154.46 2149.38 1162.75L2149.38 1199 2195.82 1199 2195.82 1181.74 2203.02 1181.74C2207.67 1181.78 2212.12 1179.94 2215.37 1176.67 2218.58 1173.41 2220.38 1169.04 2220.37 1164.49L2220.37 1155.79 2226.83 1155.79C2230.67 1155.5 2234.05 1151.15 2230.51 1145.79ZM2172.22 1140.21C2175.1 1139.77 2176.59 1143.32 2174.81 1145.7L2174.55 1146.03C2172.66 1148.31 2168.73 1147.83 2168.46 1144.98 2168.29 1143.31 2166.07 1141.59 2165.05 1142.89L2158.53 1151.15 2152.56 1146.56C2151.24 1145.55 2152.99 1143.36 2154.68 1143.2 2157.57 1142.93 2158.06 1139.06 2155.74 1137.19L2155.4 1136.93C2153 1135.17 2149.4 1136.65 2149.84 1139.49 2150.1 1141.14 2148.37 1143.35 2147.06 1142.34L2141.42 1138.01 2147.97 1129.71C2148.99 1128.41 2146.76 1126.71 2145.08 1126.96 2142.2 1127.4 2140.7 1123.85 2142.48 1121.47L2142.74 1121.14C2144.64 1118.86 2148.56 1119.34 2148.84 1122.19 2149 1123.86 2151.22 1125.58 2152.25 1124.28L2158.76 1116.02 2164.37 1120.32C2165.68 1121.34 2163.94 1123.52 2162.25 1123.68 2159.35 1123.96 2158.87 1127.83 2161.19 1129.7L2161.52 1129.96C2163.93 1131.71 2167.53 1130.23 2167.09 1127.4 2166.83 1125.74 2168.55 1123.53 2169.87 1124.55L2175.88 1129.16 2169.33 1137.46C2168.31 1138.76 2170.54 1140.46 2172.22 1140.21ZM2194.51 1116.19C2193.39 1117.05 2191.92 1115.17 2192.14 1113.75 2192.52 1111.34 2189.38 1110.13 2187.33 1111.62L2187.04 1111.84C2185.06 1113.44 2185.55 1116.68 2188.01 1116.92 2189.45 1117.06 2190.94 1118.93 2189.82 1119.79L2185 1123.47 2179.43 1116.39C2178.56 1115.28 2176.66 1116.75 2176.52 1118.17 2176.29 1120.6 2173 1121.08 2171.38 1119.13L2171.15 1118.84C2169.64 1116.81 2170.86 1113.72 2173.31 1114.1 2174.75 1114.31 2176.65 1112.86 2175.78 1111.76L2170.23 1104.71 2175.01 1101.05C2176.14 1100.19 2177.61 1102.06 2177.39 1103.48 2177 1105.9 2180.15 1107.1 2182.2 1105.61L2182.49 1105.39C2184.47 1103.8 2183.98 1100.55 2181.52 1100.32 2180.08 1100.18 2178.59 1098.31 2179.72 1097.45L2184.84 1093.52 2190.42 1100.6C2191.29 1101.71 2193.18 1100.25 2193.32 1098.82 2193.56 1096.39 2196.85 1095.91 2198.47 1097.87L2198.69 1098.15C2200.2 1100.18 2198.98 1103.27 2196.53 1102.9 2195.1 1102.68 2193.19 1104.13 2194.06 1105.23L2199.61 1112.29Z" fill="#FFFFFF" fill-rule="evenodd"/><path d="M1894.52 966 1820 966 1820 1005.27C1820.01 1008.88 1822.91 1011.81 1826.48 1011.82L1891.28 1011.82 1891.28 1020 1901 1020 1901 972.545C1900.99 968.935 1898.09 966.011 1894.52 966Z" fill="#FFFFFF" fill-rule="evenodd"/><path d="M1783.6 953.813C1783.65 951.204 1781.58 949.049 1778.98 949.001 1778.92 949 1778.86 949 1778.8 949.001 1776.2 948.953 1774.05 951.029 1774 953.639 1774 953.697 1774 953.755 1774 953.813L1774 1026 1783.6 1026 1783.6 1009.96 1830 1009.96 1830 993.917 1783.6 974.667Z" fill="#FFFFFF" fill-rule="evenodd"/><path d="M1815.5 943.5C1815.5 949.023 1811.02 953.5 1805.5 953.5 1799.98 953.5 1795.5 949.023 1795.5 943.5 1795.5 937.977 1799.98 933.5 1805.5 933.5 1811.02 933.5 1815.5 937.977 1815.5 943.5Z" stroke="#FFFFFF" stroke-width="4.58333" stroke-miterlimit="8" fill="#FFFFFF" fill-rule="evenodd"/><path d="M1805.5 980.423 1830.5 990.5 1830.5 973.02 1827.31 971.729C1818.8 968.332 1809.06 972.216 1805.5 980.423Z" stroke="#FFFFFF" stroke-width="4.58333" stroke-miterlimit="8" fill="#FFFFFF" fill-rule="evenodd"/><path d="M2058 931.8C2058 917.61 2051.05 906 2036.98 906 2022.92 906 2023.4 912.45 2009.5 912.45 1995.6 912.45 1996.08 906 1982.02 906 1967.95 906 1961 917.61 1961 931.8 1961 945.99 1972.32 960.019 1972.32 972.113 1972.32 983.561 1970.7 993.236 1970.7 1001.14 1970.7 1009.04 1970.54 1035 1982.02 1035 1993.5 1035 1993.33 1011.46 1993.33 1001.14 1993.33 990.818 1994.63 975.338 2009.5 975.338 2024.37 975.338 2025.67 990.818 2025.67 1001.14 2025.67 1011.46 2025.51 1035 2036.98 1035 2048.46 1035 2048.3 1009.04 2048.3 1001.14 2048.3 993.236 2046.68 983.561 2046.68 972.113 2046.68 960.019 2058 945.99 2058 931.8Z" fill="#FFFFFF" fill-rule="evenodd"/><path d="M1805 1176.5C1805 1183.4 1799.4 1189 1792.5 1189 1785.6 1189 1780 1183.4 1780 1176.5 1780 1169.6 1785.6 1164 1792.5 1164 1799.4 1164 1805 1169.6 1805 1176.5Z" stroke="#FFFFFF" stroke-width="2.29167" stroke-miterlimit="8" fill="#FFFFFF" fill-rule="evenodd"/><path d="M1890 1176.5C1890 1183.4 1884.4 1189 1877.5 1189 1870.6 1189 1865 1183.4 1865 1176.5 1865 1169.6 1870.6 1164 1877.5 1164 1884.4 1164 1890 1169.6 1890 1176.5Z" stroke="#FFFFFF" stroke-width="2.29167" stroke-miterlimit="8" fill="#FFFFFF" fill-rule="evenodd"/><path d="M1904.14 1150.51 1894.67 1143.42C1893.42 1142.5 1892.54 1141.19 1892.16 1139.7L1888.59 1127.46C1886.77 1121.42 1881.19 1117.25 1874.83 1117.18L1871.25 1117.18 1871.25 1108.32C1871.25 1105.38 1868.85 1103 1865.89 1103L1862.31 1103C1859.35 1103 1856.95 1105.38 1856.95 1108.32L1856.95 1117.18 1856.95 1117.18 1856.95 1113.64C1856.95 1109.72 1853.75 1106.55 1849.8 1106.55L1771.15 1106.55C1767.2 1106.55 1764 1109.72 1764 1113.64L1764 1173.91C1764 1177.83 1767.2 1181 1771.15 1181L1774.73 1181C1774.73 1171.21 1782.73 1163.27 1792.6 1163.27 1802.47 1163.27 1810.48 1171.21 1810.48 1181L1864.1 1181C1864.1 1171.21 1872.1 1163.27 1881.98 1163.27 1891.85 1163.27 1899.85 1171.21 1899.85 1181 1903.8 1181 1907 1177.83 1907 1173.91L1907 1156.18C1907 1153.95 1905.94 1151.85 1904.14 1150.51ZM1835.95 1143.42 1830.58 1152.64 1821.2 1147.32 1821.2 1157.95 1810.48 1157.95 1810.48 1147.21 1801.09 1152.53 1795.73 1143.31 1805.11 1137.99 1795.73 1132.68 1801.09 1123.46 1810.48 1128.78 1810.48 1118.03 1821.2 1118.03 1821.2 1128.79 1830.58 1123.48 1835.95 1132.69 1826.56 1138.01ZM1864.1 1142 1864.1 1124.27 1874.83 1124.27C1878.01 1124.23 1880.82 1126.35 1881.62 1129.41L1885.19 1141.65C1885.19 1141.82 1885.37 1141.82 1885.37 1142Z" fill="#FFFFFF" fill-rule="evenodd"/><path d="M2165.5 969.5 2165.5 935.882C2165.5 927.665 2172.93 920.941 2182 920.941 2191.07 920.941 2198.5 927.665 2198.5 935.882L2198.5 969.5 2165.5 969.5ZM2215 1003.12 2215 935.882C2215 919.447 2200.15 906 2182 906 2163.85 906 2149 919.447 2149 935.882L2149 1003.12C2149 1019.55 2163.85 1033 2182 1033 2200.15 1033 2215 1019.55 2215 1003.12Z" stroke="#FFFFFF" stroke-width="2.29167" stroke-miterlimit="8" fill="#BAC4BC" fill-rule="evenodd"/><path d="M2158 976 2158 947.5C2158 931.76 2169.19 919 2183 919 2196.81 919 2208 931.76 2208 947.5L2208 976Z" stroke="#FFFFFF" stroke-width="2.29167" stroke-linejoin="round" stroke-miterlimit="10" fill="#FFFFFF" fill-rule="evenodd"/><path d="M2043 1093C2043 1099.08 2038.08 1104 2032 1104 2025.92 1104 2021 1099.08 2021 1093 2021 1086.93 2025.92 1082 2032 1082 2038.08 1082 2043 1086.93 2043 1093Z" fill="#FFFFFF" fill-rule="evenodd"/><path d="M2059.05 1107.75C2056.27 1106.38 2052.94 1107.34 2051.55 1110.09L2046.68 1119.18 2025.27 1105.83C2024.43 1105.28 2023.46 1105 2022.35 1105L1998.71 1105C1996.63 1105 1994.82 1106.1 1993.84 1107.89L1984.81 1124.41C1983.28 1127.03 1984.39 1130.47 1987.03 1131.85 1987.87 1132.26 1988.84 1132.54 1989.67 1132.54 1991.62 1132.54 1993.57 1131.43 1994.54 1129.65L2002.05 1116.01 2010.25 1116.01 1985.64 1161.45 1962.56 1161.45C1959.5 1161.45 1957 1163.93 1957 1166.96 1957 1169.99 1959.5 1172.46 1962.56 1172.46L1988.98 1172.46C1991.06 1172.46 1992.87 1171.36 1993.84 1169.57L2003.58 1151.81 2019.57 1166.54 2018.32 1194.22C2018.04 1197.25 2020.4 1199.86 2023.46 1200 2023.6 1200 2023.6 1200 2023.74 1200 2026.66 1200 2029.16 1197.66 2029.3 1194.77L2030.69 1164.48C2030.83 1162.83 2030.13 1161.31 2028.88 1160.21L2015.4 1147.82 2029.58 1121.66 2045.71 1131.71C2046.96 1132.54 2048.63 1132.81 2050.16 1132.4 2051.68 1131.99 2052.94 1131.02 2053.63 1129.65L2061.28 1115.19C2062.81 1112.57 2061.83 1109.27 2059.05 1107.75Z" fill="#FFFFFF" fill-rule="evenodd"/></g></svg>