<svg width="510" height="348" xmlns="http://www.w3.org/2000/svg" xmlns:xlink="http://www.w3.org/1999/xlink" xml:space="preserve" overflow="hidden"><defs><clipPath id="clip0"><rect x="1751" y="1334" width="510" height="348"/></clipPath></defs><g clip-path="url(#clip0)" transform="translate(-1751 -1334)"><path d="M1751 1523.53C1751 1516.06 1757.06 1510 1764.53 1510L1904.47 1510C1911.94 1510 1918 1516.06 1918 1523.53L1918 1668.47C1918 1675.94 1911.94 1682 1904.47 1682L1764.53 1682C1757.06 1682 1751 1675.94 1751 1668.47Z" fill="#5F605E" fill-rule="evenodd"/><path d="M1923 1523.53C1923 1516.06 1929.06 1510 1936.53 1510L2076.47 1510C2083.94 1510 2090 1516.06 2090 1523.53L2090 1667.47C2090 1674.94 2083.94 1681 2076.47 1681L1936.53 1681C1929.06 1681 1923 1674.94 1923 1667.47Z" fill="#734CDD" fill-rule="evenodd"/><path d="M2094 1523.53C2094 1516.06 2100.06 1510 2107.53 1510L2247.47 1510C2254.94 1510 2261 1516.06 2261 1523.53L2261 1667.47C2261 1674.94 2254.94 1681 2247.47 1681L2107.53 1681C2100.06 1681 2094 1674.94 2094 1667.47Z" fill="#5F605E" fill-rule="evenodd"/><path d="M2094 1347.53C2094 1340.06 2100.06 1334 2107.53 1334L2247.47 1334C2254.94 1334 2261 1340.06 2261 1347.53L2261 1491.47C2261 1498.94 2254.94 1505 2247.47 1505L2107.53 1505C2100.06 1505 2094 1498.94 2094 1491.47Z" fill="#5F605E" fill-rule="evenodd"/><path d="M1923 1347.53C1923 1340.06 1929.06 1334 1936.53 1334L2076.47 1334C2083.94 1334 2090 1340.06 2090 1347.53L2090 1491.47C2090 1498.94 2083.94 1505 2076.47 1505L1936.53 1505C1929.06 1505 1923 1498.94 1923 1491.47Z" fill="#734CDD" fill-rule="evenodd"/><path d="M1751 1347.53C1751 1340.06 1757.06 1334 1764.53 1334L1904.47 1334C1911.94 1334 1918 1340.06 1918 1347.53L1918 1491.47C1918 1498.94 1911.94 1505 1904.47 1505L1764.53 1505C1757.06 1505 1751 1498.94 1751 1491.47Z" fill="#5F605E" fill-rule="evenodd"/><path d="M2225.52 1600.95 2215.48 1583.1 2215.48 1582.5C2216.09 1566.06 2207.87 1550.61 2194.09 1542.3 2180.32 1533.9 2163.2 1533.9 2149.42 1542.3 2135.62 1550.58 2127.39 1566.05 2128.04 1582.5 2127.98 1596.61 2134.34 1609.93 2145.2 1618.5L2145.2 1656 2191.18 1656 2191.18 1638.15 2198.31 1638.15C2202.91 1638.18 2207.32 1636.29 2210.54 1632.9 2213.72 1629.53 2215.49 1625.01 2215.48 1620.3L2215.48 1611.3 2221.88 1611.3C2225.68 1611 2229.03 1606.5 2225.52 1600.95ZM2167.82 1595.18C2170.66 1594.73 2172.15 1598.4 2170.39 1600.86L2170.13 1601.2C2168.25 1603.56 2164.36 1603.07 2164.09 1600.12 2163.93 1598.39 2161.73 1596.61 2160.72 1597.95L2154.27 1606.5 2148.35 1601.76C2147.05 1600.71 2148.78 1598.44 2150.45 1598.28 2153.32 1597.99 2153.8 1593.99 2151.5 1592.06L2151.17 1591.79C2148.79 1589.97 2145.23 1591.5 2145.66 1594.43 2145.92 1596.15 2144.21 1598.43 2142.91 1597.38L2137.33 1592.91 2143.81 1584.32C2144.82 1582.98 2142.61 1581.22 2140.94 1581.48 2138.1 1581.93 2136.61 1578.25 2138.38 1575.8L2138.64 1575.46C2140.51 1573.1 2144.4 1573.59 2144.67 1576.54 2144.83 1578.27 2147.03 1580.05 2148.05 1578.71L2154.5 1570.16 2160.04 1574.61C2161.35 1575.66 2159.62 1577.92 2157.95 1578.09 2155.08 1578.37 2154.6 1582.37 2156.89 1584.31L2157.23 1584.57C2159.61 1586.39 2163.17 1584.86 2162.74 1581.93 2162.48 1580.21 2164.18 1577.93 2165.49 1578.98L2171.44 1583.75 2164.96 1592.34C2163.94 1593.68 2166.15 1595.44 2167.82 1595.18ZM2189.88 1570.33C2188.77 1571.22 2187.32 1569.27 2187.54 1567.81 2187.92 1565.31 2184.81 1564.06 2182.77 1565.61L2182.49 1565.84C2180.53 1567.49 2181.01 1570.84 2183.45 1571.09 2184.88 1571.24 2186.35 1573.17 2185.24 1574.05L2180.47 1577.87 2174.96 1570.54C2174.1 1569.4 2172.22 1570.91 2172.08 1572.38 2171.84 1574.9 2168.59 1575.39 2166.99 1573.37L2166.76 1573.08C2165.27 1570.98 2166.47 1567.78 2168.9 1568.17 2170.32 1568.39 2172.2 1566.89 2171.34 1565.75L2165.85 1558.46 2170.58 1554.67C2171.7 1553.78 2173.15 1555.72 2172.93 1557.19 2172.55 1559.69 2175.66 1560.94 2177.7 1559.39L2177.99 1559.16C2179.94 1557.51 2179.46 1554.16 2177.02 1553.91 2175.6 1553.77 2174.12 1551.84 2175.24 1550.95L2180.31 1546.89 2185.83 1554.21C2186.69 1555.35 2188.57 1553.84 2188.71 1552.37 2188.95 1549.85 2192.2 1549.36 2193.8 1551.38L2194.02 1551.67C2195.52 1553.77 2194.31 1556.97 2191.88 1556.58 2190.47 1556.35 2188.58 1557.85 2189.44 1559L2194.93 1566.3Z" fill="#FFFFFF" fill-rule="evenodd"/><path d="M1893.6 1415 1820 1415 1820 1455C1820.01 1458.68 1822.87 1461.66 1826.4 1461.67L1890.4 1461.67 1890.4 1470 1900 1470 1900 1421.67C1899.99 1417.99 1897.13 1415.01 1893.6 1415Z" fill="#FFFFFF" fill-rule="evenodd"/><path d="M1782.6 1402C1782.65 1399.29 1780.58 1397.05 1777.98 1397 1777.92 1397 1777.86 1397 1777.8 1397 1775.2 1396.95 1773.05 1399.11 1773 1401.82 1773 1401.88 1773 1401.94 1773 1402L1773 1477 1782.6 1477 1782.6 1460.33 1829 1460.33 1829 1443.67 1782.6 1423.67Z" fill="#FFFFFF" fill-rule="evenodd"/><path d="M1814.5 1391.5C1814.5 1397.02 1810.25 1401.5 1805 1401.5 1799.75 1401.5 1795.5 1397.02 1795.5 1391.5 1795.5 1385.98 1799.75 1381.5 1805 1381.5 1810.25 1381.5 1814.5 1385.98 1814.5 1391.5Z" stroke="#FFFFFF" stroke-width="4.58333" stroke-miterlimit="8" fill="#FFFFFF" fill-rule="evenodd"/><path d="M1805.5 1429.42 1829.5 1439.5 1829.5 1422.02 1826.44 1420.73C1818.27 1417.33 1808.92 1421.22 1805.5 1429.42Z" stroke="#FFFFFF" stroke-width="4.58333" stroke-miterlimit="8" fill="#FFFFFF" fill-rule="evenodd"/><path d="M2055 1379.6C2055 1364.97 2048.12 1353 2034.2 1353 2020.28 1353 2020.76 1359.65 2007 1359.65 1993.24 1359.65 1993.72 1353 1979.8 1353 1965.88 1353 1959 1364.97 1959 1379.6 1959 1394.23 1970.2 1408.69 1970.2 1421.16 1970.2 1432.97 1968.6 1442.94 1968.6 1451.09 1968.6 1459.23 1968.44 1486 1979.8 1486 1991.16 1486 1991 1461.73 1991 1451.09 1991 1440.45 1992.28 1424.49 2007 1424.49 2021.72 1424.49 2023 1440.45 2023 1451.09 2023 1461.73 2022.84 1486 2034.2 1486 2045.56 1486 2045.4 1459.23 2045.4 1451.09 2045.4 1442.94 2043.8 1432.97 2043.8 1421.16 2043.8 1408.69 2055 1394.23 2055 1379.6Z" fill="#FFFFFF" fill-rule="evenodd"/><path d="M1805 1632C1805 1639.18 1799.4 1645 1792.5 1645 1785.6 1645 1780 1639.18 1780 1632 1780 1624.82 1785.6 1619 1792.5 1619 1799.4 1619 1805 1624.82 1805 1632Z" stroke="#FFFFFF" stroke-width="2.29167" stroke-miterlimit="8" fill="#FFFFFF" fill-rule="evenodd"/><path d="M1888 1632C1888 1639.18 1882.63 1645 1876 1645 1869.37 1645 1864 1639.18 1864 1632 1864 1624.82 1869.37 1619 1876 1619 1882.63 1619 1888 1624.82 1888 1632Z" stroke="#FFFFFF" stroke-width="2.29167" stroke-miterlimit="8" fill="#FFFFFF" fill-rule="evenodd"/><path d="M1903.16 1605.34 1893.75 1597.97C1892.52 1597.02 1891.64 1595.65 1891.27 1594.11L1887.72 1581.4C1885.91 1575.13 1880.37 1570.8 1874.05 1570.73L1870.5 1570.73 1870.5 1561.52C1870.5 1558.47 1868.12 1556 1865.18 1556L1861.63 1556C1858.68 1556 1856.3 1558.47 1856.3 1561.52L1856.3 1570.73 1856.3 1570.73 1856.3 1567.05C1856.3 1562.98 1853.12 1559.68 1849.2 1559.68L1771.1 1559.68C1767.18 1559.68 1764 1562.98 1764 1567.05L1764 1629.64C1764 1633.7 1767.18 1637 1771.1 1637L1774.65 1637C1774.65 1626.83 1782.6 1618.59 1792.4 1618.59 1802.2 1618.59 1810.15 1626.83 1810.15 1637L1863.4 1637C1863.4 1626.83 1871.35 1618.59 1881.15 1618.59 1890.95 1618.59 1898.9 1626.83 1898.9 1637 1902.82 1637 1906 1633.7 1906 1629.64L1906 1611.23C1906 1608.91 1904.95 1606.73 1903.16 1605.34ZM1835.44 1597.97 1830.12 1607.55 1820.8 1602.02 1820.8 1613.07 1810.15 1613.07 1810.15 1601.91 1800.83 1607.44 1795.51 1597.86 1804.83 1592.34 1795.51 1586.82 1800.83 1577.24 1810.15 1582.77 1810.15 1571.61 1820.8 1571.61 1820.8 1582.79 1830.12 1577.26 1835.44 1586.84 1826.13 1592.36ZM1863.4 1596.5 1863.4 1578.09 1874.05 1578.09C1877.22 1578.05 1880 1580.25 1880.8 1583.43L1884.35 1596.13C1884.35 1596.32 1884.52 1596.32 1884.52 1596.5Z" fill="#FFFFFF" fill-rule="evenodd"/><path d="M2160.5 1418 2160.5 1383.06C2160.5 1374.52 2167.92 1367.53 2177 1367.53 2186.07 1367.53 2193.5 1374.52 2193.5 1383.06L2193.5 1418 2160.5 1418ZM2210 1452.94 2210 1383.06C2210 1365.98 2195.15 1352 2177 1352 2158.85 1352 2144 1365.98 2144 1383.06L2144 1452.94C2144 1470.02 2158.85 1484 2177 1484 2195.15 1484 2210 1470.02 2210 1452.94Z" stroke="#FFFFFF" stroke-width="2.29167" stroke-miterlimit="8" fill="#BAC4BC" fill-rule="evenodd"/><path d="M2154 1425 2154 1396C2154 1379.98 2164.97 1367 2178.5 1367 2192.03 1367 2203 1379.98 2203 1396L2203 1425Z" stroke="#FFFFFF" stroke-width="2.29167" stroke-linejoin="round" stroke-miterlimit="10" fill="#FFFFFF" fill-rule="evenodd"/><path d="M2040 1546C2040 1552.08 2035.08 1557 2029 1557 2022.93 1557 2018 1552.08 2018 1546 2018 1539.92 2022.93 1535 2029 1535 2035.08 1535 2040 1539.92 2040 1546Z" fill="#FFFFFF" fill-rule="evenodd"/><path d="M2056.08 1561.84C2053.33 1560.42 2050.02 1561.41 2048.65 1564.26L2043.82 1573.63 2022.62 1559.85C2021.79 1559.28 2020.83 1559 2019.73 1559L1996.31 1559C1994.25 1559 1992.46 1560.14 1991.49 1561.98L1982.54 1579.03C1981.03 1581.72 1982.13 1585.28 1984.75 1586.7 1985.57 1587.12 1986.54 1587.41 1987.36 1587.41 1989.29 1587.41 1991.22 1586.27 1992.18 1584.42L1999.62 1570.36 2007.74 1570.36 1983.37 1617.23 1960.51 1617.23C1957.48 1617.23 1955 1619.79 1955 1622.91 1955 1626.04 1957.48 1628.59 1960.51 1628.59L1986.67 1628.59C1988.74 1628.59 1990.53 1627.46 1991.49 1625.61L2001.13 1607.29 2016.97 1622.49 2015.73 1651.03C2015.46 1654.16 2017.8 1656.86 2020.83 1657 2020.96 1657 2020.96 1657 2021.1 1657 2023.99 1657 2026.47 1654.59 2026.61 1651.6L2027.99 1620.36C2028.13 1618.65 2027.44 1617.09 2026.2 1615.95L2012.84 1603.17 2026.89 1576.19 2042.86 1586.55C2044.1 1587.41 2045.75 1587.69 2047.27 1587.26 2048.78 1586.84 2050.02 1585.84 2050.71 1584.42L2058.28 1569.51C2059.8 1566.81 2058.84 1563.4 2056.08 1561.84Z" fill="#FFFFFF" fill-rule="evenodd"/></g></svg>