<svg width="905" height="595" xmlns="http://www.w3.org/2000/svg" xmlns:xlink="http://www.w3.org/1999/xlink" xml:space="preserve" overflow="hidden"><defs><clipPath id="clip0"><rect x="238" y="838" width="905" height="595"/></clipPath></defs><g clip-path="url(#clip0)" transform="translate(-238 -838)"><path d="M238 1160.58C238 1147.56 248.557 1137 261.58 1137L509.42 1137C522.443 1137 533 1147.56 533 1160.58L533 1404.42C533 1417.44 522.443 1428 509.42 1428L261.58 1428C248.557 1428 238 1417.44 238 1404.42Z" fill="#5F605E" fill-rule="evenodd"/><path d="M542.5 1161.08C542.5 1148.06 553.057 1137.5 566.08 1137.5L813.92 1137.5C826.943 1137.5 837.5 1148.06 837.5 1161.08L837.5 1404.92C837.5 1417.94 826.943 1428.5 813.92 1428.5L566.08 1428.5C553.057 1428.5 542.5 1417.94 542.5 1404.92Z" stroke="#FFFFFF" stroke-width="9.16667" stroke-linejoin="round" stroke-miterlimit="10" fill="#D62CD0" fill-rule="evenodd"/><path d="M843.5 1161.08C843.5 1148.06 854.057 1137.5 867.08 1137.5L1114.92 1137.5C1127.94 1137.5 1138.5 1148.06 1138.5 1161.08L1138.5 1404.92C1138.5 1417.94 1127.94 1428.5 1114.92 1428.5L867.08 1428.5C854.057 1428.5 843.5 1417.94 843.5 1404.92Z" stroke="#FFFFFF" stroke-width="9.16667" stroke-linejoin="round" stroke-miterlimit="10" fill="#D62CD0" fill-rule="evenodd"/><path d="M843 861.499C843 848.521 853.521 838 866.499 838L1114.5 838C1127.48 838 1138 848.521 1138 861.499L1138 1104.5C1138 1117.48 1127.48 1128 1114.5 1128L866.499 1128C853.521 1128 843 1117.48 843 1104.5Z" fill="#5F605E" fill-rule="evenodd"/><path d="M542 861.499C542 848.521 552.521 838 565.499 838L813.501 838C826.479 838 837 848.521 837 861.499L837 1104.5C837 1117.48 826.479 1128 813.501 1128L565.499 1128C552.521 1128 542 1117.48 542 1104.5Z" fill="#5F605E" fill-rule="evenodd"/><path d="M238 861.499C238 848.521 248.521 838 261.499 838L509.501 838C522.479 838 533 848.521 533 861.499L533 1104.5C533 1117.48 522.479 1128 509.501 1128L261.499 1128C248.521 1128 238 1117.48 238 1104.5Z" fill="#5F605E" fill-rule="evenodd"/><path d="M1074.9 1290.92 1057.26 1260.57 1057.26 1259.55C1058.33 1231.6 1043.88 1205.33 1019.66 1191.21 995.454 1176.93 965.365 1176.93 941.154 1191.21 916.893 1205.29 902.427 1231.58 903.562 1259.55 903.473 1283.53 914.638 1306.18 933.738 1320.75L933.738 1384.5 1014.55 1384.5 1014.55 1354.16 1027.08 1354.16C1035.16 1354.21 1042.91 1350.99 1048.56 1345.23 1054.16 1339.5 1057.28 1331.81 1057.26 1323.81L1057.26 1308.51 1068.51 1308.51C1075.18 1308 1081.07 1300.35 1074.9 1290.92ZM973.481 1281.11C978.486 1280.34 981.095 1286.59 977.995 1290.76L977.54 1291.34C974.244 1295.36 967.413 1294.52 966.935 1289.5 966.651 1286.56 962.784 1283.54 961.005 1285.82L949.665 1300.35 939.27 1292.28C936.981 1290.5 940.014 1286.65 942.958 1286.37 947.995 1285.89 948.839 1279.08 944.806 1275.79L944.223 1275.34C940.037 1272.25 933.779 1274.85 934.547 1279.84 934.997 1282.75 931.989 1286.63 929.703 1284.85L919.891 1277.24 931.281 1262.65C933.071 1260.36 929.174 1257.37 926.251 1257.82 921.248 1258.58 918.64 1252.33 921.739 1248.16L922.192 1247.58C925.491 1243.57 932.319 1244.41 932.8 1249.42 933.083 1252.36 936.95 1255.38 938.73 1253.1L950.069 1238.57 959.82 1246.13C962.109 1247.92 959.079 1251.77 956.135 1252.05 951.095 1252.53 950.253 1259.34 954.284 1262.62L954.867 1263.08C959.053 1266.17 965.321 1263.56 964.551 1258.58 964.101 1255.66 967.096 1251.78 969.395 1253.56L979.849 1261.67 968.454 1276.28C966.671 1278.56 970.558 1281.56 973.481 1281.11ZM1012.27 1238.86C1010.31 1240.37 1007.76 1237.07 1008.14 1234.58 1008.81 1230.33 1003.34 1228.21 999.768 1230.83L999.272 1231.22C995.83 1234.03 996.674 1239.73 1000.96 1240.15 1003.47 1240.4 1006.05 1243.68 1004.1 1245.19L995.728 1251.67 986.033 1239.22C984.516 1237.28 981.215 1239.85 980.972 1242.35 980.557 1246.63 974.834 1247.47 972.021 1244.04L971.628 1243.54C968.996 1239.97 971.116 1234.53 975.384 1235.18 977.877 1235.57 981.192 1233.02 979.678 1231.07L970.026 1218.68 978.345 1212.24C980.299 1210.73 982.857 1214.02 982.47 1216.52 981.808 1220.77 987.273 1222.89 990.843 1220.26L991.355 1219.88C994.794 1217.07 993.953 1211.37 989.662 1210.95 987.153 1210.71 984.565 1207.43 986.526 1205.91L995.446 1199.01 1005.14 1211.46C1006.66 1213.4 1009.96 1210.83 1010.2 1208.33 1010.62 1204.04 1016.34 1203.21 1019.15 1206.64L1019.54 1207.14C1022.17 1210.71 1020.05 1216.15 1015.78 1215.49 1013.29 1215.1 1009.97 1217.65 1011.49 1219.6L1021.13 1232.01Z" stroke="#FFFFFF" stroke-width="3.4375" stroke-miterlimit="8" fill="#FFFFFF" fill-rule="evenodd"/><path d="M499.22 957.5 369.5 957.5 369.5 1025.86C369.519 1032.15 374.558 1037.24 380.78 1037.26L493.58 1037.26 493.58 1051.5 510.5 1051.5 510.5 968.894C510.482 962.609 505.442 957.519 499.22 957.5Z" stroke="#FFFFFF" stroke-width="4.58333" stroke-miterlimit="8" fill="#FFFFFF" fill-rule="evenodd"/><path d="M278.473 924.001C278.558 919.392 274.897 915.587 270.295 915.501 270.193 915.5 270.09 915.5 269.987 915.501 265.386 915.416 261.586 919.083 261.502 923.692 261.5 923.795 261.5 923.899 261.502 924.001L261.502 1051.5 278.473 1051.5 278.473 1023.17 360.5 1023.17 360.5 994.834 278.473 960.834Z" stroke="#FFFFFF" stroke-width="4.58333" stroke-miterlimit="8" fill="#FFFFFF" fill-rule="evenodd"/><path d="M323.5 944.5C323.5 953.889 315.889 961.5 306.5 961.5 297.111 961.5 289.5 953.889 289.5 944.5 289.5 935.111 297.111 927.5 306.5 927.5 315.889 927.5 323.5 935.111 323.5 944.5Z" stroke="#FFFFFF" stroke-width="4.58333" stroke-miterlimit="8" fill="#FFFFFF" fill-rule="evenodd"/><path d="M318.5 968.866 360.5 986.5 360.5 955.91 355.137 953.651C340.851 947.706 324.483 954.504 318.5 968.866Z" stroke="#FFFFFF" stroke-width="4.58333" stroke-miterlimit="8" fill="#FFFFFF" fill-rule="evenodd"/><path d="M774.5 915.7C774.5 890.84 762.388 870.5 737.883 870.5 713.378 870.5 714.223 881.8 690 881.8 665.777 881.8 666.622 870.5 642.116 870.5 617.612 870.5 605.5 890.84 605.5 915.7 605.5 940.56 625.217 965.137 625.217 986.325 625.217 1006.38 622.4 1023.33 622.4 1037.17 622.4 1051.02 622.118 1096.5 642.116 1096.5 662.115 1096.5 661.833 1055.26 661.833 1037.17 661.833 1019.1 664.086 991.975 690 991.975 715.913 991.975 718.167 1019.1 718.167 1037.17 718.167 1055.26 717.885 1096.5 737.883 1096.5 757.881 1096.5 757.6 1051.02 757.6 1037.17 757.6 1023.33 754.784 1006.38 754.784 986.325 754.784 965.137 774.5 940.56 774.5 915.7Z" stroke="#FFFFFF" stroke-width="4.58333" stroke-miterlimit="8" fill="#FFFFFF" fill-rule="evenodd"/><path d="M333.5 1353C333.5 1364.87 323.651 1374.5 311.5 1374.5 299.35 1374.5 289.5 1364.87 289.5 1353 289.5 1341.13 299.35 1331.5 311.5 1331.5 323.651 1331.5 333.5 1341.13 333.5 1353Z" stroke="#FFFFFF" stroke-width="4.58333" stroke-miterlimit="8" fill="#FFFFFF" fill-rule="evenodd"/><path d="M489.5 1353C489.5 1364.87 479.651 1374.5 467.5 1374.5 455.35 1374.5 445.5 1364.87 445.5 1353 445.5 1341.13 455.35 1331.5 467.5 1331.5 479.651 1331.5 489.5 1341.13 489.5 1353Z" stroke="#FFFFFF" stroke-width="4.58333" stroke-miterlimit="8" fill="#FFFFFF" fill-rule="evenodd"/><path d="M506.5 1299.55 489.938 1287.01C487.765 1285.39 486.219 1283.06 485.563 1280.42L479.312 1258.78C476.125 1248.09 466.374 1240.71 455.25 1240.59L449 1240.59 449 1224.91C449 1219.71 444.803 1215.5 439.625 1215.5L433.375 1215.5C428.197 1215.5 424 1219.71 424 1224.91L424 1240.59 424 1240.59 424 1234.32C424 1227.39 418.404 1221.77 411.5 1221.77L274 1221.77C267.097 1221.77 261.5 1227.39 261.5 1234.32L261.5 1340.95C261.5 1347.88 267.097 1353.5 274 1353.5L280.25 1353.5C280.25 1336.18 294.241 1322.14 311.5 1322.14 328.759 1322.14 342.75 1336.18 342.75 1353.5L436.5 1353.5C436.5 1336.18 450.491 1322.14 467.75 1322.14 485.009 1322.14 499 1336.18 499 1353.5 505.903 1353.5 511.5 1347.88 511.5 1340.95L511.5 1309.59C511.5 1305.64 509.648 1301.92 506.5 1299.55ZM387.281 1287.01 377.906 1303.32 361.5 1293.91 361.5 1312.73 342.75 1312.73 342.75 1293.72 326.344 1303.13 316.969 1286.82 333.375 1277.41 316.969 1268 326.344 1251.69 342.75 1261.1 342.75 1242.1 361.5 1242.1 361.5 1261.13 377.906 1251.72 387.281 1268.03 370.875 1277.44ZM436.5 1284.5 436.5 1253.14 455.25 1253.14C460.824 1253.06 465.729 1256.82 467.125 1262.23L473.375 1283.87C473.375 1284.19 473.688 1284.19 473.688 1284.5Z" stroke="#FFFFFF" stroke-width="4.58333" stroke-miterlimit="8" fill="#FFFFFF" fill-rule="evenodd"/><path d="M436.5 1206.5 436.5 1190.5" stroke="#FFFFFF" stroke-width="4.58333" stroke-miterlimit="8" fill="none" fill-rule="evenodd"/><path d="M450.5 1209.5 461.501 1198.5" stroke="#FFFFFF" stroke-width="4.58333" stroke-miterlimit="8" fill="#FFFFFF" fill-rule="evenodd"/><path d="M422.5 1209.5 411.5 1198.5" stroke="#FFFFFF" stroke-width="4.58333" stroke-miterlimit="8" fill="#FFFFFF" fill-rule="evenodd"/><path d="M961.75 984.5 961.75 919.382C961.75 903.465 974.912 890.442 991 890.442 1007.09 890.442 1020.25 903.465 1020.25 919.382L1020.25 984.5 961.75 984.5ZM1049.5 1049.62 1049.5 919.382C1049.5 887.547 1023.18 861.5 991 861.5 958.825 861.5 932.499 887.547 932.499 919.382L932.499 1049.62C932.499 1081.45 958.825 1107.5 991 1107.5 1023.18 1107.5 1049.5 1081.45 1049.5 1049.62Z" stroke="#FFFFFF" stroke-width="4.58333" stroke-miterlimit="8" fill="#85D8D1" fill-rule="evenodd"/><path d="M932.5 984.5 932.5 921.5C932.5 886.706 958.692 858.5 991 858.5 1023.31 858.5 1049.5 886.706 1049.5 921.5L1049.5 984.5Z" stroke="#FFFFFF" stroke-width="4.58333" stroke-linejoin="round" stroke-miterlimit="10" fill="#FFFFFF" fill-rule="evenodd"/><path d="M748.5 1198C748.5 1208.77 739.77 1217.5 729 1217.5 718.231 1217.5 709.5 1208.77 709.5 1198 709.5 1187.23 718.231 1178.5 729 1178.5 739.77 1178.5 748.5 1187.23 748.5 1198Z" stroke="#FFFFFF" stroke-width="3.4375" stroke-miterlimit="8" fill="#FFFFFF" fill-rule="evenodd"/><path d="M776.364 1225.31C771.518 1222.91 765.702 1224.59 763.279 1229.4L754.797 1245.28 717.48 1221.94C716.026 1220.98 714.33 1220.5 712.391 1220.5L671.196 1220.5C667.562 1220.5 664.412 1222.42 662.715 1225.55L646.964 1254.42C644.299 1258.99 646.237 1265.01 650.841 1267.41 652.295 1268.13 653.992 1268.62 655.446 1268.62 658.838 1268.62 662.231 1266.69 663.927 1263.56L677.012 1239.75 691.309 1239.75 648.418 1319.14 608.193 1319.14C602.862 1319.14 598.5 1323.47 598.5 1328.76 598.5 1334.05 602.862 1338.38 608.193 1338.38L654.234 1338.38C657.869 1338.38 661.019 1336.46 662.715 1333.33L679.678 1302.3 707.545 1328.04 705.364 1376.4C704.879 1381.69 708.999 1386.26 714.33 1386.5 714.572 1386.5 714.572 1386.5 714.814 1386.5 719.903 1386.5 724.265 1382.41 724.507 1377.36L726.931 1324.43C727.173 1321.54 725.961 1318.9 723.78 1316.97L700.275 1295.32 724.992 1249.61 753.101 1267.17C755.282 1268.62 758.19 1269.1 760.855 1268.38 763.521 1267.65 765.702 1265.97 766.914 1263.56L780.241 1238.3C782.907 1233.73 781.21 1227.96 776.364 1225.31Z" stroke="#FFFFFF" stroke-width="3.4375" stroke-miterlimit="8" fill="#FFFFFF" fill-rule="evenodd"/></g></svg>