<svg width="900" height="595" xmlns="http://www.w3.org/2000/svg" xmlns:xlink="http://www.w3.org/1999/xlink" xml:space="preserve" overflow="hidden"><g transform="translate(-3280 -165)"><path d="M3280 487.58C3280 474.557 3290.56 464 3303.58 464L3551.42 464C3564.44 464 3575 474.557 3575 487.58L3575 731.42C3575 744.443 3564.44 755 3551.42 755L3303.58 755C3290.56 755 3280 744.443 3280 731.42Z" fill="#5F605E" fill-rule="evenodd"/><path d="M3584.5 488.08C3584.5 475.057 3595.06 464.5 3608.08 464.5L3855.92 464.5C3868.94 464.5 3879.5 475.057 3879.5 488.08L3879.5 731.92C3879.5 744.942 3868.94 755.499 3855.92 755.499L3608.08 755.499C3595.06 755.499 3584.5 744.942 3584.5 731.92Z" stroke="#FFFFFF" stroke-width="9.16667" stroke-linejoin="round" stroke-miterlimit="10" fill="#D62CD0" fill-rule="evenodd"/><path d="M3885 487.58C3885 474.557 3895.56 464 3908.58 464L4156.42 464C4169.44 464 4180 474.557 4180 487.58L4180 731.42C4180 744.443 4169.44 755 4156.42 755L3908.58 755C3895.56 755 3885 744.443 3885 731.42Z" fill="#5F605E" fill-rule="evenodd"/><path d="M3885 188.58C3885 175.557 3895.56 165 3908.58 165L4156.42 165C4169.44 165 4180 175.557 4180 188.58L4180 432.42C4180 445.443 4169.44 456 4156.42 456L3908.58 456C3895.56 456 3885 445.443 3885 432.42Z" fill="#D62CD0" fill-rule="evenodd"/><path d="M3584 188.58C3584 175.557 3594.56 165 3607.58 165L3855.42 165C3868.44 165 3879 175.557 3879 188.58L3879 432.42C3879 445.443 3868.44 456 3855.42 456L3607.58 456C3594.56 456 3584 445.443 3584 432.42Z" fill="#5F605E" fill-rule="evenodd"/><path d="M3280 188.58C3280 175.557 3290.56 165 3303.58 165L3551.42 165C3564.44 165 3575 175.557 3575 188.58L3575 432.42C3575 445.443 3564.44 456 3551.42 456L3303.58 456C3290.56 456 3280 445.443 3280 432.42Z" fill="#5F605E" fill-rule="evenodd"/><path d="M4116.9 618.456 4099.26 587.963 4099.26 586.938C4100.33 558.85 4085.88 532.452 4061.66 518.262 4037.45 503.912 4007.36 503.912 3983.15 518.262 3958.89 532.407 3944.43 558.835 3945.56 586.938 3945.47 611.037 3956.64 633.792 3975.74 648.438L3975.74 712.5 4056.55 712.5 4056.55 682.006 4069.08 682.006C4077.16 682.061 4084.91 678.824 4090.56 673.038 4096.16 667.277 4099.28 659.551 4099.26 651.513L4099.26 636.138 4110.51 636.138C4117.18 635.625 4123.06 627.938 4116.9 618.456ZM4015.48 608.601C4020.49 607.832 4023.09 614.108 4020 618.303L4019.54 618.887C4016.24 622.92 4009.41 622.075 4008.93 617.034 4008.65 614.082 4004.78 611.046 4003 613.339L3991.67 627.938 3981.27 619.833C3978.98 618.039 3982.01 614.172 3984.96 613.887 3990 613.406 3990.84 606.564 3986.81 603.261L3986.22 602.805C3982.04 599.699 3975.78 602.313 3976.55 607.325 3977 610.254 3973.99 614.152 3971.7 612.366L3961.89 604.714 3973.28 590.049C3975.07 587.755 3971.17 584.744 3968.25 585.195 3963.25 585.964 3960.64 579.686 3963.74 575.494L3964.19 574.909C3967.49 570.876 3974.32 571.719 3974.8 576.762 3975.08 579.711 3978.95 582.748 3980.73 580.457L3992.07 565.851 4001.82 573.456C4004.11 575.25 4001.08 579.114 3998.14 579.396 3993.09 579.88 3992.25 586.722 3996.28 590.025L3996.87 590.482C4001.05 593.587 4007.32 590.966 4006.55 585.959 4006.1 583.03 4009.1 579.13 4011.4 580.921L4021.85 589.072 4010.45 603.748C4008.67 606.039 4012.56 609.052 4015.48 608.601ZM4054.27 566.151C4052.31 567.668 4049.76 564.344 4050.14 561.848 4050.81 557.577 4045.34 555.442 4041.77 558.081L4041.27 558.471C4037.83 561.29 4038.67 567.019 4042.96 567.44 4045.47 567.696 4048.05 570.991 4046.1 572.508L4037.73 579.022 4028.03 566.509C4026.52 564.554 4023.21 567.14 4022.97 569.653 4022.56 573.956 4016.83 574.796 4014.02 571.347L4013.63 570.845C4011 567.258 4013.12 561.792 4017.38 562.453 4019.88 562.84 4023.19 560.277 4021.68 558.322L4012.03 545.866 4020.35 539.393C4022.3 537.873 4024.86 541.187 4024.47 543.693 4023.81 547.967 4029.27 550.099 4032.84 547.46L4033.35 547.073C4036.79 544.254 4035.95 538.522 4031.66 538.104 4029.15 537.86 4026.56 534.56 4028.53 533.035L4037.45 526.096 4047.14 538.609C4048.66 540.564 4051.96 537.978 4052.2 535.465 4052.62 531.16 4058.34 530.322 4061.15 533.771L4061.54 534.268C4064.17 537.855 4062.05 543.321 4057.78 542.66 4055.29 542.273 4051.97 544.836 4053.49 546.791L4063.13 559.263Z" stroke="#FFFFFF" stroke-width="3.4375" stroke-miterlimit="8" fill="#FFFFFF" fill-rule="evenodd"/><path d="M3541.14 285.5 3410.5 285.5 3410.5 353.137C3410.52 359.355 3415.59 364.391 3421.86 364.409L3535.46 364.409 3535.46 378.5 3552.5 378.5 3552.5 296.773C3552.48 290.555 3547.41 285.519 3541.14 285.5Z" stroke="#FFFFFF" stroke-width="4.58333" stroke-miterlimit="8" fill="#FFFFFF" fill-rule="evenodd"/><path d="M3320.47 251.001C3320.56 246.392 3316.9 242.587 3312.3 242.501 3312.19 242.499 3312.09 242.499 3311.99 242.501 3307.39 242.416 3303.59 246.083 3303.5 250.692 3303.5 250.795 3303.5 250.898 3303.5 251.001L3303.5 378.5 3320.47 378.5 3320.47 350.167 3402.5 350.167 3402.5 321.834 3320.47 287.834Z" stroke="#FFFFFF" stroke-width="4.58333" stroke-miterlimit="8" fill="#FFFFFF" fill-rule="evenodd"/><path d="M3365.5 272C3365.5 281.113 3357.89 288.5 3348.5 288.5 3339.11 288.5 3331.5 281.113 3331.5 272 3331.5 262.887 3339.11 255.5 3348.5 255.5 3357.89 255.5 3365.5 262.887 3365.5 272Z" stroke="#FFFFFF" stroke-width="4.58333" stroke-miterlimit="8" fill="#FFFFFF" fill-rule="evenodd"/><path d="M3359.5 295.865 3402.5 313.5 3402.5 282.91 3397.01 280.651C3382.38 274.706 3365.62 281.504 3359.5 295.865Z" stroke="#FFFFFF" stroke-width="4.58333" stroke-miterlimit="8" fill="#FFFFFF" fill-rule="evenodd"/><path d="M3816.5 242.9C3816.5 217.93 3804.32 197.5 3779.67 197.5 3755.02 197.5 3755.87 208.85 3731.5 208.85 3707.13 208.85 3707.98 197.5 3683.33 197.5 3658.68 197.5 3646.5 217.93 3646.5 242.9 3646.5 267.87 3666.33 292.556 3666.33 313.838 3666.33 333.984 3663.5 351.009 3663.5 364.912 3663.5 378.816 3663.22 424.5 3683.33 424.5 3703.45 424.5 3703.17 383.073 3703.17 364.912 3703.17 346.753 3705.43 319.513 3731.5 319.513 3757.57 319.513 3759.83 346.753 3759.83 364.912 3759.83 383.073 3759.55 424.5 3779.67 424.5 3799.78 424.5 3799.5 378.816 3799.5 364.912 3799.5 351.009 3796.67 333.984 3796.67 313.838 3796.67 292.556 3816.5 267.87 3816.5 242.9Z" stroke="#FFFFFF" stroke-width="4.58333" stroke-miterlimit="8" fill="#FFFFFF" fill-rule="evenodd"/><path d="M3374.5 680.5C3374.5 692.651 3364.87 702.5 3353 702.5 3341.13 702.5 3331.5 692.651 3331.5 680.5 3331.5 668.35 3341.13 658.5 3353 658.5 3364.87 658.5 3374.5 668.35 3374.5 680.5Z" stroke="#FFFFFF" stroke-width="4.58333" stroke-miterlimit="8" fill="#FFFFFF" fill-rule="evenodd"/><path d="M3530.5 680.5C3530.5 692.651 3520.87 702.5 3509 702.5 3497.13 702.5 3487.5 692.651 3487.5 680.5 3487.5 668.35 3497.13 658.5 3509 658.5 3520.87 658.5 3530.5 668.35 3530.5 680.5Z" stroke="#FFFFFF" stroke-width="4.58333" stroke-miterlimit="8" fill="#FFFFFF" fill-rule="evenodd"/><path d="M3547.5 626.946 3530.94 614.491C3528.77 612.881 3527.22 610.57 3526.56 607.953L3520.31 586.468C3517.13 575.849 3507.37 568.53 3496.25 568.409L3490 568.409 3490 552.841C3490 547.682 3485.8 543.5 3480.63 543.5L3474.38 543.5C3469.2 543.5 3465 547.682 3465 552.841L3465 568.409 3465 568.409 3465 562.182C3465 555.304 3459.4 549.727 3452.5 549.727L3315 549.727C3308.1 549.727 3302.5 555.304 3302.5 562.182L3302.5 668.046C3302.5 674.924 3308.1 680.5 3315 680.5L3321.25 680.5C3321.25 663.304 3335.24 649.364 3352.5 649.364 3369.76 649.364 3383.75 663.304 3383.75 680.5L3477.5 680.5C3477.5 663.304 3491.49 649.364 3508.75 649.364 3526.01 649.364 3540 663.304 3540 680.5 3546.9 680.5 3552.5 674.924 3552.5 668.046L3552.5 636.909C3552.5 632.989 3550.65 629.298 3547.5 626.946ZM3428.28 614.491 3418.91 630.682 3402.5 621.341 3402.5 640.023 3383.75 640.023 3383.75 621.154 3367.34 630.495 3357.97 614.304 3374.38 604.964 3357.97 595.622 3367.34 579.432 3383.75 588.772 3383.75 569.904 3402.5 569.904 3402.5 588.804 3418.91 579.462 3428.28 595.654 3411.88 604.994ZM3477.5 612 3477.5 580.864 3496.25 580.864C3501.82 580.787 3506.73 584.516 3508.13 589.893L3514.38 611.377C3514.38 611.689 3514.69 611.689 3514.69 612Z" stroke="#FFFFFF" stroke-width="4.58333" stroke-miterlimit="8" fill="#FFFFFF" fill-rule="evenodd"/><path d="M3477.5 533.5 3477.5 518.5" stroke="#FFFFFF" stroke-width="4.58333" stroke-miterlimit="8" fill="none" fill-rule="evenodd"/><path d="M3491.5 536.5 3502.5 525.5" stroke="#FFFFFF" stroke-width="4.58333" stroke-miterlimit="8" fill="#FFFFFF" fill-rule="evenodd"/><path d="M3463.5 536.5 3452.5 525.5" stroke="#FFFFFF" stroke-width="4.58333" stroke-miterlimit="8" fill="#FFFFFF" fill-rule="evenodd"/><path d="M4003.5 312 4003.5 246.617C4003.5 230.635 4016.55 217.559 4032.5 217.559 4048.45 217.559 4061.5 230.635 4061.5 246.617L4061.5 312 4003.5 312ZM4090.5 377.383 4090.5 246.617C4090.5 214.652 4064.4 188.5 4032.5 188.5 4000.6 188.5 3974.5 214.652 3974.5 246.617L3974.5 377.383C3974.5 409.348 4000.6 435.501 4032.5 435.501 4064.4 435.501 4090.5 409.348 4090.5 377.383Z" stroke="#FFFFFF" stroke-width="4.58333" stroke-miterlimit="8" fill="#85D8D1" fill-rule="evenodd"/><path d="M3974.5 312.5 3974.5 249.5C3974.5 214.706 4000.47 186.5 4032.5 186.5 4064.53 186.5 4090.5 214.706 4090.5 249.5L4090.5 312.5Z" stroke="#FFFFFF" stroke-width="4.58333" stroke-linejoin="round" stroke-miterlimit="10" fill="#FFFFFF" fill-rule="evenodd"/><path d="M3790.5 526C3790.5 536.77 3781.77 545.5 3771 545.5 3760.23 545.5 3751.5 536.77 3751.5 526 3751.5 515.23 3760.23 506.5 3771 506.5 3781.77 506.5 3790.5 515.23 3790.5 526Z" stroke="#FFFFFF" stroke-width="3.4375" stroke-miterlimit="8" fill="#FFFFFF" fill-rule="evenodd"/><path d="M3817.39 552.312C3812.57 549.906 3806.79 551.59 3804.38 556.402L3795.94 572.28 3758.83 548.944C3757.38 547.981 3755.7 547.5 3753.77 547.5L3712.8 547.5C3709.18 547.5 3706.05 549.425 3704.36 552.552L3688.7 581.422C3686.05 585.993 3687.98 592.007 3692.56 594.413 3694 595.135 3695.69 595.616 3697.13 595.616 3700.51 595.616 3703.88 593.691 3705.57 590.564L3718.58 566.747 3732.8 566.747 3690.15 646.138 3650.14 646.138C3644.84 646.138 3640.5 650.468 3640.5 655.761 3640.5 661.054 3644.84 665.384 3650.14 665.384L3695.93 665.384C3699.54 665.384 3702.68 663.46 3704.36 660.332L3721.23 629.297 3748.95 655.039 3746.78 703.396C3746.3 708.688 3750.4 713.26 3755.7 713.5 3755.94 713.5 3755.94 713.5 3756.18 713.5 3761.24 713.5 3765.58 709.41 3765.82 704.358L3768.23 651.431C3768.47 648.544 3767.26 645.897 3765.1 643.973L3741.72 622.32 3766.3 576.61 3794.26 594.173C3796.43 595.616 3799.32 596.097 3801.97 595.376 3804.62 594.654 3806.79 592.97 3807.99 590.564L3821.25 565.303C3823.9 560.732 3822.21 554.958 3817.39 552.312Z" stroke="#FFFFFF" stroke-width="3.4375" stroke-miterlimit="8" fill="#FFFFFF" fill-rule="evenodd"/></g></svg>