<svg width="904" height="595" xmlns="http://www.w3.org/2000/svg" xmlns:xlink="http://www.w3.org/1999/xlink" xml:space="preserve" overflow="hidden"><g transform="translate(-1302 -1509)"><path d="M1302 1832.5C1302 1819.52 1312.52 1809 1325.5 1809L1573.5 1809C1586.48 1809 1597 1819.52 1597 1832.5L1597 2075.5C1597 2088.48 1586.48 2099 1573.5 2099L1325.5 2099C1312.52 2099 1302 2088.48 1302 2075.5Z" fill="#5F605E" fill-rule="evenodd"/><path d="M1606.5 1833C1606.5 1820.02 1617.02 1809.5 1630 1809.5L1878 1809.5C1890.98 1809.5 1901.5 1820.02 1901.5 1833L1901.5 2076C1901.5 2088.98 1890.98 2099.5 1878 2099.5L1630 2099.5C1617.02 2099.5 1606.5 2088.98 1606.5 2076Z" stroke="#FFFFFF" stroke-width="9.16667" stroke-linejoin="round" stroke-miterlimit="10" fill="#D62CD0" fill-rule="evenodd"/><path d="M1906.5 1833C1906.5 1820.02 1917.02 1809.5 1930 1809.5L2178 1809.5C2190.98 1809.5 2201.5 1820.02 2201.5 1833L2201.5 2076C2201.5 2088.98 2190.98 2099.5 2178 2099.5L1930 2099.5C1917.02 2099.5 1906.5 2088.98 1906.5 2076Z" stroke="#FFFFFF" stroke-width="9.16667" stroke-linejoin="round" stroke-miterlimit="10" fill="#D62CD0" fill-rule="evenodd"/><path d="M1906 1532.58C1906 1519.56 1916.56 1509 1929.58 1509L2177.42 1509C2190.44 1509 2201 1519.56 2201 1532.58L2201 1776.42C2201 1789.44 2190.44 1800 2177.42 1800L1929.58 1800C1916.56 1800 1906 1789.44 1906 1776.42Z" fill="#D62CD0" fill-rule="evenodd"/><path d="M1606 1532.58C1606 1519.56 1616.56 1509 1629.58 1509L1877.42 1509C1890.44 1509 1901 1519.56 1901 1532.58L1901 1776.42C1901 1789.44 1890.44 1800 1877.42 1800L1629.58 1800C1616.56 1800 1606 1789.44 1606 1776.42Z" fill="#D62CD0" fill-rule="evenodd"/><path d="M1302 1532.58C1302 1519.56 1312.56 1509 1325.58 1509L1573.42 1509C1586.44 1509 1597 1519.56 1597 1532.58L1597 1776.42C1597 1789.44 1586.44 1800 1573.42 1800L1325.58 1800C1312.56 1800 1302 1789.44 1302 1776.42Z" fill="#D62CD0" fill-rule="evenodd"/><path d="M2138.9 1962.92 2121.26 1932.57 2121.26 1931.55C2122.33 1903.6 2107.88 1877.33 2083.66 1863.21 2059.45 1848.93 2029.37 1848.93 2005.15 1863.21 1980.89 1877.29 1966.43 1903.58 1967.56 1931.55 1967.47 1955.53 1978.64 1978.18 1997.74 1992.75L1997.74 2056.5 2078.55 2056.5 2078.55 2026.16 2091.08 2026.16C2099.16 2026.21 2106.91 2022.99 2112.56 2017.23 2118.16 2011.5 2121.28 2003.81 2121.26 1995.81L2121.26 1980.51 2132.51 1980.51C2139.18 1980 2145.06 1972.35 2138.9 1962.92ZM2037.48 1953.11C2042.49 1952.34 2045.09 1958.59 2042 1962.76L2041.54 1963.34C2038.24 1967.36 2031.41 1966.52 2030.93 1961.5 2030.65 1958.56 2026.78 1955.54 2025 1957.82L2013.67 1972.35 2003.27 1964.28C2000.98 1962.5 2004.01 1958.65 2006.96 1958.37 2012 1957.89 2012.84 1951.08 2008.81 1947.79L2008.22 1947.34C2004.04 1944.25 1997.78 1946.85 1998.55 1951.84 1999 1954.75 1995.99 1958.63 1993.7 1956.85L1983.89 1949.24 1995.28 1934.65C1997.07 1932.36 1993.17 1929.37 1990.25 1929.82 1985.25 1930.58 1982.64 1924.33 1985.74 1920.16L1986.19 1919.58C1989.49 1915.57 1996.32 1916.41 1996.8 1921.42 1997.08 1924.36 2000.95 1927.38 2002.73 1925.1L2014.07 1910.57 2023.82 1918.13C2026.11 1919.92 2023.08 1923.77 2020.14 1924.05 2015.1 1924.53 2014.25 1931.34 2018.28 1934.62L2018.87 1935.08C2023.05 1938.17 2029.32 1935.56 2028.55 1930.58 2028.1 1927.66 2031.1 1923.78 2033.4 1925.56L2043.85 1933.67 2032.45 1948.28C2030.67 1950.56 2034.56 1953.56 2037.48 1953.11ZM2076.27 1910.86C2074.31 1912.37 2071.76 1909.07 2072.14 1906.58 2072.81 1902.33 2067.34 1900.21 2063.77 1902.83L2063.27 1903.22C2059.83 1906.03 2060.67 1911.73 2064.96 1912.15 2067.47 1912.4 2070.05 1915.68 2068.1 1917.19L2059.73 1923.67 2050.03 1911.22C2048.52 1909.28 2045.21 1911.85 2044.97 1914.35 2044.56 1918.63 2038.83 1919.47 2036.02 1916.04L2035.63 1915.54C2033 1911.97 2035.12 1906.53 2039.38 1907.19 2041.88 1907.57 2045.19 1905.02 2043.68 1903.07L2034.03 1890.68 2042.35 1884.24C2044.3 1882.73 2046.86 1886.02 2046.47 1888.52 2045.81 1892.77 2051.27 1894.89 2054.84 1892.26L2055.35 1891.88C2058.79 1889.07 2057.95 1883.37 2053.66 1882.95 2051.15 1882.71 2048.57 1879.43 2050.53 1877.91L2059.45 1871.01 2069.14 1883.46C2070.66 1885.4 2073.96 1882.83 2074.2 1880.33 2074.62 1876.04 2080.34 1875.21 2083.15 1878.64L2083.54 1879.14C2086.17 1882.71 2084.05 1888.15 2079.78 1887.49 2077.29 1887.1 2073.97 1889.65 2075.49 1891.6L2085.13 1904.01Z" stroke="#FFFFFF" stroke-width="3.4375" stroke-miterlimit="8" fill="#FFFFFF" fill-rule="evenodd"/><path d="M1563.14 1629.5 1432.5 1629.5 1432.5 1697.86C1432.52 1704.15 1437.59 1709.24 1443.86 1709.26L1557.46 1709.26 1557.46 1723.5 1574.5 1723.5 1574.5 1640.89C1574.48 1634.61 1569.41 1629.52 1563.14 1629.5Z" stroke="#FFFFFF" stroke-width="4.58333" stroke-miterlimit="8" fill="#FFFFFF" fill-rule="evenodd"/><path d="M1342.47 1596C1342.56 1591.39 1338.9 1587.59 1334.3 1587.5 1334.19 1587.5 1334.09 1587.5 1333.99 1587.5 1329.39 1587.42 1325.59 1591.08 1325.5 1595.69 1325.5 1595.8 1325.5 1595.9 1325.5 1596L1325.5 1723.5 1342.47 1723.5 1342.47 1695.17 1424.5 1695.17 1424.5 1666.83 1342.47 1632.83Z" stroke="#FFFFFF" stroke-width="4.58333" stroke-miterlimit="8" fill="#FFFFFF" fill-rule="evenodd"/><path d="M1387.5 1616.5C1387.5 1625.89 1379.89 1633.5 1370.5 1633.5 1361.11 1633.5 1353.5 1625.89 1353.5 1616.5 1353.5 1607.11 1361.11 1599.5 1370.5 1599.5 1379.89 1599.5 1387.5 1607.11 1387.5 1616.5Z" stroke="#FFFFFF" stroke-width="4.58333" stroke-miterlimit="8" fill="#FFFFFF" fill-rule="evenodd"/><path d="M1381.5 1640.36 1424.5 1658.5 1424.5 1627.04 1419.01 1624.71C1404.38 1618.6 1387.62 1625.59 1381.5 1640.36Z" stroke="#FFFFFF" stroke-width="4.58333" stroke-miterlimit="8" fill="#FFFFFF" fill-rule="evenodd"/><path d="M1838.5 1586.9C1838.5 1561.93 1826.32 1541.5 1801.67 1541.5 1777.02 1541.5 1777.87 1552.85 1753.5 1552.85 1729.13 1552.85 1729.98 1541.5 1705.33 1541.5 1680.68 1541.5 1668.5 1561.93 1668.5 1586.9 1668.5 1611.87 1688.33 1636.56 1688.33 1657.84 1688.33 1677.98 1685.5 1695.01 1685.5 1708.91 1685.5 1722.82 1685.22 1768.5 1705.33 1768.5 1725.45 1768.5 1725.17 1727.07 1725.17 1708.91 1725.17 1690.75 1727.43 1663.51 1753.5 1663.51 1779.57 1663.51 1781.83 1690.75 1781.83 1708.91 1781.83 1727.07 1781.55 1768.5 1801.67 1768.5 1821.78 1768.5 1821.5 1722.82 1821.5 1708.91 1821.5 1695.01 1818.67 1677.98 1818.67 1657.84 1818.67 1636.56 1838.5 1611.87 1838.5 1586.9Z" stroke="#FFFFFF" stroke-width="4.58333" stroke-miterlimit="8" fill="#FFFFFF" fill-rule="evenodd"/><path d="M1396.5 2024.5C1396.5 2036.65 1386.65 2046.5 1374.5 2046.5 1362.35 2046.5 1352.5 2036.65 1352.5 2024.5 1352.5 2012.35 1362.35 2002.5 1374.5 2002.5 1386.65 2002.5 1396.5 2012.35 1396.5 2024.5Z" stroke="#FFFFFF" stroke-width="4.58333" stroke-miterlimit="8" fill="#FFFFFF" fill-rule="evenodd"/><path d="M1552.5 2024.5C1552.5 2036.65 1542.87 2046.5 1531 2046.5 1519.13 2046.5 1509.5 2036.65 1509.5 2024.5 1509.5 2012.35 1519.13 2002.5 1531 2002.5 1542.87 2002.5 1552.5 2012.35 1552.5 2024.5Z" stroke="#FFFFFF" stroke-width="4.58333" stroke-miterlimit="8" fill="#FFFFFF" fill-rule="evenodd"/><path d="M1569.5 1970.95 1552.94 1958.49C1550.76 1956.88 1549.22 1954.57 1548.56 1951.95L1542.31 1930.47C1539.13 1919.85 1529.37 1912.53 1518.25 1912.41L1512 1912.41 1512 1896.84C1512 1891.68 1507.8 1887.5 1502.62 1887.5L1496.38 1887.5C1491.2 1887.5 1487 1891.68 1487 1896.84L1487 1912.41 1487 1912.41 1487 1906.18C1487 1899.3 1481.4 1893.73 1474.5 1893.73L1337 1893.73C1330.1 1893.73 1324.5 1899.3 1324.5 1906.18L1324.5 2012.05C1324.5 2018.92 1330.1 2024.5 1337 2024.5L1343.25 2024.5C1343.25 2007.3 1357.24 1993.36 1374.5 1993.36 1391.76 1993.36 1405.75 2007.3 1405.75 2024.5L1499.5 2024.5C1499.5 2007.3 1513.49 1993.36 1530.75 1993.36 1548.01 1993.36 1562 2007.3 1562 2024.5 1568.9 2024.5 1574.5 2018.92 1574.5 2012.05L1574.5 1980.91C1574.5 1976.99 1572.65 1973.3 1569.5 1970.95ZM1450.28 1958.49 1440.91 1974.68 1424.5 1965.34 1424.5 1984.02 1405.75 1984.02 1405.75 1965.15 1389.34 1974.5 1379.97 1958.3 1396.37 1948.96 1379.97 1939.62 1389.34 1923.43 1405.75 1932.77 1405.75 1913.9 1424.5 1913.9 1424.5 1932.8 1440.91 1923.46 1450.28 1939.65 1433.88 1948.99ZM1499.5 1956 1499.5 1924.86 1518.25 1924.86C1523.82 1924.79 1528.73 1928.52 1530.12 1933.89L1536.38 1955.38C1536.38 1955.69 1536.69 1955.69 1536.69 1956Z" stroke="#FFFFFF" stroke-width="4.58333" stroke-miterlimit="8" fill="#FFFFFF" fill-rule="evenodd"/><path d="M1499.5 1877.5 1499.5 1862.5" stroke="#FFFFFF" stroke-width="4.58333" stroke-miterlimit="8" fill="none" fill-rule="evenodd"/><path d="M1513.5 1881.5 1524.5 1870.5" stroke="#FFFFFF" stroke-width="4.58333" stroke-miterlimit="8" fill="#FFFFFF" fill-rule="evenodd"/><path d="M1485.5 1881.5 1474.5 1870.5" stroke="#FFFFFF" stroke-width="4.58333" stroke-miterlimit="8" fill="#FFFFFF" fill-rule="evenodd"/><path d="M2025.5 1656.5 2025.5 1591.38C2025.5 1575.46 2038.55 1562.44 2054.5 1562.44 2070.45 1562.44 2083.5 1575.46 2083.5 1591.38L2083.5 1656.5 2025.5 1656.5ZM2112.5 1721.62 2112.5 1591.38C2112.5 1559.55 2086.4 1533.5 2054.5 1533.5 2022.6 1533.5 1996.5 1559.55 1996.5 1591.38L1996.5 1721.62C1996.5 1753.45 2022.6 1779.5 2054.5 1779.5 2086.4 1779.5 2112.5 1753.45 2112.5 1721.62Z" stroke="#FFFFFF" stroke-width="4.58333" stroke-miterlimit="8" fill="#85D8D1" fill-rule="evenodd"/><path d="M1996.5 1656.5 1996.5 1593.5C1996.5 1558.71 2022.47 1530.5 2054.5 1530.5 2086.53 1530.5 2112.5 1558.71 2112.5 1593.5L2112.5 1656.5Z" stroke="#FFFFFF" stroke-width="4.58333" stroke-linejoin="round" stroke-miterlimit="10" fill="#FFFFFF" fill-rule="evenodd"/><path d="M1812.5 1870C1812.5 1880.77 1803.77 1889.5 1793 1889.5 1782.23 1889.5 1773.5 1880.77 1773.5 1870 1773.5 1859.23 1782.23 1850.5 1793 1850.5 1803.77 1850.5 1812.5 1859.23 1812.5 1870Z" stroke="#FFFFFF" stroke-width="3.4375" stroke-miterlimit="8" fill="#FFFFFF" fill-rule="evenodd"/><path d="M1839.39 1896.34C1834.57 1893.92 1828.79 1895.61 1826.38 1900.46L1817.94 1916.43 1780.83 1892.95C1779.38 1891.98 1777.7 1891.5 1775.77 1891.5L1734.8 1891.5C1731.18 1891.5 1728.05 1893.44 1726.36 1896.58L1710.7 1925.63C1708.05 1930.22 1709.98 1936.28 1714.56 1938.7 1716 1939.42 1717.69 1939.91 1719.13 1939.91 1722.51 1939.91 1725.88 1937.97 1727.57 1934.82L1740.58 1910.86 1754.8 1910.86 1712.15 1990.73 1672.14 1990.73C1666.84 1990.73 1662.5 1995.09 1662.5 2000.41 1662.5 2005.74 1666.84 2010.09 1672.14 2010.09L1717.93 2010.09C1721.54 2010.09 1724.68 2008.16 1726.36 2005.01L1743.23 1973.79 1770.95 1999.69 1768.78 2048.33C1768.3 2053.66 1772.4 2058.26 1777.7 2058.5 1777.94 2058.5 1777.94 2058.5 1778.18 2058.5 1783.24 2058.5 1787.58 2054.39 1787.82 2049.3L1790.23 1996.06C1790.47 1993.15 1789.26 1990.49 1787.1 1988.55L1763.72 1966.77 1788.3 1920.79 1816.26 1938.45C1818.43 1939.91 1821.32 1940.39 1823.97 1939.66 1826.62 1938.94 1828.79 1937.24 1829.99 1934.82L1843.25 1909.41C1845.9 1904.81 1844.21 1899 1839.39 1896.34Z" stroke="#FFFFFF" stroke-width="3.4375" stroke-miterlimit="8" fill="#FFFFFF" fill-rule="evenodd"/></g></svg>