<svg width="909" height="595" xmlns="http://www.w3.org/2000/svg" xmlns:xlink="http://www.w3.org/1999/xlink" xml:space="preserve" overflow="hidden"><g transform="translate(-1296 -169)"><path d="M1300.5 492.999C1300.5 480.021 1311.02 469.5 1324 469.5L1572 469.5C1584.98 469.5 1595.5 480.021 1595.5 492.999L1595.5 736.001C1595.5 748.979 1584.98 759.5 1572 759.5L1324 759.5C1311.02 759.5 1300.5 748.979 1300.5 736.001Z" stroke="#FFFFFF" stroke-width="9.16667" stroke-linejoin="round" stroke-miterlimit="10" fill="#D62CD0" fill-rule="evenodd"/><path d="M1604.5 492.999C1604.5 480.021 1615.02 469.5 1628 469.5L1876 469.5C1888.98 469.5 1899.5 480.021 1899.5 492.999L1899.5 736.001C1899.5 748.979 1888.98 759.5 1876 759.5L1628 759.5C1615.02 759.5 1604.5 748.979 1604.5 736.001Z" stroke="#FFFFFF" stroke-width="9.16667" stroke-linejoin="round" stroke-miterlimit="10" fill="#D62CD0" fill-rule="evenodd"/><path d="M1905.5 492.999C1905.5 480.021 1916.02 469.5 1929 469.5L2177 469.5C2189.98 469.5 2200.5 480.021 2200.5 492.999L2200.5 736.001C2200.5 748.979 2189.98 759.5 2177 759.5L1929 759.5C1916.02 759.5 1905.5 748.979 1905.5 736.001Z" stroke="#FFFFFF" stroke-width="9.16667" stroke-linejoin="round" stroke-miterlimit="10" fill="#D62CD0" fill-rule="evenodd"/><path d="M1905 192.58C1905 179.557 1915.56 169 1928.58 169L2176.42 169C2189.44 169 2200 179.557 2200 192.58L2200 436.421C2200 449.444 2189.44 460.001 2176.42 460.001L1928.58 460.001C1915.56 460.001 1905 449.444 1905 436.421Z" fill="#D62CD0" fill-rule="evenodd"/><path d="M1604 192.58C1604 179.557 1614.56 169 1627.58 169L1875.42 169C1888.44 169 1899 179.557 1899 192.58L1899 436.421C1899 449.444 1888.44 460.001 1875.42 460.001L1627.58 460.001C1614.56 460.001 1604 449.444 1604 436.421Z" fill="#5F605E" fill-rule="evenodd"/><path d="M1300 192.58C1300 179.557 1310.56 169 1323.58 169L1571.42 169C1584.44 169 1595 179.557 1595 192.58L1595 436.421C1595 449.444 1584.44 460.001 1571.42 460.001L1323.58 460.001C1310.56 460.001 1300 449.444 1300 436.421Z" fill="#D62CD0" fill-rule="evenodd"/><path d="M2136.92 622.915 2119.37 592.57 2119.37 591.55C2120.44 563.599 2106.07 537.331 2082 523.21 2057.93 508.93 2028.01 508.93 2003.94 523.21 1979.82 537.285 1965.43 563.585 1966.56 591.55 1966.47 615.532 1977.57 638.176 1996.56 652.75L1996.56 716.5 2076.91 716.5 2076.91 686.155 2089.37 686.155C2097.4 686.209 2105.11 682.988 2110.73 677.23 2116.29 671.498 2119.39 663.809 2119.37 655.81L2119.37 640.51 2130.56 640.51C2137.2 640 2143.04 632.35 2136.92 622.915ZM2036.08 613.108C2041.06 612.343 2043.65 618.588 2040.57 622.762L2040.11 623.344C2036.84 627.357 2030.05 626.516 2029.57 621.5 2029.29 618.562 2025.44 615.54 2023.67 617.823L2012.4 632.35 2002.06 624.285C1999.79 622.5 2002.8 618.651 2005.73 618.368 2010.74 617.889 2011.58 611.081 2007.57 607.794L2006.99 607.34C2002.83 604.249 1996.61 606.85 1997.37 611.838 1997.82 614.752 1994.83 618.631 1992.55 616.854L1982.8 609.239 1994.12 594.646C1995.9 592.364 1992.03 589.367 1989.12 589.816 1984.15 590.581 1981.55 584.333 1984.63 580.162L1985.08 579.581C1988.36 575.567 1995.15 576.406 1995.63 581.424 1995.91 584.359 1999.76 587.381 2001.53 585.101L2012.8 570.566 2022.5 578.135C2024.77 579.92 2021.76 583.765 2018.83 584.045 2013.82 584.527 2012.98 591.336 2016.99 594.623L2017.57 595.077C2021.73 598.167 2027.97 595.559 2027.2 590.576 2026.75 587.661 2029.73 583.78 2032.02 585.563L2042.41 593.674 2031.08 608.278C2029.31 610.558 2033.17 613.557 2036.08 613.108ZM2074.64 570.865C2072.7 572.374 2070.16 569.067 2070.54 566.583 2071.2 562.332 2065.77 560.208 2062.21 562.834L2061.72 563.222C2058.3 566.027 2059.14 571.729 2063.4 572.147 2065.9 572.402 2068.46 575.681 2066.52 577.191L2058.2 583.673 2048.56 571.221C2047.05 569.276 2043.77 571.849 2043.53 574.35 2043.11 578.632 2037.42 579.468 2034.63 576.036L2034.24 575.536C2031.62 571.966 2033.73 566.527 2037.97 567.185 2040.45 567.57 2043.75 565.02 2042.24 563.074L2032.64 550.679 2040.92 544.237C2042.86 542.725 2045.4 546.023 2045.02 548.516 2044.36 552.77 2049.79 554.891 2053.34 552.265L2053.85 551.88C2057.27 549.075 2056.43 543.37 2052.17 542.955 2049.67 542.712 2047.1 539.428 2049.05 537.911L2057.92 531.006 2067.56 543.457C2069.06 545.403 2072.35 542.83 2072.59 540.328 2073 536.044 2078.69 535.211 2081.49 538.643L2081.87 539.138C2084.49 542.707 2082.38 548.147 2078.14 547.489 2075.66 547.104 2072.36 549.654 2073.87 551.599L2083.46 564.01Z" stroke="#FFFFFF" stroke-width="3.4375" stroke-miterlimit="8" fill="#FFFFFF" fill-rule="evenodd"/><path d="M1561.22 289.5 1431.5 289.5 1431.5 357.864C1431.52 364.149 1436.56 369.239 1442.78 369.258L1555.58 369.258 1555.58 383.501 1572.5 383.501 1572.5 300.894C1572.48 294.609 1567.44 289.519 1561.22 289.5Z" stroke="#FFFFFF" stroke-width="4.58333" stroke-miterlimit="8" fill="#FFFFFF" fill-rule="evenodd"/><path d="M1340.47 256.001C1340.56 251.392 1336.9 247.587 1332.3 247.502 1332.19 247.5 1332.09 247.5 1331.99 247.502 1327.39 247.416 1323.59 251.083 1323.5 255.693 1323.5 255.796 1323.5 255.899 1323.5 256.001L1323.5 383.501 1340.47 383.501 1340.47 355.167 1422.5 355.167 1422.5 326.834 1340.47 292.835Z" stroke="#FFFFFF" stroke-width="4.58333" stroke-miterlimit="8" fill="#FFFFFF" fill-rule="evenodd"/><path d="M1385.5 276.5C1385.5 285.889 1377.89 293.5 1368.5 293.5 1359.11 293.5 1351.5 285.889 1351.5 276.5 1351.5 267.111 1359.11 259.5 1368.5 259.5 1377.89 259.5 1385.5 267.111 1385.5 276.5Z" stroke="#FFFFFF" stroke-width="4.58333" stroke-miterlimit="8" fill="#FFFFFF" fill-rule="evenodd"/><path d="M1380.5 300.866 1422.5 318.501 1422.5 287.91 1417.14 285.651C1402.85 279.706 1386.48 286.504 1380.5 300.866Z" stroke="#FFFFFF" stroke-width="4.58333" stroke-miterlimit="8" fill="#FFFFFF" fill-rule="evenodd"/><path d="M1837.5 246.9C1837.5 221.93 1825.32 201.5 1800.67 201.5 1776.02 201.5 1776.87 212.85 1752.5 212.85 1728.13 212.85 1728.98 201.5 1704.33 201.5 1679.68 201.5 1667.5 221.93 1667.5 246.9 1667.5 271.87 1687.33 296.556 1687.33 317.838 1687.33 337.984 1684.5 355.009 1684.5 368.913 1684.5 382.816 1684.22 428.5 1704.33 428.5 1724.45 428.5 1724.17 387.073 1724.17 368.913 1724.17 350.753 1726.43 323.513 1752.5 323.513 1778.57 323.513 1780.83 350.753 1780.83 368.913 1780.83 387.073 1780.55 428.5 1800.67 428.5 1820.78 428.5 1820.5 382.816 1820.5 368.913 1820.5 355.009 1817.67 337.984 1817.67 317.838 1817.67 296.556 1837.5 271.87 1837.5 246.9Z" stroke="#FFFFFF" stroke-width="4.58333" stroke-miterlimit="8" fill="#FFFFFF" fill-rule="evenodd"/><path d="M1395.5 684.5C1395.5 696.65 1385.65 706.5 1373.5 706.5 1361.35 706.5 1351.5 696.65 1351.5 684.5 1351.5 672.35 1361.35 662.5 1373.5 662.5 1385.65 662.5 1395.5 672.35 1395.5 684.5Z" stroke="#FFFFFF" stroke-width="4.58333" stroke-miterlimit="8" fill="#FFFFFF" fill-rule="evenodd"/><path d="M1551.5 684.5C1551.5 696.65 1541.65 706.5 1529.5 706.5 1517.35 706.5 1507.5 696.65 1507.5 684.5 1507.5 672.35 1517.35 662.5 1529.5 662.5 1541.65 662.5 1551.5 672.35 1551.5 684.5Z" stroke="#FFFFFF" stroke-width="4.58333" stroke-miterlimit="8" fill="#FFFFFF" fill-rule="evenodd"/><path d="M1568.5 630.946 1551.94 618.491C1549.76 616.881 1548.22 614.57 1547.56 611.953L1541.31 590.468C1538.12 579.849 1528.37 572.531 1517.25 572.409L1511 572.409 1511 556.841C1511 551.682 1506.8 547.5 1501.62 547.5L1495.37 547.5C1490.2 547.5 1486 551.682 1486 556.841L1486 572.409 1486 572.409 1486 566.182C1486 559.304 1480.4 553.727 1473.5 553.727L1336 553.727C1329.1 553.727 1323.5 559.304 1323.5 566.182L1323.5 672.046C1323.5 678.924 1329.1 684.5 1336 684.5L1342.25 684.5C1342.25 667.304 1356.24 653.364 1373.5 653.364 1390.76 653.364 1404.75 667.304 1404.75 684.5L1498.5 684.5C1498.5 667.304 1512.49 653.364 1529.75 653.364 1547.01 653.364 1561 667.304 1561 684.5 1567.9 684.5 1573.5 678.924 1573.5 672.046L1573.5 640.909C1573.5 636.989 1571.65 633.298 1568.5 630.946ZM1449.28 618.491 1439.91 634.682 1423.5 625.341 1423.5 644.023 1404.75 644.023 1404.75 625.154 1388.34 634.495 1378.97 618.304 1395.37 608.964 1378.97 599.622 1388.34 583.432 1404.75 592.772 1404.75 573.904 1423.5 573.904 1423.5 592.804 1439.91 583.463 1449.28 599.654 1432.87 608.994ZM1498.5 616 1498.5 584.864 1517.25 584.864C1522.82 584.787 1527.73 588.516 1529.12 593.893L1535.38 615.377C1535.38 615.689 1535.69 615.689 1535.69 616Z" stroke="#FFFFFF" stroke-width="4.58333" stroke-miterlimit="8" fill="#FFFFFF" fill-rule="evenodd"/><path d="M1498.5 538.5 1498.5 522.5" stroke="#FFFFFF" stroke-width="4.58333" stroke-miterlimit="8" fill="none" fill-rule="evenodd"/><path d="M1512.5 541.5 1523.5 530.5" stroke="#FFFFFF" stroke-width="4.58333" stroke-miterlimit="8" fill="#FFFFFF" fill-rule="evenodd"/><path d="M1484.5 541.5 1473.5 530.5" stroke="#FFFFFF" stroke-width="4.58333" stroke-miterlimit="8" fill="#FFFFFF" fill-rule="evenodd"/><path d="M2023.75 316.5 2023.75 251.382C2023.75 235.465 2036.91 222.441 2053 222.441 2069.09 222.441 2082.25 235.465 2082.25 251.382L2082.25 316.5 2023.75 316.5ZM2111.5 381.619 2111.5 251.382C2111.5 219.547 2085.18 193.5 2053 193.5 2020.82 193.5 1994.5 219.547 1994.5 251.382L1994.5 381.619C1994.5 413.454 2020.82 439.501 2053 439.501 2085.18 439.501 2111.5 413.454 2111.5 381.619Z" stroke="#FFFFFF" stroke-width="4.58333" stroke-miterlimit="8" fill="#85D8D1" fill-rule="evenodd"/><path d="M1994.5 316.5 1994.5 253.5C1994.5 218.706 2020.69 190.5 2053 190.5 2085.31 190.5 2111.5 218.706 2111.5 253.5L2111.5 316.5Z" stroke="#FFFFFF" stroke-width="4.58333" stroke-linejoin="round" stroke-miterlimit="10" fill="#FFFFFF" fill-rule="evenodd"/><path d="M1810.5 530C1810.5 540.77 1801.99 549.5 1791.5 549.5 1781.01 549.5 1772.5 540.77 1772.5 530 1772.5 519.231 1781.01 510.5 1791.5 510.5 1801.99 510.5 1810.5 519.231 1810.5 530Z" stroke="#FFFFFF" stroke-width="3.4375" stroke-miterlimit="8" fill="#FFFFFF" fill-rule="evenodd"/><path d="M1838.36 556.341C1833.52 553.92 1827.7 555.614 1825.28 560.455L1816.8 576.429 1779.48 552.952C1778.03 551.984 1776.33 551.5 1774.39 551.5L1733.2 551.5C1729.56 551.5 1726.41 553.436 1724.72 556.583L1708.96 585.626C1706.3 590.224 1708.24 596.275 1712.84 598.696 1714.3 599.422 1715.99 599.906 1717.45 599.906 1720.84 599.906 1724.23 597.969 1725.93 594.823L1739.01 570.862 1753.31 570.862 1710.42 650.732 1670.19 650.732C1664.86 650.732 1660.5 655.088 1660.5 660.413 1660.5 665.737 1664.86 670.094 1670.19 670.094L1716.23 670.094C1719.87 670.094 1723.02 668.158 1724.72 665.012L1741.68 633.79 1769.54 659.687 1767.36 708.335C1766.88 713.659 1771 718.258 1776.33 718.5 1776.57 718.5 1776.57 718.5 1776.81 718.5 1781.9 718.5 1786.27 714.385 1786.51 709.303L1788.93 656.056C1789.17 653.152 1787.96 650.49 1785.78 648.553L1762.28 626.771 1786.99 580.785 1815.1 598.454C1817.28 599.906 1820.19 600.39 1822.86 599.664 1825.52 598.937 1827.7 597.244 1828.91 594.823L1842.24 569.41C1844.91 564.812 1843.21 559.003 1838.36 556.341Z" stroke="#FFFFFF" stroke-width="3.4375" stroke-miterlimit="8" fill="#FFFFFF" fill-rule="evenodd"/></g></svg>