<svg width="908" height="595" xmlns="http://www.w3.org/2000/svg" xmlns:xlink="http://www.w3.org/1999/xlink" xml:space="preserve" overflow="hidden"><g transform="translate(-2257 -165)"><path d="M2261.5 488.08C2261.5 475.057 2272.06 464.5 2285.08 464.5L2532.92 464.5C2545.94 464.5 2556.5 475.057 2556.5 488.08L2556.5 731.92C2556.5 744.942 2545.94 755.499 2532.92 755.499L2285.08 755.499C2272.06 755.499 2261.5 744.942 2261.5 731.92Z" stroke="#FFFFFF" stroke-width="9.16667" stroke-linejoin="round" stroke-miterlimit="10" fill="#D62CD0" fill-rule="evenodd"/><path d="M2564.5 488.08C2564.5 475.057 2575.06 464.5 2588.08 464.5L2835.92 464.5C2848.94 464.5 2859.5 475.057 2859.5 488.08L2859.5 731.92C2859.5 744.943 2848.94 755.5 2835.92 755.5L2588.08 755.5C2575.06 755.5 2564.5 744.943 2564.5 731.92Z" stroke="#FFFFFF" stroke-width="9.16667" stroke-linejoin="round" stroke-miterlimit="10" fill="#D62CD0" fill-rule="evenodd"/><path d="M2865.5 488.08C2865.5 475.057 2876.06 464.5 2889.08 464.5L3136.92 464.5C3149.94 464.5 3160.5 475.057 3160.5 488.08L3160.5 731.92C3160.5 744.942 3149.94 755.499 3136.92 755.499L2889.08 755.499C2876.06 755.499 2865.5 744.942 2865.5 731.92Z" stroke="#FFFFFF" stroke-width="9.16667" stroke-linejoin="round" stroke-miterlimit="10" fill="#D62CD0" fill-rule="evenodd"/><path d="M2865 188.58C2865 175.557 2875.56 165 2888.58 165L3136.42 165C3149.44 165 3160 175.557 3160 188.58L3160 432.42C3160 445.443 3149.44 456 3136.42 456L2888.58 456C2875.56 456 2865 445.443 2865 432.42Z" fill="#D62CD0" fill-rule="evenodd"/><path d="M2564 188.58C2564 175.557 2574.56 165 2587.58 165L2835.42 165C2848.44 165 2859 175.557 2859 188.58L2859 432.42C2859 445.443 2848.44 456 2835.42 456L2587.58 456C2574.56 456 2564 445.443 2564 432.42Z" fill="#D62CD0" fill-rule="evenodd"/><path d="M2261 188.58C2261 175.557 2271.56 165 2284.58 165L2532.42 165C2545.44 165 2556 175.557 2556 188.58L2556 432.42C2556 445.443 2545.44 456 2532.42 456L2284.58 456C2271.56 456 2261 445.443 2261 432.42Z" fill="#D62CD0" fill-rule="evenodd"/><path d="M3097.9 618.456 3080.26 587.963 3080.26 586.938C3081.33 558.85 3066.88 532.452 3042.66 518.262 3018.45 503.912 2988.36 503.912 2964.15 518.262 2939.89 532.407 2925.43 558.835 2926.56 586.938 2926.47 611.037 2937.64 633.792 2956.74 648.438L2956.74 712.5 3037.55 712.5 3037.55 682.006 3050.08 682.006C3058.16 682.061 3065.91 678.824 3071.56 673.038 3077.16 667.277 3080.28 659.551 3080.26 651.513L3080.26 636.138 3091.51 636.138C3098.18 635.625 3104.06 627.938 3097.9 618.456ZM2996.48 608.601C3001.49 607.832 3004.09 614.108 3000.99 618.303L3000.54 618.887C2997.24 622.92 2990.41 622.075 2989.93 617.034 2989.65 614.082 2985.78 611.046 2984 613.339L2972.67 627.938 2962.27 619.833C2959.98 618.039 2963.01 614.172 2965.96 613.887 2971 613.406 2971.84 606.564 2967.81 603.261L2967.22 602.805C2963.04 599.699 2956.78 602.313 2957.55 607.325 2958 610.254 2954.99 614.152 2952.7 612.366L2942.89 604.714 2954.28 590.049C2956.07 587.755 2952.17 584.744 2949.25 585.195 2944.25 585.964 2941.64 579.686 2944.74 575.494L2945.19 574.909C2948.49 570.876 2955.32 571.719 2955.8 576.762 2956.08 579.711 2959.95 582.748 2961.73 580.457L2973.07 565.851 2982.82 573.456C2985.11 575.25 2982.08 579.114 2979.14 579.396 2974.09 579.88 2973.25 586.722 2977.28 590.025L2977.87 590.482C2982.05 593.587 2988.32 590.966 2987.55 585.959 2987.1 583.03 2990.1 579.13 2992.39 580.921L3002.85 589.072 2991.45 603.748C2989.67 606.039 2993.56 609.052 2996.48 608.601ZM3035.27 566.151C3033.31 567.668 3030.76 564.344 3031.14 561.848 3031.81 557.577 3026.34 555.442 3022.77 558.081L3022.27 558.471C3018.83 561.29 3019.67 567.019 3023.96 567.44 3026.47 567.696 3029.05 570.991 3027.1 572.508L3018.73 579.022 3009.03 566.509C3007.52 564.554 3004.21 567.14 3003.97 569.653 3003.56 573.956 2997.83 574.796 2995.02 571.347L2994.63 570.845C2992 567.258 2994.12 561.792 2998.38 562.453 3000.88 562.84 3004.19 560.277 3002.68 558.322L2993.03 545.866 3001.35 539.393C3003.3 537.873 3005.86 541.187 3005.47 543.693 3004.81 547.967 3010.27 550.099 3013.84 547.46L3014.35 547.073C3017.79 544.254 3016.95 538.522 3012.66 538.104 3010.15 537.86 3007.56 534.56 3009.53 533.035L3018.45 526.096 3028.14 538.609C3029.66 540.564 3032.96 537.978 3033.2 535.465 3033.62 531.16 3039.34 530.322 3042.15 533.771L3042.54 534.268C3045.17 537.855 3043.05 543.321 3038.78 542.66 3036.29 542.273 3032.97 544.836 3034.49 546.791L3044.13 559.263Z" stroke="#FFFFFF" stroke-width="3.4375" stroke-miterlimit="8" fill="#FFFFFF" fill-rule="evenodd"/><path d="M2522.14 285.5 2391.5 285.5 2391.5 353.137C2391.52 359.355 2396.59 364.391 2402.86 364.409L2516.46 364.409 2516.46 378.5 2533.5 378.5 2533.5 296.773C2533.48 290.555 2528.41 285.519 2522.14 285.5Z" stroke="#FFFFFF" stroke-width="4.58333" stroke-miterlimit="8" fill="#FFFFFF" fill-rule="evenodd"/><path d="M2300.64 251.001C2300.73 246.392 2297.03 242.587 2292.38 242.501 2292.28 242.499 2292.18 242.499 2292.07 242.501 2287.43 242.416 2283.59 246.083 2283.5 250.692 2283.5 250.795 2283.5 250.898 2283.5 251.001L2283.5 378.5 2300.64 378.5 2300.64 350.167 2383.5 350.167 2383.5 321.834 2300.64 287.834Z" stroke="#FFFFFF" stroke-width="4.58333" stroke-miterlimit="8" fill="#FFFFFF" fill-rule="evenodd"/><path d="M2345.5 272C2345.5 281.113 2337.89 288.5 2328.5 288.5 2319.11 288.5 2311.5 281.113 2311.5 272 2311.5 262.887 2319.11 255.5 2328.5 255.5 2337.89 255.5 2345.5 262.887 2345.5 272Z" stroke="#FFFFFF" stroke-width="4.58333" stroke-miterlimit="8" fill="#FFFFFF" fill-rule="evenodd"/><path d="M2340.5 295.865 2383.5 313.5 2383.5 282.91 2378.01 280.651C2363.38 274.706 2346.62 281.504 2340.5 295.865Z" stroke="#FFFFFF" stroke-width="4.58333" stroke-miterlimit="8" fill="#FFFFFF" fill-rule="evenodd"/><path d="M2797.5 242.9C2797.5 217.93 2785.32 197.5 2760.67 197.5 2736.02 197.5 2736.87 208.85 2712.5 208.85 2688.13 208.85 2688.98 197.5 2664.33 197.5 2639.68 197.5 2627.5 217.93 2627.5 242.9 2627.5 267.87 2647.33 292.556 2647.33 313.838 2647.33 333.984 2644.5 351.009 2644.5 364.912 2644.5 378.816 2644.22 424.5 2664.33 424.5 2684.45 424.5 2684.17 383.073 2684.17 364.912 2684.17 346.753 2686.43 319.513 2712.5 319.513 2738.57 319.513 2740.83 346.753 2740.83 364.912 2740.83 383.073 2740.55 424.5 2760.67 424.5 2780.78 424.5 2780.5 378.816 2780.5 364.912 2780.5 351.009 2777.67 333.984 2777.67 313.838 2777.67 292.556 2797.5 267.87 2797.5 242.9Z" stroke="#FFFFFF" stroke-width="4.58333" stroke-miterlimit="8" fill="#FFFFFF" fill-rule="evenodd"/><path d="M2355.5 680.5C2355.5 692.651 2345.65 702.5 2333.5 702.5 2321.35 702.5 2311.5 692.651 2311.5 680.5 2311.5 668.35 2321.35 658.5 2333.5 658.5 2345.65 658.5 2355.5 668.35 2355.5 680.5Z" stroke="#FFFFFF" stroke-width="4.58333" stroke-miterlimit="8" fill="#FFFFFF" fill-rule="evenodd"/><path d="M2511.5 680.5C2511.5 692.651 2501.65 702.5 2489.5 702.5 2477.35 702.5 2467.5 692.651 2467.5 680.5 2467.5 668.35 2477.35 658.5 2489.5 658.5 2501.65 658.5 2511.5 668.35 2511.5 680.5Z" stroke="#FFFFFF" stroke-width="4.58333" stroke-miterlimit="8" fill="#FFFFFF" fill-rule="evenodd"/><path d="M2528.5 626.946 2511.94 614.491C2509.76 612.881 2508.22 610.57 2507.56 607.953L2501.31 586.468C2498.13 575.849 2488.37 568.53 2477.25 568.409L2471 568.409 2471 552.841C2471 547.682 2466.8 543.5 2461.62 543.5L2455.38 543.5C2450.2 543.5 2446 547.682 2446 552.841L2446 568.409 2446 568.409 2446 562.182C2446 555.304 2440.4 549.727 2433.5 549.727L2296 549.727C2289.1 549.727 2283.5 555.304 2283.5 562.182L2283.5 668.046C2283.5 674.924 2289.1 680.5 2296 680.5L2302.25 680.5C2302.25 663.304 2316.24 649.364 2333.5 649.364 2350.76 649.364 2364.75 663.304 2364.75 680.5L2458.5 680.5C2458.5 663.304 2472.49 649.364 2489.75 649.364 2507.01 649.364 2521 663.304 2521 680.5 2527.9 680.5 2533.5 674.924 2533.5 668.046L2533.5 636.909C2533.5 632.989 2531.65 629.298 2528.5 626.946ZM2409.28 614.491 2399.91 630.682 2383.5 621.341 2383.5 640.023 2364.75 640.023 2364.75 621.154 2348.34 630.495 2338.97 614.304 2355.38 604.964 2338.97 595.622 2348.34 579.432 2364.75 588.772 2364.75 569.904 2383.5 569.904 2383.5 588.804 2399.91 579.462 2409.28 595.654 2392.88 604.994ZM2458.5 612 2458.5 580.864 2477.25 580.864C2482.82 580.787 2487.73 584.516 2489.12 589.893L2495.38 611.377C2495.38 611.689 2495.69 611.689 2495.69 612Z" stroke="#FFFFFF" stroke-width="4.58333" stroke-miterlimit="8" fill="#FFFFFF" fill-rule="evenodd"/><path d="M2458.5 533.5 2458.5 518.5" stroke="#FFFFFF" stroke-width="4.58333" stroke-miterlimit="8" fill="none" fill-rule="evenodd"/><path d="M2472.5 536.5 2483.5 525.5" stroke="#FFFFFF" stroke-width="4.58333" stroke-miterlimit="8" fill="#FFFFFF" fill-rule="evenodd"/><path d="M2444.5 536.5 2433.5 525.5" stroke="#FFFFFF" stroke-width="4.58333" stroke-miterlimit="8" fill="#FFFFFF" fill-rule="evenodd"/><path d="M2984.5 312 2984.5 246.617C2984.5 230.636 2997.55 217.559 3013.5 217.559 3029.45 217.559 3042.5 230.636 3042.5 246.617L3042.5 312 2984.5 312ZM3071.5 377.383 3071.5 246.617C3071.5 214.653 3045.4 188.5 3013.5 188.5 2981.6 188.5 2955.5 214.653 2955.5 246.617L2955.5 377.383C2955.5 409.348 2981.6 435.501 3013.5 435.501 3045.4 435.501 3071.5 409.348 3071.5 377.383Z" stroke="#FFFFFF" stroke-width="4.58333" stroke-miterlimit="8" fill="#85D8D1" fill-rule="evenodd"/><path d="M2955.5 312.5 2955.5 249.5C2955.5 214.706 2981.47 186.5 3013.5 186.5 3045.53 186.5 3071.5 214.706 3071.5 249.5L3071.5 312.5Z" stroke="#FFFFFF" stroke-width="4.58333" stroke-linejoin="round" stroke-miterlimit="10" fill="#FFFFFF" fill-rule="evenodd"/><path d="M2770.5 526C2770.5 536.77 2761.99 545.5 2751.5 545.5 2741.01 545.5 2732.5 536.77 2732.5 526 2732.5 515.23 2741.01 506.5 2751.5 506.5 2761.99 506.5 2770.5 515.23 2770.5 526Z" stroke="#FFFFFF" stroke-width="3.4375" stroke-miterlimit="8" fill="#FFFFFF" fill-rule="evenodd"/><path d="M2798.39 552.312C2793.57 549.906 2787.79 551.59 2785.38 556.402L2776.94 572.28 2739.83 548.944C2738.38 547.981 2736.7 547.5 2734.77 547.5L2693.8 547.5C2690.18 547.5 2687.05 549.425 2685.36 552.552L2669.7 581.422C2667.05 585.993 2668.98 592.007 2673.56 594.413 2675 595.135 2676.69 595.616 2678.13 595.616 2681.51 595.616 2684.88 593.691 2686.57 590.564L2699.58 566.747 2713.8 566.747 2671.15 646.138 2631.14 646.138C2625.84 646.138 2621.5 650.468 2621.5 655.761 2621.5 661.054 2625.84 665.384 2631.14 665.384L2676.93 665.384C2680.54 665.384 2683.68 663.46 2685.36 660.332L2702.23 629.297 2729.95 655.039 2727.78 703.396C2727.3 708.688 2731.4 713.26 2736.7 713.5 2736.94 713.5 2736.94 713.5 2737.18 713.5 2742.24 713.5 2746.58 709.41 2746.82 704.358L2749.23 651.431C2749.47 648.544 2748.26 645.897 2746.1 643.973L2722.72 622.32 2747.3 576.61 2775.26 594.173C2777.43 595.616 2780.32 596.097 2782.97 595.376 2785.62 594.654 2787.79 592.97 2788.99 590.564L2802.25 565.303C2804.9 560.732 2803.21 554.958 2798.39 552.312Z" stroke="#FFFFFF" stroke-width="3.4375" stroke-miterlimit="8" fill="#FFFFFF" fill-rule="evenodd"/></g></svg>