<svg width="900" height="590" xmlns="http://www.w3.org/2000/svg" xmlns:xlink="http://www.w3.org/1999/xlink" xml:space="preserve" overflow="hidden"><defs><clipPath id="clip0"><rect x="253" y="1507" width="900" height="590"/></clipPath></defs><g clip-path="url(#clip0)" transform="translate(-253 -1507)"><path d="M253 1829.58C253 1816.56 263.557 1806 276.58 1806L524.42 1806C537.443 1806 548 1816.56 548 1829.58L548 2073.42C548 2086.44 537.443 2097 524.42 2097L276.58 2097C263.557 2097 253 2086.44 253 2073.42Z" fill="#5F605E" fill-rule="evenodd"/><path d="M557 1829.58C557 1816.56 567.557 1806 580.58 1806L828.42 1806C841.443 1806 852 1816.56 852 1829.58L852 2073.42C852 2086.44 841.443 2097 828.42 2097L580.58 2097C567.557 2097 557 2086.44 557 2073.42Z" fill="#5F605E" fill-rule="evenodd"/><path d="M858 1829.58C858 1816.56 868.557 1806 881.58 1806L1129.42 1806C1142.44 1806 1153 1816.56 1153 1829.58L1153 2073.42C1153 2086.44 1142.44 2097 1129.42 2097L881.58 2097C868.557 2097 858 2086.44 858 2073.42Z" fill="#5F605E" fill-rule="evenodd"/><path d="M858 1530.5C858 1517.52 868.521 1507 881.499 1507L1129.5 1507C1142.48 1507 1153 1517.52 1153 1530.5L1153 1773.5C1153 1786.48 1142.48 1797 1129.5 1797L881.499 1797C868.521 1797 858 1786.48 858 1773.5Z" fill="#5F605E" fill-rule="evenodd"/><path d="M557 1530.5C557 1517.52 567.521 1507 580.499 1507L828.501 1507C841.479 1507 852 1517.52 852 1530.5L852 1773.5C852 1786.48 841.479 1797 828.501 1797L580.499 1797C567.521 1797 557 1786.48 557 1773.5Z" fill="#5F605E" fill-rule="evenodd"/><path d="M253 1530.5C253 1517.52 263.521 1507 276.499 1507L524.501 1507C537.479 1507 548 1517.52 548 1530.5L548 1773.5C548 1786.48 537.479 1797 524.501 1797L276.499 1797C263.521 1797 253 1786.48 253 1773.5Z" fill="#5F605E" fill-rule="evenodd"/><path d="M1090.9 1960.46 1073.26 1929.96 1073.26 1928.94C1074.33 1900.85 1059.88 1874.45 1035.66 1860.26 1011.45 1845.91 981.365 1845.91 957.155 1860.26 932.893 1874.41 918.427 1900.83 919.562 1928.94 919.473 1953.04 930.638 1975.79 949.739 1990.44L949.739 2054.5 1030.55 2054.5 1030.55 2024.01 1043.08 2024.01C1051.16 2024.06 1058.91 2020.82 1064.56 2015.04 1070.16 2009.28 1073.28 2001.55 1073.26 1993.51L1073.26 1978.14 1084.51 1978.14C1091.18 1977.63 1097.06 1969.94 1090.9 1960.46ZM989.481 1950.6C994.486 1949.83 997.095 1956.11 993.995 1960.3L993.54 1960.89C990.244 1964.92 983.413 1964.07 982.935 1959.03 982.651 1956.08 978.784 1953.05 977.005 1955.34L965.665 1969.94 955.27 1961.83C952.981 1960.04 956.014 1956.17 958.958 1955.89 963.995 1955.41 964.839 1948.56 960.807 1945.26L960.223 1944.8C956.037 1941.7 949.779 1944.31 950.547 1949.33 950.997 1952.25 947.989 1956.15 945.703 1954.37L935.891 1946.71 947.281 1932.05C949.071 1929.76 945.174 1926.74 942.251 1927.2 937.249 1927.96 934.64 1921.69 937.74 1917.49L938.192 1916.91C941.491 1912.88 948.319 1913.72 948.8 1918.76 949.084 1921.71 952.951 1924.75 954.73 1922.46L966.07 1907.85 975.821 1915.46C978.109 1917.25 975.079 1921.11 972.135 1921.4 967.095 1921.88 966.254 1928.72 970.284 1932.03L970.867 1932.48C975.053 1935.59 981.321 1932.97 980.551 1927.96 980.101 1925.03 983.096 1921.13 985.395 1922.92L995.849 1931.07 984.454 1945.75C982.671 1948.04 986.558 1951.05 989.481 1950.6ZM1028.27 1908.15C1026.31 1909.67 1023.76 1906.34 1024.14 1903.85 1024.81 1899.58 1019.34 1897.44 1015.77 1900.08L1015.27 1900.47C1011.83 1903.29 1012.67 1909.02 1016.96 1909.44 1019.47 1909.7 1022.05 1912.99 1020.1 1914.51L1011.73 1921.02 1002.03 1908.51C1000.52 1906.55 997.215 1909.14 996.972 1911.65 996.557 1915.96 990.834 1916.8 988.021 1913.35L987.628 1912.85C984.996 1909.26 987.116 1903.79 991.384 1904.45 993.877 1904.84 997.192 1902.28 995.678 1900.32L986.026 1887.87 994.345 1881.39C996.299 1879.87 998.857 1883.19 998.47 1885.69 997.808 1889.97 1003.27 1892.1 1006.84 1889.46L1007.35 1889.07C1010.79 1886.25 1009.95 1880.52 1005.66 1880.1 1003.15 1879.86 1000.57 1876.56 1002.53 1875.04L1011.45 1868.1 1021.14 1880.61C1022.66 1882.56 1025.96 1879.98 1026.2 1877.46 1026.62 1873.16 1032.34 1872.32 1035.15 1875.77L1035.54 1876.27C1038.17 1879.86 1036.05 1885.32 1031.78 1884.66 1029.29 1884.27 1025.97 1886.84 1027.49 1888.79L1037.13 1901.26Z" stroke="#FFFFFF" stroke-width="3.4375" stroke-miterlimit="8" fill="#FFFFFF" fill-rule="evenodd"/><path d="M515.14 1627.5 384.5 1627.5 384.5 1695.14C384.519 1701.35 389.594 1706.39 395.86 1706.41L509.46 1706.41 509.46 1720.5 526.5 1720.5 526.5 1638.77C526.482 1632.55 521.406 1627.52 515.14 1627.5Z" stroke="#FFFFFF" stroke-width="4.58333" stroke-miterlimit="8" fill="#FFFFFF" fill-rule="evenodd"/><path d="M293.472 1593C293.558 1588.39 289.897 1584.59 285.295 1584.5 285.192 1584.5 285.09 1584.5 284.987 1584.5 280.386 1584.42 276.586 1588.08 276.501 1592.69 276.499 1592.8 276.499 1592.9 276.501 1593L276.501 1720.5 293.472 1720.5 293.472 1692.17 375.5 1692.17 375.5 1663.83 293.472 1629.83Z" stroke="#FFFFFF" stroke-width="4.58333" stroke-miterlimit="8" fill="#FFFFFF" fill-rule="evenodd"/><path d="M338.5 1613.5C338.5 1622.89 330.889 1630.5 321.5 1630.5 312.111 1630.5 304.5 1622.89 304.5 1613.5 304.5 1604.11 312.111 1596.5 321.5 1596.5 330.889 1596.5 338.5 1604.11 338.5 1613.5Z" stroke="#FFFFFF" stroke-width="4.58333" stroke-miterlimit="8" fill="#FFFFFF" fill-rule="evenodd"/><path d="M333.5 1637.87 375.5 1655.5 375.5 1624.91 370.137 1622.65C355.851 1616.71 339.482 1623.5 333.5 1637.87Z" stroke="#FFFFFF" stroke-width="4.58333" stroke-miterlimit="8" fill="#FFFFFF" fill-rule="evenodd"/><path d="M790.5 1584.7C790.5 1559.84 778.317 1539.5 753.667 1539.5 729.017 1539.5 729.867 1550.8 705.5 1550.8 681.134 1550.8 681.983 1539.5 657.333 1539.5 632.683 1539.5 620.5 1559.84 620.5 1584.7 620.5 1609.56 640.333 1634.14 640.333 1655.33 640.333 1675.38 637.5 1692.33 637.5 1706.17 637.5 1720.02 637.217 1765.5 657.333 1765.5 677.45 1765.5 677.167 1724.26 677.167 1706.17 677.167 1688.1 679.433 1660.98 705.5 1660.98 731.567 1660.98 733.833 1688.1 733.833 1706.17 733.833 1724.26 733.55 1765.5 753.667 1765.5 773.783 1765.5 773.5 1720.02 773.5 1706.17 773.5 1692.33 770.667 1675.38 770.667 1655.33 770.667 1634.14 790.5 1609.56 790.5 1584.7Z" stroke="#FFFFFF" stroke-width="4.58333" stroke-miterlimit="8" fill="#FFFFFF" fill-rule="evenodd"/><path d="M348.5 2022.5C348.5 2034.65 338.651 2044.5 326.5 2044.5 314.35 2044.5 304.5 2034.65 304.5 2022.5 304.5 2010.35 314.35 2000.5 326.5 2000.5 338.651 2000.5 348.5 2010.35 348.5 2022.5Z" stroke="#FFFFFF" stroke-width="4.58333" stroke-miterlimit="8" fill="#FFFFFF" fill-rule="evenodd"/><path d="M504.5 2022.5C504.5 2034.65 494.651 2044.5 482.5 2044.5 470.35 2044.5 460.5 2034.65 460.5 2022.5 460.5 2010.35 470.35 2000.5 482.5 2000.5 494.651 2000.5 504.5 2010.35 504.5 2022.5Z" stroke="#FFFFFF" stroke-width="4.58333" stroke-miterlimit="8" fill="#FFFFFF" fill-rule="evenodd"/><path d="M521.5 1968.55 504.938 1956.01C502.765 1954.39 501.219 1952.06 500.563 1949.42L494.313 1927.78C491.125 1917.08 481.374 1909.71 470.25 1909.59L464 1909.59 464 1893.91C464 1888.71 459.803 1884.5 454.625 1884.5L448.375 1884.5C443.197 1884.5 439 1888.71 439 1893.91L439 1909.59 439 1909.59 439 1903.32C439 1896.39 433.404 1890.77 426.5 1890.77L289 1890.77C282.096 1890.77 276.5 1896.39 276.5 1903.32L276.5 2009.95C276.5 2016.88 282.096 2022.5 289 2022.5L295.25 2022.5C295.25 2005.18 309.241 1991.14 326.5 1991.14 343.759 1991.14 357.75 2005.18 357.75 2022.5L451.5 2022.5C451.5 2005.18 465.491 1991.14 482.75 1991.14 500.009 1991.14 514 2005.18 514 2022.5 520.904 2022.5 526.5 2016.88 526.5 2009.95L526.5 1978.59C526.5 1974.64 524.648 1970.92 521.5 1968.55ZM402.281 1956.01 392.906 1972.32 376.5 1962.91 376.5 1981.73 357.75 1981.73 357.75 1962.72 341.344 1972.13 331.969 1955.82 348.375 1946.41 331.969 1937 341.344 1920.69 357.75 1930.1 357.75 1911.1 376.5 1911.1 376.5 1930.13 392.906 1920.72 402.281 1937.03 385.875 1946.44ZM451.5 1953.5 451.5 1922.14 470.25 1922.14C475.824 1922.06 480.729 1925.82 482.125 1931.23L488.375 1952.87C488.375 1953.19 488.688 1953.19 488.688 1953.5Z" stroke="#FFFFFF" stroke-width="4.58333" stroke-miterlimit="8" fill="#FFFFFF" fill-rule="evenodd"/><path d="M451.5 1875.5 451.5 1859.5" stroke="#FFFFFF" stroke-width="4.58333" stroke-miterlimit="8" fill="none" fill-rule="evenodd"/><path d="M465.5 1878.5 476.5 1867.5" stroke="#FFFFFF" stroke-width="4.58333" stroke-miterlimit="8" fill="#FFFFFF" fill-rule="evenodd"/><path d="M437.5 1878.5 426.5 1867.5" stroke="#FFFFFF" stroke-width="4.58333" stroke-miterlimit="8" fill="#FFFFFF" fill-rule="evenodd"/><path d="M976.75 1654 976.75 1588.62C976.75 1572.64 989.912 1559.56 1006 1559.56 1022.09 1559.56 1035.25 1572.64 1035.25 1588.62L1035.25 1654 976.75 1654ZM1064.5 1719.38 1064.5 1588.62C1064.5 1556.65 1038.18 1530.5 1006 1530.5 973.825 1530.5 947.499 1556.65 947.499 1588.62L947.499 1719.38C947.499 1751.35 973.825 1777.5 1006 1777.5 1038.18 1777.5 1064.5 1751.35 1064.5 1719.38Z" stroke="#FFFFFF" stroke-width="4.58333" stroke-miterlimit="8" fill="#85D8D1" fill-rule="evenodd"/><path d="M947.5 1653.5 947.5 1591C947.5 1556.48 973.691 1528.5 1006 1528.5 1038.31 1528.5 1064.5 1556.48 1064.5 1591L1064.5 1653.5Z" stroke="#FFFFFF" stroke-width="4.58333" stroke-linejoin="round" stroke-miterlimit="10" fill="#FFFFFF" fill-rule="evenodd"/><path d="M763.5 1867.5C763.5 1877.99 754.994 1886.5 744.5 1886.5 734.007 1886.5 725.5 1877.99 725.5 1867.5 725.5 1857.01 734.007 1848.5 744.5 1848.5 754.994 1848.5 763.5 1857.01 763.5 1867.5Z" stroke="#FFFFFF" stroke-width="3.4375" stroke-miterlimit="8" fill="#FFFFFF" fill-rule="evenodd"/><path d="M791.392 1894.31C786.572 1891.91 780.788 1893.59 778.379 1898.4L769.943 1914.28 732.83 1890.94C731.384 1889.98 729.697 1889.5 727.769 1889.5L686.799 1889.5C683.185 1889.5 680.052 1891.42 678.365 1894.55L662.7 1923.42C660.049 1927.99 661.977 1934.01 666.556 1936.41 668.002 1937.13 669.689 1937.62 671.135 1937.62 674.508 1937.62 677.882 1935.69 679.569 1932.56L692.583 1908.75 706.802 1908.75 664.146 1988.14 624.14 1988.14C618.838 1988.14 614.5 1992.47 614.5 1997.76 614.5 2003.05 618.838 2007.38 624.14 2007.38L669.93 2007.38C673.544 2007.38 676.677 2005.46 678.365 2002.33L695.234 1971.3 722.949 1997.04 720.78 2045.4C720.298 2050.69 724.395 2055.26 729.697 2055.5 729.938 2055.5 729.938 2055.5 730.179 2055.5 735.24 2055.5 739.578 2051.41 739.819 2046.36L742.229 1993.43C742.47 1990.54 741.265 1987.9 739.096 1985.97L715.719 1964.32 740.301 1918.61 768.257 1936.17C770.425 1937.62 773.318 1938.1 775.968 1937.38 778.62 1936.65 780.788 1934.97 781.993 1932.56L795.248 1907.3C797.899 1902.73 796.212 1896.96 791.392 1894.31Z" stroke="#FFFFFF" stroke-width="3.4375" stroke-miterlimit="8" fill="#FFFFFF" fill-rule="evenodd"/></g></svg>