<svg width="904" height="595" xmlns="http://www.w3.org/2000/svg" xmlns:xlink="http://www.w3.org/1999/xlink" xml:space="preserve" overflow="hidden"><defs><clipPath id="clip0"><rect x="2261" y="825" width="904" height="595"/></clipPath></defs><g clip-path="url(#clip0)" transform="translate(-2261 -825)"><path d="M2261 1147.58C2261 1134.56 2271.56 1124 2284.58 1124L2532.42 1124C2545.44 1124 2556 1134.56 2556 1147.58L2556 1391.42C2556 1404.44 2545.44 1415 2532.42 1415L2284.58 1415C2271.56 1415 2261 1404.44 2261 1391.42Z" fill="#5F605E" fill-rule="evenodd"/><path d="M2564.5 1148.08C2564.5 1135.06 2575.06 1124.5 2588.08 1124.5L2835.92 1124.5C2848.94 1124.5 2859.5 1135.06 2859.5 1148.08L2859.5 1391.92C2859.5 1404.94 2848.94 1415.5 2835.92 1415.5L2588.08 1415.5C2575.06 1415.5 2564.5 1404.94 2564.5 1391.92Z" stroke="#FFFFFF" stroke-width="9.16667" stroke-linejoin="round" stroke-miterlimit="10" fill="#D62CD0" fill-rule="evenodd"/><path d="M2865.5 1148.08C2865.5 1135.06 2876.06 1124.5 2889.08 1124.5L3136.92 1124.5C3149.94 1124.5 3160.5 1135.06 3160.5 1148.08L3160.5 1391.92C3160.5 1404.94 3149.94 1415.5 3136.92 1415.5L2889.08 1415.5C2876.06 1415.5 2865.5 1404.94 2865.5 1391.92Z" stroke="#FFFFFF" stroke-width="9.16667" stroke-linejoin="round" stroke-miterlimit="10" fill="#D62CD0" fill-rule="evenodd"/><path d="M2865 848.58C2865 835.557 2875.56 825 2888.58 825L3136.42 825C3149.44 825 3160 835.557 3160 848.58L3160 1092.42C3160 1105.44 3149.44 1116 3136.42 1116L2888.58 1116C2875.56 1116 2865 1105.44 2865 1092.42Z" fill="#D62CD0" fill-rule="evenodd"/><path d="M2564 848.58C2564 835.557 2574.56 825 2587.58 825L2835.42 825C2848.44 825 2859 835.557 2859 848.58L2859 1092.42C2859 1105.44 2848.44 1116 2835.42 1116L2587.58 1116C2574.56 1116 2564 1105.44 2564 1092.42Z" fill="#D62CD0" fill-rule="evenodd"/><path d="M2261 848.58C2261 835.557 2271.56 825 2284.58 825L2532.42 825C2545.44 825 2556 835.557 2556 848.58L2556 1092.42C2556 1105.44 2545.44 1116 2532.42 1116L2284.58 1116C2271.56 1116 2261 1105.44 2261 1092.42Z" fill="#5F605E" fill-rule="evenodd"/><path d="M3097.9 1278.46 3080.26 1247.96 3080.26 1246.94C3081.33 1218.85 3066.88 1192.45 3042.66 1178.26 3018.45 1163.91 2988.36 1163.91 2964.15 1178.26 2939.89 1192.41 2925.43 1218.83 2926.56 1246.94 2926.47 1271.04 2937.64 1293.79 2956.74 1308.44L2956.74 1372.5 3037.55 1372.5 3037.55 1342.01 3050.08 1342.01C3058.16 1342.06 3065.91 1338.82 3071.56 1333.04 3077.16 1327.28 3080.28 1319.55 3080.26 1311.51L3080.26 1296.14 3091.51 1296.14C3098.18 1295.63 3104.06 1287.94 3097.9 1278.46ZM2996.48 1268.6C3001.49 1267.83 3004.09 1274.11 3000.99 1278.3L3000.54 1278.89C2997.24 1282.92 2990.41 1282.07 2989.93 1277.03 2989.65 1274.08 2985.78 1271.05 2984 1273.34L2972.67 1287.94 2962.27 1279.83C2959.98 1278.04 2963.01 1274.17 2965.96 1273.89 2971 1273.41 2971.84 1266.56 2967.81 1263.26L2967.22 1262.8C2963.04 1259.7 2956.78 1262.31 2957.55 1267.33 2958 1270.25 2954.99 1274.15 2952.7 1272.37L2942.89 1264.71 2954.28 1250.05C2956.07 1247.76 2952.17 1244.74 2949.25 1245.2 2944.25 1245.96 2941.64 1239.69 2944.74 1235.49L2945.19 1234.91C2948.49 1230.88 2955.32 1231.72 2955.8 1236.76 2956.08 1239.71 2959.95 1242.75 2961.73 1240.46L2973.07 1225.85 2982.82 1233.46C2985.11 1235.25 2982.08 1239.11 2979.14 1239.4 2974.09 1239.88 2973.25 1246.72 2977.28 1250.03L2977.87 1250.48C2982.05 1253.59 2988.32 1250.97 2987.55 1245.96 2987.1 1243.03 2990.1 1239.13 2992.39 1240.92L3002.85 1249.07 2991.45 1263.75C2989.67 1266.04 2993.56 1269.05 2996.48 1268.6ZM3035.27 1226.15C3033.31 1227.67 3030.76 1224.34 3031.14 1221.85 3031.81 1217.58 3026.34 1215.44 3022.77 1218.08L3022.27 1218.47C3018.83 1221.29 3019.67 1227.02 3023.96 1227.44 3026.47 1227.7 3029.05 1230.99 3027.1 1232.51L3018.73 1239.02 3009.03 1226.51C3007.52 1224.55 3004.21 1227.14 3003.97 1229.65 3003.56 1233.96 2997.83 1234.8 2995.02 1231.35L2994.63 1230.85C2992 1227.26 2994.12 1221.79 2998.38 1222.45 3000.88 1222.84 3004.19 1220.28 3002.68 1218.32L2993.03 1205.87 3001.35 1199.39C3003.3 1197.87 3005.86 1201.19 3005.47 1203.69 3004.81 1207.97 3010.27 1210.1 3013.84 1207.46L3014.35 1207.07C3017.79 1204.25 3016.95 1198.52 3012.66 1198.1 3010.15 1197.86 3007.56 1194.56 3009.53 1193.04L3018.45 1186.1 3028.14 1198.61C3029.66 1200.56 3032.96 1197.98 3033.2 1195.46 3033.62 1191.16 3039.34 1190.32 3042.15 1193.77L3042.54 1194.27C3045.17 1197.86 3043.05 1203.32 3038.78 1202.66 3036.29 1202.27 3032.97 1204.84 3034.49 1206.79L3044.13 1219.26Z" stroke="#FFFFFF" stroke-width="3.4375" stroke-miterlimit="8" fill="#FFFFFF" fill-rule="evenodd"/><path d="M2522.14 945.5 2391.5 945.5 2391.5 1013.14C2391.52 1019.35 2396.59 1024.39 2402.86 1024.41L2516.46 1024.41 2516.46 1038.5 2533.5 1038.5 2533.5 956.773C2533.48 950.555 2528.41 945.519 2522.14 945.5Z" stroke="#FFFFFF" stroke-width="4.58333" stroke-miterlimit="8" fill="#FFFFFF" fill-rule="evenodd"/><path d="M2300.64 911.001C2300.73 906.392 2297.03 902.587 2292.38 902.501 2292.28 902.499 2292.18 902.499 2292.07 902.501 2287.43 902.416 2283.59 906.083 2283.5 910.692 2283.5 910.795 2283.5 910.898 2283.5 911.001L2283.5 1038.5 2300.64 1038.5 2300.64 1010.17 2383.5 1010.17 2383.5 981.834 2300.64 947.834Z" stroke="#FFFFFF" stroke-width="4.58333" stroke-miterlimit="8" fill="#FFFFFF" fill-rule="evenodd"/><path d="M2345.5 932C2345.5 941.113 2337.89 948.5 2328.5 948.5 2319.11 948.5 2311.5 941.113 2311.5 932 2311.5 922.887 2319.11 915.5 2328.5 915.5 2337.89 915.5 2345.5 922.887 2345.5 932Z" stroke="#FFFFFF" stroke-width="4.58333" stroke-miterlimit="8" fill="#FFFFFF" fill-rule="evenodd"/><path d="M2340.5 955.865 2383.5 973.5 2383.5 942.91 2378.01 940.651C2363.38 934.706 2346.62 941.504 2340.5 955.865Z" stroke="#FFFFFF" stroke-width="4.58333" stroke-miterlimit="8" fill="#FFFFFF" fill-rule="evenodd"/><path d="M2797.5 902.9C2797.5 877.93 2785.32 857.5 2760.67 857.5 2736.02 857.5 2736.87 868.85 2712.5 868.85 2688.13 868.85 2688.98 857.5 2664.33 857.5 2639.68 857.5 2627.5 877.93 2627.5 902.9 2627.5 927.87 2647.33 952.556 2647.33 973.838 2647.33 993.984 2644.5 1011.01 2644.5 1024.91 2644.5 1038.82 2644.22 1084.5 2664.33 1084.5 2684.45 1084.5 2684.17 1043.07 2684.17 1024.91 2684.17 1006.75 2686.43 979.513 2712.5 979.513 2738.57 979.513 2740.83 1006.75 2740.83 1024.91 2740.83 1043.07 2740.55 1084.5 2760.67 1084.5 2780.78 1084.5 2780.5 1038.82 2780.5 1024.91 2780.5 1011.01 2777.67 993.984 2777.67 973.838 2777.67 952.556 2797.5 927.87 2797.5 902.9Z" stroke="#FFFFFF" stroke-width="4.58333" stroke-miterlimit="8" fill="#FFFFFF" fill-rule="evenodd"/><path d="M2355.5 1340.5C2355.5 1352.65 2345.65 1362.5 2333.5 1362.5 2321.35 1362.5 2311.5 1352.65 2311.5 1340.5 2311.5 1328.35 2321.35 1318.5 2333.5 1318.5 2345.65 1318.5 2355.5 1328.35 2355.5 1340.5Z" stroke="#FFFFFF" stroke-width="4.58333" stroke-miterlimit="8" fill="#FFFFFF" fill-rule="evenodd"/><path d="M2511.5 1340.5C2511.5 1352.65 2501.65 1362.5 2489.5 1362.5 2477.35 1362.5 2467.5 1352.65 2467.5 1340.5 2467.5 1328.35 2477.35 1318.5 2489.5 1318.5 2501.65 1318.5 2511.5 1328.35 2511.5 1340.5Z" stroke="#FFFFFF" stroke-width="4.58333" stroke-miterlimit="8" fill="#FFFFFF" fill-rule="evenodd"/><path d="M2528.5 1286.95 2511.94 1274.49C2509.76 1272.88 2508.22 1270.57 2507.56 1267.95L2501.31 1246.47C2498.13 1235.85 2488.37 1228.53 2477.25 1228.41L2471 1228.41 2471 1212.84C2471 1207.68 2466.8 1203.5 2461.62 1203.5L2455.38 1203.5C2450.2 1203.5 2446 1207.68 2446 1212.84L2446 1228.41 2446 1228.41 2446 1222.18C2446 1215.3 2440.4 1209.73 2433.5 1209.73L2296 1209.73C2289.1 1209.73 2283.5 1215.3 2283.5 1222.18L2283.5 1328.05C2283.5 1334.92 2289.1 1340.5 2296 1340.5L2302.25 1340.5C2302.25 1323.3 2316.24 1309.36 2333.5 1309.36 2350.76 1309.36 2364.75 1323.3 2364.75 1340.5L2458.5 1340.5C2458.5 1323.3 2472.49 1309.36 2489.75 1309.36 2507.01 1309.36 2521 1323.3 2521 1340.5 2527.9 1340.5 2533.5 1334.92 2533.5 1328.05L2533.5 1296.91C2533.5 1292.99 2531.65 1289.3 2528.5 1286.95ZM2409.28 1274.49 2399.91 1290.68 2383.5 1281.34 2383.5 1300.02 2364.75 1300.02 2364.75 1281.15 2348.34 1290.5 2338.97 1274.3 2355.38 1264.96 2338.97 1255.62 2348.34 1239.43 2364.75 1248.77 2364.75 1229.9 2383.5 1229.9 2383.5 1248.8 2399.91 1239.46 2409.28 1255.65 2392.88 1264.99ZM2458.5 1272 2458.5 1240.86 2477.25 1240.86C2482.82 1240.79 2487.73 1244.52 2489.12 1249.89L2495.38 1271.38C2495.38 1271.69 2495.69 1271.69 2495.69 1272Z" stroke="#FFFFFF" stroke-width="4.58333" stroke-miterlimit="8" fill="#FFFFFF" fill-rule="evenodd"/><path d="M2458.5 1193.5 2458.5 1178.5" stroke="#FFFFFF" stroke-width="4.58333" stroke-miterlimit="8" fill="none" fill-rule="evenodd"/><path d="M2472.5 1196.5 2483.5 1185.5" stroke="#FFFFFF" stroke-width="4.58333" stroke-miterlimit="8" fill="#FFFFFF" fill-rule="evenodd"/><path d="M2444.5 1196.5 2433.5 1185.5" stroke="#FFFFFF" stroke-width="4.58333" stroke-miterlimit="8" fill="#FFFFFF" fill-rule="evenodd"/><path d="M2984.5 972 2984.5 906.617C2984.5 890.636 2997.55 877.559 3013.5 877.559 3029.45 877.559 3042.5 890.636 3042.5 906.617L3042.5 972 2984.5 972ZM3071.5 1037.38 3071.5 906.617C3071.5 874.653 3045.4 848.5 3013.5 848.5 2981.6 848.5 2955.5 874.653 2955.5 906.617L2955.5 1037.38C2955.5 1069.35 2981.6 1095.5 3013.5 1095.5 3045.4 1095.5 3071.5 1069.35 3071.5 1037.38Z" stroke="#FFFFFF" stroke-width="4.58333" stroke-miterlimit="8" fill="#85D8D1" fill-rule="evenodd"/><path d="M2955.5 972.5 2955.5 909.5C2955.5 874.706 2981.47 846.5 3013.5 846.5 3045.53 846.5 3071.5 874.706 3071.5 909.5L3071.5 972.5Z" stroke="#FFFFFF" stroke-width="4.58333" stroke-linejoin="round" stroke-miterlimit="10" fill="#FFFFFF" fill-rule="evenodd"/><path d="M2770.5 1186C2770.5 1196.77 2761.99 1205.5 2751.5 1205.5 2741.01 1205.5 2732.5 1196.77 2732.5 1186 2732.5 1175.23 2741.01 1166.5 2751.5 1166.5 2761.99 1166.5 2770.5 1175.23 2770.5 1186Z" stroke="#FFFFFF" stroke-width="3.4375" stroke-miterlimit="8" fill="#FFFFFF" fill-rule="evenodd"/><path d="M2798.39 1212.31C2793.57 1209.91 2787.79 1211.59 2785.38 1216.4L2776.94 1232.28 2739.83 1208.94C2738.38 1207.98 2736.7 1207.5 2734.77 1207.5L2693.8 1207.5C2690.18 1207.5 2687.05 1209.42 2685.36 1212.55L2669.7 1241.42C2667.05 1245.99 2668.98 1252.01 2673.56 1254.41 2675 1255.13 2676.69 1255.62 2678.13 1255.62 2681.51 1255.62 2684.88 1253.69 2686.57 1250.56L2699.58 1226.75 2713.8 1226.75 2671.15 1306.14 2631.14 1306.14C2625.84 1306.14 2621.5 1310.47 2621.5 1315.76 2621.5 1321.05 2625.84 1325.38 2631.14 1325.38L2676.93 1325.38C2680.54 1325.38 2683.68 1323.46 2685.36 1320.33L2702.23 1289.3 2729.95 1315.04 2727.78 1363.4C2727.3 1368.69 2731.4 1373.26 2736.7 1373.5 2736.94 1373.5 2736.94 1373.5 2737.18 1373.5 2742.24 1373.5 2746.58 1369.41 2746.82 1364.36L2749.23 1311.43C2749.47 1308.54 2748.26 1305.9 2746.1 1303.97L2722.72 1282.32 2747.3 1236.61 2775.26 1254.17C2777.43 1255.62 2780.32 1256.1 2782.97 1255.38 2785.62 1254.65 2787.79 1252.97 2788.99 1250.56L2802.25 1225.3C2804.9 1220.73 2803.21 1214.96 2798.39 1212.31Z" stroke="#FFFFFF" stroke-width="3.4375" stroke-miterlimit="8" fill="#FFFFFF" fill-rule="evenodd"/></g></svg>