<svg width="900" height="595" xmlns="http://www.w3.org/2000/svg" xmlns:xlink="http://www.w3.org/1999/xlink" xml:space="preserve" overflow="hidden"><defs><clipPath id="clip0"><rect x="2262" y="1502" width="900" height="595"/></clipPath></defs><g clip-path="url(#clip0)" transform="translate(-2262 -1502)"><path d="M2262 1825.5C2262 1812.52 2272.52 1802 2285.5 1802L2533.5 1802C2546.48 1802 2557 1812.52 2557 1825.5L2557 2068.5C2557 2081.48 2546.48 2092 2533.5 2092L2285.5 2092C2272.52 2092 2262 2081.48 2262 2068.5Z" fill="#5F605E" fill-rule="evenodd"/><path d="M2566.5 1826C2566.5 1813.02 2577.02 1802.5 2590 1802.5L2838 1802.5C2850.98 1802.5 2861.5 1813.02 2861.5 1826L2861.5 2069C2861.5 2081.98 2850.98 2092.5 2838 2092.5L2590 2092.5C2577.02 2092.5 2566.5 2081.98 2566.5 2069Z" stroke="#FFFFFF" stroke-width="9.16667" stroke-linejoin="round" stroke-miterlimit="10" fill="#D62CD0" fill-rule="evenodd"/><path d="M2867 1825.5C2867 1812.52 2877.52 1802 2890.5 1802L3138.5 1802C3151.48 1802 3162 1812.52 3162 1825.5L3162 2068.5C3162 2081.48 3151.48 2092 3138.5 2092L2890.5 2092C2877.52 2092 2867 2081.48 2867 2068.5Z" fill="#5F605E" fill-rule="evenodd"/><path d="M2867 1525.58C2867 1512.56 2877.56 1502 2890.58 1502L3138.42 1502C3151.44 1502 3162 1512.56 3162 1525.58L3162 1769.42C3162 1782.44 3151.44 1793 3138.42 1793L2890.58 1793C2877.56 1793 2867 1782.44 2867 1769.42Z" fill="#5F605E" fill-rule="evenodd"/><path d="M2566 1525.58C2566 1512.56 2576.56 1502 2589.58 1502L2837.42 1502C2850.44 1502 2861 1512.56 2861 1525.58L2861 1769.42C2861 1782.44 2850.44 1793 2837.42 1793L2589.58 1793C2576.56 1793 2566 1782.44 2566 1769.42Z" fill="#D62CD0" fill-rule="evenodd"/><path d="M2262 1525.58C2262 1512.56 2272.56 1502 2285.58 1502L2533.42 1502C2546.44 1502 2557 1512.56 2557 1525.58L2557 1769.42C2557 1782.44 2546.44 1793 2533.42 1793L2285.58 1793C2272.56 1793 2262 1782.44 2262 1769.42Z" fill="#5F605E" fill-rule="evenodd"/><path d="M3098.9 1955.92 3081.26 1925.57 3081.26 1924.55C3082.33 1896.6 3067.88 1870.33 3043.66 1856.21 3019.45 1841.93 2989.36 1841.93 2965.15 1856.21 2940.89 1870.29 2926.43 1896.58 2927.56 1924.55 2927.47 1948.53 2938.64 1971.18 2957.74 1985.75L2957.74 2049.5 3038.55 2049.5 3038.55 2019.16 3051.08 2019.16C3059.16 2019.21 3066.91 2015.99 3072.56 2010.23 3078.16 2004.5 3081.28 1996.81 3081.26 1988.81L3081.26 1973.51 3092.51 1973.51C3099.18 1973 3105.06 1965.35 3098.9 1955.92ZM2997.48 1946.11C3002.49 1945.34 3005.09 1951.59 3001.99 1955.76L3001.54 1956.34C2998.24 1960.36 2991.41 1959.52 2990.93 1954.5 2990.65 1951.56 2986.78 1948.54 2985 1950.82L2973.67 1965.35 2963.27 1957.28C2960.98 1955.5 2964.01 1951.65 2966.96 1951.37 2972 1950.89 2972.84 1944.08 2968.81 1940.79L2968.22 1940.34C2964.04 1937.25 2957.78 1939.85 2958.55 1944.84 2959 1947.75 2955.99 1951.63 2953.7 1949.85L2943.89 1942.24 2955.28 1927.65C2957.07 1925.36 2953.17 1922.37 2950.25 1922.82 2945.25 1923.58 2942.64 1917.33 2945.74 1913.16L2946.19 1912.58C2949.49 1908.57 2956.32 1909.41 2956.8 1914.42 2957.08 1917.36 2960.95 1920.38 2962.73 1918.1L2974.07 1903.57 2983.82 1911.13C2986.11 1912.92 2983.08 1916.77 2980.14 1917.05 2975.09 1917.53 2974.25 1924.34 2978.28 1927.62L2978.87 1928.08C2983.05 1931.17 2989.32 1928.56 2988.55 1923.58 2988.1 1920.66 2991.1 1916.78 2993.39 1918.56L3003.85 1926.67 2992.45 1941.28C2990.67 1943.56 2994.56 1946.56 2997.48 1946.11ZM3036.27 1903.86C3034.31 1905.37 3031.76 1902.07 3032.14 1899.58 3032.81 1895.33 3027.34 1893.21 3023.77 1895.83L3023.27 1896.22C3019.83 1899.03 3020.67 1904.73 3024.96 1905.15 3027.47 1905.4 3030.05 1908.68 3028.1 1910.19L3019.73 1916.67 3010.03 1904.22C3008.52 1902.28 3005.21 1904.85 3004.97 1907.35 3004.56 1911.63 2998.83 1912.47 2996.02 1909.04L2995.63 1908.54C2993 1904.97 2995.12 1899.53 2999.38 1900.19 3001.88 1900.57 3005.19 1898.02 3003.68 1896.07L2994.03 1883.68 3002.35 1877.24C3004.3 1875.73 3006.86 1879.02 3006.47 1881.52 3005.81 1885.77 3011.27 1887.89 3014.84 1885.26L3015.35 1884.88C3018.79 1882.07 3017.95 1876.37 3013.66 1875.95 3011.15 1875.71 3008.56 1872.43 3010.53 1870.91L3019.45 1864.01 3029.14 1876.46C3030.66 1878.4 3033.96 1875.83 3034.2 1873.33 3034.62 1869.04 3040.34 1868.21 3043.15 1871.64L3043.54 1872.14C3046.17 1875.71 3044.05 1881.15 3039.78 1880.49 3037.29 1880.1 3033.97 1882.65 3035.49 1884.6L3045.13 1897.01Z" stroke="#FFFFFF" stroke-width="3.4375" stroke-miterlimit="8" fill="#FFFFFF" fill-rule="evenodd"/><path d="M2523.22 1622.5 2393.5 1622.5 2393.5 1690.86C2393.52 1697.15 2398.56 1702.24 2404.78 1702.26L2517.58 1702.26 2517.58 1716.5 2534.5 1716.5 2534.5 1633.89C2534.48 1627.61 2529.44 1622.52 2523.22 1622.5Z" stroke="#FFFFFF" stroke-width="4.58333" stroke-miterlimit="8" fill="#FFFFFF" fill-rule="evenodd"/><path d="M2302.47 1589C2302.56 1584.39 2298.9 1580.59 2294.3 1580.5 2294.19 1580.5 2294.09 1580.5 2293.99 1580.5 2289.39 1580.42 2285.59 1584.08 2285.5 1588.69 2285.5 1588.8 2285.5 1588.9 2285.5 1589L2285.5 1716.5 2302.47 1716.5 2302.47 1688.17 2384.5 1688.17 2384.5 1659.83 2302.47 1625.83Z" stroke="#FFFFFF" stroke-width="4.58333" stroke-miterlimit="8" fill="#FFFFFF" fill-rule="evenodd"/><path d="M2347.5 1609.5C2347.5 1618.89 2339.89 1626.5 2330.5 1626.5 2321.11 1626.5 2313.5 1618.89 2313.5 1609.5 2313.5 1600.11 2321.11 1592.5 2330.5 1592.5 2339.89 1592.5 2347.5 1600.11 2347.5 1609.5Z" stroke="#FFFFFF" stroke-width="4.58333" stroke-miterlimit="8" fill="#FFFFFF" fill-rule="evenodd"/><path d="M2342.5 1632.87 2384.5 1650.5 2384.5 1619.91 2379.14 1617.65C2364.85 1611.71 2348.48 1618.5 2342.5 1632.87Z" stroke="#FFFFFF" stroke-width="4.58333" stroke-miterlimit="8" fill="#FFFFFF" fill-rule="evenodd"/><path d="M2798.5 1579.9C2798.5 1554.93 2786.32 1534.5 2761.67 1534.5 2737.02 1534.5 2737.87 1545.85 2713.5 1545.85 2689.13 1545.85 2689.98 1534.5 2665.33 1534.5 2640.68 1534.5 2628.5 1554.93 2628.5 1579.9 2628.5 1604.87 2648.33 1629.56 2648.33 1650.84 2648.33 1670.98 2645.5 1688.01 2645.5 1701.91 2645.5 1715.82 2645.22 1761.5 2665.33 1761.5 2685.45 1761.5 2685.17 1720.07 2685.17 1701.91 2685.17 1683.75 2687.43 1656.51 2713.5 1656.51 2739.57 1656.51 2741.83 1683.75 2741.83 1701.91 2741.83 1720.07 2741.55 1761.5 2761.67 1761.5 2781.78 1761.5 2781.5 1715.82 2781.5 1701.91 2781.5 1688.01 2778.67 1670.98 2778.67 1650.84 2778.67 1629.56 2798.5 1604.87 2798.5 1579.9Z" stroke="#FFFFFF" stroke-width="4.58333" stroke-miterlimit="8" fill="#FFFFFF" fill-rule="evenodd"/><path d="M2356.5 2017.5C2356.5 2029.65 2346.87 2039.5 2335 2039.5 2323.13 2039.5 2313.5 2029.65 2313.5 2017.5 2313.5 2005.35 2323.13 1995.5 2335 1995.5 2346.87 1995.5 2356.5 2005.35 2356.5 2017.5Z" stroke="#FFFFFF" stroke-width="4.58333" stroke-miterlimit="8" fill="#FFFFFF" fill-rule="evenodd"/><path d="M2513.5 2017.5C2513.5 2029.65 2503.65 2039.5 2491.5 2039.5 2479.35 2039.5 2469.5 2029.65 2469.5 2017.5 2469.5 2005.35 2479.35 1995.5 2491.5 1995.5 2503.65 1995.5 2513.5 2005.35 2513.5 2017.5Z" stroke="#FFFFFF" stroke-width="4.58333" stroke-miterlimit="8" fill="#FFFFFF" fill-rule="evenodd"/><path d="M2529.52 1963.95 2513.02 1951.49C2510.86 1949.88 2509.32 1947.57 2508.67 1944.95L2502.44 1923.47C2499.27 1912.85 2489.55 1905.53 2478.48 1905.41L2472.25 1905.41 2472.25 1889.84C2472.25 1884.68 2468.07 1880.5 2462.91 1880.5L2456.69 1880.5C2451.53 1880.5 2447.35 1884.68 2447.35 1889.84L2447.35 1905.41 2447.35 1905.41 2447.35 1899.18C2447.35 1892.3 2441.78 1886.73 2434.9 1886.73L2297.95 1886.73C2291.07 1886.73 2285.5 1892.3 2285.5 1899.18L2285.5 2005.05C2285.5 2011.92 2291.07 2017.5 2297.95 2017.5L2304.17 2017.5C2304.17 2000.3 2318.11 1986.36 2335.3 1986.36 2352.49 1986.36 2366.43 2000.3 2366.43 2017.5L2459.8 2017.5C2459.8 2000.3 2473.74 1986.36 2490.93 1986.36 2508.11 1986.36 2522.05 2000.3 2522.05 2017.5 2528.93 2017.5 2534.5 2011.92 2534.5 2005.05L2534.5 1973.91C2534.5 1969.99 2532.66 1966.3 2529.52 1963.95ZM2410.78 1951.49 2401.44 1967.68 2385.1 1958.34 2385.1 1977.02 2366.43 1977.02 2366.43 1958.15 2350.08 1967.5 2340.75 1951.3 2357.09 1941.96 2340.75 1932.62 2350.08 1916.43 2366.43 1925.77 2366.43 1906.9 2385.1 1906.9 2385.1 1925.8 2401.44 1916.46 2410.78 1932.65 2394.44 1941.99ZM2459.8 1949 2459.8 1917.86 2478.48 1917.86C2484.03 1917.79 2488.91 1921.52 2490.3 1926.89L2496.53 1948.38C2496.53 1948.69 2496.84 1948.69 2496.84 1949Z" stroke="#FFFFFF" stroke-width="4.58333" stroke-miterlimit="8" fill="#FFFFFF" fill-rule="evenodd"/><path d="M2459.5 1870.5 2459.5 1855.5" stroke="#FFFFFF" stroke-width="4.58333" stroke-miterlimit="8" fill="none" fill-rule="evenodd"/><path d="M2474.5 1874.5 2484.5 1863.5" stroke="#FFFFFF" stroke-width="4.58333" stroke-miterlimit="8" fill="#FFFFFF" fill-rule="evenodd"/><path d="M2445.5 1874.5 2435.5 1863.5" stroke="#FFFFFF" stroke-width="4.58333" stroke-miterlimit="8" fill="#FFFFFF" fill-rule="evenodd"/><path d="M2985.5 1649 2985.5 1583.62C2985.5 1567.64 2998.55 1554.56 3014.5 1554.56 3030.45 1554.56 3043.5 1567.64 3043.5 1583.62L3043.5 1649 2985.5 1649ZM3072.5 1714.38 3072.5 1583.62C3072.5 1551.65 3046.4 1525.5 3014.5 1525.5 2982.6 1525.5 2956.5 1551.65 2956.5 1583.62L2956.5 1714.38C2956.5 1746.35 2982.6 1772.5 3014.5 1772.5 3046.4 1772.5 3072.5 1746.35 3072.5 1714.38Z" stroke="#FFFFFF" stroke-width="4.58333" stroke-miterlimit="8" fill="#85D8D1" fill-rule="evenodd"/><path d="M2956.5 1649.5 2956.5 1586.5C2956.5 1551.71 2982.47 1523.5 3014.5 1523.5 3046.53 1523.5 3072.5 1551.71 3072.5 1586.5L3072.5 1649.5Z" stroke="#FFFFFF" stroke-width="4.58333" stroke-linejoin="round" stroke-miterlimit="10" fill="#FFFFFF" fill-rule="evenodd"/><path d="M2772.5 1863C2772.5 1873.77 2763.77 1882.5 2753 1882.5 2742.23 1882.5 2733.5 1873.77 2733.5 1863 2733.5 1852.23 2742.23 1843.5 2753 1843.5 2763.77 1843.5 2772.5 1852.23 2772.5 1863Z" stroke="#FFFFFF" stroke-width="3.4375" stroke-miterlimit="8" fill="#FFFFFF" fill-rule="evenodd"/><path d="M2799.39 1889.34C2794.57 1886.92 2788.79 1888.61 2786.38 1893.46L2777.94 1909.43 2740.83 1885.95C2739.38 1884.98 2737.7 1884.5 2735.77 1884.5L2694.8 1884.5C2691.18 1884.5 2688.05 1886.44 2686.36 1889.58L2670.7 1918.63C2668.05 1923.22 2669.98 1929.28 2674.56 1931.7 2676 1932.42 2677.69 1932.91 2679.13 1932.91 2682.51 1932.91 2685.88 1930.97 2687.57 1927.82L2700.58 1903.86 2714.8 1903.86 2672.15 1983.73 2632.14 1983.73C2626.84 1983.73 2622.5 1988.09 2622.5 1993.41 2622.5 1998.74 2626.84 2003.09 2632.14 2003.09L2677.93 2003.09C2681.54 2003.09 2684.68 2001.16 2686.36 1998.01L2703.23 1966.79 2730.95 1992.69 2728.78 2041.33C2728.3 2046.66 2732.4 2051.26 2737.7 2051.5 2737.94 2051.5 2737.94 2051.5 2738.18 2051.5 2743.24 2051.5 2747.58 2047.39 2747.82 2042.3L2750.23 1989.06C2750.47 1986.15 2749.26 1983.49 2747.1 1981.55L2723.72 1959.77 2748.3 1913.79 2776.26 1931.45C2778.43 1932.91 2781.32 1933.39 2783.97 1932.66 2786.62 1931.94 2788.79 1930.24 2789.99 1927.82L2803.25 1902.41C2805.9 1897.81 2804.21 1892 2799.39 1889.34Z" stroke="#FFFFFF" stroke-width="3.4375" stroke-miterlimit="8" fill="#FFFFFF" fill-rule="evenodd"/></g></svg>