<svg width="904" height="595" xmlns="http://www.w3.org/2000/svg" xmlns:xlink="http://www.w3.org/1999/xlink" xml:space="preserve" overflow="hidden"><g transform="translate(-1296 -838)"><path d="M1300.5 1161.08C1300.5 1148.06 1311.06 1137.5 1324.08 1137.5L1571.92 1137.5C1584.94 1137.5 1595.5 1148.06 1595.5 1161.08L1595.5 1404.92C1595.5 1417.94 1584.94 1428.5 1571.92 1428.5L1324.08 1428.5C1311.06 1428.5 1300.5 1417.94 1300.5 1404.92Z" stroke="#FFFFFF" stroke-width="9.16667" stroke-linejoin="round" stroke-miterlimit="10" fill="#D62CD0" fill-rule="evenodd"/><path d="M1604.5 1161.08C1604.5 1148.06 1615.06 1137.5 1628.08 1137.5L1875.92 1137.5C1888.94 1137.5 1899.5 1148.06 1899.5 1161.08L1899.5 1404.92C1899.5 1417.94 1888.94 1428.5 1875.92 1428.5L1628.08 1428.5C1615.06 1428.5 1604.5 1417.94 1604.5 1404.92Z" stroke="#FFFFFF" stroke-width="9.16667" stroke-linejoin="round" stroke-miterlimit="10" fill="#D62CD0" fill-rule="evenodd"/><path d="M1905 1160.58C1905 1147.56 1915.56 1137 1928.58 1137L2176.42 1137C2189.44 1137 2200 1147.56 2200 1160.58L2200 1404.42C2200 1417.44 2189.44 1428 2176.42 1428L1928.58 1428C1915.56 1428 1905 1417.44 1905 1404.42Z" fill="#5F605E" fill-rule="evenodd"/><path d="M1905 861.499C1905 848.521 1915.52 838 1928.5 838L2176.5 838C2189.48 838 2200 848.521 2200 861.499L2200 1104.5C2200 1117.48 2189.48 1128 2176.5 1128L1928.5 1128C1915.52 1128 1905 1117.48 1905 1104.5Z" fill="#D62CD0" fill-rule="evenodd"/><path d="M1604 861.499C1604 848.521 1614.52 838 1627.5 838L1875.5 838C1888.48 838 1899 848.521 1899 861.499L1899 1104.5C1899 1117.48 1888.48 1128 1875.5 1128L1627.5 1128C1614.52 1128 1604 1117.48 1604 1104.5Z" fill="#D62CD0" fill-rule="evenodd"/><path d="M1300 861.499C1300 848.521 1310.52 838 1323.5 838L1571.5 838C1584.48 838 1595 848.521 1595 861.499L1595 1104.5C1595 1117.48 1584.48 1128 1571.5 1128L1323.5 1128C1310.52 1128 1300 1117.48 1300 1104.5Z" fill="#5F605E" fill-rule="evenodd"/><path d="M2136.92 1291.46 2119.37 1260.96 2119.37 1259.94C2120.44 1231.85 2106.07 1205.45 2082 1191.26 2057.93 1176.91 2028.01 1176.91 2003.94 1191.26 1979.82 1205.41 1965.43 1231.83 1966.56 1259.94 1966.47 1284.04 1977.57 1306.79 1996.56 1321.44L1996.56 1385.5 2076.91 1385.5 2076.91 1355.01 2089.37 1355.01C2097.4 1355.06 2105.11 1351.82 2110.73 1346.04 2116.29 1340.28 2119.39 1332.55 2119.37 1324.51L2119.37 1309.14 2130.56 1309.14C2137.2 1308.63 2143.04 1300.94 2136.92 1291.46ZM2036.08 1281.6C2041.06 1280.83 2043.65 1287.11 2040.57 1291.3L2040.11 1291.89C2036.84 1295.92 2030.05 1295.07 2029.57 1290.03 2029.29 1287.08 2025.44 1284.05 2023.67 1286.34L2012.4 1300.94 2002.06 1292.83C1999.79 1291.04 2002.8 1287.17 2005.73 1286.89 2010.74 1286.41 2011.58 1279.56 2007.57 1276.26L2006.99 1275.8C2002.83 1272.7 1996.61 1275.31 1997.37 1280.33 1997.82 1283.25 1994.83 1287.15 1992.55 1285.37L1982.8 1277.71 1994.12 1263.05C1995.9 1260.76 1992.03 1257.74 1989.12 1258.2 1984.15 1258.96 1981.55 1252.69 1984.63 1248.49L1985.08 1247.91C1988.36 1243.88 1995.15 1244.72 1995.63 1249.76 1995.91 1252.71 1999.76 1255.75 2001.53 1253.46L2012.8 1238.85 2022.5 1246.46C2024.77 1248.25 2021.76 1252.11 2018.83 1252.4 2013.82 1252.88 2012.98 1259.72 2016.99 1263.03L2017.57 1263.48C2021.73 1266.59 2027.97 1263.97 2027.2 1258.96 2026.75 1256.03 2029.73 1252.13 2032.02 1253.92L2042.41 1262.07 2031.08 1276.75C2029.31 1279.04 2033.17 1282.05 2036.08 1281.6ZM2074.64 1239.15C2072.7 1240.67 2070.16 1237.34 2070.54 1234.85 2071.2 1230.58 2065.77 1228.44 2062.21 1231.08L2061.72 1231.47C2058.3 1234.29 2059.14 1240.02 2063.4 1240.44 2065.9 1240.7 2068.46 1243.99 2066.52 1245.51L2058.2 1252.02 2048.56 1239.51C2047.05 1237.55 2043.77 1240.14 2043.53 1242.65 2043.11 1246.96 2037.42 1247.8 2034.63 1244.35L2034.24 1243.85C2031.62 1240.26 2033.73 1234.79 2037.97 1235.45 2040.45 1235.84 2043.75 1233.28 2042.24 1231.32L2032.64 1218.87 2040.92 1212.39C2042.86 1210.87 2045.4 1214.19 2045.02 1216.69 2044.36 1220.97 2049.79 1223.1 2053.34 1220.46L2053.85 1220.07C2057.27 1217.25 2056.43 1211.52 2052.17 1211.1 2049.67 1210.86 2047.1 1207.56 2049.05 1206.04L2057.92 1199.1 2067.56 1211.61C2069.06 1213.56 2072.35 1210.98 2072.59 1208.46 2073 1204.16 2078.69 1203.32 2081.49 1206.77L2081.87 1207.27C2084.49 1210.86 2082.38 1216.32 2078.14 1215.66 2075.66 1215.27 2072.36 1217.84 2073.87 1219.79L2083.46 1232.26Z" stroke="#FFFFFF" stroke-width="3.4375" stroke-miterlimit="8" fill="#FFFFFF" fill-rule="evenodd"/><path d="M1561.22 957.5 1431.5 957.5 1431.5 1025.86C1431.52 1032.15 1436.56 1037.24 1442.78 1037.26L1555.58 1037.26 1555.58 1051.5 1572.5 1051.5 1572.5 968.894C1572.48 962.609 1567.44 957.519 1561.22 957.5Z" stroke="#FFFFFF" stroke-width="4.58333" stroke-miterlimit="8" fill="#FFFFFF" fill-rule="evenodd"/><path d="M1340.47 924.001C1340.56 919.392 1336.9 915.587 1332.3 915.501 1332.19 915.5 1332.09 915.5 1331.99 915.501 1327.39 915.416 1323.59 919.083 1323.5 923.692 1323.5 923.795 1323.5 923.899 1323.5 924.001L1323.5 1051.5 1340.47 1051.5 1340.47 1023.17 1422.5 1023.17 1422.5 994.834 1340.47 960.834Z" stroke="#FFFFFF" stroke-width="4.58333" stroke-miterlimit="8" fill="#FFFFFF" fill-rule="evenodd"/><path d="M1385.5 944.5C1385.5 953.889 1377.89 961.5 1368.5 961.5 1359.11 961.5 1351.5 953.889 1351.5 944.5 1351.5 935.111 1359.11 927.5 1368.5 927.5 1377.89 927.5 1385.5 935.111 1385.5 944.5Z" stroke="#FFFFFF" stroke-width="4.58333" stroke-miterlimit="8" fill="#FFFFFF" fill-rule="evenodd"/><path d="M1380.5 968.866 1422.5 986.5 1422.5 955.91 1417.14 953.651C1402.85 947.706 1386.48 954.504 1380.5 968.866Z" stroke="#FFFFFF" stroke-width="4.58333" stroke-miterlimit="8" fill="#FFFFFF" fill-rule="evenodd"/><path d="M1837.5 915.7C1837.5 890.84 1825.32 870.5 1800.67 870.5 1776.02 870.5 1776.87 881.8 1752.5 881.8 1728.13 881.8 1728.98 870.5 1704.33 870.5 1679.68 870.5 1667.5 890.84 1667.5 915.7 1667.5 940.56 1687.33 965.137 1687.33 986.325 1687.33 1006.38 1684.5 1023.33 1684.5 1037.17 1684.5 1051.02 1684.22 1096.5 1704.33 1096.5 1724.45 1096.5 1724.17 1055.26 1724.17 1037.17 1724.17 1019.1 1726.43 991.975 1752.5 991.975 1778.57 991.975 1780.83 1019.1 1780.83 1037.17 1780.83 1055.26 1780.55 1096.5 1800.67 1096.5 1820.78 1096.5 1820.5 1051.02 1820.5 1037.17 1820.5 1023.33 1817.67 1006.38 1817.67 986.325 1817.67 965.137 1837.5 940.56 1837.5 915.7Z" stroke="#FFFFFF" stroke-width="4.58333" stroke-miterlimit="8" fill="#FFFFFF" fill-rule="evenodd"/><path d="M1395.5 1353C1395.5 1364.87 1385.65 1374.5 1373.5 1374.5 1361.35 1374.5 1351.5 1364.87 1351.5 1353 1351.5 1341.13 1361.35 1331.5 1373.5 1331.5 1385.65 1331.5 1395.5 1341.13 1395.5 1353Z" stroke="#FFFFFF" stroke-width="4.58333" stroke-miterlimit="8" fill="#FFFFFF" fill-rule="evenodd"/><path d="M1551.5 1353C1551.5 1364.87 1541.65 1374.5 1529.5 1374.5 1517.35 1374.5 1507.5 1364.87 1507.5 1353 1507.5 1341.13 1517.35 1331.5 1529.5 1331.5 1541.65 1331.5 1551.5 1341.13 1551.5 1353Z" stroke="#FFFFFF" stroke-width="4.58333" stroke-miterlimit="8" fill="#FFFFFF" fill-rule="evenodd"/><path d="M1568.5 1299.55 1551.94 1287.01C1549.76 1285.39 1548.22 1283.06 1547.56 1280.42L1541.31 1258.78C1538.12 1248.09 1528.37 1240.71 1517.25 1240.59L1511 1240.59 1511 1224.91C1511 1219.71 1506.8 1215.5 1501.62 1215.5L1495.37 1215.5C1490.2 1215.5 1486 1219.71 1486 1224.91L1486 1240.59 1486 1240.59 1486 1234.32C1486 1227.39 1480.4 1221.77 1473.5 1221.77L1336 1221.77C1329.1 1221.77 1323.5 1227.39 1323.5 1234.32L1323.5 1340.95C1323.5 1347.88 1329.1 1353.5 1336 1353.5L1342.25 1353.5C1342.25 1336.18 1356.24 1322.14 1373.5 1322.14 1390.76 1322.14 1404.75 1336.18 1404.75 1353.5L1498.5 1353.5C1498.5 1336.18 1512.49 1322.14 1529.75 1322.14 1547.01 1322.14 1561 1336.18 1561 1353.5 1567.9 1353.5 1573.5 1347.88 1573.5 1340.95L1573.5 1309.59C1573.5 1305.64 1571.65 1301.92 1568.5 1299.55ZM1449.28 1287.01 1439.91 1303.32 1423.5 1293.91 1423.5 1312.73 1404.75 1312.73 1404.75 1293.72 1388.34 1303.13 1378.97 1286.82 1395.37 1277.41 1378.97 1268 1388.34 1251.69 1404.75 1261.1 1404.75 1242.1 1423.5 1242.1 1423.5 1261.13 1439.91 1251.72 1449.28 1268.03 1432.87 1277.44ZM1498.5 1284.5 1498.5 1253.14 1517.25 1253.14C1522.82 1253.06 1527.73 1256.82 1529.12 1262.23L1535.38 1283.87C1535.38 1284.19 1535.69 1284.19 1535.69 1284.5Z" stroke="#FFFFFF" stroke-width="4.58333" stroke-miterlimit="8" fill="#FFFFFF" fill-rule="evenodd"/><path d="M1498.5 1206.5 1498.5 1190.5" stroke="#FFFFFF" stroke-width="4.58333" stroke-miterlimit="8" fill="none" fill-rule="evenodd"/><path d="M1512.5 1209.5 1523.5 1198.5" stroke="#FFFFFF" stroke-width="4.58333" stroke-miterlimit="8" fill="#FFFFFF" fill-rule="evenodd"/><path d="M1484.5 1209.5 1473.5 1198.5" stroke="#FFFFFF" stroke-width="4.58333" stroke-miterlimit="8" fill="#FFFFFF" fill-rule="evenodd"/><path d="M2023.75 984.5 2023.75 919.382C2023.75 903.465 2036.91 890.441 2053 890.441 2069.09 890.441 2082.25 903.465 2082.25 919.382L2082.25 984.5 2023.75 984.5ZM2111.5 1049.62 2111.5 919.382C2111.5 887.547 2085.18 861.5 2053 861.5 2020.82 861.5 1994.5 887.547 1994.5 919.382L1994.5 1049.62C1994.5 1081.45 2020.82 1107.5 2053 1107.5 2085.18 1107.5 2111.5 1081.45 2111.5 1049.62Z" stroke="#FFFFFF" stroke-width="4.58333" stroke-miterlimit="8" fill="#85D8D1" fill-rule="evenodd"/><path d="M1994.5 984.5 1994.5 921.5C1994.5 886.706 2020.69 858.5 2053 858.5 2085.31 858.5 2111.5 886.706 2111.5 921.5L2111.5 984.5Z" stroke="#FFFFFF" stroke-width="4.58333" stroke-linejoin="round" stroke-miterlimit="10" fill="#FFFFFF" fill-rule="evenodd"/><path d="M1810.5 1198.5C1810.5 1208.99 1801.99 1217.5 1791.5 1217.5 1781.01 1217.5 1772.5 1208.99 1772.5 1198.5 1772.5 1188.01 1781.01 1179.5 1791.5 1179.5 1801.99 1179.5 1810.5 1188.01 1810.5 1198.5Z" stroke="#FFFFFF" stroke-width="3.4375" stroke-miterlimit="8" fill="#FFFFFF" fill-rule="evenodd"/><path d="M1838.36 1225.31C1833.52 1222.91 1827.7 1224.59 1825.28 1229.4L1816.8 1245.28 1779.48 1221.94C1778.03 1220.98 1776.33 1220.5 1774.39 1220.5L1733.2 1220.5C1729.56 1220.5 1726.41 1222.42 1724.72 1225.55L1708.96 1254.42C1706.3 1258.99 1708.24 1265.01 1712.84 1267.41 1714.3 1268.13 1715.99 1268.62 1717.45 1268.62 1720.84 1268.62 1724.23 1266.69 1725.93 1263.56L1739.01 1239.75 1753.31 1239.75 1710.42 1319.14 1670.19 1319.14C1664.86 1319.14 1660.5 1323.47 1660.5 1328.76 1660.5 1334.05 1664.86 1338.38 1670.19 1338.38L1716.23 1338.38C1719.87 1338.38 1723.02 1336.46 1724.72 1333.33L1741.68 1302.3 1769.54 1328.04 1767.36 1376.4C1766.88 1381.69 1771 1386.26 1776.33 1386.5 1776.57 1386.5 1776.57 1386.5 1776.81 1386.5 1781.9 1386.5 1786.27 1382.41 1786.51 1377.36L1788.93 1324.43C1789.17 1321.54 1787.96 1318.9 1785.78 1316.97L1762.28 1295.32 1786.99 1249.61 1815.1 1267.17C1817.28 1268.62 1820.19 1269.1 1822.86 1268.38 1825.52 1267.65 1827.7 1265.97 1828.91 1263.56L1842.24 1238.3C1844.91 1233.73 1843.21 1227.96 1838.36 1225.31Z" stroke="#FFFFFF" stroke-width="3.4375" stroke-miterlimit="8" fill="#FFFFFF" fill-rule="evenodd"/></g></svg>