<svg xmlns="http://www.w3.org/2000/svg" xmlns:xlink="http://www.w3.org/1999/xlink" width="20" height="13" viewBox="0 0 909 595" xml:space="preserve" overflow="hidden"><g transform="translate(-234 -165) scale(0.03)"><path d="M238.5 488.08C238.5 475.057 249.057 464.5 262.08 464.5L509.92 464.5C522.943 464.5 533.5 475.057 533.5 488.08L533.5 731.92C533.5 744.943 522.943 755.5 509.92 755.5L262.08 755.5C249.057 755.5 238.5 744.943 238.5 731.92Z" stroke="#FFFFFF" stroke-width="9.16667" stroke-linejoin="round" stroke-miterlimit="10" fill="#D62CD0" fill-rule="evenodd"/><path d="M542.5 488.08C542.5 475.057 553.057 464.5 566.08 464.5L813.92 464.5C826.943 464.5 837.5 475.057 837.5 488.08L837.5 731.92C837.5 744.943 826.943 755.5 813.92 755.5L566.08 755.5C553.057 755.5 542.5 744.943 542.5 731.92Z" stroke="#FFFFFF" stroke-width="9.16667" stroke-linejoin="round" stroke-miterlimit="10" fill="#D62CD0" fill-rule="evenodd"/><path d="M843.5 488.08C843.5 475.057 854.057 464.5 867.08 464.5L1114.92 464.5C1127.94 464.5 1138.5 475.057 1138.5 488.08L1138.5 731.92C1138.5 744.943 1127.94 755.5 1114.92 755.5L867.08 755.5C854.057 755.5 843.5 744.943 843.5 731.92Z" stroke="#FFFFFF" stroke-width="9.16667" stroke-linejoin="round" stroke-miterlimit="10" fill="#D62CD0" fill-rule="evenodd"/><path d="M843 188.58C843 175.557 853.557 165 866.58 165L1114.42 165C1127.44 165 1138 175.557 1138 188.58L1138 432.421C1138 445.444 1127.44 456.001 1114.42 456.001L866.58 456.001C853.557 456.001 843 445.444 843 432.421Z" fill="#D62CD0" fill-rule="evenodd"/><path d="M542 188.58C542 175.557 552.557 165 565.58 165L813.42 165C826.443 165 837 175.557 837 188.58L837 432.421C837 445.443 826.443 456 813.42 456L565.58 456C552.557 456 542 445.443 542 432.421Z" fill="#D62CD0" fill-rule="evenodd"/><path d="M238 188.58C238 175.557 248.557 165 261.58 165L509.42 165C522.443 165 533 175.557 533 188.58L533 432.421C533 445.444 522.443 456.001 509.42 456.001L261.58 456.001C248.557 456.001 238 445.444 238 432.421Z" fill="#5F605E" fill-rule="evenodd"/><path d="M1074.9 618.456 1057.26 587.963 1057.26 586.938C1058.33 558.85 1043.88 532.452 1019.66 518.262 995.454 503.912 965.365 503.912 941.154 518.262 916.893 532.407 902.427 558.835 903.562 586.938 903.473 611.037 914.638 633.792 933.738 648.438L933.738 712.5 1014.55 712.5 1014.55 682.006 1027.08 682.006C1035.16 682.061 1042.91 678.824 1048.56 673.038 1054.16 667.277 1057.28 659.551 1057.26 651.513L1057.26 636.138 1068.51 636.138C1075.18 635.625 1081.07 627.938 1074.9 618.456ZM973.481 608.601C978.486 607.832 981.095 614.108 977.995 618.303L977.54 618.887C974.244 622.92 967.413 622.075 966.935 617.034 966.651 614.082 962.784 611.046 961.005 613.339L949.665 627.938 939.27 619.833C936.981 618.039 940.014 614.172 942.958 613.887 947.995 613.406 948.839 606.564 944.806 603.261L944.223 602.805C940.037 599.699 933.779 602.313 934.547 607.325 934.997 610.254 931.989 614.152 929.703 612.366L919.891 604.714 931.281 590.049C933.071 587.755 929.174 584.744 926.251 585.195 921.248 585.964 918.64 579.686 921.739 575.494L922.192 574.909C925.491 570.876 932.319 571.719 932.8 576.762 933.083 579.711 936.95 582.748 938.73 580.457L950.069 565.851 959.82 573.456C962.109 575.25 959.079 579.114 956.135 579.396 951.095 579.88 950.253 586.722 954.284 590.025L954.867 590.482C959.053 593.587 965.321 590.966 964.551 585.959 964.101 583.03 967.096 579.13 969.395 580.921L979.849 589.072 968.454 603.748C966.671 606.039 970.558 609.052 973.481 608.601ZM1012.27 566.151C1010.31 567.668 1007.76 564.344 1008.14 561.848 1008.81 557.577 1003.34 555.442 999.768 558.081L999.272 558.471C995.83 561.29 996.674 567.019 1000.96 567.44 1003.47 567.696 1006.05 570.991 1004.1 572.508L995.728 579.022 986.033 566.509C984.516 564.554 981.215 567.14 980.972 569.653 980.557 573.956 974.834 574.796 972.021 571.347L971.628 570.845C968.996 567.258 971.116 561.792 975.384 562.453 977.877 562.84 981.192 560.277 979.678 558.322L970.026 545.866 978.345 539.393C980.299 537.873 982.857 541.187 982.47 543.693 981.808 547.967 987.273 550.099 990.843 547.46L991.355 547.073C994.794 544.254 993.953 538.522 989.662 538.104 987.153 537.86 984.565 534.56 986.526 533.035L995.446 526.096 1005.14 538.609C1006.66 540.564 1009.96 537.978 1010.2 535.465 1010.62 531.16 1016.34 530.322 1019.15 533.771L1019.54 534.268C1022.17 537.855 1020.05 543.321 1015.78 542.66 1013.29 542.273 1009.97 544.836 1011.49 546.791L1021.13 559.263Z" stroke="#FFFFFF" stroke-width="3.4375" stroke-miterlimit="8" fill="#FFFFFF" fill-rule="evenodd"/><path d="M499.22 285.5 369.5 285.5 369.5 353.137C369.519 359.355 374.558 364.391 380.78 364.409L493.58 364.409 493.58 378.5 510.5 378.5 510.5 296.773C510.482 290.555 505.442 285.519 499.22 285.5Z" stroke="#FFFFFF" stroke-width="4.58333" stroke-miterlimit="8" fill="#FFFFFF" fill-rule="evenodd"/><path d="M278.473 251.001C278.558 246.392 274.897 242.587 270.295 242.501 270.193 242.499 270.09 242.499 269.987 242.501 265.386 242.416 261.586 246.083 261.502 250.692 261.5 250.795 261.5 250.898 261.502 251.001L261.502 378.5 278.473 378.5 278.473 350.167 360.5 350.167 360.5 321.834 278.473 287.834Z" stroke="#FFFFFF" stroke-width="4.58333" stroke-miterlimit="8" fill="#FFFFFF" fill-rule="evenodd"/><path d="M323.5 272C323.5 281.113 315.889 288.5 306.5 288.5 297.111 288.5 289.5 281.113 289.5 272 289.5 262.887 297.111 255.5 306.5 255.5 315.889 255.5 323.5 262.887 323.5 272Z" stroke="#FFFFFF" stroke-width="4.58333" stroke-miterlimit="8" fill="#FFFFFF" fill-rule="evenodd"/><path d="M318.5 295.865 360.5 313.5 360.5 282.91 355.137 280.651C340.851 274.706 324.483 281.504 318.5 295.865Z" stroke="#FFFFFF" stroke-width="4.58333" stroke-miterlimit="8" fill="#FFFFFF" fill-rule="evenodd"/><path d="M774.5 242.9C774.5 217.93 762.388 197.5 737.883 197.5 713.378 197.5 714.223 208.85 690 208.85 665.777 208.85 666.622 197.5 642.116 197.5 617.612 197.5 605.5 217.93 605.5 242.9 605.5 267.87 625.217 292.556 625.217 313.838 625.217 333.984 622.4 351.009 622.4 364.912 622.4 378.816 622.118 424.5 642.116 424.5 662.115 424.5 661.833 383.073 661.833 364.912 661.833 346.753 664.086 319.513 690 319.513 715.913 319.513 718.167 346.753 718.167 364.912 718.167 383.073 717.885 424.5 737.883 424.5 757.881 424.5 757.6 378.816 757.6 364.912 757.6 351.009 754.784 333.984 754.784 313.838 754.784 292.556 774.5 267.87 774.5 242.9Z" stroke="#FFFFFF" stroke-width="4.58333" stroke-miterlimit="8" fill="#FFFFFF" fill-rule="evenodd"/><path d="M333.5 680.5C333.5 692.651 323.651 702.5 311.5 702.5 299.35 702.5 289.5 692.651 289.5 680.5 289.5 668.35 299.35 658.5 311.5 658.5 323.651 658.5 333.5 668.35 333.5 680.5Z" stroke="#FFFFFF" stroke-width="4.58333" stroke-miterlimit="8" fill="#FFFFFF" fill-rule="evenodd"/><path d="M489.5 680.5C489.5 692.651 479.651 702.5 467.5 702.5 455.35 702.5 445.5 692.651 445.5 680.5 445.5 668.35 455.35 658.5 467.5 658.5 479.651 658.5 489.5 668.35 489.5 680.5Z" stroke="#FFFFFF" stroke-width="4.58333" stroke-miterlimit="8" fill="#FFFFFF" fill-rule="evenodd"/><path d="M506.5 626.946 489.938 614.491C487.765 612.881 486.219 610.57 485.563 607.953L479.312 586.468C476.125 575.849 466.374 568.53 455.25 568.409L449 568.409 449 552.841C449 547.682 444.803 543.5 439.625 543.5L433.375 543.5C428.197 543.5 424 547.682 424 552.841L424 568.409 424 568.409 424 562.182C424 555.304 418.404 549.727 411.5 549.727L274 549.727C267.097 549.727 261.5 555.304 261.5 562.182L261.5 668.046C261.5 674.924 267.097 680.5 274 680.5L280.25 680.5C280.25 663.304 294.241 649.364 311.5 649.364 328.759 649.364 342.75 663.304 342.75 680.5L436.5 680.5C436.5 663.304 450.491 649.364 467.75 649.364 485.009 649.364 499 663.304 499 680.5 505.903 680.5 511.5 674.924 511.5 668.046L511.5 636.909C511.5 632.989 509.648 629.298 506.5 626.946ZM387.281 614.491 377.906 630.682 361.5 621.341 361.5 640.023 342.75 640.023 342.75 621.154 326.344 630.495 316.969 614.304 333.375 604.964 316.969 595.622 326.344 579.432 342.75 588.772 342.75 569.904 361.5 569.904 361.5 588.804 377.906 579.462 387.281 595.654 370.875 604.994ZM436.5 612 436.5 580.864 455.25 580.864C460.824 580.787 465.729 584.516 467.125 589.893L473.375 611.377C473.375 611.689 473.688 611.689 473.688 612Z" stroke="#FFFFFF" stroke-width="4.58333" stroke-miterlimit="8" fill="#FFFFFF" fill-rule="evenodd"/><path d="M436.5 533.5 436.5 518.5" stroke="#FFFFFF" stroke-width="4.58333" stroke-miterlimit="8" fill="none" fill-rule="evenodd"/><path d="M450.5 536.5 461.501 525.5" stroke="#FFFFFF" stroke-width="4.58333" stroke-miterlimit="8" fill="#FFFFFF" fill-rule="evenodd"/><path d="M422.5 536.5 411.5 525.5" stroke="#FFFFFF" stroke-width="4.58333" stroke-miterlimit="8" fill="#FFFFFF" fill-rule="evenodd"/><path d="M961.75 312 961.75 246.617C961.75 230.635 974.912 217.559 991 217.559 1007.09 217.559 1020.25 230.635 1020.25 246.617L1020.25 312 961.75 312ZM1049.5 377.383 1049.5 246.617C1049.5 214.652 1023.18 188.5 991 188.5 958.825 188.5 932.499 214.652 932.499 246.617L932.499 377.383C932.499 409.348 958.825 435.501 991 435.501 1023.18 435.501 1049.5 409.348 1049.5 377.383Z" stroke="#FFFFFF" stroke-width="4.58333" stroke-miterlimit="8" fill="#85D8D1" fill-rule="evenodd"/><path d="M932.5 312.5 932.5 249.5C932.5 214.706 958.691 186.5 991 186.5 1023.31 186.5 1049.5 214.706 1049.5 249.5L1049.5 312.5Z" stroke="#FFFFFF" stroke-width="4.58333" stroke-linejoin="round" stroke-miterlimit="10" fill="#FFFFFF" fill-rule="evenodd"/><path d="M748.5 526C748.5 536.77 739.77 545.5 729 545.5 718.231 545.5 709.5 536.77 709.5 526 709.5 515.23 718.231 506.5 729 506.5 739.77 506.5 748.5 515.23 748.5 526Z" stroke="#FFFFFF" stroke-width="3.4375" stroke-miterlimit="8" fill="#FFFFFF" fill-rule="evenodd"/><path d="M776.364 552.312C771.518 549.906 765.702 551.59 763.279 556.402L754.797 572.28 717.48 548.944C716.026 547.981 714.33 547.5 712.391 547.5L671.196 547.5C667.562 547.5 664.412 549.425 662.715 552.552L646.964 581.422C644.299 585.993 646.237 592.007 650.841 594.413 652.295 595.135 653.992 595.616 655.446 595.616 658.838 595.616 662.231 593.691 663.927 590.564L677.012 566.747 691.309 566.747 648.418 646.138 608.193 646.138C602.862 646.138 598.5 650.468 598.5 655.761 598.5 661.054 602.862 665.384 608.193 665.384L654.234 665.384C657.869 665.384 661.019 663.46 662.715 660.332L679.678 629.297 707.545 655.039 705.364 703.396C704.879 708.688 708.999 713.26 714.33 713.5 714.572 713.5 714.572 713.5 714.814 713.5 719.903 713.5 724.265 709.41 724.507 704.358L726.931 651.431C727.173 648.544 725.961 645.897 723.78 643.973L700.275 622.32 724.992 576.61 753.101 594.173C755.282 595.616 758.19 596.097 760.855 595.376 763.521 594.654 765.702 592.97 766.914 590.564L780.241 565.303C782.907 560.732 781.21 554.958 776.364 552.312Z" stroke="#FFFFFF" stroke-width="3.4375" stroke-miterlimit="8" fill="#FFFFFF" fill-rule="evenodd"/></g></svg>