<svg width="311" height="201" xmlns="http://www.w3.org/2000/svg" xmlns:xlink="http://www.w3.org/1999/xlink" xml:space="preserve" overflow="hidden"><g transform="translate(-1848 -1182)"><path d="M1848 1292.02C1848 1287.59 1851.59 1284 1856.02 1284L1941.98 1284C1946.41 1284 1950 1287.59 1950 1292.02L1950 1374.98C1950 1379.41 1946.41 1383 1941.98 1383L1856.02 1383C1851.59 1383 1848 1379.41 1848 1374.98Z" fill="#5F605E" fill-rule="evenodd"/><path d="M1953 1292.02C1953 1287.59 1956.59 1284 1961.02 1284L2046.98 1284C2051.41 1284 2055 1287.59 2055 1292.02L2055 1374.98C2055 1379.41 2051.41 1383 2046.98 1383L1961.02 1383C1956.59 1383 1953 1379.41 1953 1374.98Z" fill="#D62CD0" fill-rule="evenodd"/><path d="M2057 1292.02C2057 1287.59 2060.59 1284 2065.02 1284L2150.98 1284C2155.41 1284 2159 1287.59 2159 1292.02L2159 1374.98C2159 1379.41 2155.41 1383 2150.98 1383L2065.02 1383C2060.59 1383 2057 1379.41 2057 1374.98Z" fill="#D62CD0" fill-rule="evenodd"/><path d="M2057 1190.02C2057 1185.59 2060.59 1182 2065.02 1182L2150.98 1182C2155.41 1182 2159 1185.59 2159 1190.02L2159 1272.98C2159 1277.41 2155.41 1281 2150.98 1281L2065.02 1281C2060.59 1281 2057 1277.41 2057 1272.98Z" fill="#D62CD0" fill-rule="evenodd"/><path d="M1953 1190.02C1953 1185.59 1956.59 1182 1961.02 1182L2046.98 1182C2051.41 1182 2055 1185.59 2055 1190.02L2055 1272.98C2055 1277.41 2051.41 1281 2046.98 1281L1961.02 1281C1956.59 1281 1953 1277.41 1953 1272.98Z" fill="#D62CD0" fill-rule="evenodd"/><path d="M1848 1190.02C1848 1185.59 1851.59 1182 1856.02 1182L1941.98 1182C1946.41 1182 1950 1185.59 1950 1190.02L1950 1272.98C1950 1277.41 1946.41 1281 1941.98 1281L1856.02 1281C1851.59 1281 1848 1277.41 1848 1272.98Z" fill="#D62CD0" fill-rule="evenodd"/><path d="M2137.1 1336.35 2131.02 1326.08 2131.02 1325.74C2131.39 1316.28 2126.41 1307.4 2118.06 1302.62 2109.71 1297.79 2099.33 1297.79 2090.98 1302.62 2082.62 1307.38 2077.63 1316.28 2078.02 1325.74 2077.99 1333.85 2081.84 1341.51 2088.43 1346.44L2088.43 1368 2116.29 1368 2116.29 1357.74 2120.61 1357.74C2123.4 1357.75 2126.07 1356.67 2128.02 1354.72 2129.95 1352.78 2131.03 1350.18 2131.02 1347.47L2131.02 1342.3 2134.9 1342.3C2137.2 1342.13 2139.23 1339.54 2137.1 1336.35ZM2102.13 1333.03C2103.86 1332.77 2104.76 1334.88 2103.69 1336.29L2103.53 1336.49C2102.39 1337.85 2100.04 1337.56 2099.87 1335.87 2099.78 1334.87 2098.44 1333.85 2097.83 1334.62L2093.92 1339.54 2090.33 1336.81C2089.55 1336.21 2090.59 1334.9 2091.61 1334.81 2093.34 1334.65 2093.63 1332.34 2092.24 1331.23L2092.04 1331.08C2090.6 1330.03 2088.44 1330.91 2088.71 1332.6 2088.86 1333.59 2087.82 1334.9 2087.04 1334.3L2083.65 1331.72 2087.58 1326.78C2088.2 1326.01 2086.85 1325 2085.84 1325.15 2084.12 1325.41 2083.22 1323.3 2084.29 1321.89L2084.45 1321.69C2085.58 1320.33 2087.94 1320.62 2088.1 1322.31 2088.2 1323.31 2089.53 1324.33 2090.15 1323.56L2094.06 1318.64 2097.42 1321.2C2098.21 1321.8 2097.17 1323.1 2096.15 1323.2 2094.41 1323.36 2094.12 1325.67 2095.51 1326.78L2095.71 1326.93C2097.16 1327.98 2099.32 1327.09 2099.05 1325.41 2098.9 1324.42 2099.93 1323.11 2100.72 1323.71L2104.33 1326.46 2100.4 1331.4C2099.78 1332.17 2101.12 1333.18 2102.13 1333.03ZM2115.51 1318.74C2114.83 1319.25 2113.95 1318.13 2114.08 1317.29 2114.31 1315.86 2112.43 1315.14 2111.2 1316.02L2111.02 1316.16C2109.84 1317.1 2110.13 1319.03 2111.61 1319.17 2112.47 1319.26 2113.36 1320.37 2112.69 1320.88L2109.8 1323.07 2106.46 1318.86C2105.94 1318.2 2104.8 1319.07 2104.71 1319.92 2104.57 1321.37 2102.6 1321.65 2101.63 1320.49L2101.49 1320.32C2100.58 1319.11 2101.32 1317.27 2102.79 1317.5 2103.65 1317.63 2104.79 1316.76 2104.27 1316.11L2100.94 1311.91 2103.81 1309.73C2104.48 1309.22 2105.36 1310.34 2105.23 1311.18 2105 1312.62 2106.89 1313.34 2108.12 1312.45L2108.29 1312.32C2109.48 1311.37 2109.19 1309.44 2107.71 1309.3 2106.85 1309.22 2105.95 1308.11 2106.63 1307.59L2109.71 1305.26 2113.05 1309.47C2113.57 1310.13 2114.71 1309.26 2114.79 1308.41 2114.94 1306.96 2116.91 1306.68 2117.88 1307.84L2118.01 1308.01C2118.92 1309.22 2118.19 1311.06 2116.72 1310.83 2115.86 1310.7 2114.72 1311.57 2115.24 1312.22L2118.56 1316.42Z" fill="#FFFFFF" fill-rule="evenodd"/><path d="M1935.08 1229 1890 1229 1890 1252.27C1890.01 1254.41 1891.76 1256.15 1893.92 1256.15L1933.12 1256.15 1933.12 1261 1939 1261 1939 1232.88C1938.99 1230.74 1937.24 1229.01 1935.08 1229Z" fill="#FFFFFF" fill-rule="evenodd"/><path d="M1867.83 1220.88C1867.86 1219.32 1866.6 1218.03 1865.02 1218 1864.99 1218 1864.95 1218 1864.91 1218 1863.33 1217.97 1862.03 1219.21 1862 1220.77 1862 1220.81 1862 1220.84 1862 1220.88L1862 1264 1867.83 1264 1867.83 1254.42 1896 1254.42 1896 1244.83 1867.83 1233.33Z" fill="#FFFFFF" fill-rule="evenodd"/><path d="M1887.5 1215.5C1887.5 1218.81 1884.81 1221.5 1881.5 1221.5 1878.19 1221.5 1875.5 1218.81 1875.5 1215.5 1875.5 1212.19 1878.19 1209.5 1881.5 1209.5 1884.81 1209.5 1887.5 1212.19 1887.5 1215.5Z" stroke="#FFFFFF" stroke-width="4.58333" stroke-miterlimit="8" fill="#FFFFFF" fill-rule="evenodd"/><path d="M1881.5 1237.45 1896.5 1243.5 1896.5 1233.01 1894.58 1232.24C1889.48 1230.2 1883.64 1232.53 1881.5 1237.45Z" stroke="#FFFFFF" stroke-width="4.58333" stroke-miterlimit="8" fill="#FFFFFF" fill-rule="evenodd"/><path d="M2033 1208.4C2033 1199.93 2028.84 1193 2020.43 1193 2012.02 1193 2012.31 1196.85 2004 1196.85 1995.69 1196.85 1995.98 1193 1987.57 1193 1979.16 1193 1975 1199.93 1975 1208.4 1975 1216.87 1981.77 1225.24 1981.77 1232.46 1981.77 1239.3 1980.8 1245.07 1980.8 1249.79 1980.8 1254.5 1980.7 1270 1987.57 1270 1994.43 1270 1994.33 1255.95 1994.33 1249.79 1994.33 1243.63 1995.11 1234.39 2004 1234.39 2012.89 1234.39 2013.67 1243.63 2013.67 1249.79 2013.67 1255.95 2013.57 1270 2020.43 1270 2027.3 1270 2027.2 1254.5 2027.2 1249.79 2027.2 1245.07 2026.23 1239.3 2026.23 1232.46 2026.23 1225.24 2033 1216.87 2033 1208.4Z" fill="#FFFFFF" fill-rule="evenodd"/><path d="M1881 1354.5C1881 1358.64 1877.64 1362 1873.5 1362 1869.36 1362 1866 1358.64 1866 1354.5 1866 1350.36 1869.36 1347 1873.5 1347 1877.64 1347 1881 1350.36 1881 1354.5Z" stroke="#FFFFFF" stroke-width="2.29167" stroke-miterlimit="8" fill="#FFFFFF" fill-rule="evenodd"/><path d="M1932 1354.5C1932 1358.64 1928.64 1362 1924.5 1362 1920.36 1362 1917 1358.64 1917 1354.5 1917 1350.36 1920.36 1347 1924.5 1347 1928.64 1347 1932 1350.36 1932 1354.5Z" stroke="#FFFFFF" stroke-width="2.29167" stroke-miterlimit="8" fill="#FFFFFF" fill-rule="evenodd"/><path d="M1940.28 1338.63 1934.58 1334.35C1933.83 1333.8 1933.3 1333.01 1933.08 1332.11L1930.93 1324.74C1929.83 1321.1 1926.48 1318.59 1922.65 1318.55L1920.5 1318.55 1920.5 1313.2C1920.5 1311.43 1919.06 1310 1917.27 1310L1915.12 1310C1913.34 1310 1911.9 1311.43 1911.9 1313.2L1911.9 1318.55 1911.9 1318.55 1911.9 1316.41C1911.9 1314.05 1909.97 1312.14 1907.6 1312.14L1860.3 1312.14C1857.93 1312.14 1856 1314.05 1856 1316.41L1856 1352.73C1856 1355.09 1857.93 1357 1860.3 1357L1862.45 1357C1862.45 1351.1 1867.26 1346.32 1873.2 1346.32 1879.14 1346.32 1883.95 1351.1 1883.95 1357L1916.2 1357C1916.2 1351.1 1921.01 1346.32 1926.95 1346.32 1932.89 1346.32 1937.7 1351.1 1937.7 1357 1940.07 1357 1942 1355.09 1942 1352.73L1942 1342.05C1942 1340.7 1941.36 1339.43 1940.28 1338.63ZM1899.27 1334.35 1896.04 1339.91 1890.4 1336.7 1890.4 1343.11 1883.95 1343.11 1883.95 1336.64 1878.31 1339.85 1875.08 1334.29 1880.72 1331.09 1875.08 1327.88 1878.31 1322.33 1883.95 1325.53 1883.95 1319.06 1890.4 1319.06 1890.4 1325.54 1896.04 1322.34 1899.27 1327.89 1893.62 1331.1ZM1916.2 1333.5 1916.2 1322.82 1922.65 1322.82C1924.57 1322.79 1926.25 1324.07 1926.73 1325.92L1928.88 1333.29C1928.88 1333.39 1928.99 1333.39 1928.99 1333.5Z" fill="#FFFFFF" fill-rule="evenodd"/><path d="M2098 1231 2098 1210.88C2098 1205.96 2102.5 1201.94 2108 1201.94 2113.5 1201.94 2118 1205.96 2118 1210.88L2118 1231 2098 1231ZM2128 1251.12 2128 1210.88C2128 1201.05 2119 1193 2108 1193 2097 1193 2088 1201.05 2088 1210.88L2088 1251.12C2088 1260.95 2097 1269 2108 1269 2119 1269 2128 1260.95 2128 1251.12Z" stroke="#FFFFFF" stroke-width="2.29167" stroke-miterlimit="8" fill="#85D8D1" fill-rule="evenodd"/><path d="M2093 1235 2093 1218C2093 1208.61 2099.72 1201 2108 1201 2116.28 1201 2123 1208.61 2123 1218L2123 1235Z" stroke="#FFFFFF" stroke-width="2.29167" stroke-linejoin="round" stroke-miterlimit="10" fill="#FFFFFF" fill-rule="evenodd"/><path d="M2024 1304.5C2024 1308.09 2021.09 1311 2017.5 1311 2013.91 1311 2011 1308.09 2011 1304.5 2011 1300.91 2013.91 1298 2017.5 1298 2021.09 1298 2024 1300.91 2024 1304.5Z" fill="#FFFFFF" fill-rule="evenodd"/><path d="M2033.26 1313.65C2031.62 1312.83 2029.65 1313.4 2028.83 1315.06L2025.95 1320.51 2013.31 1312.5C2012.82 1312.17 2012.24 1312 2011.59 1312L1997.63 1312C1996.4 1312 1995.33 1312.66 1994.76 1313.73L1989.42 1323.65C1988.52 1325.22 1989.17 1327.28 1990.73 1328.11 1991.23 1328.36 1991.8 1328.52 1992.29 1328.52 1993.44 1328.52 1994.59 1327.86 1995.17 1326.79L1999.6 1318.61 2004.44 1318.61 1989.91 1345.87 1976.28 1345.87C1974.48 1345.87 1973 1347.36 1973 1349.17 1973 1350.99 1974.48 1352.48 1976.28 1352.48L1991.88 1352.48C1993.11 1352.48 1994.18 1351.82 1994.76 1350.74L2000.5 1340.09 2009.94 1348.93 2009.21 1365.53C2009.04 1367.35 2010.44 1368.92 2012.24 1369 2012.33 1369 2012.33 1369 2012.41 1369 2014.13 1369 2015.61 1367.6 2015.69 1365.86L2016.51 1347.69C2016.59 1346.7 2016.18 1345.79 2015.44 1345.13L2007.48 1337.69 2015.86 1322 2025.38 1328.03C2026.12 1328.52 2027.1 1328.69 2028.01 1328.44 2028.91 1328.19 2029.65 1327.61 2030.06 1326.79L2034.57 1318.11C2035.48 1316.54 2034.9 1314.56 2033.26 1313.65Z" fill="#FFFFFF" fill-rule="evenodd"/></g></svg>