<svg width="95" height="62" xmlns="http://www.w3.org/2000/svg" xmlns:xlink="http://www.w3.org/1999/xlink" xml:space="preserve" overflow="hidden"><defs><clipPath id="clip0"><rect x="52" y="75" width="95" height="62"/></clipPath></defs><g clip-path="url(#clip0)" transform="translate(-52 -75)"><path d="M51.9999 108.512C51.9999 107.125 53.1245 106 54.5119 106L80.4882 106C81.8755 106 83.0001 107.125 83.0001 108.512L83.0001 134.488C83.0001 135.876 81.8755 137 80.4882 137L54.5119 137C53.1245 137 51.9999 135.876 51.9999 134.488Z" fill="#D62CD0" fill-rule="evenodd"/><path d="M83.9999 108.512C83.9999 107.125 85.1245 106 86.5118 106L112.488 106C113.876 106 115 107.125 115 108.512L115 134.488C115 135.876 113.876 137 112.488 137L86.5118 137C85.1245 137 83.9999 135.876 83.9999 134.488Z" fill="#D62CD0" fill-rule="evenodd"/><path d="M116 108.512C116 107.125 117.124 106 118.512 106L144.488 106C145.875 106 147 107.125 147 108.512L147 134.488C147 135.876 145.875 137 144.488 137L118.512 137C117.124 137 116 135.876 116 134.488Z" fill="#D62CD0" fill-rule="evenodd"/><path d="M116 77.4308C116 76.0883 117.088 74.9999 118.431 74.9999L144.569 74.9999C145.912 74.9999 147 76.0883 147 77.4308L147 102.569C147 103.912 145.912 105 144.569 105L118.431 105C117.088 105 116 103.912 116 102.569Z" fill="#D62CD0" fill-rule="evenodd"/><path d="M83.9999 77.4308C83.9999 76.0883 85.0882 74.9999 86.4308 74.9999L112.569 74.9999C113.912 74.9999 115 76.0883 115 77.4308L115 102.569C115 103.912 113.912 105 112.569 105L86.4308 105C85.0882 105 83.9999 103.912 83.9999 102.569Z" fill="#D62CD0" fill-rule="evenodd"/><path d="M51.9999 77.4308C51.9999 76.0883 53.0882 74.9999 54.4308 74.9999L80.569 74.9999C81.9115 74.9999 82.9998 76.0883 82.9998 77.4308L82.9998 102.569C82.9998 103.911 81.9115 105 80.569 105L54.4308 105C53.0882 105 51.9999 103.911 51.9999 102.569Z" fill="#5F605E" fill-rule="evenodd"/><path d="M139.731 122.366 137.906 119.243 137.906 119.138C138.017 116.26 136.522 113.556 134.017 112.103 131.512 110.633 128.4 110.633 125.895 112.103 123.386 113.551 121.889 116.259 122.006 119.138 121.997 121.606 123.152 123.937 125.128 125.438L125.128 132 133.488 132 133.488 128.876 134.784 128.876C135.62 128.882 136.422 128.55 137.006 127.958 137.585 127.367 137.908 126.576 137.906 125.753L137.906 124.178 139.07 124.178C139.76 124.125 140.369 123.338 139.731 122.366ZM129.239 121.357C129.757 121.278 130.027 121.921 129.706 122.351L129.659 122.41C129.318 122.824 128.612 122.737 128.562 122.221 128.533 121.918 128.133 121.607 127.949 121.842L126.776 123.338 125.7 122.507C125.464 122.323 125.777 121.927 126.082 121.898 126.603 121.849 126.69 121.148 126.273 120.81L126.213 120.763C125.78 120.445 125.132 120.713 125.212 121.226 125.258 121.526 124.947 121.925 124.711 121.742L123.696 120.958 124.874 119.456C125.059 119.221 124.656 118.913 124.354 118.959 123.836 119.038 123.566 118.395 123.887 117.965L123.934 117.905C124.275 117.492 124.981 117.579 125.031 118.095 125.06 118.397 125.46 118.708 125.645 118.474L126.818 116.977 127.826 117.757C128.063 117.94 127.75 118.336 127.445 118.365 126.924 118.415 126.837 119.115 127.253 119.454L127.314 119.501C127.747 119.819 128.395 119.55 128.316 119.037 128.269 118.737 128.579 118.338 128.817 118.521L129.898 119.356 128.719 120.86C128.535 121.094 128.937 121.403 129.239 121.357ZM133.252 117.008C133.05 117.164 132.785 116.823 132.825 116.567 132.894 116.13 132.328 115.911 131.959 116.182L131.907 116.221C131.551 116.51 131.639 117.097 132.082 117.14 132.342 117.166 132.609 117.504 132.407 117.659L131.541 118.327 130.538 117.045C130.381 116.845 130.039 117.109 130.014 117.367 129.971 117.808 129.379 117.894 129.088 117.54L129.048 117.489C128.775 117.122 128.995 116.562 129.436 116.629 129.694 116.669 130.037 116.406 129.88 116.206L128.882 114.93 129.743 114.267C129.945 114.111 130.209 114.451 130.169 114.708 130.101 115.145 130.666 115.364 131.035 115.093L131.088 115.054C131.444 114.765 131.357 114.178 130.913 114.135 130.654 114.11 130.386 113.772 130.589 113.616L131.512 112.905 132.515 114.187C132.671 114.387 133.013 114.122 133.038 113.865 133.081 113.424 133.673 113.338 133.964 113.691L134.004 113.742C134.276 114.11 134.057 114.67 133.615 114.602 133.358 114.562 133.015 114.825 133.171 115.025L134.169 116.303Z" fill="#FFFFFF" fill-rule="evenodd"/><path d="M79.8001 87 66 87 66 94.2727C66.002 94.9413 66.5381 95.4828 67.2 95.4848L79.2001 95.4848 79.2001 97 81.0002 97 81.0002 88.2121C80.9982 87.5435 80.4621 87.002 79.8001 87Z" fill="#FFFFFF" fill-rule="evenodd"/><path d="M57.8859 84.875C57.8953 84.4005 57.4886 84.0088 56.9773 84 56.9659 83.9998 56.9545 83.9998 56.943 84 56.4318 83.9912 56.0096 84.3687 56.0002 84.8432 56 84.8538 56 84.8644 56.0002 84.875L56.0002 98 57.8859 98 57.8859 95.0834 67 95.0834 67 92.1667 57.8859 88.6667Z" fill="#FFFFFF" fill-rule="evenodd"/><path d="M62.5001 85.5001C62.5001 86.6048 61.8285 87.5002 61 87.5002 60.1716 87.5002 59.5 86.6048 59.5 85.5001 59.5 84.3955 60.1716 83.5 61 83.5 61.8285 83.5 62.5001 84.3955 62.5001 85.5001Z" stroke="#FFFFFF" stroke-width="4.58333" stroke-miterlimit="8" fill="#FFFFFF" fill-rule="evenodd"/><path d="M61.5 89.4847 65.5002 91.5 65.5002 88.0042 64.9894 87.746C63.6288 87.0666 62.0698 87.8434 61.5 89.4847Z" stroke="#FFFFFF" stroke-width="4.58333" stroke-miterlimit="8" fill="#FFFFFF" fill-rule="evenodd"/><path d="M109 82.8C109 80.16 107.71 78 105.1 78 102.49 78 102.58 79.2 100 79.2 97.4201 79.2 97.51 78 94.9001 78 92.2901 78 91.0001 80.16 91.0001 82.8 91.0001 85.4401 93.1001 88.05 93.1001 90.3001 93.1001 92.4301 92.8001 94.2301 92.8001 95.7001 92.8001 97.1701 92.7701 102 94.9001 102 97.03 102 97.0001 97.6201 97.0001 95.7001 97.0001 93.7801 97.24 90.9001 100 90.9001 102.76 90.9001 103 93.7801 103 95.7001 103 97.6201 102.97 102 105.1 102 107.23 102 107.2 97.1701 107.2 95.7001 107.2 94.2301 106.9 92.4301 106.9 90.3001 106.9 88.05 109 85.4401 109 82.8Z" fill="#FFFFFF" fill-rule="evenodd"/><path d="M62.5001 129C62.5001 130.381 61.6046 131.5 60.5 131.5 59.3954 131.5 58.4999 130.381 58.4999 129 58.4999 127.619 59.3954 126.5 60.5 126.5 61.6046 126.5 62.5001 127.619 62.5001 129Z" stroke="#FFFFFF" stroke-width="4.58333" stroke-miterlimit="8" fill="#FFFFFF" fill-rule="evenodd"/><path d="M79.4999 129C79.4999 130.381 78.3807 131.5 77 131.5 75.6194 131.5 74.5001 130.381 74.5001 129 74.5001 127.619 75.6194 126.5 77 126.5 78.3807 126.5 79.4999 127.619 79.4999 129Z" stroke="#FFFFFF" stroke-width="4.58333" stroke-miterlimit="8" fill="#FFFFFF" fill-rule="evenodd"/><path d="M80.4801 123.136 78.7576 121.773C78.5317 121.596 78.3709 121.343 78.3026 121.057L77.6526 118.705C77.3211 117.542 76.307 116.741 75.1501 116.727L74.5001 116.727 74.5001 115.023C74.5001 114.458 74.0636 114 73.5251 114L72.8751 114C72.3366 114 71.9001 114.458 71.9001 115.023L71.9001 116.727 71.9001 116.727 71.9001 116.046C71.9001 115.292 71.318 114.682 70.6001 114.682L56.3 114.682C55.582 114.682 55 115.292 55 116.046L55 127.636C55 128.389 55.582 129 56.3 129L56.95 129C56.95 127.117 58.4051 125.591 60.2001 125.591 61.995 125.591 63.4501 127.117 63.4501 129L73.2001 129C73.2001 127.117 74.6552 125.591 76.4501 125.591 78.2451 125.591 79.7001 127.117 79.7001 129 80.4181 129 81.0002 128.389 81.0002 127.636L81.0002 124.227C81.0002 123.798 80.8075 123.394 80.4801 123.136ZM68.0813 121.773 67.1063 123.545 65.4001 122.523 65.4001 124.568 63.4501 124.568 63.4501 122.502 61.7438 123.525 60.7688 121.752 62.475 120.73 60.7688 119.707 61.7438 117.934 63.4501 118.957 63.4501 116.891 65.4001 116.891 65.4001 118.96 67.1063 117.938 68.0813 119.71 66.3751 120.733ZM73.2001 121.5 73.2001 118.091 75.1501 118.091C75.7298 118.083 76.2399 118.491 76.3851 119.08L77.0351 121.432C77.0351 121.466 77.0676 121.466 77.0676 121.5Z" fill="#FFFFFF" fill-rule="evenodd"/><path d="M73.5001 113.5 73.5001 112.5" stroke="#FFFFFF" stroke-width="4.58333" stroke-miterlimit="8" fill="none" fill-rule="evenodd"/><path d="M74.5001 114.5 76.5002 113.5" stroke="#FFFFFF" stroke-width="4.58333" stroke-miterlimit="8" fill="#FFFFFF" fill-rule="evenodd"/><path d="M72.5001 114.5 70.5 113.5" stroke="#FFFFFF" stroke-width="4.58333" stroke-miterlimit="8" fill="#FFFFFF" fill-rule="evenodd"/><path d="M128.5 90.4998 128.5 83.6173C128.5 81.935 129.85 80.5585 131.5 80.5585 133.15 80.5585 134.5 81.935 134.5 83.6173L134.5 90.4998 128.5 90.4998ZM137.5 97.3822 137.5 83.6173C137.5 80.2526 134.8 77.4997 131.5 77.4997 128.2 77.4997 125.5 80.2526 125.5 83.6173L125.5 97.3822C125.5 100.747 128.2 103.5 131.5 103.5 134.8 103.5 137.5 100.747 137.5 97.3822Z" stroke="#FFFFFF" stroke-width="4.58333" stroke-miterlimit="8" fill="#85D8D1" fill-rule="evenodd"/><path d="M125.5 90.4997 125.5 83.9997C125.5 80.4098 128.186 77.4996 131.5 77.4996 134.814 77.4996 137.5 80.4098 137.5 83.9997L137.5 90.4997Z" stroke="#FFFFFF" stroke-width="4.58333" stroke-linejoin="round" stroke-miterlimit="10" fill="#FFFFFF" fill-rule="evenodd"/><path d="M106 113C106 114.105 105.105 115 104 115 102.895 115 102 114.105 102 113 102 111.896 102.895 111 104 111 105.105 111 106 111.896 106 113Z" fill="#FFFFFF" fill-rule="evenodd"/><path d="M108.467 115.493C107.964 115.247 107.36 115.419 107.108 115.912L106.228 117.538 102.353 115.148C102.202 115.049 102.026 115 101.825 115L97.5478 115C97.1704 115 96.8433 115.197 96.6672 115.518L95.0319 118.474C94.7551 118.942 94.9564 119.558 95.4344 119.804 95.5854 119.878 95.7615 119.928 95.9124 119.928 96.2646 119.928 96.6169 119.731 96.793 119.41L98.1516 116.971 99.636 116.971 95.1828 125.102 91.0064 125.102C90.4529 125.102 90.0001 125.545 90.0001 126.087 90.0001 126.629 90.4529 127.073 91.0064 127.073L95.7867 127.073C96.164 127.073 96.4911 126.875 96.6672 126.555L98.4283 123.377 101.322 126.013 101.095 130.965C101.045 131.507 101.473 131.975 102.026 132 102.051 132 102.051 132 102.076 132 102.605 132 103.058 131.581 103.083 131.064L103.334 125.644C103.36 125.348 103.234 125.077 103.007 124.88L100.567 122.662 103.133 117.981 106.052 119.78C106.278 119.928 106.58 119.977 106.857 119.903 107.133 119.829 107.36 119.657 107.486 119.41L108.869 116.823C109.146 116.355 108.97 115.764 108.467 115.493Z" fill="#FFFFFF" fill-rule="evenodd"/></g></svg>