<svg width="94" height="62" xmlns="http://www.w3.org/2000/svg" xmlns:xlink="http://www.w3.org/1999/xlink" xml:space="preserve" overflow="hidden"><defs><clipPath id="clip0"><rect x="54" y="75" width="94" height="62"/></clipPath></defs><g clip-path="url(#clip0)" transform="translate(-54 -75)"><path d="M54 108.512C54 107.124 55.1246 106 56.5119 106L82.488 106C83.8753 106 84.9999 107.124 84.9999 108.512L84.9999 134.488C84.9999 135.876 83.8753 137 82.488 137L56.5119 137C55.1246 137 54 135.876 54 134.488Z" fill="#D62CD0" fill-rule="evenodd"/><path d="M85.9999 108.512C85.9999 107.124 87.1246 106 88.5119 106L114.488 106C115.875 106 117 107.124 117 108.512L117 134.488C117 135.876 115.875 137 114.488 137L88.5119 137C87.1246 137 85.9999 135.876 85.9999 134.488Z" fill="#D62CD0" fill-rule="evenodd"/><path d="M117 108.512C117 107.125 118.125 106 119.512 106L145.488 106C146.876 106 148 107.125 148 108.512L148 134.488C148 135.876 146.876 137 145.488 137L119.512 137C118.125 137 117 135.876 117 134.488Z" fill="#D62CD0" fill-rule="evenodd"/><path d="M117 77.4308C117 76.0883 118.088 74.9999 119.431 74.9999L145.569 74.9999C146.912 74.9999 148 76.0883 148 77.4308L148 102.569C148 103.911 146.912 105 145.569 105L119.431 105C118.088 105 117 103.911 117 102.569Z" fill="#D62CD0" fill-rule="evenodd"/><path d="M85.9999 77.4308C85.9999 76.0883 87.0883 74.9999 88.4308 74.9999L114.569 74.9999C115.912 74.9999 117 76.0883 117 77.4308L117 102.569C117 103.911 115.912 104.999 114.569 104.999L88.4308 104.999C87.0883 104.999 85.9999 103.911 85.9999 102.569Z" fill="#D62CD0" fill-rule="evenodd"/><path d="M54 77.4308C54 76.0883 55.0883 74.9999 56.4308 74.9999L82.569 74.9999C83.9116 74.9999 84.9999 76.0883 84.9999 77.4308L84.9999 102.569C84.9999 103.911 83.9116 104.999 82.569 104.999L56.4308 104.999C55.0883 104.999 54 103.911 54 102.569Z" fill="#5F605E" fill-rule="evenodd"/><path d="M141.731 122.366 139.906 119.243 139.906 119.138C140.017 116.26 138.522 113.556 136.017 112.103 133.512 110.633 130.4 110.633 127.895 112.103 125.386 113.551 123.889 116.259 124.007 119.138 123.997 121.606 125.152 123.937 127.128 125.438L127.128 132 135.488 132 135.488 128.876 136.784 128.876C137.62 128.882 138.422 128.55 139.006 127.958 139.585 127.367 139.908 126.576 139.906 125.753L139.906 124.178 141.07 124.178C141.76 124.125 142.369 123.338 141.731 122.366ZM131.24 121.357C131.757 121.278 132.027 121.921 131.706 122.351L131.659 122.41C131.318 122.824 130.612 122.737 130.562 122.221 130.533 121.918 130.133 121.607 129.949 121.842L128.776 123.338 127.7 122.507C127.464 122.323 127.777 121.927 128.082 121.898 128.603 121.849 128.69 121.148 128.273 120.81L128.213 120.763C127.78 120.445 127.132 120.713 127.212 121.226 127.258 121.526 126.947 121.925 126.711 121.742L125.696 120.958 126.874 119.456C127.059 119.221 126.656 118.913 126.354 118.959 125.836 119.038 125.566 118.395 125.887 117.965L125.934 117.905C126.275 117.492 126.981 117.579 127.031 118.095 127.06 118.397 127.46 118.708 127.645 118.474L128.818 116.977 129.826 117.757C130.063 117.94 129.75 118.336 129.445 118.365 128.924 118.415 128.837 119.115 129.254 119.454L129.314 119.501C129.747 119.819 130.395 119.55 130.316 119.037 130.269 118.737 130.579 118.338 130.817 118.521L131.898 119.356 130.719 120.86C130.535 121.094 130.937 121.403 131.24 121.357ZM135.252 117.008C135.05 117.164 134.785 116.823 134.825 116.567 134.894 116.13 134.328 115.911 133.959 116.182L133.907 116.221C133.551 116.51 133.639 117.097 134.082 117.14 134.342 117.166 134.609 117.504 134.407 117.659L133.541 118.327 132.538 117.045C132.381 116.845 132.04 117.109 132.014 117.367 131.971 117.808 131.379 117.894 131.088 117.54L131.048 117.489C130.775 117.122 130.995 116.562 131.436 116.629 131.694 116.669 132.037 116.406 131.881 116.206L130.882 114.93 131.743 114.267C131.945 114.111 132.209 114.451 132.169 114.708 132.101 115.145 132.666 115.364 133.036 115.093L133.088 115.054C133.444 114.765 133.357 114.178 132.913 114.135 132.654 114.11 132.386 113.772 132.589 113.616L133.512 112.905 134.515 114.187C134.671 114.387 135.013 114.122 135.038 113.865 135.081 113.424 135.673 113.338 135.964 113.691L136.004 113.742C136.276 114.11 136.057 114.67 135.615 114.602 135.358 114.562 135.015 114.825 135.171 115.025L136.169 116.303Z" fill="#FFFFFF" fill-rule="evenodd"/><path d="M81.7999 88 68.0001 88 68.0001 95.2728C68.0021 95.9414 68.5381 96.4828 69.2 96.4849L81.1999 96.4849 81.1999 98 82.9999 98 82.9999 89.2121C82.9979 88.5435 82.4618 88.002 81.7999 88Z" fill="#FFFFFF" fill-rule="evenodd"/><path d="M59.8859 86.8751C59.8954 86.4006 59.4886 86.0089 58.9774 86.0001 58.9659 85.9999 58.9545 85.9999 58.9431 86.0001 58.4319 85.9913 58.0097 86.3688 58.0003 86.8433 58.0001 86.8539 58.0001 86.8645 58.0003 86.8751L58.0003 100 59.8859 100 59.8859 97.0834 69.0001 97.0834 69.0001 94.1668 59.8859 90.6668Z" fill="#FFFFFF" fill-rule="evenodd"/><path d="M66.4999 85.5001C66.4999 86.6048 65.6045 87.5002 64.5 87.5002 63.3954 87.5002 62.5001 86.6048 62.5001 85.5001 62.5001 84.3955 63.3954 83.5 64.5 83.5 65.6045 83.5 66.4999 84.3955 66.4999 85.5001Z" stroke="#FFFFFF" stroke-width="4.58333" stroke-miterlimit="8" fill="#FFFFFF" fill-rule="evenodd"/><path d="M65.5002 91.4846 69.5 93.5 69.5 90.0039 68.9892 89.7457C67.6287 89.0663 66.0699 89.8432 65.5002 91.4846Z" stroke="#FFFFFF" stroke-width="4.58333" stroke-miterlimit="8" fill="#FFFFFF" fill-rule="evenodd"/><path d="M110 82.8C110 80.16 108.71 78 106.1 78 103.49 78 103.58 79.2 101 79.2 98.4201 79.2 98.5101 78 95.9001 78 93.2901 78 92.0001 80.16 92.0001 82.8 92.0001 85.4401 94.1001 88.05 94.1001 90.3001 94.1001 92.4301 93.8001 94.2301 93.8001 95.7001 93.8001 97.1701 93.7701 102 95.9001 102 98.0301 102 98.0001 97.6201 98.0001 95.7001 98.0001 93.7801 98.2401 90.9001 101 90.9001 103.76 90.9001 104 93.7801 104 95.7001 104 97.6201 103.97 102 106.1 102 108.23 102 108.2 97.1701 108.2 95.7001 108.2 94.2301 107.9 92.4301 107.9 90.3001 107.9 88.05 110 85.4401 110 82.8Z" fill="#FFFFFF" fill-rule="evenodd"/><path d="M64 128C64 129.105 62.8807 130 61.5001 130 60.1194 130 59.0001 129.105 59.0001 128 59.0001 126.896 60.1194 126 61.5001 126 62.8807 126 64 126.896 64 128Z" stroke="#FFFFFF" stroke-width="2.29167" stroke-miterlimit="8" fill="#FFFFFF" fill-rule="evenodd"/><path d="M79.0001 128C79.0001 129.105 78.1046 130 77 130 75.8954 130 74.9999 129.105 74.9999 128 74.9999 126.896 75.8954 126 77 126 78.1046 126 79.0001 126.896 79.0001 128Z" stroke="#FFFFFF" stroke-width="2.29167" stroke-miterlimit="8" fill="#FFFFFF" fill-rule="evenodd"/><path d="M82.4599 123.136 80.6711 121.773C80.4365 121.596 80.2695 121.343 80.1986 121.057L79.5236 118.705C79.1794 117.542 78.1263 116.741 76.9249 116.727L76.2499 116.727 76.2499 115.023C76.2499 114.458 75.7966 114 75.2374 114L74.5624 114C74.0032 114 73.5499 114.458 73.5499 115.023L73.5499 116.727 73.5499 116.727 73.5499 116.046C73.5499 115.292 72.9455 114.682 72.2 114.682L57.35 114.682C56.6045 114.682 56 115.292 56 116.046L56 127.636C56 128.389 56.6045 129 57.35 129L58.025 129C58.025 127.117 59.5361 125.591 61.4 125.591 63.2639 125.591 64.775 127.117 64.775 129L74.8999 129C74.8999 127.117 76.4109 125.591 78.2749 125.591 80.1389 125.591 81.6499 127.117 81.6499 129 82.3954 129 82.9999 128.389 82.9999 127.636L82.9999 124.227C82.9999 123.798 82.7998 123.394 82.4599 123.136ZM69.5843 121.773 68.5718 123.545 66.8 122.523 66.8 124.568 64.775 124.568 64.775 122.502 63.0031 123.525 61.9906 121.752 63.7625 120.73 61.9906 119.707 63.0031 117.934 64.775 118.957 64.775 116.891 66.8 116.891 66.8 118.96 68.5718 117.938 69.5843 119.71 67.8124 120.733ZM74.8999 121.5 74.8999 118.091 76.9249 118.091C77.5269 118.083 78.0566 118.491 78.2074 119.08L78.8824 121.432C78.8824 121.466 78.9161 121.466 78.9161 121.5Z" fill="#FFFFFF" fill-rule="evenodd"/><path d="M130 89.5001 130 83.4118C130 81.9236 131.35 80.706 133 80.706 134.65 80.706 136 81.9236 136 83.4118L136 89.5001 130 89.5001ZM139 95.5884 139 83.4118C139 80.4353 136.3 78 133 78 129.7 78 127 80.4353 127 83.4118L127 95.5884C127 98.5649 129.7 101 133 101 136.3 101 139 98.5649 139 95.5884Z" stroke="#FFFFFF" stroke-width="2.29167" stroke-miterlimit="8" fill="#85D8D1" fill-rule="evenodd"/><path d="M129 90.9999 129 85.9999C129 83.2385 131.015 80.9999 133.5 80.9999 135.985 80.9999 138 83.2385 138 85.9999L138 90.9999Z" stroke="#FFFFFF" stroke-width="2.29167" stroke-linejoin="round" stroke-miterlimit="10" fill="#FFFFFF" fill-rule="evenodd"/><path d="M108 113C108 114.105 106.881 115 105.5 115 104.119 115 103 114.105 103 113 103 111.896 104.119 111 105.5 111 106.881 111 108 111.896 108 113Z" fill="#FFFFFF" fill-rule="evenodd"/><path d="M110.467 115.493C109.964 115.247 109.36 115.419 109.108 115.912L108.228 117.538 104.353 115.148C104.202 115.049 104.026 115 103.825 115L99.5478 115C99.1705 115 98.8434 115.197 98.6673 115.518L97.0319 118.474C96.7552 118.942 96.9564 119.558 97.4345 119.804 97.5854 119.878 97.7615 119.928 97.9125 119.928 98.2647 119.928 98.6169 119.731 98.7931 119.41L100.152 116.971 101.636 116.971 97.1829 125.102 93.0065 125.102C92.453 125.102 92.0001 125.545 92.0001 126.087 92.0001 126.629 92.453 127.073 93.0065 127.073L97.7867 127.073C98.1641 127.073 98.4911 126.875 98.6673 126.555L100.428 123.377 103.322 126.013 103.095 130.965C103.045 131.507 103.473 131.975 104.026 132 104.051 132 104.051 132 104.076 132 104.605 132 105.058 131.581 105.083 131.064L105.334 125.644C105.36 125.348 105.234 125.077 105.007 124.88L102.567 122.662 105.133 117.981 108.052 119.78C108.278 119.928 108.58 119.977 108.857 119.903 109.133 119.829 109.36 119.657 109.486 119.41L110.869 116.823C111.146 116.355 110.97 115.764 110.467 115.493Z" fill="#FFFFFF" fill-rule="evenodd"/></g></svg>