<svg
  width="24"
  height="24"
  viewBox="0 0 80 52"
  xmlns="http://www.w3.org/2000/svg"
  xmlns:xlink="http://www.w3.org/1999/xlink"
  xml:space="preserve"
  overflow="hidden">
  <defs>
    <clipPath id="clip0">
      <rect x="62" y="79" width="80" height="52"/>
    </clipPath>
  </defs>
  <g clip-path="url(#clip0)" transform="translate(-62 -79)">
<path d="M61.9999 107.107C61.9999 105.943 62.9431 105 64.1067 105L85.8932 105C87.0568 105 88 105.943 88 107.107L88 128.893C88 130.057 87.0568 131 85.8932 131L64.1067 131C62.9431 131 61.9999 130.057 61.9999 128.893Z" fill="#D62CD0" fill-rule="evenodd"/><path d="M89 107.107C89 105.943 89.9433 105 91.1068 105L112.893 105C114.057 105 115 105.943 115 107.107L115 128.893C115 130.057 114.057 131 112.893 131L91.1068 131C89.9433 131 89 130.057 89 128.893Z" fill="#D62CD0" fill-rule="evenodd"/><path d="M116 107.107C116 105.943 116.943 105 118.107 105L139.893 105C141.057 105 142 105.943 142 107.107L142 128.893C142 130.057 141.057 131 139.893 131L118.107 131C116.943 131 116 130.057 116 128.893Z" fill="#D62CD0" fill-rule="evenodd"/><path d="M116 81.1069C116 79.9433 116.943 79.0001 118.107 79.0001L139.893 79.0001C141.057 79.0001 142 79.9433 142 81.1069L142 102.893C142 104.057 141.057 105 139.893 105L118.107 105C116.943 105 116 104.057 116 102.893Z" fill="#D62CD0" fill-rule="evenodd"/><path d="M89 81.1069C89 79.9433 89.9433 79.0001 91.1068 79.0001L112.893 79.0001C114.057 79.0001 115 79.9433 115 81.1069L115 102.893C115 104.057 114.057 105 112.893 105L91.1068 105C89.9433 105 89 104.057 89 102.893Z" fill="#D62CD0" fill-rule="evenodd"/><path d="M61.9999 81.1069C61.9999 79.9433 62.9431 79.0001 64.1067 79.0001L85.8932 79.0001C87.0568 79.0001 88 79.9433 88 81.1069L88 102.893C88 104.057 87.0568 105 85.8932 105L64.1067 105C62.9431 105 61.9999 104.057 61.9999 102.893Z" fill="#5F605E" fill-rule="evenodd"/><path d="M136.761 118.742 135.139 116.065 135.139 115.975C135.237 113.509 133.909 111.191 131.682 109.945 129.456 108.685 126.689 108.685 124.463 109.945 122.232 111.187 120.901 113.507 121.006 115.975 120.997 118.091 122.024 120.089 123.781 121.375L123.781 127 131.212 127 131.212 124.322 132.364 124.322C133.107 124.327 133.82 124.043 134.339 123.535 134.854 123.029 135.141 122.351 135.139 121.645L135.139 120.295 136.173 120.295C136.787 120.25 137.328 119.575 136.761 118.742ZM127.435 117.877C127.895 117.81 128.135 118.361 127.85 118.729L127.808 118.78C127.505 119.134 126.877 119.06 126.833 118.618 126.807 118.358 126.451 118.092 126.288 118.293L125.245 119.575 124.289 118.863C124.079 118.706 124.358 118.366 124.628 118.341 125.092 118.299 125.169 117.698 124.798 117.408L124.745 117.368C124.36 117.095 123.784 117.325 123.855 117.765 123.896 118.022 123.62 118.364 123.409 118.208L122.507 117.536 123.555 116.248C123.719 116.047 123.361 115.782 123.092 115.822 122.632 115.889 122.392 115.338 122.677 114.97L122.719 114.919C123.022 114.565 123.65 114.639 123.694 115.081 123.72 115.34 124.076 115.607 124.24 115.406L125.282 114.123 126.179 114.791C126.389 114.949 126.111 115.288 125.84 115.313 125.377 115.355 125.299 115.956 125.67 116.246L125.723 116.286C126.108 116.559 126.685 116.329 126.614 115.889 126.573 115.632 126.848 115.289 127.059 115.447L128.021 116.162 126.973 117.451C126.809 117.652 127.166 117.917 127.435 117.877ZM131.002 114.15C130.822 114.283 130.587 113.991 130.622 113.772 130.683 113.397 130.181 113.209 129.852 113.441L129.807 113.475C129.49 113.723 129.568 114.226 129.962 114.263 130.193 114.285 130.43 114.575 130.251 114.708L129.481 115.28 128.589 114.181C128.45 114.01 128.146 114.237 128.124 114.457 128.086 114.835 127.56 114.909 127.301 114.606L127.265 114.562C127.023 114.247 127.218 113.767 127.61 113.825 127.839 113.859 128.144 113.634 128.005 113.462L127.117 112.369 127.882 111.8C128.062 111.667 128.297 111.958 128.262 112.178 128.201 112.553 128.703 112.74 129.032 112.509L129.079 112.475C129.395 112.227 129.318 111.724 128.923 111.687 128.692 111.666 128.454 111.376 128.635 111.242L129.455 110.633 130.347 111.731C130.486 111.903 130.789 111.676 130.812 111.455 130.85 111.077 131.376 111.004 131.635 111.307L131.67 111.35C131.913 111.665 131.717 112.145 131.325 112.087 131.096 112.053 130.791 112.278 130.93 112.45L131.817 113.545Z" fill="#FFFFFF" fill-rule="evenodd"/><path d="M84.0399 91.0001 72.9999 91.0001 72.9999 96.8182C73.0015 97.3531 73.4303 97.7863 73.9599 97.7879L83.5599 97.7879 83.5599 99 84.9999 99 84.9999 91.9698C84.9983 91.4349 84.5694 91.0017 84.0399 91.0001Z" fill="#FFFFFF" fill-rule="evenodd"/><path d="M66.5429 88.7501C66.5507 88.3434 66.2178 88.0077 65.7995 88.0001 65.7902 88 65.7809 88 65.7715 88.0001 65.3532 87.9926 65.0078 88.3162 65.0001 88.7229 64.9999 88.732 64.9999 88.7411 65.0001 88.7501L65.0001 100 66.5429 100 66.5429 97.5001 73.9999 97.5001 73.9999 95.0001 66.5429 92.0001Z" fill="#FFFFFF" fill-rule="evenodd"/><path d="M72.5001 88C72.5001 88.8284 71.8285 89.4999 71 89.4999 70.1715 89.4999 69.4999 88.8284 69.4999 88 69.4999 87.1716 70.1715 86.5001 71 86.5001 71.8285 86.5001 72.5001 87.1716 72.5001 88Z" stroke="#FFFFFF" stroke-width="4.58333" stroke-miterlimit="8" fill="#FFFFFF" fill-rule="evenodd"/><path d="M70.5 93.9885 74.5001 95.5001 74.5001 92.878 73.9893 92.6843C72.6287 92.1748 71.0697 92.7575 70.5 93.9885Z" stroke="#FFFFFF" stroke-width="4.58333" stroke-miterlimit="8" fill="#FFFFFF" fill-rule="evenodd"/><path d="M110 86.0002C110 83.8002 108.925 82.0002 106.75 82.0002 104.575 82.0002 104.65 83.0002 102.5 83.0002 100.35 83.0002 100.425 82.0002 98.2499 82.0002 96.0749 82.0002 94.9999 83.8002 94.9999 86.0002 94.9999 88.2002 96.7499 90.3751 96.7499 92.2501 96.7499 94.0251 96.4999 95.5251 96.4999 96.7501 96.4999 97.9751 96.4749 102 98.2499 102 100.025 102 99.9999 98.3501 99.9999 96.7501 99.9999 95.1501 100.2 92.7502 102.5 92.7502 104.8 92.7502 105 95.1501 105 96.7501 105 98.3501 104.975 102 106.75 102 108.525 102 108.5 97.9751 108.5 96.7501 108.5 95.5251 108.25 94.0251 108.25 92.2501 108.25 90.3751 110 88.2002 110 86.0002Z" fill="#FFFFFF" fill-rule="evenodd"/><path d="M70.0002 124C70.0002 125.105 69.3286 126 68.5001 126 67.6716 126 67 125.105 67 124 67 122.896 67.6716 122 68.5001 122 69.3286 122 70.0002 122.896 70.0002 124Z" stroke="#FFFFFF" stroke-width="2.29167" stroke-miterlimit="8" fill="#FFFFFF" fill-rule="evenodd"/><path d="M83.9999 124C83.9999 125.105 83.1045 126 82 126 80.8955 126 80.0001 125.105 80.0001 124 80.0001 122.896 80.8955 122 82 122 83.1045 122 83.9999 122.896 83.9999 124Z" stroke="#FFFFFF" stroke-width="2.29167" stroke-miterlimit="8" fill="#FFFFFF" fill-rule="evenodd"/><path d="M85.56 119.309 84.1024 118.218C83.9112 118.077 83.7752 117.875 83.7174 117.646L83.1674 115.764C82.887 114.834 82.0289 114.193 81.0499 114.182L80.4999 114.182 80.4999 112.818C80.4999 112.366 80.1306 112 79.6749 112L79.1249 112C78.6693 112 78.2999 112.366 78.2999 112.818L78.2999 114.182 78.2999 114.182 78.2999 113.636C78.2999 113.034 77.8074 112.546 77.2 112.546L65.0999 112.546C64.4924 112.546 63.9999 113.034 63.9999 113.636L63.9999 122.909C63.9999 123.512 64.4924 124 65.0999 124L65.6499 124C65.6499 122.494 66.8812 121.273 68.4 121.273 69.9187 121.273 71.15 122.494 71.15 124L79.4 124C79.4 122.494 80.6312 121.273 82.15 121.273 83.6687 121.273 84.9 122.494 84.9 124 85.5074 124 86 123.512 86 122.909L86 120.182C86 119.839 85.8369 119.515 85.56 119.309ZM75.0687 118.218 74.2437 119.636 72.7999 118.818 72.7999 120.455 71.15 120.455 71.15 118.802 69.7062 119.62 68.8812 118.202 70.3249 117.384 68.8812 116.566 69.7062 115.147 71.15 115.966 71.15 114.313 72.7999 114.313 72.7999 115.968 74.2437 115.15 75.0687 116.568 73.6249 117.386ZM79.4 118 79.4 115.273 81.0499 115.273C81.5404 115.266 81.9721 115.593 82.0949 116.064L82.645 117.946C82.645 117.973 82.6724 117.973 82.6724 118Z" fill="#FFFFFF" fill-rule="evenodd"/><path d="M126.5 91.5002 126.5 86.4707C126.5 85.2414 127.625 84.2355 129 84.2355 130.375 84.2355 131.5 85.2414 131.5 86.4707L131.5 91.5002 126.5 91.5002ZM134 96.5296 134 86.4707C134 84.0119 131.75 82.0002 129 82.0002 126.25 82.0002 124 84.0119 124 86.4707L124 96.5296C124 98.9884 126.25 101 129 101 131.75 101 134 98.9884 134 96.5296Z" stroke="#FFFFFF" stroke-width="2.29167" stroke-miterlimit="8" fill="#85D8D1" fill-rule="evenodd"/><path d="M125 93.0002 125 88.5C125 86.0147 126.791 83.9999 129 83.9999 131.209 83.9999 133 86.0147 133 88.5L133 93.0002Z" stroke="#FFFFFF" stroke-width="2.29167" stroke-linejoin="round" stroke-miterlimit="10" fill="#FFFFFF" fill-rule="evenodd"/><path d="M107 110.5C107 111.328 106.328 112 105.5 112 104.672 112 104 111.328 104 110.5 104 109.672 104.672 109 105.5 109 106.328 109 107 109.672 107 110.5Z" fill="#FFFFFF" fill-rule="evenodd"/><path d="M109.551 113.406C109.127 113.203 108.619 113.345 108.407 113.751L107.665 115.09 104.403 113.122C104.275 113.041 104.127 113 103.958 113L100.356 113C100.038 113 99.7627 113.162 99.6143 113.426L98.2372 115.861C98.0042 116.246 98.1736 116.754 98.5762 116.957 98.7033 117.017 98.8516 117.058 98.9787 117.058 99.2753 117.058 99.572 116.896 99.7203 116.632L100.864 114.623 102.114 114.623 98.3643 121.319 94.8473 121.319C94.3812 121.319 93.9998 121.684 93.9998 122.13 93.9998 122.577 94.3812 122.942 94.8473 122.942L98.8728 122.942C99.1906 122.942 99.466 122.78 99.6143 122.516L101.097 119.899 103.534 122.069 103.343 126.148C103.301 126.594 103.661 126.98 104.127 127 104.148 127 104.148 127 104.17 127 104.614 127 104.996 126.655 105.017 126.229L105.229 121.765C105.25 121.522 105.144 121.299 104.953 121.136L102.898 119.31 105.059 115.455 107.517 116.936C107.708 117.058 107.962 117.099 108.195 117.038 108.428 116.977 108.619 116.835 108.725 116.632L109.89 114.502C110.123 114.116 109.975 113.629 109.551 113.406Z" fill="#FFFFFF" fill-rule="evenodd"/></g></svg>
