<svg width="95" height="61" xmlns="http://www.w3.org/2000/svg" xmlns:xlink="http://www.w3.org/1999/xlink" xml:space="preserve" overflow="hidden"><defs><clipPath id="clip0"><rect x="368" y="74" width="95" height="61"/></clipPath></defs><g clip-path="url(#clip0)" transform="translate(-368 -74)"><path d="M368 107.431C368 106.088 369.089 105 370.431 105L396.569 105C397.912 105 399 106.088 399 107.431L399 132.569C399 133.911 397.912 134.999 396.569 134.999L370.431 134.999C369.089 134.999 368 133.911 368 132.569Z" fill="#5F605E" fill-rule="evenodd"/><path d="M400 107.431C400 106.088 401.088 105 402.431 105L428.569 105C429.912 105 431 106.088 431 107.431L431 132.569C431 133.911 429.912 134.999 428.569 134.999L402.431 134.999C401.088 134.999 400 133.911 400 132.569Z" fill="#D62CD0" fill-rule="evenodd"/><path d="M432 107.431C432 106.088 433.088 105 434.431 105L460.569 105C461.912 105 463 106.088 463 107.431L463 132.569C463 133.911 461.912 134.999 460.569 134.999L434.431 134.999C433.088 134.999 432 133.911 432 132.569Z" fill="#5F605E" fill-rule="evenodd"/><path d="M432 76.4308C432 75.0882 433.088 73.9999 434.431 73.9999L460.569 73.9999C461.912 73.9999 463 75.0882 463 76.4308L463 101.569C463 102.911 461.912 103.999 460.569 103.999L434.431 103.999C433.088 103.999 432 102.911 432 101.569Z" fill="#D62CD0" fill-rule="evenodd"/><path d="M400 76.4308C400 75.0882 401.088 73.9999 402.431 73.9999L428.569 73.9999C429.912 73.9999 431 75.0882 431 76.4308L431 101.569C431 102.911 429.912 103.999 428.569 103.999L402.431 103.999C401.088 103.999 400 102.911 400 101.569Z" fill="#5F605E" fill-rule="evenodd"/><path d="M368 76.4308C368 75.0882 369.089 73.9999 370.431 73.9999L396.569 73.9999C397.912 73.9999 399 75.0882 399 76.4308L399 101.569C399 102.911 397.912 103.999 396.569 103.999L370.431 103.999C369.089 103.999 368 102.911 368 101.569Z" fill="#5F605E" fill-rule="evenodd"/><path d="M455.731 120.907 453.906 117.635 453.906 117.525C454.017 114.511 452.522 111.678 450.017 110.155 447.512 108.615 444.4 108.615 441.895 110.155 439.385 111.673 437.889 114.509 438.006 117.525 437.997 120.111 439.152 122.553 441.128 124.125L441.128 131 449.488 131 449.488 127.727 450.784 127.727C451.62 127.733 452.422 127.386 453.006 126.765 453.585 126.147 453.908 125.318 453.906 124.455L453.906 122.805 455.07 122.805C455.76 122.75 456.369 121.925 455.731 120.907ZM445.24 119.85C445.757 119.767 446.027 120.441 445.706 120.891L445.659 120.954C445.318 121.387 444.612 121.296 444.562 120.755 444.533 120.438 444.133 120.112 443.949 120.358L442.776 121.925 441.7 121.055C441.464 120.863 441.777 120.448 442.082 120.417 442.603 120.365 442.69 119.631 442.273 119.277L442.213 119.228C441.78 118.894 441.132 119.175 441.212 119.713 441.258 120.027 440.947 120.446 440.711 120.254L439.696 119.433 440.874 117.859C441.059 117.613 440.656 117.29 440.353 117.338 439.836 117.42 439.566 116.747 439.887 116.297L439.934 116.234C440.275 115.801 440.981 115.892 441.031 116.433 441.06 116.749 441.46 117.075 441.645 116.83L442.818 115.262 443.826 116.078C444.063 116.271 443.75 116.685 443.445 116.716 442.924 116.768 442.837 117.502 443.254 117.856L443.314 117.905C443.747 118.239 444.395 117.957 444.316 117.42 444.269 117.106 444.579 116.687 444.817 116.879L445.898 117.754 444.719 119.329C444.535 119.575 444.937 119.898 445.24 119.85ZM449.252 115.294C449.05 115.457 448.785 115.1 448.825 114.832 448.894 114.374 448.328 114.145 447.959 114.428L447.908 114.47C447.551 114.773 447.639 115.387 448.082 115.433 448.342 115.46 448.609 115.814 448.407 115.976L447.541 116.675 446.538 115.333C446.381 115.123 446.04 115.4 446.014 115.67 445.971 116.132 445.379 116.222 445.088 115.852L445.048 115.798C444.775 115.413 444.995 114.826 445.436 114.897 445.694 114.939 446.037 114.664 445.881 114.454L444.882 113.117 445.743 112.423C445.945 112.26 446.209 112.615 446.169 112.884 446.101 113.343 446.666 113.572 447.036 113.288L447.088 113.247C447.444 112.944 447.357 112.329 446.913 112.284 446.654 112.258 446.386 111.904 446.589 111.74L447.512 110.996 448.515 112.338C448.672 112.548 449.013 112.271 449.038 112.001 449.081 111.539 449.673 111.449 449.964 111.819L450.004 111.873C450.277 112.258 450.057 112.844 449.615 112.773 449.358 112.732 449.015 113.007 449.171 113.217L450.169 114.555Z" fill="#FFFFFF" fill-rule="evenodd"/><path d="M395.8 87 382 87 382 94.2727C382.002 94.9413 382.538 95.4828 383.2 95.4848L395.2 95.4848 395.2 97 397 97 397 88.2121C396.998 87.5435 396.462 87.002 395.8 87Z" fill="#FFFFFF" fill-rule="evenodd"/><path d="M374.714 84.875C374.723 84.4005 374.353 84.0088 373.888 84 373.878 83.9998 373.868 83.9998 373.857 84 373.392 83.9912 373.009 84.3687 373 84.8432 373 84.8538 373 84.8644 373 84.875L373 98 374.714 98 374.714 95.0834 383 95.0834 383 92.1667 374.714 88.6667Z" fill="#FFFFFF" fill-rule="evenodd"/><path d="M380.5 84.0001C380.5 84.8285 379.828 85.5001 379 85.5001 378.172 85.5001 377.5 84.8285 377.5 84.0001 377.5 83.1716 378.172 82.5 379 82.5 379.828 82.5 380.5 83.1716 380.5 84.0001Z" stroke="#FFFFFF" stroke-width="4.58333" stroke-miterlimit="8" fill="#FFFFFF" fill-rule="evenodd"/><path d="M379.5 89.9883 384.5 91.5 384.5 88.8779 383.862 88.6842C382.161 88.1746 380.212 88.7573 379.5 89.9883Z" stroke="#FFFFFF" stroke-width="4.58333" stroke-miterlimit="8" fill="#FFFFFF" fill-rule="evenodd"/><path d="M425 81.8C425 79.16 423.71 77 421.1 77 418.49 77 418.58 78.2 416 78.2 413.42 78.2 413.51 77 410.9 77 408.29 77 407 79.16 407 81.8 407 84.44 409.1 87.05 409.1 89.3 409.1 91.4301 408.8 93.23 408.8 94.7 408.8 96.1701 408.77 101 410.9 101 413.03 101 413 96.6201 413 94.7 413 92.7801 413.24 89.9001 416 89.9001 418.76 89.9001 419 92.7801 419 94.7 419 96.6201 418.97 101 421.1 101 423.23 101 423.2 96.1701 423.2 94.7 423.2 93.23 422.9 91.4301 422.9 89.3 422.9 87.05 425 84.44 425 81.8Z" fill="#FFFFFF" fill-rule="evenodd"/><path d="M378 126.5C378 127.881 377.105 129 376 129 374.895 129 374 127.881 374 126.5 374 125.119 374.895 124 376 124 377.105 124 378 125.119 378 126.5Z" stroke="#FFFFFF" stroke-width="2.29167" stroke-miterlimit="8" fill="#FFFFFF" fill-rule="evenodd"/><path d="M394 126.5C394 127.881 392.881 129 391.5 129 390.119 129 389 127.881 389 126.5 389 125.119 390.119 124 391.5 124 392.881 124 394 125.119 394 126.5Z" stroke="#FFFFFF" stroke-width="2.29167" stroke-miterlimit="8" fill="#FFFFFF" fill-rule="evenodd"/><path d="M396.48 122.136 394.758 120.773C394.532 120.596 394.371 120.343 394.303 120.057L393.653 117.705C393.321 116.542 392.307 115.741 391.15 115.727L390.5 115.727 390.5 114.023C390.5 113.458 390.063 113 389.525 113L388.875 113C388.337 113 387.9 113.458 387.9 114.023L387.9 115.727 387.9 115.727 387.9 115.046C387.9 114.292 387.318 113.682 386.6 113.682L372.3 113.682C371.582 113.682 371 114.292 371 115.046L371 126.636C371 127.389 371.582 128 372.3 128L372.95 128C372.95 126.117 374.405 124.591 376.2 124.591 377.995 124.591 379.45 126.117 379.45 128L389.2 128C389.2 126.117 390.655 124.591 392.45 124.591 394.245 124.591 395.7 126.117 395.7 128 396.418 128 397 127.389 397 126.636L397 123.227C397 122.798 396.807 122.394 396.48 122.136ZM384.081 120.773 383.106 122.545 381.4 121.523 381.4 123.568 379.45 123.568 379.45 121.502 377.744 122.525 376.769 120.752 378.475 119.73 376.769 118.707 377.744 116.934 379.45 117.957 379.45 115.891 381.4 115.891 381.4 117.96 383.106 116.938 384.081 118.71 382.375 119.733ZM389.2 120.5 389.2 117.091 391.15 117.091C391.73 117.083 392.24 117.491 392.385 118.08L393.035 120.432C393.035 120.466 393.068 120.466 393.068 120.5Z" fill="#FFFFFF" fill-rule="evenodd"/><path d="M444 88.5001 444 82.4118C444 80.9236 445.35 79.7059 447 79.7059 448.65 79.7059 450 80.9236 450 82.4118L450 88.5001 444 88.5001ZM453 94.5883 453 82.4118C453 79.4353 450.3 77 447 77 443.7 77 441 79.4353 441 82.4118L441 94.5883C441 97.5648 443.7 100 447 100 450.3 100 453 97.5648 453 94.5883Z" stroke="#FFFFFF" stroke-width="2.29167" stroke-miterlimit="8" fill="#85D8D1" fill-rule="evenodd"/><path d="M443 90.0001 443 84.5001C443 81.4625 445.015 79.0001 447.5 79.0001 449.985 79.0001 452 81.4625 452 84.5001L452 90.0001Z" stroke="#FFFFFF" stroke-width="2.29167" stroke-linejoin="round" stroke-miterlimit="10" fill="#FFFFFF" fill-rule="evenodd"/><path d="M422 111C422 112.105 421.105 113 420 113 418.895 113 418 112.105 418 111 418 109.895 418.895 109 420 109 421.105 109 422 109.895 422 111Z" fill="#FFFFFF" fill-rule="evenodd"/><path d="M424.467 114.493C423.963 114.246 423.36 114.419 423.108 114.912L422.227 116.538 418.353 114.148C418.202 114.049 418.026 114 417.825 114L413.548 114C413.17 114 412.843 114.197 412.667 114.518L411.032 117.474C410.755 117.942 410.956 118.558 411.434 118.804 411.585 118.878 411.761 118.928 411.912 118.928 412.265 118.928 412.617 118.731 412.793 118.41L414.151 115.971 415.636 115.971 411.183 124.101 407.006 124.101C406.453 124.101 406 124.545 406 125.087 406 125.629 406.453 126.072 407.006 126.072L411.787 126.072C412.164 126.072 412.491 125.875 412.667 125.555L414.428 122.377 417.322 125.013 417.095 129.965C417.045 130.507 417.472 130.975 418.026 131 418.051 131 418.051 131 418.076 131 418.605 131 419.057 130.581 419.083 130.064L419.334 124.644C419.359 124.348 419.234 124.077 419.007 123.88L416.567 121.662 419.133 116.981 422.051 118.78C422.278 118.928 422.58 118.977 422.856 118.903 423.133 118.829 423.36 118.657 423.485 118.41L424.869 115.823C425.146 115.355 424.97 114.764 424.467 114.493Z" fill="#FFFFFF" fill-rule="evenodd"/></g></svg>