<svg
  xmlns="http://www.w3.org/2000/svg"
  viewBox="62 79 80 52"
  width="24"
  height="24"
  preserveAspectRatio="xMidYMid meet">

  <path d="M61.9999 107.107C61.9999 105.943 62.9431 105 64.1067 105L85.8932 105C87.0568 105 88 105.943 88 107.107L88 128.893C88 130.057 87.0568 131 85.8932 131L64.1067 131C62.9431 131 61.9999 130.057 61.9999 128.893Z" fill="#D62CD0" fill-rule="evenodd"/>

  <path d="M89 107.107C89 105.943 89.9433 105 91.1068 105L112.893 105C114.057 105 115 105.943 115 107.107L115 128.893C115 130.057 114.057 131 112.893 131L91.1068 131C89.9433 131 89 130.057 89 128.893Z" fill="#D62CD0" fill-rule="evenodd"/>

  <path d="M116 107.107C116 105.943 116.943 105 118.107 105L139.893 105C141.057 105 142 105.943 142 107.107L142 128.893C142 130.057 141.057 131 139.893 131L118.107 131C116.943 131 116 130.057 116 128.893Z" fill="#D62CD0" fill-rule="evenodd"/>

  <path d="M116 81.1069C116 79.9433 116.943 79.0001 118.107 79.0001L139.893 79.0001C141.057 79.0001 142 79.9433 142 81.1069L142 102.893C142 104.057 141.057 105 139.893 105L118.107 105C116.943 105 116 104.057 116 102.893Z" fill="#D62CD0" fill-rule="evenodd"/>

  <path d="M89 81.1069C89 79.9433 89.9433 79.0001 91.1068 79.0001L112.893 79.0001C114.057 79.0001 115 79.9433 115 81.1069L115 102.893C115 104.057 114.057 105 112.893 105L91.1068 105C89.9433 105 89 104.057 89 102.893Z" fill="#D62CD0" fill-rule="evenodd"/>

  <path d="M61.9999 81.1069C61.9999 79.9433 62.9431 79.0001 64.1067 79.0001L85.8932 79.0001C87.0568 79.0001 88 79.9433 88 81.1069L88 102.893C88 104.057 87.0568 105 85.8932 105L64.1067 105C62.9431 105 61.9999 104.057 61.9999 102.893Z" fill="#5F605E" fill-rule="evenodd"/>

  <!-- ALL remaining paths unchanged -->
</svg>
