<svg width="80" height="52" xmlns="http://www.w3.org/2000/svg" xmlns:xlink="http://www.w3.org/1999/xlink" xml:space="preserve" overflow="hidden"><defs><clipPath id="clip0"><rect x="365" y="76" width="80" height="52"/></clipPath></defs><g clip-path="url(#clip0)" transform="translate(-365 -76)"><path d="M365 104.107C365 102.943 365.943 102 367.107 102L388.893 102C390.057 102 391 102.943 391 104.107L391 125.893C391 127.057 390.057 128 388.893 128L367.107 128C365.943 128 365 127.057 365 125.893Z" fill="#5F605E" fill-rule="evenodd"/><path d="M392 104.107C392 102.943 392.943 102 394.107 102L415.893 102C417.057 102 418 102.943 418 104.107L418 125.893C418 127.057 417.057 128 415.893 128L394.107 128C392.943 128 392 127.057 392 125.893Z" fill="#D62CD0" fill-rule="evenodd"/><path d="M419 104.107C419 102.943 419.943 102 421.107 102L442.893 102C444.057 102 445 102.943 445 104.107L445 125.893C445 127.057 444.057 128 442.893 128L421.107 128C419.943 128 419 127.057 419 125.893Z" fill="#5F605E" fill-rule="evenodd"/><path d="M419 78.0257C419 76.9069 419.907 76 421.026 76L442.974 76C444.093 76 445 76.9069 445 78.0257L445 98.9743C445 100.093 444.093 101 442.974 101L421.026 101C419.907 101 419 100.093 419 98.9743Z" fill="#D62CD0" fill-rule="evenodd"/><path d="M392 78.0257C392 76.9069 392.907 76 394.026 76L415.974 76C417.093 76 418 76.9069 418 78.0257L418 98.9743C418 100.093 417.093 101 415.974 101L394.026 101C392.907 101 392 100.093 392 98.9743Z" fill="#5F605E" fill-rule="evenodd"/><path d="M365 78.0257C365 76.9069 365.907 76 367.026 76L388.974 76C390.093 76 391 76.9069 391 78.0257L391 98.9743C391 100.093 390.093 101 388.974 101L367.026 101C365.907 101 365 100.093 365 98.9743Z" fill="#5F605E" fill-rule="evenodd"/><path d="M439.761 115.743 438.138 113.065 438.138 112.975C438.237 110.509 436.908 108.191 434.682 106.945 432.455 105.685 429.689 105.685 427.462 106.945 425.231 108.187 423.901 110.507 424.006 112.975 423.997 115.091 425.024 117.089 426.78 118.375L426.78 124 434.211 124 434.211 121.323 435.364 121.323C436.107 121.327 436.819 121.043 437.339 120.535 437.853 120.029 438.14 119.351 438.138 118.645L438.138 117.295 439.173 117.295C439.787 117.25 440.328 116.575 439.761 115.743ZM430.435 114.877C430.895 114.81 431.135 115.361 430.85 115.729L430.808 115.78C430.505 116.134 429.877 116.06 429.833 115.618 429.807 115.358 429.451 115.092 429.288 115.293L428.245 116.575 427.289 115.863C427.079 115.706 427.357 115.366 427.628 115.341 428.091 115.299 428.169 114.698 427.798 114.408L427.745 114.368C427.36 114.095 426.784 114.325 426.855 114.765 426.896 115.022 426.62 115.365 426.409 115.208L425.507 114.536 426.554 113.248C426.719 113.047 426.361 112.782 426.092 112.822 425.632 112.889 425.392 112.338 425.677 111.97L425.719 111.919C426.022 111.565 426.65 111.639 426.694 112.081 426.72 112.34 427.076 112.607 427.239 112.406L428.282 111.123 429.179 111.791C429.389 111.949 429.111 112.288 428.84 112.313 428.376 112.355 428.299 112.956 428.67 113.246L428.723 113.286C429.108 113.559 429.685 113.329 429.614 112.889 429.572 112.632 429.848 112.289 430.059 112.447L431.021 113.162 429.973 114.451C429.809 114.652 430.166 114.917 430.435 114.877ZM434.001 111.15C433.822 111.283 433.587 110.991 433.622 110.772 433.683 110.397 433.181 110.209 432.852 110.441L432.807 110.475C432.49 110.723 432.568 111.226 432.962 111.263 433.193 111.285 433.43 111.575 433.251 111.708L432.481 112.28 431.589 111.181C431.45 111.01 431.146 111.237 431.124 111.457 431.086 111.835 430.559 111.909 430.301 111.606L430.265 111.562C430.023 111.247 430.217 110.767 430.61 110.825 430.839 110.859 431.144 110.634 431.005 110.462L430.117 109.369 430.882 108.8C431.062 108.667 431.297 108.958 431.262 109.178 431.201 109.553 431.703 109.74 432.031 109.509L432.079 109.475C432.395 109.227 432.317 108.724 431.923 108.687 431.692 108.666 431.454 108.376 431.635 108.242L432.455 107.633 433.346 108.731C433.486 108.903 433.789 108.676 433.812 108.455 433.85 108.077 434.376 108.004 434.635 108.307L434.67 108.35C434.912 108.665 434.717 109.145 434.325 109.087 434.096 109.053 433.791 109.278 433.93 109.45L434.817 110.545Z" fill="#FFFFFF" fill-rule="evenodd"/><path d="M387.04 88 376 88 376 93.8181C376.002 94.353 376.431 94.7862 376.96 94.7878L386.56 94.7878 386.56 95.9999 388 95.9999 388 88.9697C387.999 88.4348 387.57 88.0016 387.04 88Z" fill="#FFFFFF" fill-rule="evenodd"/><path d="M370.371 85.75C370.378 85.3433 370.082 85.0076 369.711 85 369.702 84.9999 369.694 84.9999 369.686 85 369.314 84.9925 369.007 85.3161 369 85.7228 369 85.7319 369 85.741 369 85.75L369 97 370.371 97 370.371 94.5 377 94.5 377 92 370.371 89Z" fill="#FFFFFF" fill-rule="evenodd"/><path d="M375.5 85.0001C375.5 85.8286 374.828 86.5002 374 86.5002 373.172 86.5002 372.5 85.8286 372.5 85.0001 372.5 84.1716 373.172 83.5 374 83.5 374.828 83.5 375.5 84.1716 375.5 85.0001Z" stroke="#FFFFFF" stroke-width="4.58333" stroke-miterlimit="8" fill="#FFFFFF" fill-rule="evenodd"/><path d="M373.5 89.9883 377.5 91.5 377.5 88.8779 376.989 88.6842C375.629 88.1746 374.07 88.7573 373.5 89.9883Z" stroke="#FFFFFF" stroke-width="4.58333" stroke-miterlimit="8" fill="#FFFFFF" fill-rule="evenodd"/><path d="M413 82C413 79.8 411.925 78 409.75 78 407.575 78 407.65 79 405.5 79 403.35 79 403.425 78 401.25 78 399.075 78 398 79.8 398 82 398 84.2 399.75 86.375 399.75 88.25 399.75 90.025 399.5 91.525 399.5 92.75 399.5 93.975 399.475 98 401.25 98 403.025 98 403 94.35 403 92.75 403 91.15 403.2 88.75 405.5 88.75 407.8 88.75 408 91.15 408 92.75 408 94.35 407.975 98 409.75 98 411.525 98 411.5 93.975 411.5 92.75 411.5 91.525 411.25 90.025 411.25 88.25 411.25 86.375 413 84.2 413 82Z" fill="#FFFFFF" fill-rule="evenodd"/><path d="M373 120C373 121.105 372.328 122 371.5 122 370.671 122 370 121.105 370 120 370 118.895 370.671 118 371.5 118 372.328 118 373 118.895 373 120Z" stroke="#FFFFFF" stroke-width="2.29167" stroke-miterlimit="8" fill="#FFFFFF" fill-rule="evenodd"/><path d="M387 120C387 121.105 386.105 122 385 122 383.895 122 383 121.105 383 120 383 118.895 383.895 118 385 118 386.105 118 387 118.895 387 120Z" stroke="#FFFFFF" stroke-width="2.29167" stroke-miterlimit="8" fill="#FFFFFF" fill-rule="evenodd"/><path d="M388.56 116.309 387.103 115.218C386.911 115.077 386.775 114.875 386.718 114.645L386.168 112.764C385.887 111.833 385.029 111.192 384.05 111.182L383.5 111.182 383.5 109.818C383.5 109.366 383.131 109 382.675 109L382.125 109C381.669 109 381.3 109.366 381.3 109.818L381.3 111.182 381.3 111.182 381.3 110.636C381.3 110.034 380.808 109.545 380.2 109.545L368.1 109.545C367.493 109.545 367 110.034 367 110.636L367 119.909C367 120.512 367.493 121 368.1 121L368.65 121C368.65 119.494 369.881 118.273 371.4 118.273 372.919 118.273 374.15 119.494 374.15 121L382.4 121C382.4 119.494 383.631 118.273 385.15 118.273 386.669 118.273 387.9 119.494 387.9 121 388.508 121 389 120.512 389 119.909L389 117.182C389 116.838 388.837 116.515 388.56 116.309ZM378.069 115.218 377.244 116.636 375.8 115.818 375.8 117.455 374.15 117.455 374.15 115.802 372.706 116.62 371.881 115.202 373.325 114.384 371.881 113.565 372.706 112.147 374.15 112.965 374.15 111.313 375.8 111.313 375.8 112.968 377.244 112.15 378.069 113.568 376.625 114.386ZM382.4 115 382.4 112.273 384.05 112.273C384.541 112.266 384.972 112.593 385.095 113.064L385.645 114.945C385.645 114.973 385.673 114.973 385.673 115Z" fill="#FFFFFF" fill-rule="evenodd"/><path d="M429.5 87.9999 429.5 82.7057C429.5 81.4116 430.625 80.3528 432 80.3528 433.375 80.3528 434.5 81.4116 434.5 82.7057L434.5 87.9999 429.5 87.9999ZM437 93.294 437 82.7057C437 80.1175 434.75 77.9999 432 77.9999 429.25 77.9999 427 80.1175 427 82.7057L427 93.294C427 95.8822 429.25 97.9999 432 97.9999 434.75 97.9999 437 95.8822 437 93.294Z" stroke="#FFFFFF" stroke-width="2.29167" stroke-miterlimit="8" fill="#85D8D1" fill-rule="evenodd"/><path d="M428 88.9999 428 84.4999C428 82.0146 429.791 79.9999 432 79.9999 434.209 79.9999 436 82.0146 436 84.4999L436 88.9999Z" stroke="#FFFFFF" stroke-width="2.29167" stroke-linejoin="round" stroke-miterlimit="10" fill="#FFFFFF" fill-rule="evenodd"/><path d="M410 107.5C410 108.328 409.329 109 408.5 109 407.672 109 407 108.328 407 107.5 407 106.671 407.672 106 408.5 106 409.329 106 410 106.671 410 107.5Z" fill="#FFFFFF" fill-rule="evenodd"/><path d="M412.551 109.435C412.127 109.217 411.619 109.37 411.407 109.804L410.665 111.239 407.403 109.13C407.275 109.043 407.127 109 406.958 109L403.356 109C403.038 109 402.763 109.174 402.614 109.457L401.237 112.065C401.004 112.478 401.174 113.022 401.576 113.239 401.703 113.304 401.852 113.348 401.979 113.348 402.275 113.348 402.572 113.174 402.72 112.891L403.864 110.739 405.114 110.739 401.364 117.913 397.847 117.913C397.381 117.913 397 118.304 397 118.783 397 119.261 397.381 119.652 397.847 119.652L401.873 119.652C402.191 119.652 402.466 119.478 402.614 119.196L404.097 116.391 406.534 118.717 406.343 123.087C406.301 123.565 406.661 123.978 407.127 124 407.148 124 407.148 124 407.169 124 407.614 124 407.996 123.631 408.017 123.174L408.229 118.391C408.25 118.13 408.144 117.891 407.953 117.717L405.898 115.761 408.059 111.63 410.517 113.217C410.708 113.348 410.962 113.391 411.195 113.326 411.428 113.261 411.619 113.109 411.725 112.891L412.89 110.609C413.123 110.196 412.975 109.674 412.551 109.435Z" fill="#FFFFFF" fill-rule="evenodd"/></g></svg>