<svg width="79" height="54" xmlns="http://www.w3.org/2000/svg" xmlns:xlink="http://www.w3.org/1999/xlink" xml:space="preserve" overflow="hidden"><defs><clipPath id="clip0"><rect x="353" y="276" width="79" height="54"/></clipPath></defs><g clip-path="url(#clip0)" transform="translate(-353 -276)"><path d="M353 305.107C353 303.943 353.943 303 355.107 303L376.893 303C378.057 303 379 303.943 379 305.107L379 327.893C379 329.057 378.057 330 376.893 330L355.107 330C353.943 330 353 329.057 353 327.893Z" fill="#D62CD0" fill-rule="evenodd"/><path d="M380 305.026C380 303.907 380.907 303 382.026 303L402.974 303C404.093 303 405 303.907 405 305.026L405 327.974C405 329.093 404.093 330 402.974 330L382.026 330C380.907 330 380 329.093 380 327.974Z" fill="#D62CD0" fill-rule="evenodd"/><path d="M406 305.107C406 303.943 406.943 303 408.107 303L429.893 303C431.057 303 432 303.943 432 305.107L432 327.893C432 329.057 431.057 330 429.893 330L408.107 330C406.943 330 406 329.057 406 327.893Z" fill="#D62CD0" fill-rule="evenodd"/><path d="M406 278.107C406 276.943 406.943 276 408.107 276L429.893 276C431.057 276 432 276.943 432 278.107L432 299.893C432 301.057 431.057 302 429.893 302L408.107 302C406.943 302 406 301.057 406 299.893Z" fill="#D62CD0" fill-rule="evenodd"/><path d="M380 278.026C380 276.907 380.907 276 382.026 276L402.974 276C404.093 276 405 276.907 405 278.026L405 299.974C405 301.093 404.093 302 402.974 302L382.026 302C380.907 302 380 301.093 380 299.974Z" fill="#D62CD0" fill-rule="evenodd"/><path d="M353 278.107C353 276.943 353.943 276 355.107 276L376.893 276C378.057 276 379 276.943 379 278.107L379 299.893C379 301.057 378.057 302 376.893 302L355.107 302C353.943 302 353 301.057 353 299.893Z" fill="#5F605E" fill-rule="evenodd"/><path d="M426.761 317.284 425.138 314.457 425.138 314.362C425.237 311.759 423.908 309.313 421.682 307.997 419.456 306.667 416.689 306.667 414.463 307.997 412.232 309.308 410.901 311.758 411.006 314.362 410.998 316.596 412.024 318.705 413.781 320.062L413.781 326 421.211 326 421.211 323.174 422.364 323.174C423.107 323.179 423.819 322.879 424.339 322.342 424.853 321.809 425.14 321.092 425.138 320.347L425.138 318.922 426.173 318.922C426.787 318.875 427.328 318.162 426.761 317.284ZM417.435 316.37C417.895 316.299 418.135 316.881 417.85 317.269L417.808 317.324C417.505 317.697 416.877 317.619 416.833 317.152 416.807 316.878 416.452 316.597 416.288 316.809L415.245 318.162 414.289 317.411C414.079 317.245 414.358 316.887 414.628 316.86 415.092 316.816 415.169 316.181 414.798 315.875L414.745 315.833C414.36 315.545 413.784 315.787 413.855 316.252 413.896 316.523 413.62 316.885 413.41 316.719L412.507 316.01 413.555 314.651C413.719 314.438 413.361 314.159 413.092 314.201 412.632 314.272 412.392 313.69 412.677 313.302L412.719 313.248C413.022 312.874 413.65 312.952 413.694 313.419 413.72 313.693 414.076 313.974 414.24 313.762L415.282 312.408 416.179 313.113C416.389 313.279 416.111 313.637 415.84 313.663 415.377 313.708 415.299 314.342 415.67 314.649L415.723 314.691C416.108 314.979 416.685 314.736 416.614 314.272 416.573 314 416.848 313.639 417.059 313.805L418.021 314.56 416.973 315.92C416.809 316.133 417.166 316.412 417.435 316.37ZM421.001 312.436C420.822 312.576 420.587 312.268 420.622 312.037 420.683 311.641 420.181 311.443 419.852 311.688L419.807 311.724C419.49 311.985 419.568 312.516 419.962 312.555 420.193 312.579 420.43 312.884 420.251 313.025L419.481 313.629 418.589 312.469C418.45 312.288 418.146 312.528 418.124 312.76 418.086 313.159 417.56 313.237 417.301 312.917L417.265 312.871C417.023 312.538 417.218 312.032 417.61 312.093 417.839 312.129 418.144 311.892 418.005 311.71L417.117 310.556 417.882 309.956C418.062 309.815 418.297 310.122 418.262 310.354 418.201 310.751 418.703 310.948 419.032 310.704L419.079 310.668C419.395 310.406 419.318 309.875 418.923 309.836 418.692 309.814 418.454 309.508 418.635 309.367L419.455 308.724 420.347 309.883C420.486 310.064 420.789 309.825 420.812 309.592 420.85 309.193 421.376 309.115 421.635 309.435L421.67 309.481C421.912 309.813 421.717 310.32 421.325 310.259 421.096 310.223 420.791 310.46 420.93 310.642L421.817 311.797Z" fill="#FFFFFF" fill-rule="evenodd"/><path d="M374.96 288 363 288 363 294.546C363.002 295.147 363.466 295.635 364.04 295.636L374.44 295.636 374.44 297 376 297 376 289.091C375.998 288.489 375.534 288.002 374.96 288Z" fill="#FFFFFF" fill-rule="evenodd"/><path d="M357.543 285.813C357.551 285.372 357.218 285.008 356.8 285 356.79 285 356.781 285 356.772 285 356.353 284.992 356.008 285.342 356 285.783 356 285.793 356 285.803 356 285.813L356 298 357.543 298 357.543 295.292 365 295.292 365 292.583 357.543 289.333Z" fill="#FFFFFF" fill-rule="evenodd"/><path d="M363.5 285C363.5 285.828 362.828 286.5 362 286.5 361.172 286.5 360.5 285.828 360.5 285 360.5 284.172 361.172 283.5 362 283.5 362.828 283.5 363.5 284.172 363.5 285Z" stroke="#FFFFFF" stroke-width="4.58333" stroke-miterlimit="8" fill="#FFFFFF" fill-rule="evenodd"/><path d="M361.5 290.988 365.5 292.5 365.5 289.878 364.989 289.684C363.629 289.175 362.07 289.757 361.5 290.988Z" stroke="#FFFFFF" stroke-width="4.58333" stroke-miterlimit="8" fill="#FFFFFF" fill-rule="evenodd"/><path d="M400 283C400 280.8 398.925 279 396.75 279 394.575 279 394.65 280 392.5 280 390.35 280 390.425 279 388.25 279 386.075 279 385 280.8 385 283 385 285.2 386.75 287.375 386.75 289.25 386.75 291.025 386.5 292.525 386.5 293.75 386.5 294.975 386.475 299 388.25 299 390.025 299 390 295.35 390 293.75 390 292.15 390.2 289.75 392.5 289.75 394.8 289.75 395 292.15 395 293.75 395 295.35 394.975 299 396.75 299 398.525 299 398.5 294.975 398.5 293.75 398.5 292.525 398.25 291.025 398.25 289.25 398.25 287.375 400 285.2 400 283Z" fill="#FFFFFF" fill-rule="evenodd"/><path d="M361 322C361 323.105 360.105 324 359 324 357.896 324 357 323.105 357 322 357 320.896 357.896 320 359 320 360.105 320 361 320.896 361 322Z" stroke="#FFFFFF" stroke-width="2.29167" stroke-miterlimit="8" fill="#FFFFFF" fill-rule="evenodd"/><path d="M374 322C374 323.105 373.105 324 372 324 370.895 324 370 323.105 370 322 370 320.896 370.895 320 372 320 373.105 320 374 320.896 374 322Z" stroke="#FFFFFF" stroke-width="2.29167" stroke-miterlimit="8" fill="#FFFFFF" fill-rule="evenodd"/><path d="M376.56 317.918 375.103 316.736C374.911 316.584 374.775 316.364 374.718 316.116L374.168 314.077C373.887 313.07 373.029 312.375 372.05 312.364L371.5 312.364 371.5 310.886C371.5 310.397 371.131 310 370.675 310L370.125 310C369.669 310 369.3 310.397 369.3 310.886L369.3 312.364 369.3 312.364 369.3 311.773C369.3 311.12 368.808 310.591 368.2 310.591L356.1 310.591C355.493 310.591 355 311.12 355 311.773L355 321.818C355 322.471 355.493 323 356.1 323L356.65 323C356.65 321.368 357.881 320.046 359.4 320.046 360.919 320.046 362.15 321.368 362.15 323L370.4 323C370.4 321.368 371.631 320.046 373.15 320.046 374.669 320.046 375.9 321.368 375.9 323 376.508 323 377 322.471 377 321.818L377 318.864C377 318.492 376.837 318.141 376.56 317.918ZM366.069 316.736 365.244 318.273 363.8 317.386 363.8 319.159 362.15 319.159 362.15 317.369 360.706 318.255 359.881 316.719 361.325 315.832 359.881 314.946 360.706 313.41 362.15 314.296 362.15 312.506 363.8 312.506 363.8 314.299 365.244 313.413 366.069 314.949 364.625 315.835ZM370.4 316.5 370.4 313.546 372.05 313.546C372.541 313.538 372.972 313.892 373.095 314.402L373.645 316.441C373.645 316.471 373.673 316.471 373.673 316.5Z" fill="#FFFFFF" fill-rule="evenodd"/><path d="M416.5 289 416.5 283.706C416.5 282.412 417.625 281.353 419 281.353 420.375 281.353 421.5 282.412 421.5 283.706L421.5 289 416.5 289ZM424 294.294 424 283.706C424 281.118 421.75 279 419 279 416.25 279 414 281.118 414 283.706L414 294.294C414 296.882 416.25 299 419 299 421.75 299 424 296.882 424 294.294Z" stroke="#FFFFFF" stroke-width="2.29167" stroke-miterlimit="8" fill="#85D8D1" fill-rule="evenodd"/><path d="M415 290 415 285.5C415 283.014 416.791 281 419 281 421.209 281 423 283.014 423 285.5L423 290Z" stroke="#FFFFFF" stroke-width="2.29167" stroke-linejoin="round" stroke-miterlimit="10" fill="#FFFFFF" fill-rule="evenodd"/><path d="M398 308.5C398 309.328 397.105 310 396 310 394.895 310 394 309.328 394 308.5 394 307.672 394.895 307 396 307 397.105 307 398 307.672 398 308.5Z" fill="#FFFFFF" fill-rule="evenodd"/><path d="M400.523 311.435C400.073 311.217 399.533 311.37 399.307 311.804L398.52 313.239 395.053 311.131C394.918 311.044 394.76 311 394.58 311L390.753 311C390.416 311 390.123 311.174 389.965 311.457L388.502 314.065C388.255 314.478 388.435 315.022 388.862 315.239 388.997 315.304 389.155 315.348 389.29 315.348 389.605 315.348 389.92 315.174 390.078 314.891L391.294 312.739 392.622 312.739 388.637 319.913 384.9 319.913C384.405 319.913 384 320.304 384 320.783 384 321.261 384.405 321.652 384.9 321.652L389.178 321.652C389.515 321.652 389.808 321.478 389.965 321.196L391.541 318.391 394.13 320.717 393.927 325.087C393.882 325.565 394.265 325.978 394.76 326 394.783 326 394.783 326 394.805 326 395.278 326 395.683 325.63 395.706 325.174L395.931 320.391C395.953 320.13 395.841 319.891 395.638 319.717L393.455 317.761 395.751 313.63 398.362 315.217C398.565 315.348 398.835 315.391 399.082 315.326 399.33 315.261 399.533 315.109 399.645 314.891L400.883 312.609C401.131 312.196 400.973 311.674 400.523 311.435Z" fill="#FFFFFF" fill-rule="evenodd"/></g></svg>