<svg width="94" height="62" xmlns="http://www.w3.org/2000/svg" xmlns:xlink="http://www.w3.org/1999/xlink" xml:space="preserve" overflow="hidden"><defs><clipPath id="clip0"><rect x="54" y="148" width="94" height="62"/></clipPath></defs><g clip-path="url(#clip0)" transform="translate(-54 -148)"><path d="M54 181.512C54 180.125 55.1246 179 56.5119 179L82.488 179C83.8753 179 84.9999 180.125 84.9999 181.512L84.9999 207.488C84.9999 208.875 83.8753 210 82.488 210L56.5119 210C55.1246 210 54 208.875 54 207.488Z" fill="#5F605E" fill-rule="evenodd"/><path d="M85.9999 181.512C85.9999 180.125 87.1246 179 88.5119 179L114.488 179C115.875 179 117 180.125 117 181.512L117 207.488C117 208.875 115.875 210 114.488 210L88.5119 210C87.1246 210 85.9999 208.875 85.9999 207.488Z" fill="#D62CD0" fill-rule="evenodd"/><path d="M117 181.512C117 180.125 118.125 179 119.512 179L145.488 179C146.876 179 148 180.125 148 181.512L148 207.488C148 208.876 146.876 210 145.488 210L119.512 210C118.125 210 117 208.876 117 207.488Z" fill="#D62CD0" fill-rule="evenodd"/><path d="M117 150.431C117 149.089 118.088 148 119.431 148L145.569 148C146.912 148 148 149.089 148 150.431L148 175.569C148 176.912 146.912 178 145.569 178L119.431 178C118.088 178 117 176.912 117 175.569Z" fill="#5F605E" fill-rule="evenodd"/><path d="M85.9999 150.431C85.9999 149.089 87.0883 148 88.4308 148L114.569 148C115.912 148 117 149.089 117 150.431L117 175.569C117 176.911 115.912 178 114.569 178L88.4308 178C87.0883 178 85.9999 176.911 85.9999 175.569Z" fill="#5F605E" fill-rule="evenodd"/><path d="M54 150.431C54 149.089 55.0883 148 56.4308 148L82.569 148C83.9116 148 84.9999 149.089 84.9999 150.431L84.9999 175.569C84.9999 176.911 83.9116 178 82.569 178L56.4308 178C55.0883 178 54 176.911 54 175.569Z" fill="#5F605E" fill-rule="evenodd"/><path d="M141.731 195.366 139.906 192.242 139.906 192.137C140.017 189.26 138.522 186.556 136.017 185.102 133.512 183.632 130.4 183.632 127.895 185.102 125.386 186.551 123.889 189.259 124.007 192.137 123.997 194.606 125.152 196.937 127.128 198.437L127.128 205 135.488 205 135.488 201.876 136.784 201.876C137.62 201.882 138.422 201.55 139.006 200.957 139.585 200.367 139.908 199.576 139.906 198.752L139.906 197.177 141.07 197.177C141.76 197.125 142.369 196.337 141.731 195.366ZM131.24 194.357C131.757 194.278 132.027 194.921 131.706 195.35L131.659 195.41C131.318 195.823 130.612 195.737 130.562 195.22 130.533 194.918 130.133 194.607 129.949 194.842L128.776 196.337 127.7 195.507C127.464 195.323 127.777 194.927 128.082 194.898 128.603 194.849 128.69 194.148 128.273 193.81L128.213 193.763C127.78 193.445 127.132 193.712 127.212 194.226 127.258 194.526 126.947 194.925 126.711 194.742L125.696 193.958 126.874 192.456C127.059 192.221 126.656 191.913 126.354 191.959 125.836 192.038 125.566 191.395 125.887 190.965L125.934 190.905C126.275 190.492 126.981 190.578 127.031 191.095 127.06 191.397 127.46 191.708 127.645 191.474L128.818 189.977 129.826 190.756C130.063 190.94 129.75 191.336 129.445 191.365 128.924 191.414 128.837 192.115 129.254 192.454L129.314 192.5C129.747 192.819 130.395 192.55 130.316 192.037 130.269 191.737 130.579 191.338 130.817 191.521L131.898 192.356 130.719 193.859C130.535 194.094 130.937 194.403 131.24 194.357ZM135.252 190.008C135.05 190.163 134.785 189.823 134.825 189.567 134.894 189.13 134.328 188.911 133.959 189.181L133.907 189.221C133.551 189.51 133.639 190.097 134.082 190.14 134.342 190.166 134.609 190.504 134.407 190.659L133.541 191.327 132.538 190.045C132.381 189.844 132.04 190.109 132.014 190.367 131.971 190.808 131.379 190.894 131.088 190.54L131.048 190.489C130.775 190.121 130.995 189.561 131.436 189.629 131.694 189.669 132.037 189.406 131.881 189.206L130.882 187.93 131.743 187.267C131.945 187.111 132.209 187.451 132.169 187.707 132.101 188.145 132.666 188.364 133.036 188.093L133.088 188.054C133.444 187.765 133.357 187.178 132.913 187.135 132.654 187.11 132.386 186.772 132.589 186.616L133.512 185.905 134.515 187.187C134.671 187.387 135.013 187.122 135.038 186.865 135.081 186.424 135.673 186.338 135.964 186.691L136.004 186.742C136.276 187.109 136.057 187.669 135.615 187.602 135.358 187.562 135.015 187.825 135.171 188.025L136.169 189.302Z" fill="#FFFFFF" fill-rule="evenodd"/><path d="M81.7999 161 68.0001 161 68.0001 168.273C68.0021 168.941 68.5381 169.483 69.2 169.485L81.1999 169.485 81.1999 171 82.9999 171 82.9999 162.212C82.9979 161.543 82.4618 161.002 81.7999 161Z" fill="#FFFFFF" fill-rule="evenodd"/><path d="M59.8859 158.875C59.8954 158.401 59.4886 158.009 58.9774 158 58.9659 158 58.9545 158 58.9431 158 58.4319 157.992 58.0097 158.369 58.0003 158.843 58.0001 158.854 58.0001 158.865 58.0003 158.875L58.0003 172 59.8859 172 59.8859 169.083 69.0001 169.083 69.0001 166.167 59.8859 162.667Z" fill="#FFFFFF" fill-rule="evenodd"/><path d="M66.4999 158.5C66.4999 159.605 65.6045 160.5 64.5 160.5 63.3954 160.5 62.5001 159.605 62.5001 158.5 62.5001 157.395 63.3954 156.5 64.5 156.5 65.6045 156.5 66.4999 157.395 66.4999 158.5Z" stroke="#FFFFFF" stroke-width="4.58333" stroke-miterlimit="8" fill="#FFFFFF" fill-rule="evenodd"/><path d="M65.5002 164.485 69.5 166.5 69.5 163.004 68.9892 162.746C67.6287 162.067 66.0699 162.843 65.5002 164.485Z" stroke="#FFFFFF" stroke-width="4.58333" stroke-miterlimit="8" fill="#FFFFFF" fill-rule="evenodd"/><path d="M110 155.8C110 153.16 108.71 151 106.1 151 103.49 151 103.58 152.2 101 152.2 98.4201 152.2 98.5101 151 95.9001 151 93.2901 151 92.0001 153.16 92.0001 155.8 92.0001 158.44 94.1001 161.05 94.1001 163.3 94.1001 165.43 93.8001 167.23 93.8001 168.7 93.8001 170.17 93.7701 175 95.9001 175 98.0301 175 98.0001 170.62 98.0001 168.7 98.0001 166.78 98.2401 163.9 101 163.9 103.76 163.9 104 166.78 104 168.7 104 170.62 103.97 175 106.1 175 108.23 175 108.2 170.17 108.2 168.7 108.2 167.23 107.9 165.43 107.9 163.3 107.9 161.05 110 158.44 110 155.8Z" fill="#FFFFFF" fill-rule="evenodd"/><path d="M64 201C64 202.105 62.8807 203 61.5001 203 60.1194 203 59.0001 202.105 59.0001 201 59.0001 199.895 60.1194 199 61.5001 199 62.8807 199 64 199.895 64 201Z" stroke="#FFFFFF" stroke-width="2.29167" stroke-miterlimit="8" fill="#FFFFFF" fill-rule="evenodd"/><path d="M79.0001 201C79.0001 202.105 78.1046 203 77 203 75.8954 203 74.9999 202.105 74.9999 201 74.9999 199.895 75.8954 199 77 199 78.1046 199 79.0001 199.895 79.0001 201Z" stroke="#FFFFFF" stroke-width="2.29167" stroke-miterlimit="8" fill="#FFFFFF" fill-rule="evenodd"/><path d="M82.4599 196.527 80.6711 195.255C80.4365 195.09 80.2695 194.854 80.1986 194.586L79.5236 192.391C79.1794 191.306 78.1263 190.558 76.9249 190.546L76.2499 190.546 76.2499 188.955C76.2499 188.427 75.7966 188 75.2374 188L74.5624 188C74.0032 188 73.5499 188.427 73.5499 188.955L73.5499 190.546 73.5499 190.546 73.5499 189.909C73.5499 189.206 72.9455 188.636 72.2 188.636L57.35 188.636C56.6045 188.636 56 189.206 56 189.909L56 200.727C56 201.43 56.6045 202 57.35 202L58.025 202C58.025 200.243 59.5361 198.818 61.4 198.818 63.2639 198.818 64.775 200.243 64.775 202L74.8999 202C74.8999 200.243 76.4109 198.818 78.2749 198.818 80.1389 198.818 81.6499 200.243 81.6499 202 82.3954 202 82.9999 201.43 82.9999 200.727L82.9999 197.546C82.9999 197.145 82.7998 196.768 82.4599 196.527ZM69.5843 195.255 68.5718 196.909 66.8 195.955 66.8 197.864 64.775 197.864 64.775 195.936 63.0031 196.89 61.9906 195.236 63.7625 194.281 61.9906 193.326 63.0031 191.672 64.775 192.626 64.775 190.698 66.8 190.698 66.8 192.63 68.5718 191.675 69.5843 193.33 67.8124 194.284ZM74.8999 195 74.8999 191.818 76.9249 191.818C77.5269 191.81 78.0566 192.192 78.2074 192.741L78.8824 194.936C78.8824 194.968 78.9161 194.968 78.9161 195Z" fill="#FFFFFF" fill-rule="evenodd"/><path d="M130 163 130 156.647C130 155.094 131.35 153.823 133 153.823 134.65 153.823 136 155.094 136 156.647L136 163 130 163ZM139 169.353 139 156.647C139 153.541 136.3 151 133 151 129.7 151 127 153.541 127 156.647L127 169.353C127 172.459 129.7 175 133 175 136.3 175 139 172.459 139 169.353Z" stroke="#FFFFFF" stroke-width="2.29167" stroke-miterlimit="8" fill="#85D8D1" fill-rule="evenodd"/><path d="M129 164 129 159C129 156.238 131.015 154 133.5 154 135.985 154 138 156.238 138 159L138 164Z" stroke="#FFFFFF" stroke-width="2.29167" stroke-linejoin="round" stroke-miterlimit="10" fill="#FFFFFF" fill-rule="evenodd"/><path d="M108 186C108 187.105 106.881 188 105.5 188 104.119 188 103 187.105 103 186 103 184.895 104.119 184 105.5 184 106.881 184 108 184.895 108 186Z" fill="#FFFFFF" fill-rule="evenodd"/><path d="M110.467 188.493C109.964 188.246 109.36 188.419 109.108 188.912L108.228 190.538 104.353 188.148C104.202 188.049 104.026 188 103.825 188L99.5478 188C99.1705 188 98.8434 188.197 98.6673 188.517L97.0319 191.474C96.7552 191.942 96.9564 192.558 97.4345 192.804 97.5854 192.878 97.7615 192.928 97.9125 192.928 98.2647 192.928 98.6169 192.73 98.7931 192.41L100.152 189.971 101.636 189.971 97.1829 198.101 93.0065 198.101C92.453 198.101 92.0001 198.545 92.0001 199.087 92.0001 199.629 92.453 200.072 93.0065 200.072L97.7867 200.072C98.1641 200.072 98.4911 199.875 98.6673 199.555L100.428 196.377 103.322 199.013 103.095 203.965C103.045 204.507 103.473 204.975 104.026 205 104.051 205 104.051 205 104.076 205 104.605 205 105.058 204.581 105.083 204.064L105.334 198.643C105.36 198.348 105.234 198.077 105.007 197.88L102.567 195.662 105.133 190.981 108.052 192.78C108.278 192.928 108.58 192.977 108.857 192.903 109.133 192.829 109.36 192.657 109.486 192.41L110.869 189.823C111.146 189.355 110.97 188.764 110.467 188.493Z" fill="#FFFFFF" fill-rule="evenodd"/></g></svg>