<svg width="80" height="52" xmlns="http://www.w3.org/2000/svg" xmlns:xlink="http://www.w3.org/1999/xlink" xml:space="preserve" overflow="hidden"><defs><clipPath id="clip0"><rect x="63" y="151" width="80" height="52"/></clipPath></defs><g clip-path="url(#clip0)" transform="translate(-63 -151)"><path d="M62.9999 180.026C62.9999 178.907 63.9069 178 65.0257 178L86.9743 178C88.0931 178 89 178.907 89 180.026L89 200.974C89 202.093 88.0931 203 86.9743 203L65.0257 203C63.9069 203 62.9999 202.093 62.9999 200.974Z" fill="#5F605E" fill-rule="evenodd"/><path d="M90.0001 180.026C90.0001 178.907 90.907 178 92.0258 178L113.974 178C115.093 178 116 178.907 116 180.026L116 200.974C116 202.093 115.093 203 113.974 203L92.0258 203C90.907 203 90.0001 202.093 90.0001 200.974Z" fill="#D62CD0" fill-rule="evenodd"/><path d="M116 180.026C116 178.907 116.907 178 118.026 178L140.974 178C142.093 178 143 178.907 143 180.026L143 200.974C143 202.093 142.093 203 140.974 203L118.026 203C116.907 203 116 202.093 116 200.974Z" fill="#D62CD0" fill-rule="evenodd"/><path d="M116 153.107C116 151.943 116.943 151 118.107 151L140.893 151C142.057 151 143 151.943 143 153.107L143 174.893C143 176.057 142.057 177 140.893 177L118.107 177C116.943 177 116 176.057 116 174.893Z" fill="#5F605E" fill-rule="evenodd"/><path d="M90.0001 153.107C90.0001 151.943 90.9433 151 92.1068 151L113.893 151C115.057 151 116 151.943 116 153.107L116 174.893C116 176.057 115.057 177 113.893 177L92.1068 177C90.9433 177 90.0001 176.057 90.0001 174.893Z" fill="#5F605E" fill-rule="evenodd"/><path d="M62.9999 153.107C62.9999 151.943 63.9431 151 65.1067 151L86.8932 151C88.0568 151 89 151.943 89 153.107L89 174.893C89 176.057 88.0568 177 86.8932 177L65.1067 177C63.9431 177 62.9999 176.057 62.9999 174.893Z" fill="#5F605E" fill-rule="evenodd"/><path d="M136.776 191.742 135.255 189.065 135.255 188.975C135.347 186.509 134.102 184.191 132.014 182.945 129.927 181.685 127.333 181.685 125.246 182.945 123.155 184.187 121.908 186.507 122.005 188.975 121.998 191.091 122.96 193.089 124.607 194.375L124.607 200 131.573 200 131.573 197.323 132.654 197.323C133.35 197.327 134.018 197.043 134.505 196.535 134.988 196.029 135.257 195.351 135.255 194.645L135.255 193.295 136.225 193.295C136.8 193.25 137.307 192.575 136.776 191.742ZM128.033 190.877C128.464 190.81 128.689 191.361 128.422 191.729L128.383 191.78C128.099 192.134 127.51 192.06 127.469 191.618 127.444 191.358 127.111 191.092 126.957 191.293L125.98 192.575 125.084 191.863C124.886 191.706 125.148 191.366 125.402 191.341 125.836 191.299 125.909 190.698 125.561 190.408L125.511 190.368C125.15 190.095 124.61 190.325 124.676 190.765 124.715 191.022 124.456 191.364 124.259 191.208L123.413 190.536 124.395 189.248C124.549 189.047 124.213 188.782 123.961 188.822 123.53 188.889 123.305 188.338 123.572 187.97L123.611 187.919C123.896 187.565 124.484 187.639 124.526 188.081 124.55 188.34 124.884 188.607 125.037 188.406L126.015 187.123 126.855 187.791C127.053 187.949 126.791 188.288 126.538 188.313 126.103 188.355 126.031 188.956 126.378 189.246L126.428 189.286C126.789 189.559 127.329 189.329 127.263 188.889 127.224 188.632 127.482 188.289 127.681 188.447L128.582 189.162 127.6 190.451C127.446 190.652 127.781 190.917 128.033 190.877ZM131.376 187.15C131.208 187.283 130.988 186.991 131.021 186.772 131.078 186.397 130.607 186.209 130.299 186.441L130.256 186.475C129.96 186.723 130.032 187.226 130.402 187.263 130.618 187.285 130.841 187.575 130.673 187.708L129.951 188.28 129.115 187.181C128.984 187.01 128.7 187.237 128.679 187.457 128.643 187.835 128.15 187.909 127.907 187.606L127.873 187.562C127.646 187.247 127.829 186.767 128.197 186.825 128.412 186.859 128.698 186.634 128.567 186.462L127.735 185.369 128.452 184.8C128.621 184.667 128.841 184.958 128.808 185.178 128.751 185.553 129.222 185.74 129.53 185.509L129.574 185.475C129.87 185.227 129.798 184.724 129.428 184.687 129.212 184.666 128.988 184.376 129.158 184.242L129.926 183.633 130.762 184.731C130.893 184.903 131.178 184.676 131.199 184.455 131.234 184.077 131.728 184.004 131.97 184.307L132.003 184.35C132.231 184.665 132.048 185.145 131.68 185.087 131.465 185.053 131.179 185.278 131.309 185.45L132.141 186.545Z" fill="#FFFFFF" fill-rule="evenodd"/><path d="M84.9599 163 72.9999 163 72.9999 169.545C73.0016 170.147 73.4662 170.634 74.0399 170.636L84.44 170.636 84.44 172 86 172 86 164.091C85.9982 163.489 85.5336 163.002 84.9599 163Z" fill="#FFFFFF" fill-rule="evenodd"/><path d="M67.5429 161.75C67.5507 161.343 67.2179 161.008 66.7996 161 66.7902 161 66.7809 161 66.7715 161 66.3533 160.992 66.0079 161.316 66.0001 161.723 66 161.732 66 161.741 66.0001 161.75L66.0001 173 67.5429 173 67.5429 170.5 74.9999 170.5 74.9999 168 67.5429 165Z" fill="#FFFFFF" fill-rule="evenodd"/><path d="M72.5001 160C72.5001 160.829 71.8285 161.5 71 161.5 70.1715 161.5 69.4999 160.829 69.4999 160 69.4999 159.172 70.1715 158.5 71 158.5 71.8285 158.5 72.5001 159.172 72.5001 160Z" stroke="#FFFFFF" stroke-width="4.58333" stroke-miterlimit="8" fill="#FFFFFF" fill-rule="evenodd"/><path d="M71.5 165.989 75.5002 167.5 75.5002 164.878 74.9894 164.685C73.6287 164.175 72.0698 164.758 71.5 165.989Z" stroke="#FFFFFF" stroke-width="4.58333" stroke-miterlimit="8" fill="#FFFFFF" fill-rule="evenodd"/><path d="M110 158C110 155.8 108.925 154 106.75 154 104.575 154 104.65 155 102.5 155 100.35 155 100.425 154 98.2499 154 96.0749 154 94.9999 155.8 94.9999 158 94.9999 160.2 96.7499 162.375 96.7499 164.25 96.7499 166.025 96.4999 167.525 96.4999 168.75 96.4999 169.975 96.4749 174 98.2499 174 100.025 174 99.9999 170.35 99.9999 168.75 99.9999 167.15 100.2 164.75 102.5 164.75 104.8 164.75 105 167.15 105 168.75 105 170.35 104.975 174 106.75 174 108.525 174 108.5 169.975 108.5 168.75 108.5 167.525 108.25 166.025 108.25 164.25 108.25 162.375 110 160.2 110 158Z" fill="#FFFFFF" fill-rule="evenodd"/><path d="M71.0002 196C71.0002 197.105 70.1047 198 69.0001 198 67.8955 198 67 197.105 67 196 67 194.895 67.8955 194 69.0001 194 70.1047 194 71.0002 194.895 71.0002 196Z" stroke="#FFFFFF" stroke-width="2.29167" stroke-miterlimit="8" fill="#FFFFFF" fill-rule="evenodd"/><path d="M83.9999 196C83.9999 197.105 83.1045 198 82 198 80.8955 198 80.0001 197.105 80.0001 196 80.0001 194.895 80.8955 194 82 194 83.1045 194 83.9999 194.895 83.9999 196Z" stroke="#FFFFFF" stroke-width="2.29167" stroke-miterlimit="8" fill="#FFFFFF" fill-rule="evenodd"/><path d="M86.56 192.309 85.1025 191.218C84.9113 191.077 84.7753 190.875 84.7175 190.645L84.1675 188.764C83.887 187.833 83.0289 187.192 82.05 187.182L81.5 187.182 81.5 185.818C81.5 185.366 81.1306 185 80.675 185L80.125 185C79.6693 185 79.3 185.366 79.3 185.818L79.3 187.182 79.3 187.182 79.3 186.636C79.3 186.034 78.8075 185.545 78.2 185.545L66.1 185.545C65.4925 185.545 65 186.034 65 186.636L65 195.909C65 196.512 65.4925 197 66.1 197L66.65 197C66.65 195.494 67.8812 194.273 69.4 194.273 70.9187 194.273 72.15 195.494 72.15 197L80.4 197C80.4 195.494 81.6312 194.273 83.15 194.273 84.6688 194.273 85.9 195.494 85.9 197 86.5075 197 87 196.512 87 195.909L87 193.182C87 192.838 86.837 192.515 86.56 192.309ZM76.0687 191.218 75.2437 192.636 73.8 191.818 73.8 193.455 72.15 193.455 72.15 191.802 70.7062 192.62 69.8812 191.202 71.325 190.384 69.8812 189.565 70.7062 188.147 72.15 188.965 72.15 187.313 73.8 187.313 73.8 188.968 75.2437 188.15 76.0687 189.568 74.625 190.386ZM80.4 191 80.4 188.273 82.05 188.273C82.5405 188.266 82.9721 188.593 83.095 189.064L83.645 190.945C83.645 190.973 83.6725 190.973 83.6725 191Z" fill="#FFFFFF" fill-rule="evenodd"/><path d="M126.75 164 126.75 158.706C126.75 157.412 127.988 156.353 129.5 156.353 131.013 156.353 132.25 157.412 132.25 158.706L132.25 164 126.75 164ZM135 169.294 135 158.706C135 156.118 132.525 154 129.5 154 126.475 154 124 156.118 124 158.706L124 169.294C124 171.882 126.475 174 129.5 174 132.525 174 135 171.882 135 169.294Z" stroke="#FFFFFF" stroke-width="2.29167" stroke-miterlimit="8" fill="#85D8D1" fill-rule="evenodd"/><path d="M126 165 126 160.5C126 158.015 127.567 156 129.5 156 131.433 156 133 158.015 133 160.5L133 165Z" stroke="#FFFFFF" stroke-width="2.29167" stroke-linejoin="round" stroke-miterlimit="10" fill="#FFFFFF" fill-rule="evenodd"/><path d="M108 183C108 184.105 107.105 185 106 185 104.896 185 104 184.105 104 183 104 181.896 104.896 181 106 181 107.105 181 108 181.896 108 183Z" fill="#FFFFFF" fill-rule="evenodd"/><path d="M110.551 185.435C110.127 185.217 109.619 185.37 109.407 185.804L108.665 187.239 105.403 185.13C105.275 185.043 105.127 185 104.958 185L101.356 185C101.038 185 100.763 185.174 100.614 185.456L99.2373 188.065C99.0042 188.478 99.1737 189.022 99.5762 189.239 99.7033 189.304 99.8517 189.348 99.9788 189.348 100.275 189.348 100.572 189.174 100.72 188.891L101.864 186.739 103.114 186.739 99.3644 193.913 95.8473 193.913C95.3812 193.913 94.9999 194.304 94.9999 194.783 94.9999 195.261 95.3812 195.652 95.8473 195.652L99.8729 195.652C100.191 195.652 100.466 195.478 100.614 195.196L102.097 192.391 104.534 194.717 104.343 199.087C104.301 199.565 104.661 199.978 105.127 200 105.148 200 105.148 200 105.17 200 105.614 200 105.996 199.631 106.017 199.174L106.229 194.391C106.25 194.13 106.144 193.891 105.953 193.717L103.898 191.761 106.059 187.63 108.517 189.217C108.708 189.348 108.962 189.391 109.195 189.326 109.428 189.261 109.619 189.109 109.725 188.891L110.89 186.609C111.123 186.196 110.975 185.674 110.551 185.435Z" fill="#FFFFFF" fill-rule="evenodd"/></g></svg>