<svg width="80" height="53" xmlns="http://www.w3.org/2000/svg" xmlns:xlink="http://www.w3.org/1999/xlink" xml:space="preserve" overflow="hidden"><defs><clipPath id="clip0"><rect x="62" y="220" width="80" height="53"/></clipPath></defs><g clip-path="url(#clip0)" transform="translate(-62 -220)"><path d="M61.9999 249.107C61.9999 247.943 62.9431 247 64.1067 247L85.8932 247C87.0568 247 88 247.943 88 249.107L88 270.894C88 272.057 87.0568 273 85.8932 273L64.1067 273C62.9431 273 61.9999 272.057 61.9999 270.894Z" fill="#5F605E" fill-rule="evenodd"/><path d="M89 249.107C89 247.943 89.9433 247 91.1068 247L112.893 247C114.057 247 115 247.943 115 249.107L115 270.894C115 272.057 114.057 273 112.893 273L91.1068 273C89.9433 273 89 272.057 89 270.894Z" fill="#5F605E" fill-rule="evenodd"/><path d="M116 249.107C116 247.943 116.943 247 118.107 247L139.893 247C141.057 247 142 247.943 142 249.107L142 270.894C142 272.057 141.057 273 139.893 273L118.107 273C116.943 273 116 272.057 116 270.894Z" fill="#5F605E" fill-rule="evenodd"/><path d="M116 222.107C116 220.943 116.943 220 118.107 220L139.893 220C141.057 220 142 220.943 142 222.107L142 243.893C142 245.057 141.057 246 139.893 246L118.107 246C116.943 246 116 245.057 116 243.893Z" fill="#5F605E" fill-rule="evenodd"/><path d="M89 222.107C89 220.943 89.9433 220 91.1068 220L112.893 220C114.057 220 115 220.943 115 222.107L115 243.893C115 245.057 114.057 246 112.893 246L91.1068 246C89.9433 246 89 245.057 89 243.893Z" fill="#5F605E" fill-rule="evenodd"/><path d="M61.9999 222.107C61.9999 220.943 62.9431 220 64.1067 220L85.8932 220C87.0568 220 88 220.943 88 222.107L88 243.893C88 245.057 87.0568 246 85.8932 246L64.1067 246C62.9431 246 61.9999 245.057 61.9999 243.893Z" fill="#5F605E" fill-rule="evenodd"/><path d="M136.761 260.743 135.139 258.065 135.139 257.975C135.237 255.509 133.909 253.191 131.682 251.945 129.456 250.685 126.689 250.685 124.463 251.945 122.232 253.187 120.901 255.507 121.006 257.975 120.997 260.091 122.024 262.089 123.781 263.375L123.781 269 131.212 269 131.212 266.323 132.364 266.323C133.107 266.327 133.82 266.043 134.339 265.535 134.854 265.029 135.141 264.351 135.139 263.645L135.139 262.295 136.173 262.295C136.787 262.25 137.328 261.575 136.761 260.743ZM127.435 259.877C127.895 259.81 128.135 260.361 127.85 260.729L127.808 260.78C127.505 261.135 126.877 261.06 126.833 260.618 126.807 260.358 126.451 260.092 126.288 260.293L125.245 261.575 124.289 260.863C124.079 260.706 124.358 260.366 124.628 260.341 125.092 260.299 125.169 259.698 124.798 259.408L124.745 259.368C124.36 259.096 123.784 259.325 123.855 259.765 123.896 260.022 123.62 260.365 123.409 260.208L122.507 259.536 123.555 258.248C123.719 258.047 123.361 257.782 123.092 257.822 122.632 257.89 122.392 257.338 122.677 256.97L122.719 256.919C123.022 256.565 123.65 256.639 123.694 257.082 123.72 257.341 124.076 257.607 124.24 257.406L125.282 256.124 126.179 256.791C126.389 256.949 126.111 257.288 125.84 257.313 125.377 257.355 125.299 257.956 125.67 258.246L125.723 258.286C126.108 258.559 126.685 258.329 126.614 257.889 126.573 257.632 126.848 257.289 127.059 257.447L128.021 258.162 126.973 259.451C126.809 259.652 127.166 259.917 127.435 259.877ZM131.002 256.15C130.822 256.283 130.587 255.991 130.622 255.772 130.683 255.397 130.181 255.21 129.852 255.441L129.807 255.475C129.49 255.723 129.568 256.226 129.962 256.263 130.193 256.285 130.43 256.575 130.251 256.708L129.481 257.28 128.589 256.181C128.45 256.01 128.146 256.237 128.124 256.457 128.086 256.835 127.56 256.909 127.301 256.606L127.265 256.562C127.023 256.247 127.218 255.767 127.61 255.825 127.839 255.859 128.144 255.634 128.005 255.462L127.117 254.369 127.882 253.8C128.062 253.667 128.297 253.958 128.262 254.178 128.201 254.553 128.703 254.74 129.032 254.509L129.079 254.475C129.395 254.227 129.318 253.724 128.923 253.687 128.692 253.666 128.454 253.376 128.635 253.242L129.455 252.633 130.347 253.731C130.486 253.903 130.789 253.676 130.812 253.455 130.85 253.077 131.376 253.004 131.635 253.307L131.67 253.35C131.913 253.665 131.717 254.145 131.325 254.087 131.096 254.053 130.791 254.278 130.93 254.45L131.817 255.545Z" fill="#FFFFFF" fill-rule="evenodd"/><path d="M84.0399 232 72.9999 232 72.9999 238.545C73.0015 239.147 73.4303 239.635 73.9599 239.636L83.5599 239.636 83.5599 241 84.9999 241 84.9999 233.091C84.9983 232.489 84.5694 232.002 84.0399 232Z" fill="#FFFFFF" fill-rule="evenodd"/><path d="M66.5429 230.75C66.5507 230.343 66.2178 230.008 65.7995 230 65.7902 230 65.7809 230 65.7715 230 65.3532 229.993 65.0078 230.316 65.0001 230.723 64.9999 230.732 64.9999 230.741 65.0001 230.75L65.0001 242 66.5429 242 66.5429 239.5 73.9999 239.5 73.9999 237 66.5429 234Z" fill="#FFFFFF" fill-rule="evenodd"/><path d="M72.5001 229C72.5001 229.829 71.8285 230.5 71 230.5 70.1715 230.5 69.4999 229.829 69.4999 229 69.4999 228.172 70.1715 227.5 71 227.5 71.8285 227.5 72.5001 228.172 72.5001 229Z" stroke="#FFFFFF" stroke-width="4.58333" stroke-miterlimit="8" fill="#FFFFFF" fill-rule="evenodd"/><path d="M70.5 234.988 74.5001 236.5 74.5001 233.878 73.9893 233.684C72.6287 233.175 71.0697 233.757 70.5 234.988Z" stroke="#FFFFFF" stroke-width="4.58333" stroke-miterlimit="8" fill="#FFFFFF" fill-rule="evenodd"/><path d="M110 227C110 224.8 108.925 223 106.75 223 104.575 223 104.65 224 102.5 224 100.35 224 100.425 223 98.2499 223 96.0749 223 94.9999 224.8 94.9999 227 94.9999 229.2 96.7499 231.375 96.7499 233.25 96.7499 235.025 96.4999 236.525 96.4999 237.75 96.4999 238.975 96.4749 243 98.2499 243 100.025 243 99.9999 239.35 99.9999 237.75 99.9999 236.15 100.2 233.75 102.5 233.75 104.8 233.75 105 236.15 105 237.75 105 239.35 104.975 243 106.75 243 108.525 243 108.5 238.975 108.5 237.75 108.5 236.525 108.25 235.025 108.25 233.25 108.25 231.375 110 229.2 110 227Z" fill="#FFFFFF" fill-rule="evenodd"/><path d="M70.0002 265C70.0002 266.105 69.3286 267 68.5001 267 67.6716 267 67 266.105 67 265 67 263.895 67.6716 263 68.5001 263 69.3286 263 70.0002 263.895 70.0002 265Z" stroke="#FFFFFF" stroke-width="2.29167" stroke-miterlimit="8" fill="#FFFFFF" fill-rule="evenodd"/><path d="M83.9999 265C83.9999 266.105 83.1045 267 82 267 80.8955 267 80.0001 266.105 80.0001 265 80.0001 263.895 80.8955 263 82 263 83.1045 263 83.9999 263.895 83.9999 265Z" stroke="#FFFFFF" stroke-width="2.29167" stroke-miterlimit="8" fill="#FFFFFF" fill-rule="evenodd"/><path d="M85.56 261.309 84.1024 260.218C83.9112 260.077 83.7752 259.875 83.7174 259.646L83.1674 257.764C82.887 256.834 82.0289 256.192 81.0499 256.182L80.4999 256.182 80.4999 254.818C80.4999 254.366 80.1306 254 79.6749 254L79.1249 254C78.6693 254 78.2999 254.366 78.2999 254.818L78.2999 256.182 78.2999 256.182 78.2999 255.636C78.2999 255.034 77.8074 254.545 77.2 254.545L65.0999 254.545C64.4924 254.545 63.9999 255.034 63.9999 255.636L63.9999 264.909C63.9999 265.512 64.4924 266 65.0999 266L65.6499 266C65.6499 264.494 66.8812 263.273 68.4 263.273 69.9187 263.273 71.15 264.494 71.15 266L79.4 266C79.4 264.494 80.6312 263.273 82.15 263.273 83.6687 263.273 84.9 264.494 84.9 266 85.5074 266 86 265.512 86 264.909L86 262.182C86 261.839 85.8369 261.515 85.56 261.309ZM75.0687 260.218 74.2437 261.636 72.7999 260.818 72.7999 262.455 71.15 262.455 71.15 260.802 69.7062 261.62 68.8812 260.202 70.3249 259.384 68.8812 258.565 69.7062 257.147 71.15 257.966 71.15 256.313 72.7999 256.313 72.7999 257.968 74.2437 257.15 75.0687 258.568 73.6249 259.386ZM79.4 260 79.4 257.273 81.0499 257.273C81.5404 257.266 81.9721 257.593 82.0949 258.064L82.645 259.945C82.645 259.973 82.6724 259.973 82.6724 260Z" fill="#FFFFFF" fill-rule="evenodd"/><path d="M126.5 233 126.5 227.706C126.5 226.412 127.625 225.353 129 225.353 130.375 225.353 131.5 226.412 131.5 227.706L131.5 233 126.5 233ZM134 238.294 134 227.706C134 225.118 131.75 223 129 223 126.25 223 124 225.118 124 227.706L124 238.294C124 240.882 126.25 243 129 243 131.75 243 134 240.882 134 238.294Z" stroke="#FFFFFF" stroke-width="2.29167" stroke-miterlimit="8" fill="#85D8D1" fill-rule="evenodd"/><path d="M125 234 125 229.5C125 227.015 126.791 225 129 225 131.209 225 133 227.015 133 229.5L133 234Z" stroke="#FFFFFF" stroke-width="2.29167" stroke-linejoin="round" stroke-miterlimit="10" fill="#FFFFFF" fill-rule="evenodd"/><path d="M107 252C107 253.105 106.328 254 105.5 254 104.672 254 104 253.105 104 252 104 250.895 104.672 250 105.5 250 106.328 250 107 250.895 107 252Z" fill="#FFFFFF" fill-rule="evenodd"/><path d="M109.551 254.435C109.127 254.217 108.619 254.37 108.407 254.804L107.665 256.239 104.403 254.13C104.275 254.044 104.127 254 103.958 254L100.356 254C100.038 254 99.7627 254.174 99.6143 254.457L98.2372 257.065C98.0042 257.478 98.1736 258.022 98.5762 258.239 98.7033 258.304 98.8516 258.348 98.9787 258.348 99.2753 258.348 99.572 258.174 99.7203 257.891L100.864 255.739 102.114 255.739 98.3643 262.913 94.8473 262.913C94.3812 262.913 93.9998 263.304 93.9998 263.783 93.9998 264.261 94.3812 264.652 94.8473 264.652L98.8728 264.652C99.1906 264.652 99.466 264.478 99.6143 264.196L101.097 261.391 103.534 263.717 103.343 268.087C103.301 268.565 103.661 268.978 104.127 269 104.148 269 104.148 269 104.17 269 104.614 269 104.996 268.631 105.017 268.174L105.229 263.391C105.25 263.131 105.144 262.891 104.953 262.717L102.898 260.761 105.059 256.63 107.517 258.217C107.708 258.348 107.962 258.391 108.195 258.326 108.428 258.261 108.619 258.109 108.725 257.891L109.89 255.609C110.123 255.196 109.975 254.674 109.551 254.435Z" fill="#FFFFFF" fill-rule="evenodd"/></g></svg>