<svg width="94" height="62" xmlns="http://www.w3.org/2000/svg" xmlns:xlink="http://www.w3.org/1999/xlink" xml:space="preserve" overflow="hidden"><defs><clipPath id="clip0"><rect x="54" y="219" width="94" height="62"/></clipPath></defs><g clip-path="url(#clip0)" transform="translate(-54 -219)"><path d="M54 252.512C54 251.125 55.1246 250 56.5119 250L82.488 250C83.8753 250 84.9999 251.125 84.9999 252.512L84.9999 278.488C84.9999 279.875 83.8753 281 82.488 281L56.5119 281C55.1246 281 54 279.875 54 278.488Z" fill="#5F605E" fill-rule="evenodd"/><path d="M85.9999 252.512C85.9999 251.125 87.1246 250 88.5119 250L114.488 250C115.875 250 117 251.125 117 252.512L117 278.488C117 279.875 115.875 281 114.488 281L88.5119 281C87.1246 281 85.9999 279.875 85.9999 278.488Z" fill="#5F605E" fill-rule="evenodd"/><path d="M117 252.512C117 251.125 118.125 250 119.512 250L145.488 250C146.876 250 148 251.125 148 252.512L148 278.488C148 279.876 146.876 281 145.488 281L119.512 281C118.125 281 117 279.876 117 278.488Z" fill="#5F605E" fill-rule="evenodd"/><path d="M117 221.431C117 220.088 118.088 219 119.431 219L145.569 219C146.912 219 148 220.088 148 221.431L148 246.569C148 247.912 146.912 249 145.569 249L119.431 249C118.088 249 117 247.912 117 246.569Z" fill="#5F605E" fill-rule="evenodd"/><path d="M85.9999 221.431C85.9999 220.088 87.0883 219 88.4308 219L114.569 219C115.912 219 117 220.088 117 221.431L117 246.569C117 247.911 115.912 248.999 114.569 248.999L88.4308 248.999C87.0883 248.999 85.9999 247.911 85.9999 246.569Z" fill="#5F605E" fill-rule="evenodd"/><path d="M54 221.431C54 220.088 55.0883 219 56.4308 219L82.569 219C83.9116 219 84.9999 220.088 84.9999 221.431L84.9999 246.569C84.9999 247.911 83.9116 248.999 82.569 248.999L56.4308 248.999C55.0883 248.999 54 247.911 54 246.569Z" fill="#5F605E" fill-rule="evenodd"/><path d="M141.731 266.366 139.906 263.243 139.906 263.138C140.017 260.26 138.522 257.556 136.017 256.103 133.512 254.633 130.4 254.633 127.895 256.103 125.386 257.552 123.889 260.259 124.007 263.138 123.997 265.606 125.152 267.937 127.128 269.438L127.128 276 135.488 276 135.488 272.876 136.784 272.876C137.62 272.882 138.422 272.55 139.006 271.958 139.585 271.367 139.908 270.576 139.906 269.753L139.906 268.178 141.07 268.178C141.76 268.125 142.369 267.338 141.731 266.366ZM131.24 265.357C131.757 265.278 132.027 265.921 131.706 266.351L131.659 266.41C131.318 266.824 130.612 266.737 130.562 266.221 130.533 265.918 130.133 265.607 129.949 265.842L128.776 267.338 127.7 266.507C127.464 266.324 127.777 265.927 128.082 265.898 128.603 265.849 128.69 265.148 128.273 264.81L128.213 264.763C127.78 264.445 127.132 264.713 127.212 265.226 127.258 265.526 126.947 265.925 126.711 265.742L125.696 264.959 126.874 263.456C127.059 263.221 126.656 262.913 126.354 262.959 125.836 263.038 125.566 262.395 125.887 261.965L125.934 261.905C126.275 261.492 126.981 261.579 127.031 262.095 127.06 262.397 127.46 262.708 127.645 262.474L128.818 260.977 129.826 261.757C130.063 261.94 129.75 262.336 129.445 262.365 128.924 262.415 128.837 263.116 129.254 263.454L129.314 263.501C129.747 263.819 130.395 263.55 130.316 263.037 130.269 262.737 130.579 262.338 130.817 262.521L131.898 263.356 130.719 264.86C130.535 265.094 130.937 265.403 131.24 265.357ZM135.252 261.008C135.05 261.164 134.785 260.823 134.825 260.567 134.894 260.13 134.328 259.911 133.959 260.182L133.907 260.221C133.551 260.51 133.639 261.097 134.082 261.14 134.342 261.166 134.609 261.504 134.407 261.659L133.541 262.327 132.538 261.045C132.381 260.845 132.04 261.109 132.014 261.367 131.971 261.808 131.379 261.894 131.088 261.54L131.048 261.489C130.775 261.122 130.995 260.562 131.436 260.629 131.694 260.669 132.037 260.407 131.881 260.206L130.882 258.93 131.743 258.267C131.945 258.111 132.209 258.451 132.169 258.708 132.101 259.145 132.666 259.364 133.036 259.093L133.088 259.054C133.444 258.765 133.357 258.178 132.913 258.135 132.654 258.11 132.386 257.772 132.589 257.616L133.512 256.905 134.515 258.187C134.671 258.387 135.013 258.122 135.038 257.865 135.081 257.424 135.673 257.338 135.964 257.691L136.004 257.742C136.276 258.11 136.057 258.67 135.615 258.602 135.358 258.562 135.015 258.825 135.171 259.025L136.169 260.303Z" fill="#FFFFFF" fill-rule="evenodd"/><path d="M81.7999 232 68.0001 232 68.0001 239.273C68.0021 239.941 68.5381 240.483 69.2 240.485L81.1999 240.485 81.1999 242 82.9999 242 82.9999 233.212C82.9979 232.544 82.4618 232.002 81.7999 232Z" fill="#FFFFFF" fill-rule="evenodd"/><path d="M59.8859 229.875C59.8954 229.401 59.4886 229.009 58.9774 229 58.9659 229 58.9545 229 58.9431 229 58.4319 228.991 58.0097 229.369 58.0003 229.843 58.0001 229.854 58.0001 229.865 58.0003 229.875L58.0003 243 59.8859 243 59.8859 240.083 69.0001 240.083 69.0001 237.167 59.8859 233.667Z" fill="#FFFFFF" fill-rule="evenodd"/><path d="M66.4999 229.5C66.4999 230.604 65.6045 231.5 64.5 231.5 63.3954 231.5 62.5001 230.604 62.5001 229.5 62.5001 228.395 63.3954 227.5 64.5 227.5 65.6045 227.5 66.4999 228.395 66.4999 229.5Z" stroke="#FFFFFF" stroke-width="4.58333" stroke-miterlimit="8" fill="#FFFFFF" fill-rule="evenodd"/><path d="M65.5002 235.485 69.5 237.5 69.5 234.004 68.9892 233.746C67.6287 233.066 66.0699 233.843 65.5002 235.485Z" stroke="#FFFFFF" stroke-width="4.58333" stroke-miterlimit="8" fill="#FFFFFF" fill-rule="evenodd"/><path d="M110 226.8C110 224.16 108.71 222 106.1 222 103.49 222 103.58 223.2 101 223.2 98.4201 223.2 98.5101 222 95.9001 222 93.2901 222 92.0001 224.16 92.0001 226.8 92.0001 229.44 94.1001 232.05 94.1001 234.3 94.1001 236.43 93.8001 238.23 93.8001 239.7 93.8001 241.17 93.7701 246 95.9001 246 98.0301 246 98.0001 241.62 98.0001 239.7 98.0001 237.78 98.2401 234.9 101 234.9 103.76 234.9 104 237.78 104 239.7 104 241.62 103.97 246 106.1 246 108.23 246 108.2 241.17 108.2 239.7 108.2 238.23 107.9 236.43 107.9 234.3 107.9 232.05 110 229.44 110 226.8Z" fill="#FFFFFF" fill-rule="evenodd"/><path d="M64 272C64 273.105 62.8807 274 61.5001 274 60.1194 274 59.0001 273.105 59.0001 272 59.0001 270.895 60.1194 270 61.5001 270 62.8807 270 64 270.895 64 272Z" stroke="#FFFFFF" stroke-width="2.29167" stroke-miterlimit="8" fill="#FFFFFF" fill-rule="evenodd"/><path d="M79.0001 272C79.0001 273.105 78.1046 274 77 274 75.8954 274 74.9999 273.105 74.9999 272 74.9999 270.895 75.8954 270 77 270 78.1046 270 79.0001 270.895 79.0001 272Z" stroke="#FFFFFF" stroke-width="2.29167" stroke-miterlimit="8" fill="#FFFFFF" fill-rule="evenodd"/><path d="M82.4599 267.527 80.6711 266.254C80.4365 266.09 80.2695 265.854 80.1986 265.586L79.5236 263.391C79.1794 262.306 78.1263 261.558 76.9249 261.545L76.2499 261.545 76.2499 259.954C76.2499 259.427 75.7966 259 75.2374 259L74.5624 259C74.0032 259 73.5499 259.427 73.5499 259.954L73.5499 261.545 73.5499 261.545 73.5499 260.909C73.5499 260.206 72.9455 259.636 72.2 259.636L57.35 259.636C56.6045 259.636 56 260.206 56 260.909L56 271.727C56 272.43 56.6045 273 57.35 273L58.025 273C58.025 271.243 59.5361 269.818 61.4 269.818 63.2639 269.818 64.775 271.243 64.775 273L74.8999 273C74.8999 271.243 76.4109 269.818 78.2749 269.818 80.1389 269.818 81.6499 271.243 81.6499 273 82.3954 273 82.9999 272.43 82.9999 271.727L82.9999 268.545C82.9999 268.145 82.7998 267.768 82.4599 267.527ZM69.5843 266.254 68.5718 267.909 66.8 266.954 66.8 268.864 64.775 268.864 64.775 266.935 63.0031 267.89 61.9906 266.235 63.7625 265.281 61.9906 264.326 63.0031 262.672 64.775 263.626 64.775 261.698 66.8 261.698 66.8 263.629 68.5718 262.675 69.5843 264.329 67.8124 265.284ZM74.8999 266 74.8999 262.818 76.9249 262.818C77.5269 262.81 78.0566 263.191 78.2074 263.741L78.8824 265.936C78.8824 265.968 78.9161 265.968 78.9161 266Z" fill="#FFFFFF" fill-rule="evenodd"/><path d="M130 234 130 227.647C130 226.094 131.35 224.823 133 224.823 134.65 224.823 136 226.094 136 227.647L136 234 130 234ZM139 240.353 139 227.647C139 224.541 136.3 222 133 222 129.7 222 127 224.541 127 227.647L127 240.353C127 243.459 129.7 246 133 246 136.3 246 139 243.459 139 240.353Z" stroke="#FFFFFF" stroke-width="2.29167" stroke-miterlimit="8" fill="#85D8D1" fill-rule="evenodd"/><path d="M129 235 129 230C129 227.239 131.015 225 133.5 225 135.985 225 138 227.239 138 230L138 235Z" stroke="#FFFFFF" stroke-width="2.29167" stroke-linejoin="round" stroke-miterlimit="10" fill="#FFFFFF" fill-rule="evenodd"/><path d="M108 257C108 258.104 106.881 259 105.5 259 104.119 259 103 258.104 103 257 103 255.895 104.119 255 105.5 255 106.881 255 108 255.895 108 257Z" fill="#FFFFFF" fill-rule="evenodd"/><path d="M110.467 259.522C109.964 259.261 109.36 259.443 109.108 259.965L108.228 261.687 104.353 259.156C104.202 259.052 104.026 259 103.825 259L99.5478 259C99.1705 259 98.8434 259.209 98.6673 259.548L97.0319 262.678C96.7552 263.174 96.9564 263.826 97.4345 264.087 97.5854 264.165 97.7615 264.217 97.9125 264.217 98.2647 264.217 98.6169 264.009 98.7931 263.669L100.152 261.087 101.636 261.087 97.1829 269.696 93.0065 269.696C92.453 269.696 92.0001 270.165 92.0001 270.739 92.0001 271.313 92.453 271.783 93.0065 271.783L97.7867 271.783C98.1641 271.783 98.4911 271.574 98.6673 271.235L100.428 267.87 103.322 270.661 103.095 275.904C103.045 276.478 103.473 276.974 104.026 277 104.051 277 104.051 277 104.076 277 104.605 277 105.058 276.557 105.083 276.009L105.334 270.27C105.36 269.957 105.234 269.67 105.007 269.461L102.567 267.113 105.133 262.156 108.052 264.061C108.278 264.217 108.58 264.269 108.857 264.191 109.133 264.113 109.36 263.93 109.486 263.669L110.869 260.93C111.146 260.435 110.97 259.809 110.467 259.522Z" fill="#FFFFFF" fill-rule="evenodd"/></g></svg>