<svg width="80" height="53" xmlns="http://www.w3.org/2000/svg" xmlns:xlink="http://www.w3.org/1999/xlink" xml:space="preserve" overflow="hidden"><g transform="translate(-170 -79)"><path d="M170 108.107C170 106.943 170.943 106 172.107 106L194.893 106C196.057 106 197 106.943 197 108.107L197 129.893C197 131.056 196.057 132 194.893 132L172.107 132C170.943 132 170 131.056 170 129.893Z" fill="#D62CD0" fill-rule="evenodd"/><path d="M197 108.107C197 106.943 197.943 106 199.107 106L221.893 106C223.057 106 224 106.943 224 108.107L224 129.893C224 131.057 223.057 132 221.893 132L199.107 132C197.943 132 197 131.057 197 129.893Z" fill="#D62CD0" fill-rule="evenodd"/><path d="M224 108.107C224 106.943 224.943 106 226.107 106L247.893 106C249.057 106 250 106.943 250 108.107L250 129.893C250 131.057 249.057 132 247.893 132L226.107 132C224.943 132 224 131.057 224 129.893Z" fill="#D62CD0" fill-rule="evenodd"/><path d="M224 81.1068C224 79.9433 224.943 79.0001 226.107 79.0001L247.893 79.0001C249.057 79.0001 250 79.9433 250 81.1068L250 102.893C250 104.057 249.057 105 247.893 105L226.107 105C224.943 105 224 104.057 224 102.893Z" fill="#D62CD0" fill-rule="evenodd"/><path d="M197 81.1069C197 79.9433 197.943 79.0001 199.107 79.0001L221.893 79.0001C223.057 79.0001 224 79.9433 224 81.1069L224 102.893C224 104.057 223.057 105 221.893 105L199.107 105C197.943 105 197 104.057 197 102.893Z" fill="#5F605E" fill-rule="evenodd"/><path d="M170 81.1068C170 79.9433 170.943 79.0001 172.107 79.0001L194.893 79.0001C196.057 79.0001 197 79.9433 197 81.1068L197 102.893C197 104.057 196.057 105 194.893 105L172.107 105C170.943 105 170 104.057 170 102.893Z" fill="#D62CD0" fill-rule="evenodd"/><path d="M244.761 119.742 243.139 117.065 243.139 116.975C243.237 114.509 241.908 112.191 239.682 110.945 237.456 109.685 234.689 109.685 232.462 110.945 230.232 112.187 228.901 114.507 229.006 116.975 228.997 119.091 230.024 121.089 231.781 122.375L231.781 128 239.211 128 239.211 125.322 240.364 125.322C241.107 125.327 241.82 125.043 242.339 124.535 242.854 124.029 243.14 123.351 243.139 122.645L243.139 121.295 244.173 121.295C244.787 121.25 245.328 120.575 244.761 119.742ZM235.435 118.877C235.895 118.81 236.135 119.361 235.85 119.729L235.808 119.78C235.505 120.134 234.877 120.06 234.833 119.618 234.807 119.358 234.451 119.092 234.288 119.293L233.245 120.575 232.289 119.863C232.079 119.706 232.358 119.366 232.628 119.341 233.092 119.299 233.169 118.698 232.798 118.408L232.745 118.368C232.36 118.095 231.784 118.325 231.855 118.765 231.896 119.022 231.62 119.364 231.409 119.208L230.507 118.536 231.555 117.248C231.719 117.047 231.361 116.782 231.092 116.822 230.632 116.889 230.392 116.338 230.677 115.97L230.719 115.919C231.022 115.565 231.65 115.639 231.694 116.081 231.72 116.34 232.076 116.607 232.24 116.406L233.282 115.123 234.179 115.791C234.389 115.949 234.111 116.288 233.84 116.313 233.377 116.355 233.299 116.956 233.67 117.246L233.723 117.286C234.108 117.559 234.685 117.329 234.614 116.889 234.573 116.632 234.848 116.289 235.059 116.447L236.021 117.162 234.973 118.451C234.809 118.652 235.166 118.917 235.435 118.877ZM239.001 115.15C238.822 115.283 238.587 114.991 238.622 114.772 238.683 114.397 238.181 114.21 237.852 114.441L237.807 114.475C237.49 114.723 237.568 115.226 237.962 115.263 238.193 115.285 238.43 115.575 238.251 115.708L237.481 116.28 236.589 115.181C236.45 115.01 236.146 115.237 236.124 115.457 236.086 115.835 235.559 115.909 235.301 115.606L235.265 115.562C235.023 115.247 235.218 114.767 235.61 114.825 235.839 114.859 236.144 114.634 236.005 114.462L235.117 113.369 235.882 112.8C236.062 112.667 236.297 112.958 236.262 113.178 236.201 113.553 236.703 113.74 237.032 113.509L237.079 113.475C237.395 113.227 237.318 112.724 236.923 112.687 236.692 112.666 236.454 112.376 236.635 112.242L237.455 111.633 238.347 112.731C238.486 112.903 238.789 112.676 238.812 112.455 238.85 112.077 239.376 112.004 239.635 112.307L239.67 112.35C239.912 112.665 239.717 113.145 239.325 113.087 239.096 113.053 238.791 113.278 238.93 113.45L239.817 114.545Z" fill="#FFFFFF" fill-rule="evenodd"/><path d="M192.96 92.0001 181 92.0001 181 97.8183C181.002 98.3532 181.466 98.7863 182.04 98.788L192.44 98.788 192.44 100 194 100 194 92.9698C193.998 92.4349 193.534 92.0017 192.96 92.0001Z" fill="#FFFFFF" fill-rule="evenodd"/><path d="M175.543 89.7502C175.551 89.3435 175.218 89.0077 174.799 89.0002 174.79 89 174.781 89 174.771 89.0002 174.353 88.9926 174.008 89.3162 174 89.7229 174 89.732 174 89.7411 174 89.7502L174 101 175.543 101 175.543 98.5001 183 98.5001 183 96.0001 175.543 93.0001Z" fill="#FFFFFF" fill-rule="evenodd"/><path d="M180.5 88C180.5 88.8284 179.828 89.4999 179 89.4999 178.171 89.4999 177.5 88.8284 177.5 88 177.5 87.1716 178.171 86.5001 179 86.5001 179.828 86.5001 180.5 87.1716 180.5 88Z" stroke="#FFFFFF" stroke-width="4.58333" stroke-miterlimit="8" fill="#FFFFFF" fill-rule="evenodd"/><path d="M179.5 93.9885 182.5 95.5001 182.5 92.878 182.117 92.6843C181.096 92.1748 179.927 92.7575 179.5 93.9885Z" stroke="#FFFFFF" stroke-width="4.58333" stroke-miterlimit="8" fill="#FFFFFF" fill-rule="evenodd"/><path d="M218 86.0002C218 83.8002 216.925 82.0002 214.75 82.0002 212.575 82.0002 212.65 83.0002 210.5 83.0002 208.35 83.0002 208.425 82.0002 206.25 82.0002 204.075 82.0002 203 83.8002 203 86.0002 203 88.2002 204.75 90.3751 204.75 92.2501 204.75 94.0251 204.5 95.5251 204.5 96.7501 204.5 97.9751 204.475 102 206.25 102 208.025 102 208 98.3501 208 96.7501 208 95.1501 208.2 92.7502 210.5 92.7502 212.8 92.7502 213 95.1501 213 96.7501 213 98.3501 212.975 102 214.75 102 216.525 102 216.5 97.9751 216.5 96.7501 216.5 95.5251 216.25 94.0251 216.25 92.2501 216.25 90.3751 218 88.2002 218 86.0002Z" fill="#FFFFFF" fill-rule="evenodd"/><path d="M179 124C179 125.105 178.105 126 177 126 175.895 126 175 125.105 175 124 175 122.896 175.895 122 177 122 178.105 122 179 122.896 179 124Z" stroke="#FFFFFF" stroke-width="2.29167" stroke-miterlimit="8" fill="#FFFFFF" fill-rule="evenodd"/><path d="M192 124C192 125.105 191.105 126 190 126 188.895 126 188 125.105 188 124 188 122.896 188.895 122 190 122 191.105 122 192 122.896 192 124Z" stroke="#FFFFFF" stroke-width="2.29167" stroke-miterlimit="8" fill="#FFFFFF" fill-rule="evenodd"/><path d="M194.54 120.309 193.016 119.218C192.816 119.077 192.674 118.875 192.614 118.646L192.039 116.764C191.745 115.834 190.848 115.193 189.825 115.182L189.25 115.182 189.25 113.818C189.25 113.366 188.864 113 188.387 113L187.812 113C187.336 113 186.95 113.366 186.95 113.818L186.95 115.182 186.95 115.182 186.95 114.636C186.95 114.034 186.435 113.546 185.8 113.546L173.15 113.546C172.515 113.546 172 114.034 172 114.636L172 123.909C172 124.512 172.515 125 173.15 125L173.725 125C173.725 123.494 175.012 122.273 176.6 122.273 178.188 122.273 179.475 123.494 179.475 125L188.1 125C188.1 123.494 189.387 122.273 190.975 122.273 192.563 122.273 193.85 123.494 193.85 125 194.485 125 195 124.512 195 123.909L195 121.182C195 120.839 194.829 120.515 194.54 120.309ZM183.572 119.218 182.709 120.636 181.2 119.818 181.2 121.455 179.475 121.455 179.475 119.802 177.966 120.62 177.103 119.202 178.612 118.384 177.103 117.566 177.966 116.147 179.475 116.966 179.475 115.313 181.2 115.313 181.2 116.968 182.709 116.15 183.572 117.568 182.062 118.386ZM188.1 119 188.1 116.273 189.825 116.273C190.338 116.266 190.789 116.593 190.917 117.064L191.492 118.946C191.492 118.973 191.521 118.973 191.521 119Z" fill="#FFFFFF" fill-rule="evenodd"/><path d="M234.5 92 234.5 86.7058C234.5 85.4118 235.625 84.353 237 84.353 238.375 84.353 239.5 85.4118 239.5 86.7058L239.5 92 234.5 92ZM242 97.2941 242 86.7058C242 84.1176 239.75 82 237 82 234.25 82 232 84.1176 232 86.7058L232 97.2941C232 99.8824 234.25 102 237 102 239.75 102 242 99.8824 242 97.2941Z" stroke="#FFFFFF" stroke-width="2.29167" stroke-miterlimit="8" fill="#85D8D1" fill-rule="evenodd"/><path d="M234 93 234 88.4998C234 86.0145 235.567 83.9997 237.5 83.9997 239.433 83.9997 241 86.0145 241 88.4998L241 93Z" stroke="#FFFFFF" stroke-width="2.29167" stroke-linejoin="round" stroke-miterlimit="10" fill="#FFFFFF" fill-rule="evenodd"/><path d="M216 111.5C216 112.329 215.105 113 214 113 212.895 113 212 112.329 212 111.5 212 110.672 212.895 110 214 110 215.105 110 216 110.672 216 111.5Z" fill="#FFFFFF" fill-rule="evenodd"/><path d="M218.523 113.435C218.073 113.217 217.532 113.37 217.307 113.804L216.519 115.239 213.053 113.131C212.918 113.044 212.76 113 212.58 113L208.753 113C208.416 113 208.123 113.174 207.965 113.457L206.502 116.065C206.255 116.478 206.435 117.022 206.862 117.239 206.997 117.304 207.155 117.348 207.29 117.348 207.605 117.348 207.92 117.174 208.078 116.891L209.294 114.739 210.622 114.739 206.637 121.913 202.901 121.913C202.405 121.913 202 122.304 202 122.783 202 123.261 202.405 123.652 202.901 123.652L207.178 123.652C207.515 123.652 207.808 123.478 207.965 123.196L209.541 120.391 212.13 122.717 211.927 127.087C211.882 127.565 212.265 127.978 212.76 128 212.783 128 212.783 128 212.805 128 213.278 128 213.683 127.63 213.706 127.174L213.931 122.391C213.953 122.13 213.841 121.891 213.638 121.717L211.455 119.761 213.751 115.631 216.362 117.217C216.564 117.348 216.835 117.391 217.082 117.326 217.33 117.261 217.532 117.109 217.645 116.891L218.883 114.609C219.131 114.196 218.973 113.674 218.523 113.435Z" fill="#FFFFFF" fill-rule="evenodd"/></g></svg>