<svg width="94" height="62" xmlns="http://www.w3.org/2000/svg" xmlns:xlink="http://www.w3.org/1999/xlink" xml:space="preserve" overflow="hidden"><defs><clipPath id="clip0"><rect x="166" y="75" width="94" height="62"/></clipPath></defs><g clip-path="url(#clip0)" transform="translate(-166 -75)"><path d="M166 108.512C166 107.124 167.125 106 168.512 106L194.488 106C195.875 106 197 107.124 197 108.512L197 134.488C197 135.876 195.875 137 194.488 137L168.512 137C167.125 137 166 135.876 166 134.488Z" fill="#D62CD0" fill-rule="evenodd"/><path d="M198 108.512C198 107.124 199.125 106 200.512 106L226.488 106C227.875 106 229 107.124 229 108.512L229 134.488C229 135.876 227.875 137 226.488 137L200.512 137C199.125 137 198 135.876 198 134.488Z" fill="#D62CD0" fill-rule="evenodd"/><path d="M229 108.512C229 107.124 230.125 106 231.512 106L257.488 106C258.875 106 260 107.124 260 108.512L260 134.488C260 135.876 258.875 137 257.488 137L231.512 137C230.125 137 229 135.876 229 134.488Z" fill="#D62CD0" fill-rule="evenodd"/><path d="M229 77.4308C229 76.0883 230.088 74.9999 231.431 74.9999L257.569 74.9999C258.912 74.9999 260 76.0883 260 77.4308L260 102.569C260 103.911 258.912 104.999 257.569 104.999L231.431 104.999C230.088 104.999 229 103.911 229 102.569Z" fill="#D62CD0" fill-rule="evenodd"/><path d="M198 77.4308C198 76.0883 199.088 74.9999 200.431 74.9999L226.569 74.9999C227.912 74.9999 229 76.0883 229 77.4308L229 102.569C229 103.911 227.912 104.999 226.569 104.999L200.431 104.999C199.088 104.999 198 103.911 198 102.569Z" fill="#5F605E" fill-rule="evenodd"/><path d="M166 77.4308C166 76.0883 167.088 74.9999 168.431 74.9999L194.569 74.9999C195.912 74.9999 197 76.0883 197 77.4308L197 102.569C197 103.911 195.912 104.999 194.569 104.999L168.431 104.999C167.088 104.999 166 103.911 166 102.569Z" fill="#D62CD0" fill-rule="evenodd"/><path d="M253.731 122.366 251.906 119.243 251.906 119.138C252.017 116.26 250.522 113.556 248.017 112.103 245.513 110.633 242.4 110.633 239.895 112.103 237.386 113.551 235.889 116.259 236.007 119.138 235.997 121.606 237.152 123.937 239.128 125.438L239.128 132 247.488 132 247.488 128.876 248.784 128.876C249.62 128.882 250.422 128.55 251.006 127.958 251.585 127.367 251.908 126.576 251.906 125.753L251.906 124.178 253.07 124.178C253.76 124.125 254.369 123.338 253.731 122.366ZM243.24 121.357C243.757 121.278 244.027 121.921 243.706 122.351L243.659 122.41C243.318 122.824 242.612 122.737 242.562 122.221 242.533 121.918 242.133 121.607 241.949 121.842L240.776 123.338 239.7 122.507C239.464 122.323 239.777 121.927 240.082 121.898 240.603 121.849 240.69 121.148 240.273 120.81L240.213 120.763C239.78 120.445 239.132 120.713 239.212 121.226 239.258 121.526 238.947 121.925 238.711 121.742L237.696 120.958 238.874 119.456C239.059 119.221 238.656 118.913 238.354 118.959 237.836 119.038 237.566 118.395 237.887 117.965L237.934 117.905C238.275 117.492 238.981 117.579 239.031 118.095 239.061 118.397 239.461 118.708 239.645 118.474L240.818 116.977 241.826 117.757C242.063 117.94 241.75 118.336 241.445 118.365 240.924 118.415 240.837 119.115 241.254 119.454L241.314 119.501C241.747 119.819 242.395 119.55 242.316 119.037 242.269 118.737 242.579 118.338 242.817 118.521L243.898 119.356 242.719 120.86C242.535 121.094 242.937 121.403 243.24 121.357ZM247.252 117.008C247.05 117.164 246.785 116.823 246.825 116.567 246.894 116.13 246.328 115.911 245.959 116.182L245.908 116.221C245.551 116.51 245.639 117.097 246.082 117.14 246.342 117.166 246.609 117.504 246.407 117.659L245.541 118.327 244.538 117.045C244.381 116.845 244.04 117.109 244.014 117.367 243.972 117.808 243.38 117.894 243.089 117.54L243.048 117.489C242.776 117.122 242.995 116.562 243.436 116.629 243.694 116.669 244.037 116.406 243.881 116.206L242.882 114.93 243.743 114.267C243.945 114.111 244.209 114.451 244.169 114.708 244.101 115.145 244.666 115.364 245.036 115.093L245.089 115.054C245.444 114.765 245.357 114.178 244.913 114.135 244.654 114.11 244.386 113.772 244.589 113.616L245.512 112.905 246.515 114.187C246.672 114.387 247.013 114.122 247.038 113.865 247.081 113.424 247.673 113.338 247.964 113.691L248.004 113.742C248.277 114.11 248.057 114.67 247.615 114.602 247.358 114.562 247.015 114.825 247.171 115.025L248.169 116.303Z" fill="#FFFFFF" fill-rule="evenodd"/><path d="M193.8 88 180 88 180 95.2728C180.002 95.9414 180.538 96.4828 181.2 96.4849L193.2 96.4849 193.2 98 195 98 195 89.2121C194.998 88.5435 194.462 88.002 193.8 88Z" fill="#FFFFFF" fill-rule="evenodd"/><path d="M171.886 86.8751C171.895 86.4006 171.489 86.0089 170.977 86.0001 170.966 85.9999 170.955 85.9999 170.943 86.0001 170.432 85.9913 170.01 86.3688 170 86.8433 170 86.8539 170 86.8645 170 86.8751L170 100 171.886 100 171.886 97.0834 181 97.0834 181 94.1668 171.886 90.6668Z" fill="#FFFFFF" fill-rule="evenodd"/><path d="M178.5 85.5001C178.5 86.6048 177.605 87.5002 176.5 87.5002 175.396 87.5002 174.5 86.6048 174.5 85.5001 174.5 84.3955 175.396 83.5 176.5 83.5 177.605 83.5 178.5 84.3955 178.5 85.5001Z" stroke="#FFFFFF" stroke-width="4.58333" stroke-miterlimit="8" fill="#FFFFFF" fill-rule="evenodd"/><path d="M177.5 91.4846 181.5 93.5 181.5 90.0039 180.989 89.7457C179.629 89.0663 178.07 89.8432 177.5 91.4846Z" stroke="#FFFFFF" stroke-width="4.58333" stroke-miterlimit="8" fill="#FFFFFF" fill-rule="evenodd"/><path d="M222 82.8C222 80.16 220.71 78 218.1 78 215.49 78 215.58 79.2 213 79.2 210.42 79.2 210.51 78 207.9 78 205.29 78 204 80.16 204 82.8 204 85.4401 206.1 88.05 206.1 90.3001 206.1 92.4301 205.8 94.2301 205.8 95.7001 205.8 97.1701 205.77 102 207.9 102 210.03 102 210 97.6201 210 95.7001 210 93.7801 210.24 90.9001 213 90.9001 215.76 90.9001 216 93.7801 216 95.7001 216 97.6201 215.97 102 218.1 102 220.23 102 220.2 97.1701 220.2 95.7001 220.2 94.2301 219.9 92.4301 219.9 90.3001 219.9 88.05 222 85.4401 222 82.8Z" fill="#FFFFFF" fill-rule="evenodd"/><path d="M176 128C176 129.105 174.881 130 173.5 130 172.119 130 171 129.105 171 128 171 126.896 172.119 126 173.5 126 174.881 126 176 126.896 176 128Z" stroke="#FFFFFF" stroke-width="2.29167" stroke-miterlimit="8" fill="#FFFFFF" fill-rule="evenodd"/><path d="M191 128C191 129.105 190.105 130 189 130 187.895 130 187 129.105 187 128 187 126.896 187.895 126 189 126 190.105 126 191 126.896 191 128Z" stroke="#FFFFFF" stroke-width="2.29167" stroke-miterlimit="8" fill="#FFFFFF" fill-rule="evenodd"/><path d="M194.46 123.136 192.671 121.773C192.437 121.596 192.27 121.343 192.199 121.057L191.524 118.705C191.179 117.542 190.126 116.741 188.925 116.727L188.25 116.727 188.25 115.023C188.25 114.458 187.797 114 187.237 114L186.562 114C186.003 114 185.55 114.458 185.55 115.023L185.55 116.727 185.55 116.727 185.55 116.046C185.55 115.292 184.946 114.682 184.2 114.682L169.35 114.682C168.605 114.682 168 115.292 168 116.046L168 127.636C168 128.389 168.605 129 169.35 129L170.025 129C170.025 127.117 171.536 125.591 173.4 125.591 175.264 125.591 176.775 127.117 176.775 129L186.9 129C186.9 127.117 188.411 125.591 190.275 125.591 192.139 125.591 193.65 127.117 193.65 129 194.395 129 195 128.389 195 127.636L195 124.227C195 123.798 194.8 123.394 194.46 123.136ZM181.584 121.773 180.572 123.545 178.8 122.523 178.8 124.568 176.775 124.568 176.775 122.502 175.003 123.525 173.991 121.752 175.763 120.73 173.991 119.707 175.003 117.934 176.775 118.957 176.775 116.891 178.8 116.891 178.8 118.96 180.572 117.938 181.584 119.71 179.812 120.733ZM186.9 121.5 186.9 118.091 188.925 118.091C189.527 118.083 190.057 118.491 190.207 119.08L190.882 121.432C190.882 121.466 190.916 121.466 190.916 121.5Z" fill="#FFFFFF" fill-rule="evenodd"/><path d="M242 89.5001 242 83.4118C242 81.9236 243.35 80.706 245 80.706 246.65 80.706 248 81.9236 248 83.4118L248 89.5001 242 89.5001ZM251 95.5884 251 83.4118C251 80.4353 248.3 78 245 78 241.7 78 239 80.4353 239 83.4118L239 95.5884C239 98.5649 241.7 101 245 101 248.3 101 251 98.5649 251 95.5884Z" stroke="#FFFFFF" stroke-width="2.29167" stroke-miterlimit="8" fill="#85D8D1" fill-rule="evenodd"/><path d="M241 90.9999 241 85.9999C241 83.2385 243.015 80.9999 245.5 80.9999 247.985 80.9999 250 83.2385 250 85.9999L250 90.9999Z" stroke="#FFFFFF" stroke-width="2.29167" stroke-linejoin="round" stroke-miterlimit="10" fill="#FFFFFF" fill-rule="evenodd"/><path d="M220 113C220 114.105 218.881 115 217.5 115 216.119 115 215 114.105 215 113 215 111.896 216.119 111 217.5 111 218.881 111 220 111.896 220 113Z" fill="#FFFFFF" fill-rule="evenodd"/><path d="M222.467 115.493C221.964 115.247 221.36 115.419 221.108 115.912L220.228 117.538 216.353 115.148C216.202 115.049 216.026 115 215.825 115L211.548 115C211.17 115 210.843 115.197 210.667 115.518L209.032 118.474C208.755 118.942 208.956 119.558 209.434 119.804 209.585 119.878 209.761 119.928 209.912 119.928 210.265 119.928 210.617 119.731 210.793 119.41L212.151 116.971 213.636 116.971 209.183 125.102 205.006 125.102C204.453 125.102 204 125.545 204 126.087 204 126.629 204.453 127.073 205.006 127.073L209.787 127.073C210.164 127.073 210.491 126.875 210.667 126.555L212.428 123.377 215.322 126.013 215.095 130.965C215.045 131.507 215.473 131.975 216.026 132 216.051 132 216.051 132 216.076 132 216.605 132 217.058 131.581 217.083 131.064L217.334 125.644C217.36 125.348 217.234 125.077 217.007 124.88L214.567 122.662 217.133 117.981 220.052 119.78C220.278 119.928 220.58 119.977 220.857 119.903 221.133 119.829 221.36 119.657 221.486 119.41L222.869 116.823C223.146 116.355 222.97 115.764 222.467 115.493Z" fill="#FFFFFF" fill-rule="evenodd"/></g></svg>