<svg width="94" height="62" xmlns="http://www.w3.org/2000/svg" xmlns:xlink="http://www.w3.org/1999/xlink" xml:space="preserve" overflow="hidden"><g transform="translate(-166 -145)"><path d="M166 178.512C166 177.125 167.125 176 168.512 176L194.488 176C195.875 176 197 177.125 197 178.512L197 204.488C197 205.875 195.875 207 194.488 207L168.512 207C167.125 207 166 205.875 166 204.488Z" fill="#D62CD0" fill-rule="evenodd"/><path d="M198 178.512C198 177.125 199.125 176 200.512 176L226.488 176C227.875 176 229 177.125 229 178.512L229 204.488C229 205.875 227.875 207 226.488 207L200.512 207C199.125 207 198 205.875 198 204.488Z" fill="#D62CD0" fill-rule="evenodd"/><path d="M229 178.512C229 177.125 230.125 176 231.512 176L257.488 176C258.875 176 260 177.125 260 178.512L260 204.488C260 205.875 258.875 207 257.488 207L231.512 207C230.125 207 229 205.875 229 204.488Z" fill="#5F605E" fill-rule="evenodd"/><path d="M229 147.431C229 146.088 230.088 145 231.431 145L257.569 145C258.912 145 260 146.088 260 147.431L260 172.569C260 173.911 258.912 175 257.569 175L231.431 175C230.088 175 229 173.911 229 172.569Z" fill="#D62CD0" fill-rule="evenodd"/><path d="M198 147.431C198 146.088 199.088 145 200.431 145L226.569 145C227.912 145 229 146.088 229 147.431L229 172.569C229 173.911 227.912 175 226.569 175L200.431 175C199.088 175 198 173.911 198 172.569Z" fill="#D62CD0" fill-rule="evenodd"/><path d="M166 147.431C166 146.088 167.088 145 168.431 145L194.569 145C195.912 145 197 146.088 197 147.431L197 172.569C197 173.911 195.912 175 194.569 175L168.431 175C167.088 175 166 173.911 166 172.569Z" fill="#5F605E" fill-rule="evenodd"/><path d="M253.731 192.366 251.906 189.243 251.906 189.138C252.017 186.26 250.522 183.556 248.017 182.103 245.513 180.633 242.4 180.633 239.895 182.103 237.386 183.552 235.889 186.259 236.007 189.138 235.997 191.606 237.152 193.937 239.128 195.438L239.128 202 247.488 202 247.488 198.876 248.784 198.876C249.62 198.882 250.422 198.55 251.006 197.958 251.585 197.368 251.908 196.576 251.906 195.753L251.906 194.178 253.07 194.178C253.76 194.125 254.369 193.338 253.731 192.366ZM243.24 191.357C243.757 191.278 244.027 191.921 243.706 192.351L243.659 192.411C243.318 192.824 242.612 192.737 242.562 192.221 242.533 191.918 242.133 191.607 241.949 191.842L240.776 193.338 239.7 192.507C239.464 192.324 239.777 191.928 240.082 191.898 240.603 191.849 240.69 191.148 240.273 190.81L240.213 190.763C239.78 190.445 239.132 190.713 239.212 191.226 239.258 191.526 238.947 191.925 238.711 191.742L237.696 190.959 238.874 189.456C239.059 189.221 238.656 188.913 238.354 188.959 237.836 189.038 237.566 188.395 237.887 187.965L237.934 187.906C238.275 187.492 238.981 187.579 239.031 188.095 239.061 188.397 239.461 188.708 239.645 188.474L240.818 186.978 241.826 187.757C242.063 187.94 241.75 188.336 241.445 188.365 240.924 188.415 240.837 189.116 241.254 189.454L241.314 189.501C241.747 189.819 242.395 189.55 242.316 189.037 242.269 188.737 242.579 188.338 242.817 188.521L243.898 189.356 242.719 190.86C242.535 191.094 242.937 191.403 243.24 191.357ZM247.252 187.008C247.05 187.164 246.785 186.823 246.825 186.568 246.894 186.13 246.328 185.911 245.959 186.182L245.908 186.222C245.551 186.51 245.639 187.097 246.082 187.14 246.342 187.167 246.609 187.504 246.407 187.66L245.541 188.327 244.538 187.045C244.381 186.845 244.04 187.11 244.014 187.367 243.972 187.808 243.38 187.894 243.089 187.541L243.048 187.489C242.776 187.122 242.995 186.562 243.436 186.629 243.694 186.669 244.037 186.407 243.881 186.206L242.882 184.93 243.743 184.267C243.945 184.112 244.209 184.451 244.169 184.708 244.101 185.146 244.666 185.364 245.036 185.094L245.089 185.054C245.444 184.765 245.357 184.178 244.913 184.135 244.654 184.11 244.386 183.772 244.589 183.616L245.512 182.905 246.515 184.187C246.672 184.387 247.013 184.122 247.038 183.865 247.081 183.424 247.673 183.338 247.964 183.691L248.004 183.742C248.277 184.11 248.057 184.67 247.615 184.602 247.358 184.562 247.015 184.825 247.171 185.025L248.169 186.303Z" fill="#FFFFFF" fill-rule="evenodd"/><path d="M192.8 158 179 158 179 165.273C179.002 165.941 179.538 166.483 180.2 166.485L192.2 166.485 192.2 168 194 168 194 159.212C193.998 158.544 193.462 158.002 192.8 158Z" fill="#FFFFFF" fill-rule="evenodd"/><path d="M171.715 155.875C171.723 155.401 171.353 155.009 170.889 155 170.878 155 170.868 155 170.857 155 170.393 154.991 170.009 155.369 170 155.843 170 155.854 170 155.865 170 155.875L170 169 171.715 169 171.715 166.084 180 166.084 180 163.167 171.715 159.667Z" fill="#FFFFFF" fill-rule="evenodd"/><path d="M177.5 155.5C177.5 156.605 176.828 157.5 176 157.5 175.172 157.5 174.5 156.605 174.5 155.5 174.5 154.396 175.172 153.5 176 153.5 176.828 153.5 177.5 154.396 177.5 155.5Z" stroke="#FFFFFF" stroke-width="4.58333" stroke-miterlimit="8" fill="#FFFFFF" fill-rule="evenodd"/><path d="M177.5 160.989 181.5 162.5 181.5 159.878 180.989 159.684C179.629 159.175 178.07 159.757 177.5 160.989Z" stroke="#FFFFFF" stroke-width="4.58333" stroke-miterlimit="8" fill="#FFFFFF" fill-rule="evenodd"/><path d="M222 152.8C222 150.16 220.71 148 218.1 148 215.49 148 215.58 149.2 213 149.2 210.42 149.2 210.51 148 207.9 148 205.29 148 204 150.16 204 152.8 204 155.44 206.1 158.05 206.1 160.3 206.1 162.43 205.8 164.23 205.8 165.7 205.8 167.17 205.77 172 207.9 172 210.03 172 210 167.62 210 165.7 210 163.78 210.24 160.9 213 160.9 215.76 160.9 216 163.78 216 165.7 216 167.62 215.97 172 218.1 172 220.23 172 220.2 167.17 220.2 165.7 220.2 164.23 219.9 162.43 219.9 160.3 219.9 158.05 222 155.44 222 152.8Z" fill="#FFFFFF" fill-rule="evenodd"/><path d="M176 197.5C176 198.881 174.881 200 173.5 200 172.119 200 171 198.881 171 197.5 171 196.119 172.119 195 173.5 195 174.881 195 176 196.119 176 197.5Z" stroke="#FFFFFF" stroke-width="2.29167" stroke-miterlimit="8" fill="#FFFFFF" fill-rule="evenodd"/><path d="M191 197.5C191 198.881 190.105 200 189 200 187.895 200 187 198.881 187 197.5 187 196.119 187.895 195 189 195 190.105 195 191 196.119 191 197.5Z" stroke="#FFFFFF" stroke-width="2.29167" stroke-miterlimit="8" fill="#FFFFFF" fill-rule="evenodd"/><path d="M193.48 193.136 191.757 191.773C191.531 191.596 191.371 191.343 191.302 191.057L190.652 188.704C190.321 187.542 189.307 186.74 188.15 186.727L187.5 186.727 187.5 185.023C187.5 184.458 187.063 184 186.525 184L185.875 184C185.336 184 184.9 184.458 184.9 185.023L184.9 186.727 184.9 186.727 184.9 186.045C184.9 185.292 184.318 184.682 183.6 184.682L169.3 184.682C168.582 184.682 168 185.292 168 186.045L168 197.636C168 198.39 168.582 199 169.3 199L169.95 199C169.95 197.117 171.405 195.591 173.2 195.591 174.995 195.591 176.45 197.117 176.45 199L186.2 199C186.2 197.117 187.655 195.591 189.45 195.591 191.245 195.591 192.7 197.117 192.7 199 193.418 199 194 198.39 194 197.636L194 194.227C194 193.798 193.807 193.394 193.48 193.136ZM181.081 191.773 180.106 193.545 178.4 192.523 178.4 194.568 176.45 194.568 176.45 192.502 174.744 193.525 173.769 191.752 175.475 190.73 173.769 189.707 174.744 187.934 176.45 188.957 176.45 186.891 178.4 186.891 178.4 188.96 180.106 187.937 181.081 189.71 179.375 190.733ZM186.2 191.5 186.2 188.091 188.15 188.091C188.73 188.082 189.24 188.491 189.385 189.08L190.035 191.432C190.035 191.466 190.067 191.466 190.067 191.5Z" fill="#FFFFFF" fill-rule="evenodd"/><path d="M242 159.5 242 153.412C242 151.923 243.35 150.706 245 150.706 246.65 150.706 248 151.923 248 153.412L248 159.5 242 159.5ZM251 165.588 251 153.412C251 150.435 248.3 148 245 148 241.7 148 239 150.435 239 153.412L239 165.588C239 168.564 241.7 171 245 171 248.3 171 251 168.564 251 165.588Z" stroke="#FFFFFF" stroke-width="2.29167" stroke-miterlimit="8" fill="#85D8D1" fill-rule="evenodd"/><path d="M240 161 240 155.5C240 152.462 242.015 150 244.5 150 246.985 150 249 152.462 249 155.5L249 161Z" stroke="#FFFFFF" stroke-width="2.29167" stroke-linejoin="round" stroke-miterlimit="10" fill="#FFFFFF" fill-rule="evenodd"/><path d="M219 182C219 183.105 218.105 184 217 184 215.895 184 215 183.105 215 182 215 180.896 215.895 180 217 180 218.105 180 219 180.896 219 182Z" fill="#FFFFFF" fill-rule="evenodd"/><path d="M222.467 185.493C221.964 185.246 221.36 185.419 221.108 185.912L220.228 187.538 216.353 185.148C216.202 185.049 216.026 185 215.825 185L211.548 185C211.17 185 210.843 185.197 210.667 185.517L209.032 188.474C208.755 188.942 208.956 189.558 209.434 189.804 209.585 189.878 209.761 189.928 209.912 189.928 210.265 189.928 210.617 189.73 210.793 189.41L212.151 186.971 213.636 186.971 209.183 195.102 205.006 195.102C204.453 195.102 204 195.545 204 196.087 204 196.629 204.453 197.073 205.006 197.073L209.787 197.073C210.164 197.073 210.491 196.875 210.667 196.555L212.428 193.377 215.322 196.013 215.095 200.965C215.045 201.507 215.473 201.975 216.026 202 216.051 202 216.051 202 216.076 202 216.605 202 217.058 201.581 217.083 201.064L217.334 195.644C217.36 195.348 217.234 195.077 217.007 194.88L214.567 192.662 217.133 187.981 220.052 189.78C220.278 189.928 220.58 189.977 220.857 189.903 221.133 189.829 221.36 189.657 221.486 189.41L222.869 186.823C223.146 186.355 222.97 185.764 222.467 185.493Z" fill="#FFFFFF" fill-rule="evenodd"/></g></svg>