<svg width="80" height="52" xmlns="http://www.w3.org/2000/svg" xmlns:xlink="http://www.w3.org/1999/xlink" xml:space="preserve" overflow="hidden"><defs><clipPath id="clip0"><rect x="172" y="148" width="80" height="52"/></clipPath></defs><g clip-path="url(#clip0)" transform="translate(-172 -148)"><path d="M172 177.026C172 175.907 172.907 175 174.026 175L195.974 175C197.093 175 198 175.907 198 177.026L198 197.974C198 199.093 197.093 200 195.974 200L174.026 200C172.907 200 172 199.093 172 197.974Z" fill="#D62CD0" fill-rule="evenodd"/><path d="M199 177.026C199 175.907 199.907 175 201.026 175L222.974 175C224.093 175 225 175.907 225 177.026L225 197.974C225 199.093 224.093 200 222.974 200L201.026 200C199.907 200 199 199.093 199 197.974Z" fill="#D62CD0" fill-rule="evenodd"/><path d="M226 177.026C226 175.907 226.907 175 228.026 175L249.974 175C251.093 175 252 175.907 252 177.026L252 197.974C252 199.093 251.093 200 249.974 200L228.026 200C226.907 200 226 199.093 226 197.974Z" fill="#5F605E" fill-rule="evenodd"/><path d="M226 150.107C226 148.943 226.943 148 228.107 148L249.893 148C251.057 148 252 148.943 252 150.107L252 171.894C252 173.057 251.057 174 249.893 174L228.107 174C226.943 174 226 173.057 226 171.894Z" fill="#D62CD0" fill-rule="evenodd"/><path d="M199 150.107C199 148.943 199.943 148 201.107 148L222.893 148C224.057 148 225 148.943 225 150.107L225 171.894C225 173.057 224.057 174 222.893 174L201.107 174C199.943 174 199 173.057 199 171.894Z" fill="#D62CD0" fill-rule="evenodd"/><path d="M172 150.107C172 148.943 172.943 148 174.107 148L195.893 148C197.057 148 198 148.943 198 150.107L198 171.894C198 173.057 197.057 174 195.893 174L174.107 174C172.943 174 172 173.057 172 171.894Z" fill="#5F605E" fill-rule="evenodd"/><path d="M246.761 187.743 245.139 185.065 245.139 184.975C245.237 182.509 243.909 180.191 241.682 178.945 239.456 177.685 236.689 177.685 234.463 178.945 232.232 180.187 230.901 182.507 231.006 184.975 230.997 187.091 232.024 189.089 233.781 190.375L233.781 196 241.212 196 241.212 193.322 242.364 193.322C243.107 193.327 243.82 193.043 244.339 192.535 244.854 192.029 245.141 191.351 245.139 190.645L245.139 189.295 246.173 189.295C246.787 189.25 247.328 188.575 246.761 187.743ZM237.435 186.877C237.895 186.81 238.135 187.361 237.85 187.729L237.808 187.78C237.505 188.134 236.877 188.06 236.833 187.618 236.807 187.358 236.452 187.092 236.288 187.293L235.245 188.575 234.289 187.863C234.079 187.706 234.358 187.366 234.628 187.341 235.092 187.299 235.169 186.698 234.798 186.408L234.745 186.368C234.36 186.096 233.784 186.325 233.855 186.765 233.896 187.022 233.62 187.365 233.409 187.208L232.507 186.536 233.555 185.248C233.719 185.047 233.361 184.782 233.092 184.822 232.632 184.89 232.392 184.338 232.677 183.97L232.719 183.919C233.022 183.565 233.65 183.639 233.694 184.082 233.72 184.341 234.076 184.607 234.24 184.406L235.282 183.124 236.179 183.791C236.389 183.949 236.111 184.288 235.84 184.313 235.377 184.355 235.299 184.956 235.67 185.246L235.723 185.286C236.108 185.559 236.685 185.329 236.614 184.889 236.573 184.632 236.848 184.289 237.059 184.447L238.021 185.162 236.973 186.451C236.809 186.652 237.166 186.917 237.435 186.877ZM241.002 183.15C240.822 183.283 240.587 182.991 240.622 182.772 240.683 182.397 240.181 182.21 239.852 182.441L239.807 182.476C239.49 182.723 239.568 183.226 239.962 183.263 240.193 183.286 240.43 183.575 240.251 183.708L239.481 184.28 238.589 183.181C238.45 183.01 238.146 183.237 238.124 183.457 238.086 183.835 237.56 183.909 237.301 183.606L237.265 183.562C237.023 183.247 237.218 182.767 237.61 182.825 237.839 182.859 238.144 182.634 238.005 182.462L237.117 181.369 237.882 180.8C238.062 180.667 238.297 180.958 238.262 181.178 238.201 181.553 238.703 181.74 239.032 181.509L239.079 181.475C239.395 181.227 239.318 180.724 238.923 180.687 238.692 180.666 238.454 180.376 238.635 180.242L239.455 179.633 240.347 180.732C240.486 180.903 240.789 180.676 240.812 180.455 240.85 180.077 241.376 180.004 241.635 180.307L241.67 180.35C241.913 180.665 241.717 181.145 241.325 181.087 241.096 181.053 240.791 181.278 240.93 181.45L241.817 182.545Z" fill="#FFFFFF" fill-rule="evenodd"/><path d="M194.96 160 183 160 183 165.818C183.002 166.353 183.466 166.786 184.04 166.788L194.44 166.788 194.44 168 196 168 196 160.97C195.998 160.435 195.534 160.001 194.96 160Z" fill="#FFFFFF" fill-rule="evenodd"/><path d="M177.371 157.75C177.378 157.344 177.083 157.008 176.711 157 176.702 157 176.694 157 176.686 157 176.314 156.993 176.007 157.316 176 157.723 176 157.732 176 157.741 176 157.75L176 169 177.371 169 177.371 166.5 184 166.5 184 164 177.371 161Z" fill="#FFFFFF" fill-rule="evenodd"/><path d="M182.5 157C182.5 157.828 181.828 158.5 181 158.5 180.172 158.5 179.5 157.828 179.5 157 179.5 156.171 180.172 155.5 181 155.5 181.828 155.5 182.5 156.171 182.5 157Z" stroke="#FFFFFF" stroke-width="4.58333" stroke-miterlimit="8" fill="#FFFFFF" fill-rule="evenodd"/><path d="M181.5 162.989 184.5 164.5 184.5 161.878 184.117 161.684C183.097 161.175 181.927 161.758 181.5 162.989Z" stroke="#FFFFFF" stroke-width="4.58333" stroke-miterlimit="8" fill="#FFFFFF" fill-rule="evenodd"/><path d="M220 155C220 152.8 218.925 151 216.75 151 214.575 151 214.65 152 212.5 152 210.35 152 210.425 151 208.25 151 206.075 151 205 152.8 205 155 205 157.2 206.75 159.375 206.75 161.25 206.75 163.025 206.5 164.525 206.5 165.75 206.5 166.975 206.475 171 208.25 171 210.025 171 210 167.35 210 165.75 210 164.15 210.2 161.75 212.5 161.75 214.8 161.75 215 164.15 215 165.75 215 167.35 214.975 171 216.75 171 218.525 171 218.5 166.975 218.5 165.75 218.5 164.525 218.25 163.025 218.25 161.25 218.25 159.375 220 157.2 220 155Z" fill="#FFFFFF" fill-rule="evenodd"/><path d="M181 193C181 194.105 180.105 195 179 195 177.895 195 177 194.105 177 193 177 191.896 177.895 191 179 191 180.105 191 181 191.896 181 193Z" stroke="#FFFFFF" stroke-width="2.29167" stroke-miterlimit="8" fill="#FFFFFF" fill-rule="evenodd"/><path d="M194 193C194 194.105 193.105 195 192 195 190.895 195 190 194.105 190 193 190 191.896 190.895 191 192 191 193.105 191 194 191.896 194 193Z" stroke="#FFFFFF" stroke-width="2.29167" stroke-miterlimit="8" fill="#FFFFFF" fill-rule="evenodd"/><path d="M195.56 188.918 194.102 187.736C193.911 187.584 193.775 187.364 193.717 187.116L193.167 185.077C192.887 184.07 192.029 183.375 191.05 183.364L190.5 183.364 190.5 181.887C190.5 181.397 190.131 181 189.675 181L189.125 181C188.669 181 188.3 181.397 188.3 181.887L188.3 183.364 188.3 183.364 188.3 182.773C188.3 182.12 187.807 181.591 187.2 181.591L175.1 181.591C174.492 181.591 174 182.12 174 182.773L174 192.818C174 193.471 174.492 194 175.1 194L175.65 194C175.65 192.368 176.881 191.045 178.4 191.045 179.919 191.045 181.15 192.368 181.15 194L189.4 194C189.4 192.368 190.631 191.045 192.15 191.045 193.669 191.045 194.9 192.368 194.9 194 195.507 194 196 193.471 196 192.818L196 189.864C196 189.492 195.837 189.141 195.56 188.918ZM185.069 187.736 184.244 189.273 182.8 188.386 182.8 190.159 181.15 190.159 181.15 188.369 179.706 189.255 178.881 187.719 180.325 186.832 178.881 185.946 179.706 184.41 181.15 185.296 181.15 183.506 182.8 183.506 182.8 185.299 184.244 184.413 185.069 185.949 183.625 186.835ZM189.4 187.5 189.4 184.546 191.05 184.546C191.54 184.538 191.972 184.892 192.095 185.402L192.645 187.441C192.645 187.471 192.672 187.471 192.672 187.5Z" fill="#FFFFFF" fill-rule="evenodd"/><path d="M236.5 161 236.5 155.706C236.5 154.411 237.625 153.353 239 153.353 240.375 153.353 241.5 154.411 241.5 155.706L241.5 161 236.5 161ZM244 166.294 244 155.706C244 153.117 241.75 151 239 151 236.25 151 234 153.117 234 155.706L234 166.294C234 168.882 236.25 171 239 171 241.75 171 244 168.882 244 166.294Z" stroke="#FFFFFF" stroke-width="2.29167" stroke-miterlimit="8" fill="#85D8D1" fill-rule="evenodd"/><path d="M235 162 235 157.5C235 155.014 236.791 153 239 153 241.209 153 243 155.014 243 157.5L243 162Z" stroke="#FFFFFF" stroke-width="2.29167" stroke-linejoin="round" stroke-miterlimit="10" fill="#FFFFFF" fill-rule="evenodd"/><path d="M218 180C218 181.104 217.105 182 216 182 214.896 182 214 181.104 214 180 214 178.895 214.896 178 216 178 217.105 178 218 178.895 218 180Z" fill="#FFFFFF" fill-rule="evenodd"/><path d="M219.551 182.435C219.127 182.217 218.619 182.369 218.407 182.804L217.665 184.239 214.403 182.13C214.275 182.043 214.127 182 213.958 182L210.356 182C210.038 182 209.763 182.174 209.614 182.456L208.237 185.065C208.004 185.478 208.174 186.022 208.576 186.239 208.703 186.304 208.852 186.348 208.979 186.348 209.275 186.348 209.572 186.174 209.72 185.891L210.864 183.739 212.114 183.739 208.364 190.913 204.847 190.913C204.381 190.913 204 191.304 204 191.783 204 192.261 204.381 192.652 204.847 192.652L208.873 192.652C209.191 192.652 209.466 192.478 209.614 192.196L211.097 189.391 213.534 191.717 213.343 196.087C213.301 196.565 213.661 196.978 214.127 197 214.148 197 214.148 197 214.17 197 214.614 197 214.996 196.63 215.017 196.174L215.229 191.391C215.25 191.13 215.144 190.891 214.953 190.717L212.898 188.761 215.059 184.63 217.517 186.217C217.708 186.348 217.962 186.391 218.195 186.326 218.428 186.261 218.619 186.109 218.725 185.891L219.89 183.609C220.123 183.195 219.975 182.674 219.551 182.435Z" fill="#FFFFFF" fill-rule="evenodd"/></g></svg>