<svg width="80" height="52" xmlns="http://www.w3.org/2000/svg" xmlns:xlink="http://www.w3.org/1999/xlink" xml:space="preserve" overflow="hidden"><defs><clipPath id="clip0"><rect x="169" y="220" width="80" height="52"/></clipPath></defs><g clip-path="url(#clip0)" transform="translate(-169 -220)"><path d="M169 248.107C169 246.943 169.943 246 171.107 246L192.893 246C194.057 246 195 246.943 195 248.107L195 269.893C195 271.057 194.057 272 192.893 272L171.107 272C169.943 272 169 271.057 169 269.893Z" fill="#5F605E" fill-rule="evenodd"/><path d="M196 248.107C196 246.943 196.943 246 198.107 246L219.893 246C221.057 246 222 246.943 222 248.107L222 269.893C222 271.057 221.057 272 219.893 272L198.107 272C196.943 272 196 271.057 196 269.893Z" fill="#D62CD0" fill-rule="evenodd"/><path d="M223 248.107C223 246.943 223.943 246 225.107 246L246.893 246C248.057 246 249 246.943 249 248.107L249 269.893C249 271.057 248.057 272 246.893 272L225.107 272C223.943 272 223 271.057 223 269.893Z" fill="#D62CD0" fill-rule="evenodd"/><path d="M223 222.026C223 220.907 223.907 220 225.026 220L246.974 220C248.093 220 249 220.907 249 222.026L249 242.974C249 244.093 248.093 245 246.974 245L225.026 245C223.907 245 223 244.093 223 242.974Z" fill="#D62CD0" fill-rule="evenodd"/><path d="M196 222.026C196 220.907 196.907 220 198.026 220L219.974 220C221.093 220 222 220.907 222 222.026L222 242.974C222 244.093 221.093 245 219.974 245L198.026 245C196.907 245 196 244.093 196 242.974Z" fill="#D62CD0" fill-rule="evenodd"/><path d="M169 222.026C169 220.907 169.907 220 171.026 220L192.974 220C194.093 220 195 220.907 195 222.026L195 242.974C195 244.093 194.093 245 192.974 245L171.026 245C169.907 245 169 244.093 169 242.974Z" fill="#D62CD0" fill-rule="evenodd"/><path d="M242.776 259.743 241.255 257.065 241.255 256.975C241.347 254.509 240.102 252.191 238.014 250.945 235.927 249.685 233.333 249.685 231.246 250.945 229.155 252.187 227.907 254.507 228.005 256.975 227.998 259.091 228.96 261.089 230.607 262.375L230.607 268 237.573 268 237.573 265.323 238.653 265.323C239.35 265.327 240.018 265.043 240.505 264.535 240.988 264.029 241.257 263.351 241.255 262.645L241.255 261.295 242.225 261.295C242.8 261.25 243.307 260.575 242.776 259.743ZM234.033 258.877C234.464 258.81 234.689 259.361 234.422 259.729L234.383 259.78C234.099 260.135 233.51 260.06 233.468 259.618 233.444 259.358 233.111 259.092 232.957 259.293L231.98 260.575 231.084 259.863C230.886 259.706 231.148 259.366 231.401 259.341 231.836 259.299 231.908 258.698 231.561 258.408L231.511 258.368C231.15 258.096 230.61 258.325 230.676 258.765 230.715 259.022 230.456 259.365 230.259 259.208L229.413 258.536 230.395 257.248C230.549 257.047 230.213 256.782 229.961 256.822 229.53 256.889 229.305 256.338 229.572 255.97L229.611 255.919C229.896 255.565 230.484 255.639 230.526 256.082 230.55 256.34 230.884 256.607 231.037 256.406L232.015 255.123 232.855 255.791C233.052 255.949 232.791 256.288 232.537 256.313 232.103 256.355 232.03 256.956 232.378 257.246L232.428 257.286C232.789 257.559 233.329 257.329 233.263 256.889 233.224 256.632 233.482 256.289 233.681 256.447L234.582 257.162 233.599 258.451C233.446 258.652 233.781 258.917 234.033 258.877ZM237.376 255.15C237.208 255.283 236.988 254.991 237.021 254.772 237.078 254.397 236.607 254.21 236.299 254.441L236.256 254.475C235.959 254.723 236.032 255.226 236.402 255.263 236.618 255.285 236.841 255.575 236.672 255.708L235.951 256.28 235.115 255.181C234.984 255.01 234.7 255.237 234.679 255.457 234.643 255.835 234.149 255.909 233.907 255.606L233.873 255.562C233.646 255.247 233.829 254.767 234.197 254.825 234.412 254.859 234.698 254.634 234.567 254.462L233.735 253.369 234.452 252.8C234.621 252.667 234.841 252.958 234.808 253.178 234.751 253.553 235.222 253.74 235.53 253.509L235.574 253.475C235.87 253.227 235.798 252.724 235.428 252.687 235.211 252.666 234.988 252.376 235.157 252.242L235.926 251.633 236.762 252.731C236.893 252.903 237.177 252.676 237.198 252.455 237.234 252.077 237.728 252.004 237.97 252.307L238.003 252.35C238.23 252.665 238.047 253.145 237.679 253.087 237.465 253.053 237.179 253.278 237.309 253.45L238.141 254.545Z" fill="#FFFFFF" fill-rule="evenodd"/><path d="M191.04 232 180 232 180 237.818C180.002 238.353 180.431 238.786 180.96 238.788L190.56 238.788 190.56 240 192 240 192 232.97C191.999 232.435 191.57 232.002 191.04 232Z" fill="#FFFFFF" fill-rule="evenodd"/><path d="M173.543 229.75C173.551 229.343 173.218 229.008 172.799 229 172.79 229 172.781 229 172.771 229 172.353 228.993 172.008 229.316 172 229.723 172 229.732 172 229.741 172 229.75L172 241 173.543 241 173.543 238.5 181 238.5 181 236 173.543 233Z" fill="#FFFFFF" fill-rule="evenodd"/><path d="M179.5 229C179.5 229.829 178.828 230.5 178 230.5 177.171 230.5 176.5 229.829 176.5 229 176.5 228.172 177.171 227.5 178 227.5 178.828 227.5 179.5 228.172 179.5 229Z" stroke="#FFFFFF" stroke-width="4.58333" stroke-miterlimit="8" fill="#FFFFFF" fill-rule="evenodd"/><path d="M177.5 233.988 181.5 235.5 181.5 232.878 180.989 232.684C179.629 232.175 178.07 232.757 177.5 233.988Z" stroke="#FFFFFF" stroke-width="4.58333" stroke-miterlimit="8" fill="#FFFFFF" fill-rule="evenodd"/><path d="M217 226C217 223.8 215.853 222 213.533 222 211.213 222 211.293 223 209 223 206.707 223 206.787 222 204.467 222 202.147 222 201 223.8 201 226 201 228.2 202.867 230.375 202.867 232.25 202.867 234.025 202.6 235.525 202.6 236.75 202.6 237.975 202.573 242 204.467 242 206.36 242 206.333 238.35 206.333 236.75 206.333 235.15 206.547 232.75 209 232.75 211.453 232.75 211.667 235.15 211.667 236.75 211.667 238.35 211.64 242 213.533 242 215.427 242 215.4 237.975 215.4 236.75 215.4 235.525 215.133 234.025 215.133 232.25 215.133 230.375 217 228.2 217 226Z" fill="#FFFFFF" fill-rule="evenodd"/><path d="M177 264C177 265.105 176.105 266 175 266 173.895 266 173 265.105 173 264 173 262.895 173.895 262 175 262 176.105 262 177 262.895 177 264Z" stroke="#FFFFFF" stroke-width="2.29167" stroke-miterlimit="8" fill="#FFFFFF" fill-rule="evenodd"/><path d="M190 264C190 265.105 189.329 266 188.5 266 187.672 266 187 265.105 187 264 187 262.895 187.672 262 188.5 262 189.329 262 190 262.895 190 264Z" stroke="#FFFFFF" stroke-width="2.29167" stroke-miterlimit="8" fill="#FFFFFF" fill-rule="evenodd"/><path d="M192.56 260.309 191.102 259.218C190.911 259.077 190.775 258.875 190.717 258.646L190.167 256.764C189.887 255.833 189.029 255.192 188.05 255.182L187.5 255.182 187.5 253.818C187.5 253.366 187.13 253 186.675 253L186.125 253C185.669 253 185.3 253.366 185.3 253.818L185.3 255.182 185.3 255.182 185.3 254.636C185.3 254.034 184.807 253.545 184.2 253.545L172.1 253.545C171.492 253.545 171 254.034 171 254.636L171 263.909C171 264.512 171.492 265 172.1 265L172.65 265C172.65 263.494 173.881 262.273 175.4 262.273 176.919 262.273 178.15 263.494 178.15 265L186.4 265C186.4 263.494 187.631 262.273 189.15 262.273 190.669 262.273 191.9 263.494 191.9 265 192.507 265 193 264.512 193 263.909L193 261.182C193 260.839 192.837 260.515 192.56 260.309ZM182.069 259.218 181.244 260.636 179.8 259.818 179.8 261.455 178.15 261.455 178.15 259.802 176.706 260.62 175.881 259.202 177.325 258.384 175.881 257.565 176.706 256.147 178.15 256.965 178.15 255.313 179.8 255.313 179.8 256.968 181.244 256.15 182.069 257.568 180.625 258.386ZM186.4 259 186.4 256.273 188.05 256.273C188.54 256.266 188.972 256.593 189.095 257.064L189.645 258.945C189.645 258.973 189.672 258.973 189.672 259Z" fill="#FFFFFF" fill-rule="evenodd"/><path d="M233.5 232 233.5 226.706C233.5 225.412 234.625 224.353 236 224.353 237.375 224.353 238.5 225.412 238.5 226.706L238.5 232 233.5 232ZM241 237.294 241 226.706C241 224.118 238.75 222 236 222 233.25 222 231 224.118 231 226.706L231 237.294C231 239.882 233.25 242 236 242 238.75 242 241 239.882 241 237.294Z" stroke="#FFFFFF" stroke-width="2.29167" stroke-miterlimit="8" fill="#85D8D1" fill-rule="evenodd"/><path d="M232 233 232 228.5C232 226.015 233.791 224 236 224 238.209 224 240 226.015 240 228.5L240 233Z" stroke="#FFFFFF" stroke-width="2.29167" stroke-linejoin="round" stroke-miterlimit="10" fill="#FFFFFF" fill-rule="evenodd"/><path d="M214 251.5C214 252.328 213.329 253 212.5 253 211.672 253 211 252.328 211 251.5 211 250.672 211.672 250 212.5 250 213.329 250 214 250.672 214 251.5Z" fill="#FFFFFF" fill-rule="evenodd"/><path d="M216.551 253.435C216.127 253.217 215.619 253.37 215.407 253.804L214.665 255.239 211.403 253.13C211.275 253.043 211.127 253 210.958 253L207.356 253C207.038 253 206.763 253.174 206.614 253.457L205.237 256.065C205.004 256.478 205.174 257.022 205.576 257.239 205.703 257.304 205.852 257.348 205.979 257.348 206.275 257.348 206.572 257.174 206.72 256.891L207.864 254.739 209.114 254.739 205.364 261.913 201.848 261.913C201.381 261.913 201 262.304 201 262.783 201 263.261 201.381 263.652 201.848 263.652L205.873 263.652C206.191 263.652 206.466 263.478 206.614 263.196L208.098 260.391 210.534 262.717 210.343 267.087C210.301 267.565 210.661 267.978 211.127 268 211.148 268 211.148 268 211.17 268 211.614 268 211.996 267.631 212.017 267.174L212.229 262.391C212.25 262.131 212.144 261.891 211.953 261.717L209.898 259.761 212.059 255.63 214.517 257.217C214.708 257.348 214.962 257.391 215.195 257.326 215.428 257.261 215.619 257.109 215.725 256.891L216.89 254.609C217.123 254.196 216.975 253.674 216.551 253.435Z" fill="#FFFFFF" fill-rule="evenodd"/></g></svg>