<svg width="94" height="62" xmlns="http://www.w3.org/2000/svg" xmlns:xlink="http://www.w3.org/1999/xlink" xml:space="preserve" overflow="hidden"><defs><clipPath id="clip0"><rect x="166" y="219" width="94" height="62"/></clipPath></defs><g clip-path="url(#clip0)" transform="translate(-166 -219)"><path d="M166 252.512C166 251.125 167.125 250 168.512 250L194.488 250C195.875 250 197 251.125 197 252.512L197 278.488C197 279.875 195.875 281 194.488 281L168.512 281C167.125 281 166 279.875 166 278.488Z" fill="#5F605E" fill-rule="evenodd"/><path d="M198 252.512C198 251.125 199.125 250 200.512 250L226.488 250C227.875 250 229 251.125 229 252.512L229 278.488C229 279.875 227.875 281 226.488 281L200.512 281C199.125 281 198 279.875 198 278.488Z" fill="#D62CD0" fill-rule="evenodd"/><path d="M229 252.512C229 251.125 230.125 250 231.512 250L257.488 250C258.875 250 260 251.125 260 252.512L260 278.488C260 279.875 258.875 281 257.488 281L231.512 281C230.125 281 229 279.875 229 278.488Z" fill="#D62CD0" fill-rule="evenodd"/><path d="M229 221.431C229 220.088 230.088 219 231.431 219L257.569 219C258.912 219 260 220.088 260 221.431L260 246.569C260 247.911 258.912 248.999 257.569 248.999L231.431 248.999C230.088 248.999 229 247.911 229 246.569Z" fill="#D62CD0" fill-rule="evenodd"/><path d="M198 221.431C198 220.088 199.088 219 200.431 219L226.569 219C227.912 219 229 220.088 229 221.431L229 246.569C229 247.911 227.912 248.999 226.569 248.999L200.431 248.999C199.088 248.999 198 247.911 198 246.569Z" fill="#D62CD0" fill-rule="evenodd"/><path d="M166 221.431C166 220.088 167.088 219 168.431 219L194.569 219C195.912 219 197 220.088 197 221.431L197 246.569C197 247.911 195.912 248.999 194.569 248.999L168.431 248.999C167.088 248.999 166 247.911 166 246.569Z" fill="#D62CD0" fill-rule="evenodd"/><path d="M253.731 266.366 251.906 263.243 251.906 263.138C252.017 260.26 250.522 257.556 248.017 256.103 245.513 254.633 242.4 254.633 239.895 256.103 237.386 257.552 235.889 260.259 236.007 263.138 235.997 265.606 237.152 267.937 239.128 269.438L239.128 276 247.488 276 247.488 272.876 248.784 272.876C249.62 272.882 250.422 272.55 251.006 271.958 251.585 271.367 251.908 270.576 251.906 269.753L251.906 268.178 253.07 268.178C253.76 268.125 254.369 267.338 253.731 266.366ZM243.24 265.357C243.757 265.278 244.027 265.921 243.706 266.351L243.659 266.41C243.318 266.824 242.612 266.737 242.562 266.221 242.533 265.918 242.133 265.607 241.949 265.842L240.776 267.338 239.7 266.507C239.464 266.324 239.777 265.927 240.082 265.898 240.603 265.849 240.69 265.148 240.273 264.81L240.213 264.763C239.78 264.445 239.132 264.713 239.212 265.226 239.258 265.526 238.947 265.925 238.711 265.742L237.696 264.959 238.874 263.456C239.059 263.221 238.656 262.913 238.354 262.959 237.836 263.038 237.566 262.395 237.887 261.965L237.934 261.905C238.275 261.492 238.981 261.579 239.031 262.095 239.061 262.397 239.461 262.708 239.645 262.474L240.818 260.977 241.826 261.757C242.063 261.94 241.75 262.336 241.445 262.365 240.924 262.415 240.837 263.116 241.254 263.454L241.314 263.501C241.747 263.819 242.395 263.55 242.316 263.037 242.269 262.737 242.579 262.338 242.817 262.521L243.898 263.356 242.719 264.86C242.535 265.094 242.937 265.403 243.24 265.357ZM247.252 261.008C247.05 261.164 246.785 260.823 246.825 260.567 246.894 260.13 246.328 259.911 245.959 260.182L245.908 260.221C245.551 260.51 245.639 261.097 246.082 261.14 246.342 261.166 246.609 261.504 246.407 261.659L245.541 262.327 244.538 261.045C244.381 260.845 244.04 261.109 244.014 261.367 243.972 261.808 243.38 261.894 243.089 261.54L243.048 261.489C242.776 261.122 242.995 260.562 243.436 260.629 243.694 260.669 244.037 260.407 243.881 260.206L242.882 258.93 243.743 258.267C243.945 258.111 244.209 258.451 244.169 258.708 244.101 259.145 244.666 259.364 245.036 259.093L245.089 259.054C245.444 258.765 245.357 258.178 244.913 258.135 244.654 258.11 244.386 257.772 244.589 257.616L245.512 256.905 246.515 258.187C246.672 258.387 247.013 258.122 247.038 257.865 247.081 257.424 247.673 257.338 247.964 257.691L248.004 257.742C248.277 258.11 248.057 258.67 247.615 258.602 247.358 258.562 247.015 258.825 247.171 259.025L248.169 260.303Z" fill="#FFFFFF" fill-rule="evenodd"/><path d="M192.8 232 179 232 179 239.273C179.002 239.941 179.538 240.483 180.2 240.485L192.2 240.485 192.2 242 194 242 194 233.212C193.998 232.544 193.462 232.002 192.8 232Z" fill="#FFFFFF" fill-rule="evenodd"/><path d="M171.715 229.875C171.723 229.401 171.353 229.009 170.889 229 170.878 229 170.868 229 170.857 229 170.393 228.991 170.009 229.369 170 229.843 170 229.854 170 229.865 170 229.875L170 243 171.715 243 171.715 240.083 180 240.083 180 237.167 171.715 233.667Z" fill="#FFFFFF" fill-rule="evenodd"/><path d="M177.5 229.5C177.5 230.604 176.828 231.5 176 231.5 175.172 231.5 174.5 230.604 174.5 229.5 174.5 228.395 175.172 227.5 176 227.5 176.828 227.5 177.5 228.395 177.5 229.5Z" stroke="#FFFFFF" stroke-width="4.58333" stroke-miterlimit="8" fill="#FFFFFF" fill-rule="evenodd"/><path d="M177.5 235.485 181.5 237.5 181.5 234.004 180.989 233.746C179.629 233.066 178.07 233.843 177.5 235.485Z" stroke="#FFFFFF" stroke-width="4.58333" stroke-miterlimit="8" fill="#FFFFFF" fill-rule="evenodd"/><path d="M222 226.8C222 224.16 220.71 222 218.1 222 215.49 222 215.58 223.2 213 223.2 210.42 223.2 210.51 222 207.9 222 205.29 222 204 224.16 204 226.8 204 229.44 206.1 232.05 206.1 234.3 206.1 236.43 205.8 238.23 205.8 239.7 205.8 241.17 205.77 246 207.9 246 210.03 246 210 241.62 210 239.7 210 237.78 210.24 234.9 213 234.9 215.76 234.9 216 237.78 216 239.7 216 241.62 215.97 246 218.1 246 220.23 246 220.2 241.17 220.2 239.7 220.2 238.23 219.9 236.43 219.9 234.3 219.9 232.05 222 229.44 222 226.8Z" fill="#FFFFFF" fill-rule="evenodd"/><path d="M176 272C176 273.105 174.881 274 173.5 274 172.119 274 171 273.105 171 272 171 270.895 172.119 270 173.5 270 174.881 270 176 270.895 176 272Z" stroke="#FFFFFF" stroke-width="2.29167" stroke-miterlimit="8" fill="#FFFFFF" fill-rule="evenodd"/><path d="M191 272C191 273.105 190.105 274 189 274 187.895 274 187 273.105 187 272 187 270.895 187.895 270 189 270 190.105 270 191 270.895 191 272Z" stroke="#FFFFFF" stroke-width="2.29167" stroke-miterlimit="8" fill="#FFFFFF" fill-rule="evenodd"/><path d="M193.48 267.527 191.757 266.254C191.531 266.09 191.371 265.854 191.302 265.586L190.652 263.391C190.321 262.306 189.307 261.558 188.15 261.545L187.5 261.545 187.5 259.954C187.5 259.427 187.063 259 186.525 259L185.875 259C185.336 259 184.9 259.427 184.9 259.954L184.9 261.545 184.9 261.545 184.9 260.909C184.9 260.206 184.318 259.636 183.6 259.636L169.3 259.636C168.582 259.636 168 260.206 168 260.909L168 271.727C168 272.43 168.582 273 169.3 273L169.95 273C169.95 271.243 171.405 269.818 173.2 269.818 174.995 269.818 176.45 271.243 176.45 273L186.2 273C186.2 271.243 187.655 269.818 189.45 269.818 191.245 269.818 192.7 271.243 192.7 273 193.418 273 194 272.43 194 271.727L194 268.545C194 268.145 193.807 267.768 193.48 267.527ZM181.081 266.254 180.106 267.909 178.4 266.954 178.4 268.864 176.45 268.864 176.45 266.935 174.744 267.89 173.769 266.235 175.475 265.281 173.769 264.326 174.744 262.672 176.45 263.626 176.45 261.698 178.4 261.698 178.4 263.629 180.106 262.675 181.081 264.329 179.375 265.284ZM186.2 266 186.2 262.818 188.15 262.818C188.73 262.81 189.24 263.191 189.385 263.741L190.035 265.936C190.035 265.968 190.067 265.968 190.067 266Z" fill="#FFFFFF" fill-rule="evenodd"/><path d="M242 234 242 227.647C242 226.094 243.35 224.823 245 224.823 246.65 224.823 248 226.094 248 227.647L248 234 242 234ZM251 240.353 251 227.647C251 224.541 248.3 222 245 222 241.7 222 239 224.541 239 227.647L239 240.353C239 243.459 241.7 246 245 246 248.3 246 251 243.459 251 240.353Z" stroke="#FFFFFF" stroke-width="2.29167" stroke-miterlimit="8" fill="#85D8D1" fill-rule="evenodd"/><path d="M240 235 240 230C240 227.239 242.015 225 244.5 225 246.985 225 249 227.239 249 230L249 235Z" stroke="#FFFFFF" stroke-width="2.29167" stroke-linejoin="round" stroke-miterlimit="10" fill="#FFFFFF" fill-rule="evenodd"/><path d="M219 257C219 258.104 218.105 259 217 259 215.895 259 215 258.104 215 257 215 255.895 215.895 255 217 255 218.105 255 219 255.895 219 257Z" fill="#FFFFFF" fill-rule="evenodd"/><path d="M222.467 259.522C221.964 259.261 221.36 259.443 221.108 259.965L220.228 261.687 216.353 259.156C216.202 259.052 216.026 259 215.825 259L211.548 259C211.17 259 210.843 259.209 210.667 259.548L209.032 262.678C208.755 263.174 208.956 263.826 209.434 264.087 209.585 264.165 209.761 264.217 209.912 264.217 210.265 264.217 210.617 264.009 210.793 263.669L212.151 261.087 213.636 261.087 209.183 269.696 205.006 269.696C204.453 269.696 204 270.165 204 270.739 204 271.313 204.453 271.783 205.006 271.783L209.787 271.783C210.164 271.783 210.491 271.574 210.667 271.235L212.428 267.87 215.322 270.661 215.095 275.904C215.045 276.478 215.473 276.974 216.026 277 216.051 277 216.051 277 216.076 277 216.605 277 217.058 276.557 217.083 276.009L217.334 270.27C217.36 269.957 217.234 269.67 217.007 269.461L214.567 267.113 217.133 262.156 220.052 264.061C220.278 264.217 220.58 264.269 220.857 264.191 221.133 264.113 221.36 263.93 221.486 263.669L222.869 260.93C223.146 260.435 222.97 259.809 222.467 259.522Z" fill="#FFFFFF" fill-rule="evenodd"/></g></svg>