<svg width="80" height="52" xmlns="http://www.w3.org/2000/svg" xmlns:xlink="http://www.w3.org/1999/xlink" xml:space="preserve" overflow="hidden"><defs><clipPath id="clip0"><rect x="268" y="76" width="80" height="52"/></clipPath></defs><g clip-path="url(#clip0)" transform="translate(-268 -76)"><path d="M268 104.107C268 102.943 268.943 102 270.107 102L291.893 102C293.057 102 294 102.943 294 104.107L294 125.893C294 127.057 293.057 128 291.893 128L270.107 128C268.943 128 268 127.057 268 125.893Z" fill="#D62CD0" fill-rule="evenodd"/><path d="M295 104.107C295 102.943 295.943 102 297.107 102L318.893 102C320.057 102 321 102.943 321 104.107L321 125.893C321 127.057 320.057 128 318.893 128L297.107 128C295.943 128 295 127.057 295 125.893Z" fill="#D62CD0" fill-rule="evenodd"/><path d="M322 104.107C322 102.943 322.943 102 324.107 102L345.893 102C347.057 102 348 102.943 348 104.107L348 125.893C348 127.057 347.057 128 345.893 128L324.107 128C322.943 128 322 127.057 322 125.893Z" fill="#D62CD0" fill-rule="evenodd"/><path d="M322 78.1067C322 76.9432 322.943 76 324.107 76L345.893 76C347.057 76 348 76.9432 348 78.1067L348 99.8933C348 101.057 347.057 102 345.893 102L324.107 102C322.943 102 322 101.057 322 99.8933Z" fill="#D62CD0" fill-rule="evenodd"/><path d="M295 78.1068C295 76.9432 295.943 76 297.107 76L318.893 76C320.057 76 321 76.9432 321 78.1068L321 99.8933C321 101.057 320.057 102 318.893 102L297.107 102C295.943 102 295 101.057 295 99.8933Z" fill="#D62CD0" fill-rule="evenodd"/><path d="M268 78.1067C268 76.9432 268.943 76 270.107 76L291.893 76C293.057 76 294 76.9432 294 78.1067L294 99.8933C294 101.057 293.057 102 291.893 102L270.107 102C268.943 102 268 101.057 268 99.8933Z" fill="#D62CD0" fill-rule="evenodd"/><path d="M342.761 115.743 341.139 113.065 341.139 112.975C341.237 110.509 339.908 108.191 337.682 106.945 335.456 105.685 332.689 105.685 330.462 106.945 328.232 108.187 326.901 110.507 327.006 112.975 326.997 115.091 328.024 117.089 329.78 118.375L329.78 124 337.211 124 337.211 121.323 338.364 121.323C339.107 121.327 339.82 121.043 340.339 120.535 340.853 120.029 341.14 119.351 341.139 118.645L341.139 117.295 342.173 117.295C342.787 117.25 343.328 116.575 342.761 115.743ZM333.435 114.877C333.895 114.81 334.135 115.361 333.85 115.729L333.808 115.78C333.505 116.134 332.877 116.06 332.833 115.618 332.807 115.358 332.451 115.092 332.288 115.293L331.245 116.575 330.289 115.863C330.079 115.706 330.358 115.366 330.628 115.341 331.091 115.299 331.169 114.698 330.798 114.408L330.745 114.368C330.36 114.095 329.784 114.325 329.855 114.765 329.896 115.022 329.62 115.365 329.409 115.208L328.507 114.536 329.555 113.248C329.719 113.047 329.361 112.782 329.092 112.822 328.632 112.889 328.392 112.338 328.677 111.97L328.719 111.919C329.022 111.565 329.65 111.639 329.694 112.081 329.72 112.34 330.076 112.607 330.24 112.406L331.282 111.123 332.179 111.791C332.389 111.949 332.111 112.288 331.84 112.313 331.376 112.355 331.299 112.956 331.67 113.246L331.723 113.286C332.108 113.559 332.685 113.329 332.614 112.889 332.573 112.632 332.848 112.289 333.059 112.447L334.021 113.162 332.973 114.451C332.809 114.652 333.166 114.917 333.435 114.877ZM337.001 111.15C336.822 111.283 336.587 110.991 336.622 110.772 336.683 110.397 336.181 110.209 335.852 110.441L335.807 110.475C335.49 110.723 335.568 111.226 335.962 111.263 336.193 111.285 336.43 111.575 336.251 111.708L335.481 112.28 334.589 111.181C334.45 111.01 334.146 111.237 334.124 111.457 334.086 111.835 333.559 111.909 333.301 111.606L333.265 111.562C333.023 111.247 333.218 110.767 333.61 110.825 333.839 110.859 334.144 110.634 334.005 110.462L333.117 109.369 333.882 108.8C334.062 108.667 334.297 108.958 334.262 109.178 334.201 109.553 334.703 109.74 335.032 109.509L335.079 109.475C335.395 109.227 335.318 108.724 334.923 108.687 334.692 108.666 334.454 108.376 334.635 108.242L335.455 107.633 336.347 108.731C336.486 108.903 336.789 108.676 336.812 108.455 336.85 108.077 337.376 108.004 337.635 108.307L337.67 108.35C337.912 108.665 337.717 109.145 337.325 109.087 337.096 109.053 336.791 109.278 336.93 109.45L337.817 110.545Z" fill="#FFFFFF" fill-rule="evenodd"/><path d="M290.04 88 279 88 279 93.8181C279.002 94.353 279.431 94.7862 279.96 94.7878L289.56 94.7878 289.56 95.9999 291 95.9999 291 88.9697C290.999 88.4348 290.57 88.0016 290.04 88Z" fill="#FFFFFF" fill-rule="evenodd"/><path d="M272.543 85.75C272.551 85.3433 272.218 85.0076 271.799 85 271.79 84.9999 271.781 84.9999 271.771 85 271.353 84.9925 271.008 85.3161 271 85.7228 271 85.7319 271 85.741 271 85.75L271 97 272.543 97 272.543 94.5 280 94.5 280 92 272.543 89Z" fill="#FFFFFF" fill-rule="evenodd"/><path d="M278.5 85.0001C278.5 85.8286 277.828 86.5002 277 86.5002 276.171 86.5002 275.5 85.8286 275.5 85.0001 275.5 84.1716 276.171 83.5 277 83.5 277.828 83.5 278.5 84.1716 278.5 85.0001Z" stroke="#FFFFFF" stroke-width="4.58333" stroke-miterlimit="8" fill="#FFFFFF" fill-rule="evenodd"/><path d="M276.5 90.9884 280.5 92.5 280.5 89.8779 279.989 89.6842C278.629 89.1747 277.07 89.7574 276.5 90.9884Z" stroke="#FFFFFF" stroke-width="4.58333" stroke-miterlimit="8" fill="#FFFFFF" fill-rule="evenodd"/><path d="M316 83.0001C316 80.8001 314.925 79.0001 312.75 79.0001 310.575 79.0001 310.65 80.0001 308.5 80.0001 306.35 80.0001 306.425 79.0001 304.25 79.0001 302.075 79.0001 301 80.8001 301 83.0001 301 85.2001 302.75 87.375 302.75 89.25 302.75 91.025 302.5 92.525 302.5 93.75 302.5 94.975 302.475 99 304.25 99 306.025 99 306 95.35 306 93.75 306 92.15 306.2 89.7501 308.5 89.7501 310.8 89.7501 311 92.15 311 93.75 311 95.35 310.975 99 312.75 99 314.525 99 314.5 94.975 314.5 93.75 314.5 92.525 314.25 91.025 314.25 89.25 314.25 87.375 316 85.2001 316 83.0001Z" fill="#FFFFFF" fill-rule="evenodd"/><path d="M276 121C276 122.105 275.328 123 274.5 123 273.672 123 273 122.105 273 121 273 119.895 273.672 119 274.5 119 275.328 119 276 119.895 276 121Z" stroke="#FFFFFF" stroke-width="2.29167" stroke-miterlimit="8" fill="#FFFFFF" fill-rule="evenodd"/><path d="M290 121C290 122.105 289.105 123 288 123 286.895 123 286 122.105 286 121 286 119.895 286.895 119 288 119 289.105 119 290 119.895 290 121Z" stroke="#FFFFFF" stroke-width="2.29167" stroke-miterlimit="8" fill="#FFFFFF" fill-rule="evenodd"/><path d="M291.56 116.309 290.102 115.218C289.911 115.077 289.775 114.875 289.717 114.645L289.167 112.764C288.887 111.833 288.029 111.192 287.05 111.182L286.5 111.182 286.5 109.818C286.5 109.366 286.13 109 285.675 109L285.125 109C284.669 109 284.3 109.366 284.3 109.818L284.3 111.182 284.3 111.182 284.3 110.636C284.3 110.034 283.807 109.545 283.2 109.545L271.1 109.545C270.492 109.545 270 110.034 270 110.636L270 119.909C270 120.512 270.492 121 271.1 121L271.65 121C271.65 119.494 272.881 118.273 274.4 118.273 275.919 118.273 277.15 119.494 277.15 121L285.4 121C285.4 119.494 286.631 118.273 288.15 118.273 289.669 118.273 290.9 119.494 290.9 121 291.507 121 292 120.512 292 119.909L292 117.182C292 116.838 291.837 116.515 291.56 116.309ZM281.069 115.218 280.244 116.636 278.8 115.818 278.8 117.455 277.15 117.455 277.15 115.802 275.706 116.62 274.881 115.202 276.325 114.384 274.881 113.565 275.706 112.147 277.15 112.965 277.15 111.313 278.8 111.313 278.8 112.968 280.244 112.15 281.069 113.568 279.625 114.386ZM285.4 115 285.4 112.273 287.05 112.273C287.54 112.266 287.972 112.593 288.095 113.064L288.645 114.945C288.645 114.973 288.672 114.973 288.672 115Z" fill="#FFFFFF" fill-rule="evenodd"/><path d="M332.5 88.5001 332.5 83.4706C332.5 82.2413 333.625 81.2354 335 81.2354 336.375 81.2354 337.5 82.2413 337.5 83.4706L337.5 88.5001 332.5 88.5001ZM340 93.5295 340 83.4706C340 81.0118 337.75 79.0001 335 79.0001 332.25 79.0001 330 81.0118 330 83.4706L330 93.5295C330 95.9883 332.25 98 335 98 337.75 98 340 95.9883 340 93.5295Z" stroke="#FFFFFF" stroke-width="2.29167" stroke-miterlimit="8" fill="#85D8D1" fill-rule="evenodd"/><path d="M331 89.9999 331 85.4999C331 83.0147 332.791 81 335 81 337.209 81 339 83.0147 339 85.4999L339 89.9999Z" stroke="#FFFFFF" stroke-width="2.29167" stroke-linejoin="round" stroke-miterlimit="10" fill="#FFFFFF" fill-rule="evenodd"/><path d="M313 107.5C313 108.328 312.329 109 311.5 109 310.672 109 310 108.328 310 107.5 310 106.671 310.672 106 311.5 106 312.329 106 313 106.671 313 107.5Z" fill="#FFFFFF" fill-rule="evenodd"/><path d="M315.551 110.406C315.127 110.203 314.619 110.345 314.407 110.751L313.665 112.09 310.403 110.122C310.275 110.041 310.127 110 309.958 110L306.356 110C306.038 110 305.763 110.162 305.614 110.426L304.237 112.861C304.004 113.246 304.174 113.754 304.576 113.957 304.703 114.017 304.852 114.058 304.979 114.058 305.275 114.058 305.572 113.896 305.72 113.632L306.864 111.623 308.114 111.623 304.365 118.319 300.848 118.319C300.381 118.319 300 118.684 300 119.131 300 119.577 300.381 119.942 300.848 119.942L304.873 119.942C305.191 119.942 305.466 119.78 305.614 119.516L307.098 116.899 309.534 119.07 309.343 123.148C309.301 123.594 309.661 123.98 310.127 124 310.148 124 310.148 124 310.17 124 310.614 124 310.996 123.655 311.017 123.229L311.229 118.765C311.25 118.522 311.144 118.299 310.953 118.136L308.898 116.31 311.059 112.455 313.517 113.936C313.708 114.058 313.962 114.099 314.195 114.038 314.428 113.977 314.619 113.835 314.725 113.632L315.89 111.501C316.123 111.116 315.975 110.629 315.551 110.406Z" fill="#FFFFFF" fill-rule="evenodd"/></g></svg>