<svg width="94" height="62" xmlns="http://www.w3.org/2000/svg" xmlns:xlink="http://www.w3.org/1999/xlink" xml:space="preserve" overflow="hidden"><defs><clipPath id="clip0"><rect x="268" y="74" width="94" height="62"/></clipPath></defs><g clip-path="url(#clip0)" transform="translate(-268 -74)"><path d="M268 108.431C268 107.088 269.088 106 270.431 106L296.569 106C297.912 106 299 107.088 299 108.431L299 133.569C299 134.911 297.912 135.999 296.569 135.999L270.431 135.999C269.088 135.999 268 134.911 268 133.569Z" fill="#D62CD0" fill-rule="evenodd"/><path d="M300 108.431C300 107.088 301.088 106 302.431 106L328.569 106C329.912 106 331 107.088 331 108.431L331 133.569C331 134.911 329.912 135.999 328.569 135.999L302.431 135.999C301.088 135.999 300 134.911 300 133.569Z" fill="#D62CD0" fill-rule="evenodd"/><path d="M331 108.431C331 107.088 332.088 106 333.431 106L359.569 106C360.912 106 362 107.088 362 108.431L362 133.569C362 134.911 360.912 135.999 359.569 135.999L333.431 135.999C332.088 135.999 331 134.911 331 133.569Z" fill="#D62CD0" fill-rule="evenodd"/><path d="M331 76.5118C331 75.1245 332.125 73.9999 333.512 73.9999L359.488 73.9999C360.875 73.9999 362 75.1245 362 76.5118L362 102.488C362 103.875 360.875 105 359.488 105L333.512 105C332.125 105 331 103.875 331 102.488Z" fill="#D62CD0" fill-rule="evenodd"/><path d="M300 76.5118C300 75.1245 301.125 73.9999 302.512 73.9999L328.488 73.9999C329.875 73.9999 331 75.1245 331 76.5118L331 102.488C331 103.875 329.875 105 328.488 105L302.512 105C301.125 105 300 103.875 300 102.488Z" fill="#D62CD0" fill-rule="evenodd"/><path d="M268 76.5118C268 75.1245 269.125 73.9999 270.512 73.9999L296.488 73.9999C297.875 73.9999 299 75.1245 299 76.5118L299 102.488C299 103.875 297.875 105 296.488 105L270.512 105C269.125 105 268 103.875 268 102.488Z" fill="#D62CD0" fill-rule="evenodd"/><path d="M355.731 121.908 353.906 118.635 353.906 118.525C354.017 115.511 352.522 112.678 350.017 111.155 347.512 109.615 344.4 109.615 341.895 111.155 339.385 112.673 337.889 115.509 338.006 118.525 337.997 121.111 339.152 123.553 341.128 125.125L341.128 132 349.488 132 349.488 128.728 350.784 128.728C351.62 128.733 352.422 128.386 353.006 127.765 353.585 127.147 353.908 126.318 353.906 125.455L353.906 123.805 355.07 123.805C355.76 123.75 356.369 122.925 355.731 121.908ZM345.239 120.85C345.757 120.767 346.027 121.441 345.706 121.891L345.659 121.954C345.318 122.387 344.612 122.296 344.562 121.755 344.533 121.438 344.133 121.112 343.949 121.358L342.776 122.925 341.7 122.055C341.464 121.863 341.777 121.448 342.082 121.417 342.603 121.365 342.69 120.631 342.273 120.277L342.213 120.228C341.78 119.895 341.132 120.175 341.212 120.713 341.258 121.027 340.947 121.446 340.711 121.254L339.696 120.433 340.874 118.859C341.059 118.613 340.656 118.29 340.353 118.338 339.836 118.421 339.566 117.747 339.887 117.297L339.934 117.234C340.275 116.801 340.981 116.892 341.031 117.433 341.06 117.75 341.46 118.075 341.644 117.83L342.818 116.262 343.826 117.078C344.063 117.271 343.75 117.685 343.445 117.716 342.924 117.768 342.837 118.502 343.253 118.856L343.314 118.905C343.747 119.239 344.395 118.957 344.316 118.42 344.269 118.106 344.579 117.687 344.817 117.879L345.898 118.754 344.719 120.329C344.535 120.575 344.937 120.898 345.239 120.85ZM349.252 116.294C349.05 116.457 348.785 116.1 348.825 115.832 348.894 115.374 348.328 115.145 347.959 115.428L347.908 115.47C347.551 115.773 347.639 116.387 348.082 116.433 348.342 116.46 348.609 116.814 348.407 116.977L347.541 117.676 346.538 116.333C346.381 116.123 346.039 116.4 346.014 116.67 345.971 117.132 345.379 117.222 345.088 116.852L345.048 116.798C344.775 116.413 344.995 115.826 345.436 115.897 345.694 115.939 346.037 115.664 345.88 115.454L344.882 114.117 345.743 113.423C345.945 113.26 346.209 113.615 346.169 113.884 346.101 114.343 346.666 114.572 347.035 114.288L347.088 114.247C347.444 113.944 347.357 113.329 346.913 113.284 346.654 113.258 346.386 112.904 346.589 112.74L347.512 111.996 348.515 113.339C348.672 113.548 349.013 113.271 349.038 113.001 349.081 112.539 349.673 112.449 349.964 112.819L350.004 112.873C350.277 113.258 350.057 113.844 349.615 113.773 349.358 113.732 349.015 114.007 349.171 114.217L350.169 115.555Z" fill="#FFFFFF" fill-rule="evenodd"/><path d="M295.8 88 282 88 282 94.5454C282.002 95.1472 282.538 95.6345 283.2 95.6363L295.2 95.6363 295.2 97 297 97 297 89.0909C296.998 88.4892 296.462 88.0018 295.8 88Z" fill="#FFFFFF" fill-rule="evenodd"/><path d="M273.714 84.9375C273.723 84.4291 273.353 84.0095 272.888 84 272.878 83.9998 272.868 83.9998 272.857 84 272.392 83.9906 272.009 84.3951 272 84.9035 272 84.9148 272 84.9262 272 84.9375L272 99 273.714 99 273.714 95.875 282 95.875 282 92.7501 273.714 89Z" fill="#FFFFFF" fill-rule="evenodd"/><path d="M280.5 85.0001C280.5 85.8286 279.605 86.5002 278.5 86.5002 277.395 86.5002 276.5 85.8286 276.5 85.0001 276.5 84.1716 277.395 83.5 278.5 83.5 279.605 83.5 280.5 84.1716 280.5 85.0001Z" stroke="#FFFFFF" stroke-width="4.58333" stroke-miterlimit="8" fill="#FFFFFF" fill-rule="evenodd"/><path d="M279.5 90.4845 283.5 92.5 283.5 89.0039 282.989 88.7457C281.629 88.0662 280.07 88.8431 279.5 90.4845Z" stroke="#FFFFFF" stroke-width="4.58333" stroke-miterlimit="8" fill="#FFFFFF" fill-rule="evenodd"/><path d="M324 82.6C324 80.07 322.71 78 320.1 78 317.49 78 317.58 79.15 315 79.15 312.42 79.15 312.51 78 309.9 78 307.29 78 306 80.07 306 82.6 306 85.1301 308.1 87.6313 308.1 89.7876 308.1 91.8288 307.8 93.5538 307.8 94.9625 307.8 96.3713 307.77 101 309.9 101 312.03 101 312 96.8026 312 94.9625 312 93.1226 312.24 90.3626 315 90.3626 317.76 90.3626 318 93.1226 318 94.9625 318 96.8026 317.97 101 320.1 101 322.23 101 322.2 96.3713 322.2 94.9625 322.2 93.5538 321.9 91.8288 321.9 89.7876 321.9 87.6313 324 85.1301 324 82.6Z" fill="#FFFFFF" fill-rule="evenodd"/><path d="M278 127.5C278 128.881 276.881 130 275.5 130 274.119 130 273 128.881 273 127.5 273 126.119 274.119 125 275.5 125 276.881 125 278 126.119 278 127.5Z" stroke="#FFFFFF" stroke-width="2.29167" stroke-miterlimit="8" fill="#FFFFFF" fill-rule="evenodd"/><path d="M293 127.5C293 128.881 292.105 130 291 130 289.895 130 289 128.881 289 127.5 289 126.119 289.895 125 291 125 292.105 125 293 126.119 293 127.5Z" stroke="#FFFFFF" stroke-width="2.29167" stroke-miterlimit="8" fill="#FFFFFF" fill-rule="evenodd"/><path d="M296.46 122.527 294.671 121.255C294.437 121.09 294.27 120.854 294.199 120.586L293.524 118.391C293.18 117.306 292.126 116.558 290.925 116.546L290.25 116.546 290.25 114.955C290.25 114.427 289.797 114 289.237 114L288.562 114C288.003 114 287.55 114.427 287.55 114.955L287.55 116.546 287.55 116.546 287.55 115.909C287.55 115.206 286.946 114.636 286.2 114.636L271.35 114.636C270.604 114.636 270 115.206 270 115.909L270 126.727C270 127.43 270.604 128 271.35 128L272.025 128C272.025 126.243 273.536 124.818 275.4 124.818 277.264 124.818 278.775 126.243 278.775 128L288.9 128C288.9 126.243 290.411 124.818 292.275 124.818 294.139 124.818 295.65 126.243 295.65 128 296.396 128 297 127.43 297 126.727L297 123.545C297 123.145 296.8 122.768 296.46 122.527ZM283.584 121.255 282.572 122.909 280.8 121.955 280.8 123.864 278.775 123.864 278.775 121.935 277.003 122.89 275.991 121.235 277.762 120.281 275.991 119.326 277.003 117.672 278.775 118.626 278.775 116.698 280.8 116.698 280.8 118.63 282.572 117.675 283.584 119.33 281.812 120.284ZM288.9 121 288.9 117.818 290.925 117.818C291.527 117.81 292.057 118.192 292.207 118.741L292.883 120.936C292.883 120.968 292.916 120.968 292.916 121Z" fill="#FFFFFF" fill-rule="evenodd"/><path d="M344 89.5001 344 83.4118C344 81.9236 345.35 80.706 347 80.706 348.65 80.706 350 81.9236 350 83.4118L350 89.5001 344 89.5001ZM353 95.5884 353 83.4118C353 80.4353 350.3 78 347 78 343.7 78 341 80.4353 341 83.4118L341 95.5884C341 98.5649 343.7 101 347 101 350.3 101 353 98.5649 353 95.5884Z" stroke="#FFFFFF" stroke-width="2.29167" stroke-miterlimit="8" fill="#85D8D1" fill-rule="evenodd"/><path d="M342 90.0001 342 85.0001C342 82.2387 344.239 80.0001 347 80.0001 349.761 80.0001 352 82.2387 352 85.0001L352 90.0001Z" stroke="#FFFFFF" stroke-width="2.29167" stroke-linejoin="round" stroke-miterlimit="10" fill="#FFFFFF" fill-rule="evenodd"/><path d="M321 112C321 113.105 320.105 114 319 114 317.895 114 317 113.105 317 112 317 110.895 317.895 110 319 110 320.105 110 321 110.895 321 112Z" fill="#FFFFFF" fill-rule="evenodd"/><path d="M324.467 114.522C323.963 114.261 323.36 114.444 323.108 114.965L322.227 116.687 318.353 114.157C318.202 114.052 318.026 114 317.825 114L313.548 114C313.17 114 312.843 114.209 312.667 114.548L311.032 117.678C310.755 118.174 310.956 118.826 311.434 119.087 311.585 119.165 311.761 119.217 311.912 119.217 312.264 119.217 312.617 119.009 312.793 118.67L314.151 116.087 315.636 116.087 311.183 124.696 307.006 124.696C306.453 124.696 306 125.165 306 125.739 306 126.313 306.453 126.783 307.006 126.783L311.787 126.783C312.164 126.783 312.491 126.574 312.667 126.235L314.428 122.87 317.321 125.661 317.095 130.904C317.045 131.478 317.472 131.974 318.026 132 318.051 132 318.051 132 318.076 132 318.605 132 319.057 131.557 319.083 131.009L319.334 125.27C319.359 124.957 319.234 124.67 319.007 124.461L316.567 122.113 319.133 117.157 322.051 119.061C322.278 119.217 322.58 119.27 322.856 119.191 323.133 119.113 323.36 118.931 323.485 118.67L324.869 115.931C325.146 115.435 324.97 114.809 324.467 114.522Z" fill="#FFFFFF" fill-rule="evenodd"/></g></svg>