<svg width="80" height="52" xmlns="http://www.w3.org/2000/svg" xmlns:xlink="http://www.w3.org/1999/xlink" xml:space="preserve" overflow="hidden"><defs><clipPath id="clip0"><rect x="268" y="149" width="80" height="52"/></clipPath></defs><g clip-path="url(#clip0)" transform="translate(-268 -149)"><path d="M268 178.026C268 176.907 268.907 176 270.026 176L291.974 176C293.093 176 294 176.907 294 178.026L294 198.974C294 200.093 293.093 201 291.974 201L270.026 201C268.907 201 268 200.093 268 198.974Z" fill="#5F605E" fill-rule="evenodd"/><path d="M295 178.026C295 176.907 295.907 176 297.026 176L318.974 176C320.093 176 321 176.907 321 178.026L321 198.974C321 200.093 320.093 201 318.974 201L297.026 201C295.907 201 295 200.093 295 198.974Z" fill="#D62CD0" fill-rule="evenodd"/><path d="M322 178.026C322 176.907 322.907 176 324.026 176L345.974 176C347.093 176 348 176.907 348 178.026L348 198.974C348 200.093 347.093 201 345.974 201L324.026 201C322.907 201 322 200.093 322 198.974Z" fill="#D62CD0" fill-rule="evenodd"/><path d="M322 151.107C322 149.943 322.943 149 324.107 149L345.893 149C347.057 149 348 149.943 348 151.107L348 172.893C348 174.057 347.057 175 345.893 175L324.107 175C322.943 175 322 174.057 322 172.893Z" fill="#D62CD0" fill-rule="evenodd"/><path d="M295 151.107C295 149.943 295.943 149 297.107 149L318.893 149C320.057 149 321 149.943 321 151.107L321 172.893C321 174.057 320.057 175 318.893 175L297.107 175C295.943 175 295 174.057 295 172.893Z" fill="#D62CD0" fill-rule="evenodd"/><path d="M268 151.107C268 149.943 268.943 149 270.107 149L291.893 149C293.057 149 294 149.943 294 151.107L294 172.893C294 174.057 293.057 175 291.893 175L270.107 175C268.943 175 268 174.057 268 172.893Z" fill="#5F605E" fill-rule="evenodd"/><path d="M342.761 189.284 341.139 186.458 341.139 186.363C341.237 183.759 339.908 181.313 337.682 179.998 335.456 178.668 332.689 178.668 330.462 179.998 328.232 181.309 326.901 183.758 327.006 186.363 326.997 188.596 328.024 190.705 329.78 192.063L329.78 198 337.211 198 337.211 195.174 338.364 195.174C339.107 195.179 339.82 194.879 340.339 194.343 340.853 193.809 341.14 193.093 341.139 192.348L341.139 190.923 342.173 190.923C342.787 190.875 343.328 190.163 342.761 189.284ZM333.435 188.37C333.895 188.299 334.135 188.881 333.85 189.27L333.808 189.324C333.505 189.698 332.877 189.619 332.833 189.152 332.807 188.878 332.451 188.597 332.288 188.81L331.245 190.163 330.289 189.411C330.079 189.245 330.358 188.887 330.628 188.86 331.091 188.816 331.169 188.182 330.798 187.875L330.745 187.833C330.36 187.545 329.784 187.788 329.855 188.252 329.896 188.524 329.62 188.885 329.409 188.719L328.507 188.01 329.555 186.651C329.719 186.438 329.361 186.159 329.092 186.201 328.632 186.272 328.392 185.69 328.677 185.302L328.719 185.248C329.022 184.874 329.65 184.952 329.694 185.419 329.72 185.693 330.076 185.974 330.24 185.762L331.282 184.408 332.179 185.113C332.389 185.279 332.111 185.637 331.84 185.664 331.376 185.708 331.299 186.343 331.67 186.649L331.723 186.691C332.108 186.979 332.685 186.736 332.614 186.272 332.573 186 332.848 185.639 333.059 185.805L334.021 186.56 332.973 187.921C332.809 188.133 333.166 188.412 333.435 188.37ZM337.001 184.436C336.822 184.577 336.587 184.269 336.622 184.037 336.683 183.641 336.181 183.443 335.852 183.688L335.807 183.724C335.49 183.985 335.568 184.516 335.962 184.555 336.193 184.579 336.43 184.885 336.251 185.025L335.481 185.629 334.589 184.469C334.45 184.288 334.146 184.528 334.124 184.761 334.086 185.159 333.559 185.237 333.301 184.918L333.265 184.871C333.023 184.539 333.218 184.032 333.61 184.093 333.839 184.129 334.144 183.892 334.005 183.71L333.117 182.556 333.882 181.956C334.062 181.815 334.297 182.122 334.262 182.355 334.201 182.751 334.703 182.948 335.032 182.704L335.079 182.668C335.395 182.407 335.318 181.875 334.923 181.837 334.692 181.814 334.454 181.508 334.635 181.367L335.455 180.724 336.347 181.883C336.486 182.065 336.789 181.825 336.812 181.592 336.85 181.193 337.376 181.115 337.635 181.435L337.67 181.481C337.912 181.814 337.717 182.32 337.325 182.259 337.096 182.223 336.791 182.46 336.93 182.642L337.817 183.798Z" fill="#FFFFFF" fill-rule="evenodd"/><path d="M290.04 161 279 161 279 167.546C279.002 168.147 279.431 168.635 279.96 168.637L289.56 168.637 289.56 170 291 170 291 162.091C290.999 161.489 290.57 161.002 290.04 161Z" fill="#FFFFFF" fill-rule="evenodd"/><path d="M272.543 159.75C272.551 159.344 272.218 159.008 271.799 159 271.79 159 271.781 159 271.771 159 271.353 158.993 271.008 159.316 271 159.723 271 159.732 271 159.741 271 159.75L271 171 272.543 171 272.543 168.5 280 168.5 280 166 272.543 163Z" fill="#FFFFFF" fill-rule="evenodd"/><path d="M278.5 158C278.5 158.828 277.828 159.5 277 159.5 276.171 159.5 275.5 158.828 275.5 158 275.5 157.172 276.171 156.5 277 156.5 277.828 156.5 278.5 157.172 278.5 158Z" stroke="#FFFFFF" stroke-width="4.58333" stroke-miterlimit="8" fill="#FFFFFF" fill-rule="evenodd"/><path d="M276.5 163.988 280.5 165.5 280.5 162.878 279.989 162.684C278.629 162.175 277.07 162.758 276.5 163.988Z" stroke="#FFFFFF" stroke-width="4.58333" stroke-miterlimit="8" fill="#FFFFFF" fill-rule="evenodd"/><path d="M316 156C316 153.8 314.925 152 312.75 152 310.575 152 310.65 153 308.5 153 306.35 153 306.425 152 304.25 152 302.075 152 301 153.8 301 156 301 158.2 302.75 160.375 302.75 162.25 302.75 164.025 302.5 165.525 302.5 166.75 302.5 167.975 302.475 172 304.25 172 306.025 172 306 168.35 306 166.75 306 165.15 306.2 162.75 308.5 162.75 310.8 162.75 311 165.15 311 166.75 311 168.35 310.975 172 312.75 172 314.525 172 314.5 167.975 314.5 166.75 314.5 165.525 314.25 164.025 314.25 162.25 314.25 160.375 316 158.2 316 156Z" fill="#FFFFFF" fill-rule="evenodd"/><path d="M276 194C276 195.105 275.328 196 274.5 196 273.672 196 273 195.105 273 194 273 192.896 273.672 192 274.5 192 275.328 192 276 192.896 276 194Z" stroke="#FFFFFF" stroke-width="2.29167" stroke-miterlimit="8" fill="#FFFFFF" fill-rule="evenodd"/><path d="M290 194C290 195.105 289.105 196 288 196 286.895 196 286 195.105 286 194 286 192.896 286.895 192 288 192 289.105 192 290 192.896 290 194Z" stroke="#FFFFFF" stroke-width="2.29167" stroke-miterlimit="8" fill="#FFFFFF" fill-rule="evenodd"/><path d="M291.56 190.309 290.102 189.218C289.911 189.077 289.775 188.875 289.717 188.645L289.167 186.764C288.887 185.833 288.029 185.192 287.05 185.182L286.5 185.182 286.5 183.818C286.5 183.366 286.13 183 285.675 183L285.125 183C284.669 183 284.3 183.366 284.3 183.818L284.3 185.182 284.3 185.182 284.3 184.636C284.3 184.034 283.807 183.545 283.2 183.545L271.1 183.545C270.492 183.545 270 184.034 270 184.636L270 193.909C270 194.512 270.492 195 271.1 195L271.65 195C271.65 193.494 272.881 192.273 274.4 192.273 275.919 192.273 277.15 193.494 277.15 195L285.4 195C285.4 193.494 286.631 192.273 288.15 192.273 289.669 192.273 290.9 193.494 290.9 195 291.507 195 292 194.512 292 193.909L292 191.182C292 190.838 291.837 190.515 291.56 190.309ZM281.069 189.218 280.244 190.636 278.8 189.818 278.8 191.454 277.15 191.454 277.15 189.802 275.706 190.62 274.881 189.202 276.325 188.384 274.881 187.565 275.706 186.147 277.15 186.965 277.15 185.313 278.8 185.313 278.8 186.968 280.244 186.15 281.069 187.568 279.625 188.386ZM285.4 189 285.4 186.273 287.05 186.273C287.54 186.266 287.972 186.593 288.095 187.064L288.645 188.945C288.645 188.973 288.672 188.973 288.672 189Z" fill="#FFFFFF" fill-rule="evenodd"/><path d="M332.5 162 332.5 156.706C332.5 155.412 333.625 154.353 335 154.353 336.375 154.353 337.5 155.412 337.5 156.706L337.5 162 332.5 162ZM340 167.294 340 156.706C340 154.117 337.75 152 335 152 332.25 152 330 154.117 330 156.706L330 167.294C330 169.882 332.25 172 335 172 337.75 172 340 169.882 340 167.294Z" stroke="#FFFFFF" stroke-width="2.29167" stroke-miterlimit="8" fill="#85D8D1" fill-rule="evenodd"/><path d="M331 163 331 158.5C331 156.015 332.791 154 335 154 337.209 154 339 156.015 339 158.5L339 163Z" stroke="#FFFFFF" stroke-width="2.29167" stroke-linejoin="round" stroke-miterlimit="10" fill="#FFFFFF" fill-rule="evenodd"/><path d="M313 181C313 182.105 312.329 183 311.5 183 310.672 183 310 182.105 310 181 310 179.895 310.672 179 311.5 179 312.329 179 313 179.895 313 181Z" fill="#FFFFFF" fill-rule="evenodd"/><path d="M315.551 183.435C315.127 183.217 314.619 183.369 314.407 183.804L313.665 185.239 310.403 183.13C310.275 183.043 310.127 183 309.958 183L306.356 183C306.038 183 305.763 183.174 305.614 183.456L304.237 186.065C304.004 186.478 304.174 187.022 304.576 187.239 304.703 187.304 304.852 187.348 304.979 187.348 305.275 187.348 305.572 187.174 305.72 186.891L306.864 184.739 308.114 184.739 304.365 191.913 300.848 191.913C300.381 191.913 300 192.304 300 192.783 300 193.261 300.381 193.652 300.848 193.652L304.873 193.652C305.191 193.652 305.466 193.478 305.614 193.196L307.098 190.391 309.534 192.717 309.343 197.087C309.301 197.565 309.661 197.978 310.127 198 310.148 198 310.148 198 310.17 198 310.614 198 310.996 197.63 311.017 197.174L311.229 192.391C311.25 192.13 311.144 191.891 310.953 191.717L308.898 189.761 311.059 185.63 313.517 187.217C313.708 187.348 313.962 187.391 314.195 187.326 314.428 187.261 314.619 187.109 314.725 186.891L315.89 184.609C316.123 184.196 315.975 183.674 315.551 183.435Z" fill="#FFFFFF" fill-rule="evenodd"/></g></svg>