<svg width="94" height="62" xmlns="http://www.w3.org/2000/svg" xmlns:xlink="http://www.w3.org/1999/xlink" xml:space="preserve" overflow="hidden"><defs><clipPath id="clip0"><rect x="270" y="145" width="94" height="62"/></clipPath></defs><g clip-path="url(#clip0)" transform="translate(-270 -145)"><path d="M270 178.431C270 177.088 271.088 176 272.431 176L297.569 176C298.912 176 300 177.088 300 178.431L300 204.569C300 205.912 298.912 207 297.569 207L272.431 207C271.088 207 270 205.912 270 204.569Z" fill="#5F605E" fill-rule="evenodd"/><path d="M301 178.512C301 177.125 302.125 176 303.512 176L329.488 176C330.875 176 332 177.125 332 178.512L332 204.488C332 205.875 330.875 207 329.488 207L303.512 207C302.125 207 301 205.875 301 204.488Z" fill="#D62CD0" fill-rule="evenodd"/><path d="M333 178.512C333 177.125 334.125 176 335.512 176L361.488 176C362.875 176 364 177.125 364 178.512L364 204.488C364 205.875 362.875 207 361.488 207L335.512 207C334.125 207 333 205.875 333 204.488Z" fill="#D62CD0" fill-rule="evenodd"/><path d="M333 147.431C333 146.088 334.088 145 335.431 145L361.569 145C362.912 145 364 146.088 364 147.431L364 172.569C364 173.911 362.912 175 361.569 175L335.431 175C334.088 175 333 173.911 333 172.569Z" fill="#D62CD0" fill-rule="evenodd"/><path d="M301 147.431C301 146.088 302.088 145 303.431 145L329.569 145C330.912 145 332 146.088 332 147.431L332 172.569C332 173.911 330.912 175 329.569 175L303.431 175C302.088 175 301 173.911 301 172.569Z" fill="#D62CD0" fill-rule="evenodd"/><path d="M270 147.431C270 146.088 271.088 145 272.431 145L297.569 145C298.912 145 300 146.088 300 147.431L300 172.569C300 173.912 298.912 175 297.569 175L272.431 175C271.088 175 270 173.912 270 172.569Z" fill="#5F605E" fill-rule="evenodd"/><path d="M356.731 192.366 354.906 189.243 354.906 189.138C355.017 186.26 353.522 183.556 351.017 182.103 348.512 180.633 345.4 180.633 342.895 182.103 340.385 183.552 338.889 186.259 339.006 189.138 338.997 191.606 340.152 193.937 342.128 195.438L342.128 202 350.488 202 350.488 198.876 351.784 198.876C352.62 198.882 353.422 198.55 354.006 197.958 354.585 197.368 354.908 196.576 354.906 195.753L354.906 194.178 356.07 194.178C356.76 194.125 357.369 193.338 356.731 192.366ZM346.24 191.357C346.757 191.278 347.027 191.921 346.706 192.351L346.659 192.411C346.318 192.824 345.612 192.737 345.562 192.221 345.533 191.918 345.133 191.607 344.949 191.842L343.776 193.338 342.7 192.507C342.464 192.324 342.777 191.928 343.082 191.898 343.603 191.849 343.69 191.148 343.273 190.81L343.213 190.763C342.78 190.445 342.132 190.713 342.212 191.226 342.258 191.526 341.947 191.925 341.711 191.742L340.696 190.959 341.874 189.456C342.059 189.221 341.656 188.913 341.353 188.959 340.836 189.038 340.566 188.395 340.887 187.965L340.934 187.906C341.275 187.492 341.981 187.579 342.031 188.095 342.06 188.397 342.46 188.708 342.645 188.474L343.818 186.978 344.826 187.757C345.063 187.94 344.75 188.336 344.445 188.365 343.924 188.415 343.837 189.116 344.254 189.454L344.314 189.501C344.747 189.819 345.395 189.55 345.316 189.037 345.269 188.737 345.579 188.338 345.817 188.521L346.898 189.356 345.719 190.86C345.535 191.094 345.937 191.403 346.24 191.357ZM350.252 187.008C350.05 187.164 349.785 186.823 349.825 186.568 349.894 186.13 349.328 185.911 348.959 186.182L348.908 186.222C348.551 186.51 348.639 187.097 349.082 187.14 349.342 187.167 349.609 187.504 349.407 187.66L348.541 188.327 347.538 187.045C347.381 186.845 347.04 187.11 347.014 187.367 346.971 187.808 346.379 187.894 346.088 187.541L346.048 187.489C345.775 187.122 345.995 186.562 346.436 186.629 346.694 186.669 347.037 186.407 346.881 186.206L345.882 184.93 346.743 184.267C346.945 184.112 347.209 184.451 347.169 184.708 347.101 185.146 347.666 185.364 348.036 185.094L348.088 185.054C348.444 184.765 348.357 184.178 347.913 184.135 347.654 184.11 347.386 183.772 347.589 183.616L348.512 182.905 349.515 184.187C349.672 184.387 350.013 184.122 350.038 183.865 350.081 183.424 350.673 183.338 350.964 183.691L351.004 183.742C351.277 184.11 351.057 184.67 350.615 184.602 350.358 184.562 350.015 184.825 350.171 185.025L351.169 186.303Z" fill="#FFFFFF" fill-rule="evenodd"/><path d="M296.8 158 283 158 283 165.273C283.002 165.941 283.538 166.483 284.2 166.485L296.2 166.485 296.2 168 298 168 298 159.212C297.998 158.544 297.462 158.002 296.8 158Z" fill="#FFFFFF" fill-rule="evenodd"/><path d="M275.714 155.875C275.723 155.401 275.353 155.009 274.888 155 274.878 155 274.868 155 274.857 155 274.392 154.991 274.009 155.369 274 155.843 274 155.854 274 155.865 274 155.875L274 169 275.714 169 275.714 166.084 284 166.084 284 163.167 275.714 159.667Z" fill="#FFFFFF" fill-rule="evenodd"/><path d="M281.5 155.5C281.5 156.605 280.828 157.5 280 157.5 279.172 157.5 278.5 156.605 278.5 155.5 278.5 154.396 279.172 153.5 280 153.5 280.828 153.5 281.5 154.396 281.5 155.5Z" stroke="#FFFFFF" stroke-width="4.58333" stroke-miterlimit="8" fill="#FFFFFF" fill-rule="evenodd"/><path d="M280.5 160.989 285.5 162.5 285.5 159.878 284.862 159.684C283.161 159.175 281.212 159.757 280.5 160.989Z" stroke="#FFFFFF" stroke-width="4.58333" stroke-miterlimit="8" fill="#FFFFFF" fill-rule="evenodd"/><path d="M326 152.8C326 150.16 324.71 148 322.1 148 319.49 148 319.58 149.2 317 149.2 314.42 149.2 314.51 148 311.9 148 309.29 148 308 150.16 308 152.8 308 155.44 310.1 158.05 310.1 160.3 310.1 162.43 309.8 164.23 309.8 165.7 309.8 167.17 309.77 172 311.9 172 314.03 172 314 167.62 314 165.7 314 163.78 314.24 160.9 317 160.9 319.76 160.9 320 163.78 320 165.7 320 167.62 319.97 172 322.1 172 324.23 172 324.2 167.17 324.2 165.7 324.2 164.23 323.9 162.43 323.9 160.3 323.9 158.05 326 155.44 326 152.8Z" fill="#FFFFFF" fill-rule="evenodd"/><path d="M279 197.5C279 198.881 278.105 200 277 200 275.895 200 275 198.881 275 197.5 275 196.119 275.895 195 277 195 278.105 195 279 196.119 279 197.5Z" stroke="#FFFFFF" stroke-width="2.29167" stroke-miterlimit="8" fill="#FFFFFF" fill-rule="evenodd"/><path d="M295 197.5C295 198.881 293.881 200 292.5 200 291.119 200 290 198.881 290 197.5 290 196.119 291.119 195 292.5 195 293.881 195 295 196.119 295 197.5Z" stroke="#FFFFFF" stroke-width="2.29167" stroke-miterlimit="8" fill="#FFFFFF" fill-rule="evenodd"/><path d="M297.48 193.136 295.758 191.773C295.532 191.596 295.371 191.343 295.303 191.057L294.653 188.704C294.321 187.542 293.307 186.74 292.15 186.727L291.5 186.727 291.5 185.023C291.5 184.458 291.063 184 290.525 184L289.875 184C289.337 184 288.9 184.458 288.9 185.023L288.9 186.727 288.9 186.727 288.9 186.045C288.9 185.292 288.318 184.682 287.6 184.682L273.3 184.682C272.582 184.682 272 185.292 272 186.045L272 197.636C272 198.39 272.582 199 273.3 199L273.95 199C273.95 197.117 275.405 195.591 277.2 195.591 278.995 195.591 280.45 197.117 280.45 199L290.2 199C290.2 197.117 291.655 195.591 293.45 195.591 295.245 195.591 296.7 197.117 296.7 199 297.418 199 298 198.39 298 197.636L298 194.227C298 193.798 297.807 193.394 297.48 193.136ZM285.081 191.773 284.106 193.545 282.4 192.523 282.4 194.568 280.45 194.568 280.45 192.502 278.744 193.525 277.769 191.752 279.475 190.73 277.769 189.707 278.744 187.934 280.45 188.957 280.45 186.891 282.4 186.891 282.4 188.96 284.106 187.937 285.081 189.71 283.375 190.733ZM290.2 191.5 290.2 188.091 292.15 188.091C292.73 188.082 293.24 188.491 293.385 189.08L294.035 191.432C294.035 191.466 294.068 191.466 294.068 191.5Z" fill="#FFFFFF" fill-rule="evenodd"/><path d="M345 159.5 345 153.412C345 151.923 346.35 150.706 348 150.706 349.65 150.706 351 151.923 351 153.412L351 159.5 345 159.5ZM354 165.588 354 153.412C354 150.435 351.3 148 348 148 344.7 148 342 150.435 342 153.412L342 165.588C342 168.564 344.7 171 348 171 351.3 171 354 168.564 354 165.588Z" stroke="#FFFFFF" stroke-width="2.29167" stroke-miterlimit="8" fill="#85D8D1" fill-rule="evenodd"/><path d="M344 161 344 155.5C344 152.462 346.015 150 348.5 150 350.985 150 353 152.462 353 155.5L353 161Z" stroke="#FFFFFF" stroke-width="2.29167" stroke-linejoin="round" stroke-miterlimit="10" fill="#FFFFFF" fill-rule="evenodd"/><path d="M323 182C323 183.105 322.105 184 321 184 319.895 184 319 183.105 319 182 319 180.896 319.895 180 321 180 322.105 180 323 180.896 323 182Z" fill="#FFFFFF" fill-rule="evenodd"/><path d="M325.467 185.493C324.963 185.246 324.36 185.419 324.108 185.912L323.227 187.538 319.353 185.148C319.202 185.049 319.026 185 318.825 185L314.548 185C314.17 185 313.843 185.197 313.667 185.517L312.032 188.474C311.755 188.942 311.956 189.558 312.434 189.804 312.585 189.878 312.761 189.928 312.912 189.928 313.265 189.928 313.617 189.73 313.793 189.41L315.151 186.971 316.636 186.971 312.183 195.102 308.006 195.102C307.453 195.102 307 195.545 307 196.087 307 196.629 307.453 197.073 308.006 197.073L312.787 197.073C313.164 197.073 313.491 196.875 313.667 196.555L315.428 193.377 318.322 196.013 318.095 200.965C318.045 201.507 318.472 201.975 319.026 202 319.051 202 319.051 202 319.076 202 319.605 202 320.057 201.581 320.083 201.064L320.334 195.644C320.359 195.348 320.234 195.077 320.007 194.88L317.567 192.662 320.133 187.981 323.051 189.78C323.278 189.928 323.58 189.977 323.856 189.903 324.133 189.829 324.36 189.657 324.485 189.41L325.869 186.823C326.146 186.355 325.97 185.764 325.467 185.493Z" fill="#FFFFFF" fill-rule="evenodd"/></g></svg>