<svg width="94" height="61" xmlns="http://www.w3.org/2000/svg" xmlns:xlink="http://www.w3.org/1999/xlink" xml:space="preserve" overflow="hidden"><g transform="translate(-268 -220)"><path d="M268 253.431C268 252.088 269.088 251 270.431 251L296.569 251C297.912 251 299 252.088 299 253.431L299 278.569C299 279.911 297.912 280.999 296.569 280.999L270.431 280.999C269.088 280.999 268 279.911 268 278.569Z" fill="#5F605E" fill-rule="evenodd"/><path d="M300 253.431C300 252.088 301.088 251 302.431 251L328.569 251C329.912 251 331 252.088 331 253.431L331 278.569C331 279.911 329.912 280.999 328.569 280.999L302.431 280.999C301.088 280.999 300 279.911 300 278.569Z" fill="#D62CD0" fill-rule="evenodd"/><path d="M331 253.431C331 252.088 332.088 251 333.431 251L359.569 251C360.912 251 362 252.088 362 253.431L362 278.569C362 279.911 360.912 280.999 359.569 280.999L333.431 280.999C332.088 280.999 331 279.911 331 278.569Z" fill="#5F605E" fill-rule="evenodd"/><path d="M331 222.431C331 221.088 332.088 220 333.431 220L359.569 220C360.912 220 362 221.088 362 222.431L362 247.569C362 248.911 360.912 250 359.569 250L333.431 250C332.088 250 331 248.911 331 247.569Z" fill="#5F605E" fill-rule="evenodd"/><path d="M300 222.431C300 221.088 301.088 220 302.431 220L328.569 220C329.912 220 331 221.088 331 222.431L331 247.569C331 248.911 329.912 250 328.569 250L302.431 250C301.088 250 300 248.911 300 247.569Z" fill="#D62CD0" fill-rule="evenodd"/><path d="M268 222.431C268 221.088 269.088 220 270.431 220L296.569 220C297.912 220 299 221.088 299 222.431L299 247.569C299 248.911 297.912 250 296.569 250L270.431 250C269.088 250 268 248.911 268 247.569Z" fill="#5F605E" fill-rule="evenodd"/><path d="M355.731 266.908 353.906 263.635 353.906 263.525C354.017 260.511 352.522 257.678 350.017 256.155 347.512 254.615 344.4 254.615 341.895 256.155 339.385 257.673 337.889 260.509 338.006 263.525 337.997 266.111 339.152 268.553 341.128 270.125L341.128 277 349.488 277 349.488 273.728 350.784 273.728C351.62 273.733 352.422 273.386 353.006 272.765 353.585 272.147 353.908 271.318 353.906 270.455L353.906 268.805 355.07 268.805C355.76 268.75 356.369 267.925 355.731 266.908ZM345.239 265.85C345.757 265.767 346.027 266.441 345.706 266.891L345.659 266.954C345.318 267.387 344.612 267.296 344.562 266.755 344.533 266.438 344.133 266.112 343.949 266.358L342.776 267.925 341.7 267.055C341.464 266.863 341.777 266.448 342.082 266.417 342.603 266.366 342.69 265.631 342.273 265.277L342.213 265.228C341.78 264.895 341.132 265.175 341.212 265.713 341.258 266.027 340.947 266.446 340.711 266.254L339.696 265.433 340.874 263.859C341.059 263.613 340.656 263.29 340.353 263.338 339.836 263.421 339.566 262.747 339.887 262.297L339.934 262.234C340.275 261.801 340.981 261.892 341.031 262.433 341.06 262.75 341.46 263.075 341.644 262.83L342.818 261.262 343.826 262.078C344.063 262.271 343.75 262.686 343.445 262.716 342.924 262.768 342.837 263.502 343.253 263.856L343.314 263.905C343.747 264.239 344.395 263.957 344.316 263.42 344.269 263.106 344.579 262.687 344.817 262.879L345.898 263.754 344.719 265.329C344.535 265.575 344.937 265.898 345.239 265.85ZM349.252 261.294C349.05 261.457 348.785 261.1 348.825 260.833 348.894 260.374 348.328 260.145 347.959 260.428L347.908 260.47C347.551 260.773 347.639 261.387 348.082 261.433 348.342 261.46 348.609 261.814 348.407 261.977L347.541 262.676 346.538 261.333C346.381 261.123 346.039 261.4 346.014 261.67 345.971 262.132 345.379 262.222 345.088 261.852L345.048 261.798C344.775 261.413 344.995 260.827 345.436 260.897 345.694 260.939 346.037 260.664 345.88 260.454L344.882 259.117 345.743 258.423C345.945 258.26 346.209 258.615 346.169 258.884 346.101 259.343 346.666 259.572 347.035 259.288L347.088 259.247C347.444 258.944 347.357 258.329 346.913 258.284 346.654 258.258 346.386 257.904 346.589 257.74L347.512 256.996 348.515 258.339C348.672 258.548 349.013 258.271 349.038 258.001 349.081 257.539 349.673 257.449 349.964 257.819L350.004 257.873C350.277 258.258 350.057 258.844 349.615 258.773 349.358 258.732 349.015 259.007 349.171 259.217L350.169 260.555Z" fill="#FFFFFF" fill-rule="evenodd"/><path d="M295.8 233 282 233 282 240.273C282.002 240.941 282.538 241.483 283.2 241.485L295.2 241.485 295.2 243 297 243 297 234.212C296.998 233.544 296.462 233.002 295.8 233Z" fill="#FFFFFF" fill-rule="evenodd"/><path d="M273.714 230.875C273.723 230.401 273.353 230.009 272.888 230 272.878 230 272.868 230 272.857 230 272.392 229.991 272.009 230.369 272 230.843 272 230.854 272 230.865 272 230.875L272 244 273.714 244 273.714 241.083 282 241.083 282 238.167 273.714 234.667Z" fill="#FFFFFF" fill-rule="evenodd"/><path d="M280.5 230C280.5 230.828 279.605 231.5 278.5 231.5 277.395 231.5 276.5 230.828 276.5 230 276.5 229.172 277.395 228.5 278.5 228.5 279.605 228.5 280.5 229.172 280.5 230Z" stroke="#FFFFFF" stroke-width="4.58333" stroke-miterlimit="8" fill="#FFFFFF" fill-rule="evenodd"/><path d="M279.5 235.988 283.5 237.5 283.5 234.878 282.989 234.684C281.629 234.175 280.07 234.757 279.5 235.988Z" stroke="#FFFFFF" stroke-width="4.58333" stroke-miterlimit="8" fill="#FFFFFF" fill-rule="evenodd"/><path d="M324 227.8C324 225.16 322.71 223 320.1 223 317.49 223 317.58 224.2 315 224.2 312.42 224.2 312.51 223 309.9 223 307.29 223 306 225.16 306 227.8 306 230.44 308.1 233.05 308.1 235.3 308.1 237.43 307.8 239.23 307.8 240.7 307.8 242.17 307.77 247 309.9 247 312.03 247 312 242.62 312 240.7 312 238.78 312.24 235.9 315 235.9 317.76 235.9 318 238.78 318 240.7 318 242.62 317.97 247 320.1 247 322.23 247 322.2 242.17 322.2 240.7 322.2 239.23 321.9 237.43 321.9 235.3 321.9 233.05 324 230.44 324 227.8Z" fill="#FFFFFF" fill-rule="evenodd"/><path d="M278 272.5C278 273.881 276.881 275 275.5 275 274.119 275 273 273.881 273 272.5 273 271.119 274.119 270 275.5 270 276.881 270 278 271.119 278 272.5Z" stroke="#FFFFFF" stroke-width="2.29167" stroke-miterlimit="8" fill="#FFFFFF" fill-rule="evenodd"/><path d="M293 272.5C293 273.881 292.105 275 291 275 289.895 275 289 273.881 289 272.5 289 271.119 289.895 270 291 270 292.105 270 293 271.119 293 272.5Z" stroke="#FFFFFF" stroke-width="2.29167" stroke-miterlimit="8" fill="#FFFFFF" fill-rule="evenodd"/><path d="M296.46 268.136 294.671 266.773C294.437 266.596 294.27 266.343 294.199 266.057L293.524 263.704C293.18 262.542 292.126 261.74 290.925 261.727L290.25 261.727 290.25 260.023C290.25 259.458 289.797 259 289.237 259L288.562 259C288.003 259 287.55 259.458 287.55 260.023L287.55 261.727 287.55 261.727 287.55 261.045C287.55 260.292 286.946 259.682 286.2 259.682L271.35 259.682C270.604 259.682 270 260.292 270 261.045L270 272.636C270 273.389 270.604 274 271.35 274L272.025 274C272.025 272.117 273.536 270.591 275.4 270.591 277.264 270.591 278.775 272.117 278.775 274L288.9 274C288.9 272.117 290.411 270.591 292.275 270.591 294.139 270.591 295.65 272.117 295.65 274 296.396 274 297 273.389 297 272.636L297 269.227C297 268.798 296.8 268.394 296.46 268.136ZM283.584 266.773 282.572 268.545 280.8 267.523 280.8 269.568 278.775 269.568 278.775 267.502 277.003 268.525 275.991 266.752 277.762 265.729 275.991 264.707 277.003 262.934 278.775 263.957 278.775 261.891 280.8 261.891 280.8 263.96 282.572 262.937 283.584 264.71 281.812 265.733ZM288.9 266.5 288.9 263.091 290.925 263.091C291.527 263.082 292.057 263.491 292.207 264.079L292.883 266.432C292.883 266.466 292.916 266.466 292.916 266.5Z" fill="#FFFFFF" fill-rule="evenodd"/><path d="M344 234.5 344 228.412C344 226.924 345.35 225.706 347 225.706 348.65 225.706 350 226.924 350 228.412L350 234.5 344 234.5ZM353 240.588 353 228.412C353 225.435 350.3 223 347 223 343.7 223 341 225.435 341 228.412L341 240.588C341 243.565 343.7 246 347 246 350.3 246 353 243.565 353 240.588Z" stroke="#FFFFFF" stroke-width="2.29167" stroke-miterlimit="8" fill="#85D8D1" fill-rule="evenodd"/><path d="M342 236 342 230.5C342 227.462 344.239 225 347 225 349.762 225 352 227.462 352 230.5L352 236Z" stroke="#FFFFFF" stroke-width="2.29167" stroke-linejoin="round" stroke-miterlimit="10" fill="#FFFFFF" fill-rule="evenodd"/><path d="M321 257C321 258.104 320.105 259 319 259 317.895 259 317 258.104 317 257 317 255.895 317.895 255 319 255 320.105 255 321 255.895 321 257Z" fill="#FFFFFF" fill-rule="evenodd"/><path d="M324.467 260.493C323.963 260.246 323.36 260.419 323.108 260.911L322.227 262.538 318.353 260.148C318.202 260.049 318.026 260 317.825 260L313.548 260C313.17 260 312.843 260.197 312.667 260.517L311.032 263.474C310.755 263.942 310.956 264.558 311.434 264.804 311.585 264.878 311.761 264.927 311.912 264.927 312.264 264.927 312.617 264.73 312.793 264.41L314.151 261.971 315.636 261.971 311.183 270.101 307.006 270.101C306.453 270.101 306 270.545 306 271.087 306 271.629 306.453 272.072 307.006 272.072L311.787 272.072C312.164 272.072 312.491 271.875 312.667 271.555L314.428 268.377 317.321 271.013 317.095 275.965C317.045 276.507 317.472 276.975 318.026 277 318.051 277 318.051 277 318.076 277 318.605 277 319.057 276.581 319.083 276.064L319.334 270.643C319.359 270.348 319.234 270.077 319.007 269.88L316.567 267.662 319.133 262.981 322.051 264.78C322.278 264.927 322.58 264.977 322.856 264.903 323.133 264.829 323.36 264.656 323.485 264.41L324.869 261.823C325.146 261.355 324.97 260.764 324.467 260.493Z" fill="#FFFFFF" fill-rule="evenodd"/></g></svg>