<svg width="79" height="54" xmlns="http://www.w3.org/2000/svg" xmlns:xlink="http://www.w3.org/1999/xlink" xml:space="preserve" overflow="hidden"><defs><clipPath id="clip0"><rect x="268" y="218" width="79" height="54"/></clipPath></defs><g clip-path="url(#clip0)" transform="translate(-268 -218)"><path d="M268 248.107C268 246.943 268.943 246 270.107 246L291.893 246C293.057 246 294 246.943 294 248.107L294 269.893C294 271.057 293.057 272 291.893 272L270.107 272C268.943 272 268 271.057 268 269.893Z" fill="#5F605E" fill-rule="evenodd"/><path d="M295 248.107C295 246.943 295.943 246 297.107 246L318.893 246C320.057 246 321 246.943 321 248.107L321 269.893C321 271.057 320.057 272 318.893 272L297.107 272C295.943 272 295 271.057 295 269.893Z" fill="#D62CD0" fill-rule="evenodd"/><path d="M321 248.107C321 246.943 321.943 246 323.107 246L344.893 246C346.057 246 347 246.943 347 248.107L347 269.893C347 271.057 346.057 272 344.893 272L323.107 272C321.943 272 321 271.057 321 269.893Z" fill="#5F605E" fill-rule="evenodd"/><path d="M321 220.107C321 218.943 321.943 218 323.107 218L344.893 218C346.057 218 347 218.943 347 220.107L347 242.893C347 244.057 346.057 245 344.893 245L323.107 245C321.943 245 321 244.057 321 242.893Z" fill="#5F605E" fill-rule="evenodd"/><path d="M295 220.107C295 218.943 295.943 218 297.107 218L318.893 218C320.056 218 321 218.943 321 220.107L321 242.893C321 244.057 320.056 245 318.893 245L297.107 245C295.943 245 295 244.057 295 242.893Z" fill="#D62CD0" fill-rule="evenodd"/><path d="M268 220.107C268 218.943 268.943 218 270.107 218L291.893 218C293.057 218 294 218.943 294 220.107L294 242.893C294 244.057 293.057 245 291.893 245L270.107 245C268.943 245 268 244.057 268 242.893Z" fill="#5F605E" fill-rule="evenodd"/><path d="M341.776 259.743 340.255 257.065 340.255 256.975C340.347 254.509 339.102 252.191 337.014 250.945 334.927 249.685 332.333 249.685 330.246 250.945 328.155 252.187 326.907 254.507 327.005 256.975 326.998 259.091 327.96 261.089 329.607 262.375L329.607 268 336.573 268 336.573 265.323 337.653 265.323C338.35 265.327 339.018 265.043 339.505 264.535 339.988 264.029 340.257 263.351 340.255 262.645L340.255 261.295 341.225 261.295C341.8 261.25 342.307 260.575 341.776 259.743ZM333.033 258.877C333.464 258.81 333.689 259.361 333.422 259.729L333.383 259.78C333.099 260.135 332.51 260.06 332.468 259.618 332.444 259.358 332.111 259.092 331.957 259.293L330.98 260.575 330.084 259.863C329.886 259.706 330.148 259.366 330.401 259.341 330.836 259.299 330.909 258.698 330.561 258.408L330.511 258.368C330.15 258.096 329.61 258.325 329.676 258.765 329.715 259.022 329.456 259.365 329.259 259.208L328.413 258.536 329.395 257.248C329.549 257.047 329.213 256.782 328.961 256.822 328.53 256.889 328.305 256.338 328.572 255.97L328.611 255.919C328.896 255.565 329.484 255.639 329.526 256.082 329.55 256.34 329.884 256.607 330.037 256.406L331.015 255.123 331.855 255.791C332.052 255.949 331.791 256.288 331.537 256.313 331.103 256.355 331.03 256.956 331.378 257.246L331.428 257.286C331.789 257.559 332.329 257.329 332.263 256.889 332.224 256.632 332.482 256.289 332.681 256.447L333.582 257.162 332.599 258.451C332.446 258.652 332.781 258.917 333.033 258.877ZM336.376 255.15C336.208 255.283 335.988 254.991 336.021 254.772 336.078 254.397 335.607 254.21 335.299 254.441L335.256 254.475C334.959 254.723 335.032 255.226 335.402 255.263 335.618 255.285 335.841 255.575 335.672 255.708L334.951 256.28 334.115 255.181C333.984 255.01 333.7 255.237 333.679 255.457 333.643 255.835 333.149 255.909 332.907 255.606L332.873 255.562C332.646 255.247 332.829 254.767 333.197 254.825 333.412 254.859 333.698 254.634 333.567 254.462L332.735 253.369 333.452 252.8C333.621 252.667 333.841 252.958 333.808 253.178 333.751 253.553 334.222 253.74 334.53 253.509L334.574 253.475C334.87 253.227 334.798 252.724 334.428 252.687 334.211 252.666 333.988 252.376 334.157 252.242L334.926 251.633 335.762 252.731C335.893 252.903 336.177 252.676 336.198 252.455 336.234 252.077 336.728 252.004 336.97 252.307L337.003 252.35C337.23 252.665 337.047 253.145 336.679 253.087 336.465 253.053 336.179 253.278 336.309 253.45L337.141 254.545Z" fill="#FFFFFF" fill-rule="evenodd"/><path d="M290.04 231 279 231 279 237.545C279.002 238.147 279.431 238.635 279.96 238.636L289.56 238.636 289.56 240 291 240 291 232.091C290.999 231.489 290.57 231.002 290.04 231Z" fill="#FFFFFF" fill-rule="evenodd"/><path d="M272.543 228.813C272.551 228.372 272.218 228.008 271.799 228 271.79 228 271.781 228 271.771 228 271.353 227.992 271.008 228.342 271 228.783 271 228.793 271 228.803 271 228.813L271 241 272.543 241 272.543 238.292 280 238.292 280 235.583 272.543 232.333Z" fill="#FFFFFF" fill-rule="evenodd"/><path d="M278.5 228C278.5 228.829 277.828 229.5 277 229.5 276.171 229.5 275.5 228.829 275.5 228 275.5 227.172 276.171 226.5 277 226.5 277.828 226.5 278.5 227.172 278.5 228Z" stroke="#FFFFFF" stroke-width="4.58333" stroke-miterlimit="8" fill="#FFFFFF" fill-rule="evenodd"/><path d="M276.5 233.988 280.5 235.5 280.5 232.878 279.989 232.684C278.629 232.175 277.07 232.757 276.5 233.988Z" stroke="#FFFFFF" stroke-width="4.58333" stroke-miterlimit="8" fill="#FFFFFF" fill-rule="evenodd"/><path d="M315 225.2C315 222.89 313.925 221 311.75 221 309.575 221 309.65 222.05 307.5 222.05 305.35 222.05 305.425 221 303.25 221 301.075 221 300 222.89 300 225.2 300 227.51 301.75 229.794 301.75 231.763 301.75 233.626 301.5 235.201 301.5 236.488 301.5 237.774 301.475 242 303.25 242 305.025 242 305 238.168 305 236.488 305 234.808 305.2 232.288 307.5 232.288 309.8 232.288 310 234.808 310 236.488 310 238.168 309.975 242 311.75 242 313.525 242 313.5 237.774 313.5 236.488 313.5 235.201 313.25 233.626 313.25 231.763 313.25 229.794 315 227.51 315 225.2Z" fill="#FFFFFF" fill-rule="evenodd"/><path d="M276 265C276 266.105 275.105 267 274 267 272.895 267 272 266.105 272 265 272 263.895 272.895 263 274 263 275.105 263 276 263.895 276 265Z" stroke="#FFFFFF" stroke-width="2.29167" stroke-miterlimit="8" fill="#FFFFFF" fill-rule="evenodd"/><path d="M289 265C289 266.105 288.105 267 287 267 285.895 267 285 266.105 285 265 285 263.895 285.895 263 287 263 288.105 263 289 263.895 289 265Z" stroke="#FFFFFF" stroke-width="2.29167" stroke-miterlimit="8" fill="#FFFFFF" fill-rule="evenodd"/><path d="M291.56 260.918 290.102 259.736C289.911 259.584 289.775 259.364 289.717 259.116L289.167 257.077C288.887 256.07 288.029 255.375 287.05 255.364L286.5 255.364 286.5 253.886C286.5 253.397 286.13 253 285.675 253L285.125 253C284.669 253 284.3 253.397 284.3 253.886L284.3 255.364 284.3 255.364 284.3 254.773C284.3 254.12 283.807 253.591 283.2 253.591L271.1 253.591C270.492 253.591 270 254.12 270 254.773L270 264.818C270 265.471 270.492 266 271.1 266L271.65 266C271.65 264.368 272.881 263.046 274.4 263.046 275.919 263.046 277.15 264.368 277.15 266L285.4 266C285.4 264.368 286.631 263.046 288.15 263.046 289.669 263.046 290.9 264.368 290.9 266 291.507 266 292 265.471 292 264.818L292 261.864C292 261.492 291.837 261.141 291.56 260.918ZM281.069 259.736 280.244 261.273 278.8 260.386 278.8 262.159 277.15 262.159 277.15 260.369 275.706 261.255 274.881 259.719 276.325 258.832 274.881 257.946 275.706 256.41 277.15 257.296 277.15 255.505 278.8 255.505 278.8 257.299 280.244 256.413 281.069 257.949 279.625 258.835ZM285.4 259.5 285.4 256.545 287.05 256.545C287.54 256.538 287.972 256.892 288.095 257.402L288.645 259.441C288.645 259.471 288.672 259.471 288.672 259.5Z" fill="#FFFFFF" fill-rule="evenodd"/><path d="M331.5 231.5 331.5 225.941C331.5 224.582 332.625 223.471 334 223.471 335.375 223.471 336.5 224.582 336.5 225.941L336.5 231.5 331.5 231.5ZM339 237.059 339 225.941C339 223.224 336.75 221 334 221 331.25 221 329 223.224 329 225.941L329 237.059C329 239.777 331.25 242 334 242 336.75 242 339 239.777 339 237.059Z" stroke="#FFFFFF" stroke-width="2.29167" stroke-miterlimit="8" fill="#85D8D1" fill-rule="evenodd"/><path d="M331 233 331 228.5C331 226.015 332.567 224 334.5 224 336.433 224 338 226.015 338 228.5L338 233Z" stroke="#FFFFFF" stroke-width="2.29167" stroke-linejoin="round" stroke-miterlimit="10" fill="#FFFFFF" fill-rule="evenodd"/><path d="M313 251.5C313 252.328 312.105 253 311 253 309.896 253 309 252.328 309 251.5 309 250.672 309.896 250 311 250 312.105 250 313 250.672 313 251.5Z" fill="#FFFFFF" fill-rule="evenodd"/><path d="M315.551 253.464C315.127 253.232 314.619 253.394 314.407 253.858L313.665 255.388 310.403 253.139C310.275 253.046 310.127 253 309.958 253L306.356 253C306.038 253 305.763 253.186 305.614 253.487L304.237 256.27C304.004 256.71 304.174 257.29 304.576 257.522 304.703 257.591 304.852 257.638 304.979 257.638 305.275 257.638 305.572 257.452 305.72 257.151L306.864 254.855 308.114 254.855 304.365 262.507 300.848 262.507C300.381 262.507 300 262.925 300 263.435 300 263.945 300.381 264.362 300.848 264.362L304.873 264.362C305.191 264.362 305.466 264.177 305.614 263.875L307.098 260.884 309.534 263.365 309.343 268.026C309.301 268.536 309.661 268.977 310.127 269 310.148 269 310.148 269 310.17 269 310.614 269 310.996 268.606 311.017 268.119L311.229 263.017C311.25 262.739 311.144 262.484 310.953 262.299L308.898 260.212 311.059 255.806 313.517 257.499C313.708 257.638 313.962 257.684 314.195 257.615 314.428 257.545 314.619 257.383 314.725 257.151L315.89 254.716C316.123 254.275 315.975 253.719 315.551 253.464Z" fill="#FFFFFF" fill-rule="evenodd"/></g></svg>